M48
;DRILL file {KiCad 4.0.4-stable} date 10/17/16 20:18:01
;FORMAT={-:-/ absolute / inch / decimal}
FMAT,2
INCH,TZ
T1C0.016
T2C0.022
T3C0.028
T4C0.031
T5C0.032
T6C0.039
T7C0.040
T8C0.050
%
G90
G05
M72
T1
X3.369Y-4.165
X3.371Y-4.763
X3.4201Y-4.531
X3.422Y-4.926
X3.445Y-3.955
X3.4524Y-4.0092
X3.503Y-4.68
X3.5119Y-4.8259
X3.5581Y-4.6763
X3.561Y-4.59
X3.562Y-4.892
X3.563Y-4.827
X3.57Y-4.925
X3.5875Y-4.02
X3.5956Y-3.87
X3.598Y-4.318
X3.617Y-4.277
X3.6575Y-3.935
X3.6772Y-4.5948
X3.6814Y-4.7798
X3.72Y-4.87
X3.7551Y-4.044
X3.761Y-4.137
X3.763Y-4.102
X3.7631Y-4.305
X3.765Y-3.925
X3.7676Y-4.782
X3.8031Y-4.297
X3.8586Y-4.53
X3.8796Y-4.477
X3.881Y-4.401
X3.8811Y-4.065
X3.8944Y-3.9358
X3.9246Y-4.0195
X3.93Y-4.5625
X3.975Y-4.552
X3.988Y-4.256
X4.005Y-4.72
X4.0113Y-4.4749
X4.02Y-3.9225
X4.0654Y-4.252
X4.0686Y-4.443
X4.1101Y-4.3915
X4.1124Y-4.1284
X4.1149Y-4.0969
X4.1387Y-4.4438
X4.145Y-3.9225
X4.1545Y-4.0708
X4.1852Y-4.0924
X4.2134Y-4.1446
X4.2308Y-4.2548
X4.2375Y-4.795
X4.254Y-4.397
X4.2541Y-4.303
X4.268Y-4.523
X4.289Y-4.39
X4.31Y-4.526
X4.3331Y-3.999
X4.336Y-3.836
X4.3386Y-3.9615
X4.3405Y-4.553
X4.3456Y-3.7964
X4.3571Y-4.4595
X4.363Y-4.583
X4.3946Y-4.204
X4.4277Y-4.2513
X4.4326Y-4.014
T4
X3.4516Y-4.4
X3.55Y-4.4
T5
X3.258Y-3.7785
X3.258Y-3.9785
T6
X3.6749Y-4.2
T7
X3.1671Y-4.155
X3.1671Y-4.255
X3.1671Y-4.355
X3.1671Y-4.455
X3.1671Y-4.555
X3.1671Y-4.655
X3.1671Y-4.755
X3.1671Y-4.855
X3.4671Y-4.105
X3.4671Y-4.205
X3.5671Y-4.105
X3.5671Y-4.205
X3.911Y-3.777
X4.011Y-3.777
X4.07Y-4.6
X4.07Y-4.7
X4.07Y-4.8
X4.07Y-4.9
X4.17Y-4.6
X4.17Y-4.9
X4.3766Y-4.6545
X4.3801Y-4.794
X4.3801Y-4.894
X4.4766Y-4.6545
X4.4801Y-4.794
X4.4801Y-4.894
T8
X3.6749Y-3.8
T2
X4.3835Y-3.8715G85X4.3835Y-3.8538
G05
X4.3835Y-4.0683G85X4.3835Y-4.0506
G05
T3
X4.4986Y-3.8232G85X4.4809Y-3.8232
G05
X4.4986Y-4.0988G85X4.4809Y-4.0988
G05
T0
M30
