G04 #@! TF.FileFunction,Soldermask,Top*
%FSLAX46Y46*%
G04 Gerber Fmt 4.6, Leading zero omitted, Abs format (unit mm)*
G04 Created by KiCad (PCBNEW (2015-08-05 BZR 6055, Git fa29c62)-product) date 28/09/2015 12:51:56 PM*
%MOMM*%
G01*
G04 APERTURE LIST*
%ADD10C,0.100000*%
%ADD11R,0.750000X0.800000*%
%ADD12R,0.800000X0.750000*%
%ADD13C,1.501140*%
%ADD14C,1.998980*%
%ADD15R,1.998980X1.998980*%
%ADD16R,2.000000X2.000000*%
%ADD17R,1.600000X0.560000*%
%ADD18R,0.560000X1.600000*%
%ADD19R,2.032000X1.727200*%
%ADD20O,2.032000X1.727200*%
%ADD21R,1.350000X0.400000*%
%ADD22O,0.950000X1.250000*%
%ADD23O,1.550000X1.000000*%
%ADD24R,1.727200X2.032000*%
%ADD25O,1.727200X2.032000*%
%ADD26R,1.727200X1.727200*%
%ADD27O,1.727200X1.727200*%
%ADD28R,2.032000X2.032000*%
%ADD29O,2.032000X2.032000*%
%ADD30R,0.900000X0.600000*%
%ADD31R,0.500000X0.900000*%
%ADD32R,0.900000X0.500000*%
%ADD33R,0.600000X0.900000*%
%ADD34R,1.500000X0.600000*%
%ADD35R,0.508000X0.304800*%
G04 APERTURE END LIST*
D10*
D11*
X39319200Y-152682640D03*
X39319200Y-151182640D03*
X39278560Y-147088160D03*
X39278560Y-148588160D03*
X43682920Y-135526080D03*
X43682920Y-137026080D03*
D12*
X42864340Y-129816860D03*
X44364340Y-129816860D03*
D11*
X44226480Y-150805580D03*
X44226480Y-149305580D03*
D13*
X70855840Y-128137920D03*
X70855840Y-125597920D03*
D12*
X58795220Y-150964900D03*
X60295220Y-150964900D03*
D11*
X75072240Y-126224600D03*
X75072240Y-127724600D03*
X56596280Y-147961920D03*
X56596280Y-149461920D03*
D13*
X69230240Y-141175740D03*
X69230240Y-138635740D03*
D11*
X73941940Y-139143040D03*
X73941940Y-140643040D03*
D14*
X63820040Y-134800340D03*
D15*
X73980040Y-134800340D03*
D16*
X43665140Y-139105840D03*
X43665140Y-142305840D03*
D17*
X59977400Y-140626600D03*
X59977400Y-139826600D03*
X59977400Y-139026600D03*
X59977400Y-138226600D03*
X59977400Y-137426600D03*
X59977400Y-136626600D03*
X59977400Y-135826600D03*
X59977400Y-135026600D03*
X59977400Y-134226600D03*
X59977400Y-133426600D03*
X59977400Y-132626600D03*
D18*
X58127400Y-130776600D03*
X57327400Y-130776600D03*
X56527400Y-130776600D03*
X55727400Y-130776600D03*
X54927400Y-130776600D03*
X54127400Y-130776600D03*
X53327400Y-130776600D03*
X52527400Y-130776600D03*
X51727400Y-130776600D03*
X50927400Y-130776600D03*
X50127400Y-130776600D03*
D17*
X48277400Y-132626600D03*
X48277400Y-133426600D03*
X48277400Y-134226600D03*
X48277400Y-135026600D03*
X48277400Y-135826600D03*
X48277400Y-136626600D03*
X48277400Y-137426600D03*
X48277400Y-138226600D03*
X48277400Y-139026600D03*
X48277400Y-139826600D03*
X48277400Y-140626600D03*
D18*
X50127400Y-142476600D03*
X50927400Y-142476600D03*
X51727400Y-142476600D03*
X52527400Y-142476600D03*
X53327400Y-142476600D03*
X54127400Y-142476600D03*
X54927400Y-142476600D03*
X55727400Y-142476600D03*
X56527400Y-142476600D03*
X57327400Y-142476600D03*
X58127400Y-142476600D03*
D14*
X74117200Y-131899660D03*
D15*
X63957200Y-131899660D03*
D19*
X36258500Y-146100800D03*
D20*
X36258500Y-148640800D03*
X36258500Y-151180800D03*
X36258500Y-153720800D03*
D21*
X40127360Y-134599260D03*
X40127360Y-135249260D03*
X40127360Y-135899260D03*
X40127360Y-136549260D03*
X40127360Y-137199260D03*
D22*
X40127360Y-133399260D03*
X40127360Y-138399260D03*
D23*
X37427360Y-132399260D03*
X37427360Y-139399260D03*
D24*
X64861440Y-154310080D03*
D25*
X67401440Y-154310080D03*
X69941440Y-154310080D03*
X72481440Y-154310080D03*
D26*
X57718960Y-123718320D03*
D27*
X57718960Y-126258320D03*
X55178960Y-123718320D03*
X55178960Y-126258320D03*
D24*
X49342040Y-125089920D03*
D25*
X46802040Y-125089920D03*
X44262040Y-125089920D03*
D28*
X61328300Y-154012900D03*
D29*
X58788300Y-154012900D03*
D28*
X73741280Y-144505680D03*
D29*
X71201280Y-144505680D03*
D28*
X65714880Y-122570240D03*
D29*
X63174880Y-122570240D03*
D30*
X68435680Y-126309120D03*
X65635680Y-127259120D03*
X65635680Y-125359120D03*
D31*
X40983600Y-154289760D03*
X39483600Y-154289760D03*
X40968360Y-145481040D03*
X39468360Y-145481040D03*
D32*
X42484040Y-154338720D03*
X42484040Y-152838720D03*
X42400220Y-147272440D03*
X42400220Y-145772440D03*
D31*
X42827640Y-151102060D03*
X41327640Y-151102060D03*
X42771760Y-149009100D03*
X41271760Y-149009100D03*
D32*
X72517000Y-150209820D03*
X72517000Y-151709820D03*
X70081140Y-150059960D03*
X70081140Y-151559960D03*
X67487800Y-150133620D03*
X67487800Y-151633620D03*
X64823340Y-150019320D03*
X64823340Y-151519320D03*
X72478900Y-147352320D03*
X72478900Y-148852320D03*
X70004940Y-147088160D03*
X70004940Y-148588160D03*
X67449700Y-147047520D03*
X67449700Y-148547520D03*
X64785240Y-147009420D03*
X64785240Y-148509420D03*
D31*
X58673300Y-146011900D03*
X60173300Y-146011900D03*
X60198700Y-148577300D03*
X58698700Y-148577300D03*
X64608140Y-137822940D03*
X63108140Y-137822940D03*
X63146240Y-139816840D03*
X64646240Y-139816840D03*
X64608140Y-141988540D03*
X63108140Y-141988540D03*
D33*
X43642280Y-134191200D03*
X42692280Y-131391200D03*
X44592280Y-131391200D03*
D34*
X48417500Y-145770600D03*
X48417500Y-147040600D03*
X48417500Y-148310600D03*
X48417500Y-149580600D03*
X48417500Y-150850600D03*
X48417500Y-152120600D03*
X48417500Y-153390600D03*
X53817500Y-153390600D03*
X53817500Y-152120600D03*
X53817500Y-150850600D03*
X53817500Y-149580600D03*
X53817500Y-148310600D03*
X53817500Y-147040600D03*
X53817500Y-145770600D03*
D35*
X60243720Y-127838200D03*
X60243720Y-129108200D03*
X62275720Y-128473200D03*
X60243720Y-128473200D03*
X62275720Y-129108200D03*
X62275720Y-127838200D03*
D12*
X52036280Y-128427480D03*
X53536280Y-128427480D03*
X54445600Y-144200880D03*
X52945600Y-144200880D03*
M02*
