G04 #@! TF.FileFunction,Paste,Top*
%FSLAX46Y46*%
G04 Gerber Fmt 4.6, Leading zero omitted, Abs format (unit mm)*
G04 Created by KiCad (PCBNEW (2015-08-05 BZR 6055, Git fa29c62)-product) date 26/09/2015 2:23:25 PM*
%MOMM*%
G01*
G04 APERTURE LIST*
%ADD10C,0.100000*%
%ADD11R,0.750000X0.800000*%
%ADD12R,0.800000X0.750000*%
%ADD13R,2.000000X2.000000*%
%ADD14R,1.600000X0.560000*%
%ADD15R,0.560000X1.600000*%
%ADD16R,1.350000X0.400000*%
%ADD17R,0.900000X0.600000*%
%ADD18R,0.500000X0.900000*%
%ADD19R,0.900000X0.500000*%
%ADD20R,0.600000X0.900000*%
%ADD21R,1.500000X0.600000*%
%ADD22R,0.508000X0.304800*%
G04 APERTURE END LIST*
D10*
D11*
X39827200Y-152682640D03*
X39827200Y-151182640D03*
X39786560Y-147088160D03*
X39786560Y-148588160D03*
X44190920Y-135526080D03*
X44190920Y-137026080D03*
D12*
X43372340Y-129816860D03*
X44872340Y-129816860D03*
D11*
X44734480Y-150805580D03*
X44734480Y-149305580D03*
D12*
X59303220Y-150964900D03*
X60803220Y-150964900D03*
D11*
X75580240Y-126224600D03*
X75580240Y-127724600D03*
X57104280Y-147961920D03*
X57104280Y-149461920D03*
X74449940Y-139143040D03*
X74449940Y-140643040D03*
D13*
X44173140Y-139105840D03*
X44173140Y-142305840D03*
D14*
X60485400Y-140626600D03*
X60485400Y-139826600D03*
X60485400Y-139026600D03*
X60485400Y-138226600D03*
X60485400Y-137426600D03*
X60485400Y-136626600D03*
X60485400Y-135826600D03*
X60485400Y-135026600D03*
X60485400Y-134226600D03*
X60485400Y-133426600D03*
X60485400Y-132626600D03*
D15*
X58635400Y-130776600D03*
X57835400Y-130776600D03*
X57035400Y-130776600D03*
X56235400Y-130776600D03*
X55435400Y-130776600D03*
X54635400Y-130776600D03*
X53835400Y-130776600D03*
X53035400Y-130776600D03*
X52235400Y-130776600D03*
X51435400Y-130776600D03*
X50635400Y-130776600D03*
D14*
X48785400Y-132626600D03*
X48785400Y-133426600D03*
X48785400Y-134226600D03*
X48785400Y-135026600D03*
X48785400Y-135826600D03*
X48785400Y-136626600D03*
X48785400Y-137426600D03*
X48785400Y-138226600D03*
X48785400Y-139026600D03*
X48785400Y-139826600D03*
X48785400Y-140626600D03*
D15*
X50635400Y-142476600D03*
X51435400Y-142476600D03*
X52235400Y-142476600D03*
X53035400Y-142476600D03*
X53835400Y-142476600D03*
X54635400Y-142476600D03*
X55435400Y-142476600D03*
X56235400Y-142476600D03*
X57035400Y-142476600D03*
X57835400Y-142476600D03*
X58635400Y-142476600D03*
D16*
X40635360Y-134599260D03*
X40635360Y-135249260D03*
X40635360Y-135899260D03*
X40635360Y-136549260D03*
X40635360Y-137199260D03*
D17*
X68943680Y-126309120D03*
X66143680Y-127259120D03*
X66143680Y-125359120D03*
D18*
X41491600Y-154289760D03*
X39991600Y-154289760D03*
X41476360Y-145481040D03*
X39976360Y-145481040D03*
D19*
X42992040Y-154338720D03*
X42992040Y-152838720D03*
X42908220Y-147272440D03*
X42908220Y-145772440D03*
D18*
X43335640Y-151102060D03*
X41835640Y-151102060D03*
X43279760Y-149009100D03*
X41779760Y-149009100D03*
D19*
X73025000Y-150209820D03*
X73025000Y-151709820D03*
X70589140Y-150059960D03*
X70589140Y-151559960D03*
X67995800Y-150133620D03*
X67995800Y-151633620D03*
X65331340Y-150019320D03*
X65331340Y-151519320D03*
X72986900Y-147352320D03*
X72986900Y-148852320D03*
X70512940Y-147088160D03*
X70512940Y-148588160D03*
X67957700Y-147047520D03*
X67957700Y-148547520D03*
X65293240Y-147009420D03*
X65293240Y-148509420D03*
D18*
X59181300Y-146011900D03*
X60681300Y-146011900D03*
X60706700Y-148577300D03*
X59206700Y-148577300D03*
X65116140Y-137822940D03*
X63616140Y-137822940D03*
X63654240Y-139816840D03*
X65154240Y-139816840D03*
X65116140Y-141988540D03*
X63616140Y-141988540D03*
D20*
X44150280Y-134191200D03*
X43200280Y-131391200D03*
X45100280Y-131391200D03*
D21*
X48925500Y-145770600D03*
X48925500Y-147040600D03*
X48925500Y-148310600D03*
X48925500Y-149580600D03*
X48925500Y-150850600D03*
X48925500Y-152120600D03*
X48925500Y-153390600D03*
X54325500Y-153390600D03*
X54325500Y-152120600D03*
X54325500Y-150850600D03*
X54325500Y-149580600D03*
X54325500Y-148310600D03*
X54325500Y-147040600D03*
X54325500Y-145770600D03*
D22*
X60751720Y-127838200D03*
X60751720Y-129108200D03*
X62783720Y-128473200D03*
X60751720Y-128473200D03*
X62783720Y-129108200D03*
X62783720Y-127838200D03*
M02*
