G04 #@! TF.FileFunction,Copper,L2,Bot,Signal*
%FSLAX46Y46*%
G04 Gerber Fmt 4.6, Leading zero omitted, Abs format (unit mm)*
G04 Created by KiCad (PCBNEW (2015-08-05 BZR 6055, Git fa29c62)-product) date 28/09/2015 12:51:56 PM*
%MOMM*%
G01*
G04 APERTURE LIST*
%ADD10C,0.100000*%
%ADD11C,1.501140*%
%ADD12C,1.998980*%
%ADD13R,1.998980X1.998980*%
%ADD14R,2.032000X1.727200*%
%ADD15O,2.032000X1.727200*%
%ADD16O,0.950000X1.250000*%
%ADD17O,1.550000X1.000000*%
%ADD18R,1.727200X2.032000*%
%ADD19O,1.727200X2.032000*%
%ADD20R,1.727200X1.727200*%
%ADD21O,1.727200X1.727200*%
%ADD22R,2.032000X2.032000*%
%ADD23O,2.032000X2.032000*%
%ADD24C,0.600000*%
%ADD25C,1.160000*%
%ADD26C,0.580000*%
%ADD27C,0.254000*%
G04 APERTURE END LIST*
D10*
D11*
X70855840Y-128137920D03*
X70855840Y-125597920D03*
X69230240Y-141175740D03*
X69230240Y-138635740D03*
D12*
X63820040Y-134800340D03*
D13*
X73980040Y-134800340D03*
D12*
X74117200Y-131899660D03*
D13*
X63957200Y-131899660D03*
D14*
X36258500Y-146100800D03*
D15*
X36258500Y-148640800D03*
X36258500Y-151180800D03*
X36258500Y-153720800D03*
D16*
X40127360Y-133399260D03*
X40127360Y-138399260D03*
D17*
X37427360Y-132399260D03*
X37427360Y-139399260D03*
D18*
X64861440Y-154310080D03*
D19*
X67401440Y-154310080D03*
X69941440Y-154310080D03*
X72481440Y-154310080D03*
D20*
X57718960Y-123718320D03*
D21*
X57718960Y-126258320D03*
X55178960Y-123718320D03*
X55178960Y-126258320D03*
D18*
X49342040Y-125089920D03*
D19*
X46802040Y-125089920D03*
X44262040Y-125089920D03*
D22*
X61328300Y-154012900D03*
D23*
X58788300Y-154012900D03*
D22*
X73741280Y-144505680D03*
D23*
X71201280Y-144505680D03*
D22*
X65714880Y-122570240D03*
D23*
X63174880Y-122570240D03*
D24*
X49890680Y-149565360D03*
X55636160Y-147949920D03*
X46583600Y-149489160D03*
X46431200Y-134172960D03*
X53213000Y-126862840D03*
X49946560Y-128727200D03*
X63261240Y-126908560D03*
X63362840Y-128930400D03*
X51450240Y-144231360D03*
X45496480Y-149270720D03*
X54218840Y-133852920D03*
X52466240Y-133868160D03*
X55544720Y-144200880D03*
X45577760Y-151079200D03*
X48381920Y-142179040D03*
X51628040Y-149618700D03*
X43665140Y-144449800D03*
X65603120Y-128579880D03*
X57708800Y-146177000D03*
X61305440Y-144912080D03*
X56306720Y-141046200D03*
X48823880Y-144795240D03*
X55707280Y-150850600D03*
X56687720Y-146212560D03*
X55859680Y-128635760D03*
X57246520Y-128625600D03*
X58968640Y-128595120D03*
X60071000Y-126959360D03*
X60858400Y-130210560D03*
X58440320Y-132730240D03*
X54193440Y-133014720D03*
X50942240Y-133278880D03*
X45326300Y-135536940D03*
X42057320Y-135559800D03*
X45453300Y-136692640D03*
X42092880Y-136486900D03*
X71241920Y-147243800D03*
X51099720Y-137353040D03*
X68813680Y-147106640D03*
X50678080Y-138054080D03*
X66212720Y-147050760D03*
X49982120Y-139420600D03*
X63113920Y-146324320D03*
X50881280Y-139476480D03*
X51551840Y-132344160D03*
X55011320Y-127955040D03*
X57383680Y-133664960D03*
X55265320Y-136585960D03*
X52491640Y-136652000D03*
X56509920Y-144028160D03*
X52202080Y-147177760D03*
X57952640Y-141041120D03*
X48828960Y-143804640D03*
X45557440Y-145796000D03*
X44500800Y-147096480D03*
X64119760Y-127284480D03*
X61132720Y-128452880D03*
X60192920Y-147203160D03*
X57876440Y-149839680D03*
D25*
X46583600Y-144424400D02*
X46583600Y-134325360D01*
X46583600Y-134325360D02*
X46431200Y-134172960D01*
X49342040Y-125089920D02*
X49342040Y-127086360D01*
X49342040Y-127086360D02*
X48061880Y-128366520D01*
X48061880Y-128366520D02*
X46126400Y-128366520D01*
X46126400Y-128366520D02*
X45029120Y-129463800D01*
X45029120Y-129463800D02*
X45029120Y-132557520D01*
X45029120Y-132557520D02*
X46431200Y-133959600D01*
X46431200Y-133959600D02*
X46431200Y-134172960D01*
D26*
X49890680Y-149565360D02*
X51384200Y-148071840D01*
X51384200Y-148071840D02*
X55514240Y-148071840D01*
X55514240Y-148071840D02*
X55636160Y-147949920D01*
D27*
X55514240Y-148071840D02*
X51384200Y-148071840D01*
X55636160Y-147949920D02*
X55514240Y-148071840D01*
D26*
X46431200Y-134172960D02*
X46431200Y-133959600D01*
X48061880Y-128366520D02*
X49342040Y-127086360D01*
X46126400Y-128366520D02*
X48061880Y-128366520D01*
X45029120Y-129463800D02*
X46126400Y-128366520D01*
X45029120Y-132557520D02*
X45029120Y-129463800D01*
X46431200Y-133959600D02*
X45029120Y-132557520D01*
X46583600Y-144424400D02*
X46583600Y-149489160D01*
X46431200Y-134172960D02*
X46583600Y-134325360D01*
D27*
X53213000Y-126862840D02*
X53213000Y-125547120D01*
X53213000Y-125547120D02*
X55041800Y-123718320D01*
X55041800Y-123718320D02*
X55178960Y-123718320D01*
D25*
X51810920Y-126862840D02*
X53213000Y-126862840D01*
X49946560Y-128727200D02*
X51810920Y-126862840D01*
D27*
X63362840Y-127010160D02*
X63362840Y-128930400D01*
X63261240Y-126908560D02*
X63362840Y-127010160D01*
X50596800Y-145084800D02*
X51450240Y-144231360D01*
X50596800Y-146690080D02*
X50596800Y-145084800D01*
X46959520Y-150327360D02*
X50596800Y-146690080D01*
X46248320Y-150327360D02*
X46959520Y-150327360D01*
X45943520Y-150022560D02*
X46248320Y-150327360D01*
X45943520Y-149717760D02*
X45943520Y-150022560D01*
X45496480Y-149270720D02*
X45943520Y-149717760D01*
D26*
X52481480Y-133852920D02*
X54218840Y-133852920D01*
X52466240Y-133868160D02*
X52481480Y-133852920D01*
D27*
X53492400Y-144200880D02*
X55544720Y-144200880D01*
X51673760Y-146019520D02*
X53492400Y-144200880D01*
X51673760Y-146588480D02*
X51673760Y-146019520D01*
X48585120Y-149677120D02*
X51673760Y-146588480D01*
X48585120Y-150591520D02*
X48585120Y-149677120D01*
X47589440Y-151587200D02*
X48585120Y-150591520D01*
X46085760Y-151587200D02*
X47589440Y-151587200D01*
X45577760Y-151079200D02*
X46085760Y-151587200D01*
D25*
X74117200Y-131899660D02*
X74117200Y-128859280D01*
X74117200Y-128859280D02*
X70855840Y-125597920D01*
X50068480Y-134701280D02*
X50068480Y-135397240D01*
X50078640Y-135407400D02*
X51120040Y-135407400D01*
X50068480Y-135397240D02*
X50078640Y-135407400D01*
X48381920Y-142179040D02*
X48381920Y-136387840D01*
X57297320Y-135407400D02*
X62585600Y-130119120D01*
X51120040Y-135407400D02*
X57297320Y-135407400D01*
X48381920Y-136387840D02*
X50068480Y-134701280D01*
X62585600Y-130119120D02*
X64063880Y-130119120D01*
D26*
X48381920Y-142179040D02*
X48768000Y-141792960D01*
X48768000Y-141792960D02*
X48768000Y-136387840D01*
X48768000Y-136387840D02*
X50434240Y-134721600D01*
X50434240Y-134721600D02*
X57972960Y-134721600D01*
X57972960Y-134721600D02*
X57983120Y-134721600D01*
X57983120Y-134721600D02*
X61501020Y-131203700D01*
X61501020Y-131203700D02*
X62585600Y-130119120D01*
X62585600Y-130119120D02*
X63809880Y-130119120D01*
X63809880Y-130119120D02*
X64063880Y-130119120D01*
D25*
X51628040Y-151770080D02*
X51628040Y-149618700D01*
X49001680Y-154396440D02*
X51628040Y-151770080D01*
X43190160Y-154396440D02*
X49001680Y-154396440D01*
X42044620Y-153250900D02*
X43190160Y-154396440D01*
X42044620Y-146070320D02*
X42044620Y-153250900D01*
X43665140Y-144449800D02*
X42044620Y-146070320D01*
X64063880Y-130119120D02*
X65603120Y-128579880D01*
X66045080Y-128137920D02*
X65603120Y-128579880D01*
D27*
X66045080Y-128137920D02*
X65603120Y-128579880D01*
D26*
X64063880Y-130119120D02*
X65603120Y-128579880D01*
D25*
X61305440Y-144988280D02*
X61305440Y-144912080D01*
X60431680Y-145862040D02*
X61305440Y-144988280D01*
X58023760Y-145862040D02*
X60431680Y-145862040D01*
D26*
X57708800Y-146177000D02*
X58023760Y-145862040D01*
D25*
X70855840Y-128137920D02*
X66045080Y-128137920D01*
X73741280Y-144505680D02*
X73741280Y-143146780D01*
X73741280Y-143146780D02*
X69230240Y-138635740D01*
D26*
X73741280Y-143146780D02*
X69230240Y-138635740D01*
D25*
X63820040Y-134800340D02*
X63820040Y-132036820D01*
X63820040Y-132036820D02*
X63957200Y-131899660D01*
D27*
X53868320Y-143484600D02*
X56306720Y-141046200D01*
X50134520Y-143484600D02*
X53868320Y-143484600D01*
X48823880Y-144795240D02*
X50134520Y-143484600D01*
X56769000Y-149788880D02*
X55707280Y-150850600D01*
X56769000Y-146293840D02*
X56769000Y-149788880D01*
X56687720Y-146212560D02*
X56769000Y-146293840D01*
X57236360Y-128635760D02*
X55859680Y-128635760D01*
X57246520Y-128625600D02*
X57236360Y-128635760D01*
X58968640Y-128061720D02*
X58968640Y-128595120D01*
X60071000Y-126959360D02*
X58968640Y-128061720D01*
X60858400Y-130312160D02*
X60858400Y-130210560D01*
X58440320Y-132730240D02*
X60858400Y-130312160D01*
X51206400Y-133014720D02*
X54193440Y-133014720D01*
X50942240Y-133278880D02*
X51206400Y-133014720D01*
X42080180Y-135536940D02*
X45326300Y-135536940D01*
X42057320Y-135559800D02*
X42080180Y-135536940D01*
X42298620Y-136692640D02*
X45453300Y-136692640D01*
X42092880Y-136486900D02*
X42298620Y-136692640D01*
X70434200Y-147243800D02*
X71241920Y-147243800D01*
X69093080Y-145902680D02*
X70434200Y-147243800D01*
X66771520Y-145902680D02*
X69093080Y-145902680D01*
X66492120Y-145623280D02*
X66771520Y-145902680D01*
X66492120Y-145150840D02*
X66492120Y-145623280D01*
X58806080Y-137464800D02*
X66492120Y-145150840D01*
X51211480Y-137464800D02*
X58806080Y-137464800D01*
X51099720Y-137353040D02*
X51211480Y-137464800D01*
X67919600Y-147106640D02*
X68813680Y-147106640D01*
X67218560Y-146405600D02*
X67919600Y-147106640D01*
X65735200Y-146405600D02*
X67218560Y-146405600D01*
X65405000Y-146075400D02*
X65735200Y-146405600D01*
X65405000Y-145125440D02*
X65405000Y-146075400D01*
X58303160Y-138023600D02*
X65405000Y-145125440D01*
X50708560Y-138023600D02*
X58303160Y-138023600D01*
X50678080Y-138054080D02*
X50708560Y-138023600D01*
X65039240Y-147050760D02*
X66212720Y-147050760D01*
X64201040Y-146212560D02*
X65039240Y-147050760D01*
X64201040Y-144896840D02*
X64201040Y-146212560D01*
X58084720Y-138780520D02*
X64201040Y-144896840D01*
X50622200Y-138780520D02*
X58084720Y-138780520D01*
X49982120Y-139420600D02*
X50622200Y-138780520D01*
X63113920Y-144790160D02*
X63113920Y-146324320D01*
X57912000Y-139588240D02*
X63113920Y-144790160D01*
X50993040Y-139588240D02*
X57912000Y-139588240D01*
X50881280Y-139476480D02*
X50993040Y-139588240D01*
X51551840Y-129682240D02*
X51551840Y-132344160D01*
X51876960Y-129357120D02*
X51551840Y-129682240D01*
X53609240Y-129357120D02*
X51876960Y-129357120D01*
X55011320Y-127955040D02*
X53609240Y-129357120D01*
X58216800Y-126756160D02*
X57718960Y-126258320D01*
X56774080Y-127853440D02*
X55178960Y-126258320D01*
X57663080Y-127853440D02*
X56774080Y-127853440D01*
X58054240Y-128244600D02*
X57663080Y-127853440D01*
X58054240Y-129590800D02*
X58054240Y-128244600D01*
X57216040Y-130429000D02*
X58054240Y-129590800D01*
X57216040Y-133497320D02*
X57216040Y-130429000D01*
X57383680Y-133664960D02*
X57216040Y-133497320D01*
X52557680Y-136585960D02*
X55265320Y-136585960D01*
X52491640Y-136652000D02*
X52557680Y-136585960D01*
X56509920Y-144962880D02*
X56509920Y-144028160D01*
X54457600Y-147015200D02*
X56509920Y-144962880D01*
X52364640Y-147015200D02*
X54457600Y-147015200D01*
X52202080Y-147177760D02*
X52364640Y-147015200D01*
X57038240Y-140126720D02*
X57952640Y-141041120D01*
X52506880Y-140126720D02*
X57038240Y-140126720D01*
X48828960Y-143804640D02*
X52506880Y-140126720D01*
X45557440Y-146039840D02*
X45557440Y-145796000D01*
X44500800Y-147096480D02*
X45557440Y-146039840D01*
X65714880Y-125689360D02*
X65714880Y-122570240D01*
X64119760Y-127284480D02*
X65714880Y-125689360D01*
X61427360Y-124317760D02*
X63174880Y-122570240D01*
X61427360Y-128158240D02*
X61427360Y-124317760D01*
X61132720Y-128452880D02*
X61427360Y-128158240D01*
X60192920Y-147523200D02*
X60192920Y-147203160D01*
X57876440Y-149839680D02*
X60192920Y-147523200D01*
M02*
