G04 #@! TF.FileFunction,Copper,L1,Top,Signal*
%FSLAX46Y46*%
G04 Gerber Fmt 4.6, Leading zero omitted, Abs format (unit mm)*
G04 Created by KiCad (PCBNEW (2015-08-05 BZR 6055, Git fa29c62)-product) date 28/09/2015 12:51:56 PM*
%MOMM*%
G01*
G04 APERTURE LIST*
%ADD10C,0.100000*%
%ADD11C,0.250000*%
%ADD12R,0.750000X0.800000*%
%ADD13R,0.800000X0.750000*%
%ADD14C,1.501140*%
%ADD15C,1.998980*%
%ADD16R,1.998980X1.998980*%
%ADD17R,2.000000X2.000000*%
%ADD18R,1.600000X0.560000*%
%ADD19R,0.560000X1.600000*%
%ADD20R,2.032000X1.727200*%
%ADD21O,2.032000X1.727200*%
%ADD22R,1.350000X0.400000*%
%ADD23O,0.950000X1.250000*%
%ADD24O,1.550000X1.000000*%
%ADD25R,1.727200X2.032000*%
%ADD26O,1.727200X2.032000*%
%ADD27R,1.727200X1.727200*%
%ADD28O,1.727200X1.727200*%
%ADD29R,2.032000X2.032000*%
%ADD30O,2.032000X2.032000*%
%ADD31R,0.900000X0.600000*%
%ADD32R,0.500000X0.900000*%
%ADD33R,0.900000X0.500000*%
%ADD34R,0.600000X0.900000*%
%ADD35R,1.500000X0.600000*%
%ADD36R,0.508000X0.304800*%
%ADD37C,0.600000*%
%ADD38C,0.254000*%
%ADD39C,0.580000*%
%ADD40C,1.160000*%
G04 APERTURE END LIST*
D10*
D11*
X33988644Y-118352821D02*
X34560073Y-118352821D01*
X34274358Y-119352821D02*
X34274358Y-118352821D01*
X34893406Y-119352821D02*
X34893406Y-118352821D01*
X35369596Y-119352821D02*
X35369596Y-118352821D01*
X35941025Y-119352821D01*
X35941025Y-118352821D01*
X36607691Y-118876630D02*
X36607691Y-119352821D01*
X36274358Y-118352821D02*
X36607691Y-118876630D01*
X36941025Y-118352821D01*
X37750549Y-119352821D02*
X37274358Y-119352821D01*
X37274358Y-118352821D01*
X38036263Y-119067107D02*
X38512454Y-119067107D01*
X37941025Y-119352821D02*
X38274358Y-118352821D01*
X38607692Y-119352821D01*
X39274359Y-118829011D02*
X39417216Y-118876630D01*
X39464835Y-118924250D01*
X39512454Y-119019488D01*
X39512454Y-119162345D01*
X39464835Y-119257583D01*
X39417216Y-119305202D01*
X39321978Y-119352821D01*
X38941025Y-119352821D01*
X38941025Y-118352821D01*
X39274359Y-118352821D01*
X39369597Y-118400440D01*
X39417216Y-118448059D01*
X39464835Y-118543297D01*
X39464835Y-118638535D01*
X39417216Y-118733773D01*
X39369597Y-118781392D01*
X39274359Y-118829011D01*
X38941025Y-118829011D01*
X40702930Y-119352821D02*
X40702930Y-118352821D01*
X41083883Y-118352821D01*
X41179121Y-118400440D01*
X41226740Y-118448059D01*
X41274359Y-118543297D01*
X41274359Y-118686154D01*
X41226740Y-118781392D01*
X41179121Y-118829011D01*
X41083883Y-118876630D01*
X40702930Y-118876630D01*
X42274359Y-119257583D02*
X42226740Y-119305202D01*
X42083883Y-119352821D01*
X41988645Y-119352821D01*
X41845787Y-119305202D01*
X41750549Y-119209964D01*
X41702930Y-119114726D01*
X41655311Y-118924250D01*
X41655311Y-118781392D01*
X41702930Y-118590916D01*
X41750549Y-118495678D01*
X41845787Y-118400440D01*
X41988645Y-118352821D01*
X42083883Y-118352821D01*
X42226740Y-118400440D01*
X42274359Y-118448059D01*
X43036264Y-118829011D02*
X43179121Y-118876630D01*
X43226740Y-118924250D01*
X43274359Y-119019488D01*
X43274359Y-119162345D01*
X43226740Y-119257583D01*
X43179121Y-119305202D01*
X43083883Y-119352821D01*
X42702930Y-119352821D01*
X42702930Y-118352821D01*
X43036264Y-118352821D01*
X43131502Y-118400440D01*
X43179121Y-118448059D01*
X43226740Y-118543297D01*
X43226740Y-118638535D01*
X43179121Y-118733773D01*
X43131502Y-118781392D01*
X43036264Y-118829011D01*
X42702930Y-118829011D01*
X35631501Y-121002821D02*
X35631501Y-120002821D01*
X36012454Y-120002821D01*
X36107692Y-120050440D01*
X36155311Y-120098059D01*
X36202930Y-120193297D01*
X36202930Y-120336154D01*
X36155311Y-120431392D01*
X36107692Y-120479011D01*
X36012454Y-120526630D01*
X35631501Y-120526630D01*
X37202930Y-121002821D02*
X36869596Y-120526630D01*
X36631501Y-121002821D02*
X36631501Y-120002821D01*
X37012454Y-120002821D01*
X37107692Y-120050440D01*
X37155311Y-120098059D01*
X37202930Y-120193297D01*
X37202930Y-120336154D01*
X37155311Y-120431392D01*
X37107692Y-120479011D01*
X37012454Y-120526630D01*
X36631501Y-120526630D01*
X37821977Y-120002821D02*
X38012454Y-120002821D01*
X38107692Y-120050440D01*
X38202930Y-120145678D01*
X38250549Y-120336154D01*
X38250549Y-120669488D01*
X38202930Y-120859964D01*
X38107692Y-120955202D01*
X38012454Y-121002821D01*
X37821977Y-121002821D01*
X37726739Y-120955202D01*
X37631501Y-120859964D01*
X37583882Y-120669488D01*
X37583882Y-120336154D01*
X37631501Y-120145678D01*
X37726739Y-120050440D01*
X37821977Y-120002821D01*
X38536263Y-120002821D02*
X39107692Y-120002821D01*
X38821977Y-121002821D02*
X38821977Y-120002821D01*
X39631501Y-120002821D02*
X39821978Y-120002821D01*
X39917216Y-120050440D01*
X40012454Y-120145678D01*
X40060073Y-120336154D01*
X40060073Y-120669488D01*
X40012454Y-120859964D01*
X39917216Y-120955202D01*
X39821978Y-121002821D01*
X39631501Y-121002821D01*
X39536263Y-120955202D01*
X39441025Y-120859964D01*
X39393406Y-120669488D01*
X39393406Y-120336154D01*
X39441025Y-120145678D01*
X39536263Y-120050440D01*
X39631501Y-120002821D01*
X41774359Y-121002821D02*
X41202930Y-121002821D01*
X41488644Y-121002821D02*
X41488644Y-120002821D01*
X41393406Y-120145678D01*
X41298168Y-120240916D01*
X41202930Y-120288535D01*
D12*
X39319200Y-152682640D03*
X39319200Y-151182640D03*
X39278560Y-147088160D03*
X39278560Y-148588160D03*
X43682920Y-135526080D03*
X43682920Y-137026080D03*
D13*
X42864340Y-129816860D03*
X44364340Y-129816860D03*
D12*
X44226480Y-150805580D03*
X44226480Y-149305580D03*
D14*
X70855840Y-128137920D03*
X70855840Y-125597920D03*
D13*
X58795220Y-150964900D03*
X60295220Y-150964900D03*
D12*
X75072240Y-126224600D03*
X75072240Y-127724600D03*
X56596280Y-147961920D03*
X56596280Y-149461920D03*
D14*
X69230240Y-141175740D03*
X69230240Y-138635740D03*
D12*
X73941940Y-139143040D03*
X73941940Y-140643040D03*
D15*
X63820040Y-134800340D03*
D16*
X73980040Y-134800340D03*
D17*
X43665140Y-139105840D03*
X43665140Y-142305840D03*
D18*
X59977400Y-140626600D03*
X59977400Y-139826600D03*
X59977400Y-139026600D03*
X59977400Y-138226600D03*
X59977400Y-137426600D03*
X59977400Y-136626600D03*
X59977400Y-135826600D03*
X59977400Y-135026600D03*
X59977400Y-134226600D03*
X59977400Y-133426600D03*
X59977400Y-132626600D03*
D19*
X58127400Y-130776600D03*
X57327400Y-130776600D03*
X56527400Y-130776600D03*
X55727400Y-130776600D03*
X54927400Y-130776600D03*
X54127400Y-130776600D03*
X53327400Y-130776600D03*
X52527400Y-130776600D03*
X51727400Y-130776600D03*
X50927400Y-130776600D03*
X50127400Y-130776600D03*
D18*
X48277400Y-132626600D03*
X48277400Y-133426600D03*
X48277400Y-134226600D03*
X48277400Y-135026600D03*
X48277400Y-135826600D03*
X48277400Y-136626600D03*
X48277400Y-137426600D03*
X48277400Y-138226600D03*
X48277400Y-139026600D03*
X48277400Y-139826600D03*
X48277400Y-140626600D03*
D19*
X50127400Y-142476600D03*
X50927400Y-142476600D03*
X51727400Y-142476600D03*
X52527400Y-142476600D03*
X53327400Y-142476600D03*
X54127400Y-142476600D03*
X54927400Y-142476600D03*
X55727400Y-142476600D03*
X56527400Y-142476600D03*
X57327400Y-142476600D03*
X58127400Y-142476600D03*
D15*
X74117200Y-131899660D03*
D16*
X63957200Y-131899660D03*
D20*
X36258500Y-146100800D03*
D21*
X36258500Y-148640800D03*
X36258500Y-151180800D03*
X36258500Y-153720800D03*
D22*
X40127360Y-134599260D03*
X40127360Y-135249260D03*
X40127360Y-135899260D03*
X40127360Y-136549260D03*
X40127360Y-137199260D03*
D23*
X40127360Y-133399260D03*
X40127360Y-138399260D03*
D24*
X37427360Y-132399260D03*
X37427360Y-139399260D03*
D25*
X64861440Y-154310080D03*
D26*
X67401440Y-154310080D03*
X69941440Y-154310080D03*
X72481440Y-154310080D03*
D27*
X57718960Y-123718320D03*
D28*
X57718960Y-126258320D03*
X55178960Y-123718320D03*
X55178960Y-126258320D03*
D25*
X49342040Y-125089920D03*
D26*
X46802040Y-125089920D03*
X44262040Y-125089920D03*
D29*
X61328300Y-154012900D03*
D30*
X58788300Y-154012900D03*
D29*
X73741280Y-144505680D03*
D30*
X71201280Y-144505680D03*
D29*
X65714880Y-122570240D03*
D30*
X63174880Y-122570240D03*
D31*
X68435680Y-126309120D03*
X65635680Y-127259120D03*
X65635680Y-125359120D03*
D32*
X40983600Y-154289760D03*
X39483600Y-154289760D03*
X40968360Y-145481040D03*
X39468360Y-145481040D03*
D33*
X42484040Y-154338720D03*
X42484040Y-152838720D03*
X42400220Y-147272440D03*
X42400220Y-145772440D03*
D32*
X42827640Y-151102060D03*
X41327640Y-151102060D03*
X42771760Y-149009100D03*
X41271760Y-149009100D03*
D33*
X72517000Y-150209820D03*
X72517000Y-151709820D03*
X70081140Y-150059960D03*
X70081140Y-151559960D03*
X67487800Y-150133620D03*
X67487800Y-151633620D03*
X64823340Y-150019320D03*
X64823340Y-151519320D03*
X72478900Y-147352320D03*
X72478900Y-148852320D03*
X70004940Y-147088160D03*
X70004940Y-148588160D03*
X67449700Y-147047520D03*
X67449700Y-148547520D03*
X64785240Y-147009420D03*
X64785240Y-148509420D03*
D32*
X58673300Y-146011900D03*
X60173300Y-146011900D03*
X60198700Y-148577300D03*
X58698700Y-148577300D03*
X64608140Y-137822940D03*
X63108140Y-137822940D03*
X63146240Y-139816840D03*
X64646240Y-139816840D03*
X64608140Y-141988540D03*
X63108140Y-141988540D03*
D34*
X43642280Y-134191200D03*
X42692280Y-131391200D03*
X44592280Y-131391200D03*
D35*
X48417500Y-145770600D03*
X48417500Y-147040600D03*
X48417500Y-148310600D03*
X48417500Y-149580600D03*
X48417500Y-150850600D03*
X48417500Y-152120600D03*
X48417500Y-153390600D03*
X53817500Y-153390600D03*
X53817500Y-152120600D03*
X53817500Y-150850600D03*
X53817500Y-149580600D03*
X53817500Y-148310600D03*
X53817500Y-147040600D03*
X53817500Y-145770600D03*
D36*
X60243720Y-127838200D03*
X60243720Y-129108200D03*
X62275720Y-128473200D03*
X60243720Y-128473200D03*
X62275720Y-129108200D03*
X62275720Y-127838200D03*
D13*
X52036280Y-128427480D03*
X53536280Y-128427480D03*
X54445600Y-144200880D03*
X52945600Y-144200880D03*
D37*
X49890680Y-149565360D03*
X55636160Y-147949920D03*
X46583600Y-149489160D03*
X46431200Y-134172960D03*
X53213000Y-126862840D03*
X49946560Y-128727200D03*
X63261240Y-126908560D03*
X63362840Y-128930400D03*
X51450240Y-144231360D03*
X45496480Y-149270720D03*
X54218840Y-133852920D03*
X52466240Y-133868160D03*
X55544720Y-144200880D03*
X45577760Y-151079200D03*
X48381920Y-142179040D03*
X51628040Y-149618700D03*
X43665140Y-144449800D03*
X65603120Y-128579880D03*
X57708800Y-146177000D03*
X61305440Y-144912080D03*
X56306720Y-141046200D03*
X48823880Y-144795240D03*
X55707280Y-150850600D03*
X56687720Y-146212560D03*
X55859680Y-128635760D03*
X57246520Y-128625600D03*
X58968640Y-128595120D03*
X60071000Y-126959360D03*
X60858400Y-130210560D03*
X58440320Y-132730240D03*
X54193440Y-133014720D03*
X50942240Y-133278880D03*
X45326300Y-135536940D03*
X42057320Y-135559800D03*
X45453300Y-136692640D03*
X42092880Y-136486900D03*
X71241920Y-147243800D03*
X51099720Y-137353040D03*
X68813680Y-147106640D03*
X50678080Y-138054080D03*
X66212720Y-147050760D03*
X49982120Y-139420600D03*
X63113920Y-146324320D03*
X50881280Y-139476480D03*
X51551840Y-132344160D03*
X55011320Y-127955040D03*
X57383680Y-133664960D03*
X55265320Y-136585960D03*
X52491640Y-136652000D03*
X56509920Y-144028160D03*
X52202080Y-147177760D03*
X57952640Y-141041120D03*
X48828960Y-143804640D03*
X45557440Y-145796000D03*
X44500800Y-147096480D03*
X64119760Y-127284480D03*
X61132720Y-128452880D03*
X60192920Y-147203160D03*
X57876440Y-149839680D03*
D11*
X39483600Y-154289760D02*
X36827460Y-154289760D01*
X36827460Y-154289760D02*
X36258500Y-153720800D01*
X39483600Y-154289760D02*
X39483600Y-152847040D01*
X39483600Y-152847040D02*
X39319200Y-152682640D01*
X39319200Y-151182640D02*
X36260340Y-151182640D01*
X36260340Y-151182640D02*
X36258500Y-151180800D01*
X39468360Y-145481040D02*
X39468360Y-146898360D01*
X39468360Y-146898360D02*
X39278560Y-147088160D01*
X39468360Y-145481040D02*
X36878260Y-145481040D01*
X36878260Y-145481040D02*
X36258500Y-146100800D01*
X39278560Y-148588160D02*
X36311140Y-148588160D01*
X36311140Y-148588160D02*
X36258500Y-148640800D01*
D38*
X56596280Y-147961920D02*
X55648160Y-147961920D01*
X49875440Y-149580600D02*
X48417500Y-149580600D01*
X49890680Y-149565360D02*
X49875440Y-149580600D01*
X55648160Y-147961920D02*
X55636160Y-147949920D01*
D39*
X43642280Y-134191200D02*
X46412960Y-134191200D01*
X46675040Y-149580600D02*
X48417500Y-149580600D01*
X46583600Y-149489160D02*
X46675040Y-149580600D01*
X46412960Y-134191200D02*
X46431200Y-134172960D01*
D38*
X43682920Y-135526080D02*
X43682920Y-134231840D01*
X43682920Y-134231840D02*
X43642280Y-134191200D01*
X40127360Y-134599260D02*
X43234220Y-134599260D01*
X43234220Y-134599260D02*
X43642280Y-134191200D01*
X56527400Y-130776600D02*
X56527400Y-128277920D01*
X56967120Y-127838200D02*
X58643520Y-127838200D01*
X56527400Y-128277920D02*
X56967120Y-127838200D01*
D40*
X46370240Y-129804160D02*
X48869600Y-129804160D01*
X53536280Y-127186120D02*
X53536280Y-128427480D01*
X53213000Y-126862840D02*
X53536280Y-127186120D01*
X48869600Y-129804160D02*
X49946560Y-128727200D01*
D39*
X53327400Y-142476600D02*
X53327400Y-132359400D01*
X53327400Y-132359400D02*
X53327400Y-132267960D01*
X53327400Y-132267960D02*
X53327400Y-130796598D01*
X53327400Y-130796598D02*
X53307402Y-130776600D01*
X53307402Y-130776600D02*
X53327400Y-130776600D01*
X53327400Y-130776600D02*
X53327400Y-128636360D01*
X53327400Y-128636360D02*
X53536280Y-128427480D01*
D40*
X44592280Y-131391200D02*
X44592280Y-130044800D01*
X44592280Y-130044800D02*
X44364340Y-129816860D01*
X46410880Y-129804160D02*
X46370240Y-129804160D01*
X46370240Y-129804160D02*
X44377040Y-129804160D01*
X44377040Y-129804160D02*
X44364340Y-129816860D01*
X43665140Y-139105840D02*
X43665140Y-137043860D01*
X43665140Y-137043860D02*
X43682920Y-137026080D01*
D38*
X62585600Y-126232920D02*
X63261240Y-126908560D01*
X59877960Y-126232920D02*
X62585600Y-126232920D01*
X63185040Y-129108200D02*
X62275720Y-129108200D01*
X63362840Y-128930400D02*
X63185040Y-129108200D01*
X59888120Y-126232920D02*
X59877960Y-126232920D01*
X58643520Y-127467360D02*
X59877960Y-126232920D01*
X59877960Y-126232920D02*
X59888120Y-126232920D01*
X58643520Y-127838200D02*
X58643520Y-127467360D01*
X60243720Y-127838200D02*
X58643520Y-127838200D01*
X55178960Y-123718320D02*
X55158640Y-123718320D01*
X46398180Y-129816860D02*
X44364340Y-129816860D01*
X46410880Y-129804160D02*
X46398180Y-129816860D01*
D39*
X43665140Y-137043860D02*
X43682920Y-137026080D01*
D38*
X44592280Y-130044800D02*
X44364340Y-129816860D01*
X40127360Y-137199260D02*
X43509740Y-137199260D01*
X43509740Y-137199260D02*
X43682920Y-137026080D01*
X40127360Y-138399260D02*
X40127360Y-137199260D01*
X37427360Y-139399260D02*
X37427360Y-132399260D01*
D39*
X40127360Y-133399260D02*
X41190180Y-133399260D01*
X44592280Y-132313640D02*
X44592280Y-131391200D01*
X44094400Y-132811520D02*
X44592280Y-132313640D01*
X41777920Y-132811520D02*
X44094400Y-132811520D01*
X41190180Y-133399260D02*
X41777920Y-132811520D01*
X40127360Y-133399260D02*
X39942500Y-133399260D01*
X39942500Y-133399260D02*
X38942500Y-132399260D01*
X38942500Y-132399260D02*
X37427360Y-132399260D01*
X40127360Y-138399260D02*
X40127360Y-138505760D01*
X40127360Y-138505760D02*
X39233860Y-139399260D01*
X39233860Y-139399260D02*
X37427360Y-139399260D01*
X53327400Y-142476600D02*
X53327400Y-143819080D01*
X53327400Y-143819080D02*
X52945600Y-144200880D01*
X52945600Y-144200880D02*
X51480720Y-144200880D01*
X51480720Y-144200880D02*
X51450240Y-144231360D01*
D38*
X44226480Y-149305580D02*
X45461620Y-149305580D01*
X51450240Y-144231360D02*
X51480720Y-144200880D01*
X45461620Y-149305580D02*
X45496480Y-149270720D01*
X52945600Y-144200880D02*
X52945600Y-144000920D01*
X52945600Y-144000920D02*
X53327400Y-143619120D01*
X53327400Y-143619120D02*
X53327400Y-142476600D01*
D11*
X42771760Y-149009100D02*
X43930000Y-149009100D01*
X43930000Y-149009100D02*
X44226480Y-149305580D01*
D39*
X52527400Y-130776600D02*
X52527400Y-133807000D01*
X54107402Y-133964358D02*
X54107402Y-142476600D01*
X54218840Y-133852920D02*
X54107402Y-133964358D01*
X52527400Y-133807000D02*
X52466240Y-133868160D01*
X54107402Y-142476600D02*
X54127400Y-142476600D01*
X54107402Y-142476600D02*
X54127400Y-142476600D01*
D40*
X42692280Y-131391200D02*
X42692280Y-129988920D01*
X42692280Y-129988920D02*
X42864340Y-129816860D01*
X52036280Y-128427480D02*
X52036280Y-128419160D01*
X52036280Y-128419160D02*
X51257200Y-127640080D01*
D39*
X52036280Y-128427480D02*
X52036280Y-128652840D01*
X52036280Y-128652840D02*
X52527400Y-129143960D01*
X52527400Y-129143960D02*
X52527400Y-130776600D01*
X57718960Y-123718320D02*
X57718960Y-122763280D01*
X57718960Y-122763280D02*
X57058560Y-122102880D01*
X57058560Y-122102880D02*
X54538880Y-122102880D01*
X54538880Y-122102880D02*
X51734720Y-124907040D01*
X51734720Y-124907040D02*
X51734720Y-127162560D01*
X51734720Y-127162560D02*
X51257200Y-127640080D01*
D40*
X44145200Y-127071120D02*
X50688240Y-127071120D01*
X50688240Y-127071120D02*
X51257200Y-127640080D01*
X42864340Y-129816860D02*
X42864340Y-128351980D01*
X42864340Y-128351980D02*
X44145200Y-127071120D01*
X44145200Y-127071120D02*
X44145200Y-125206760D01*
X44145200Y-125206760D02*
X44262040Y-125089920D01*
D38*
X51734720Y-124907040D02*
X51734720Y-128117600D01*
X54538880Y-122102880D02*
X51734720Y-124907040D01*
X57058560Y-122102880D02*
X54538880Y-122102880D01*
X57718960Y-122763280D02*
X57058560Y-122102880D01*
D39*
X50688240Y-127071120D02*
X51734720Y-128117600D01*
X42864340Y-128351980D02*
X44145200Y-127071120D01*
X44145200Y-127071120D02*
X44262040Y-126954280D01*
X44262040Y-126954280D02*
X44262040Y-125089920D01*
D38*
X42692280Y-129988920D02*
X42864340Y-129816860D01*
D39*
X54127400Y-142476600D02*
X54127400Y-143882680D01*
X54127400Y-143882680D02*
X54445600Y-144200880D01*
X54445600Y-144200880D02*
X55544720Y-144200880D01*
D38*
X44226480Y-150805580D02*
X45304140Y-150805580D01*
X45304140Y-150805580D02*
X45577760Y-151079200D01*
X54445600Y-144200880D02*
X54234080Y-144200880D01*
X54234080Y-144200880D02*
X54127400Y-144094200D01*
X54127400Y-144094200D02*
X54127400Y-142476600D01*
D11*
X42827640Y-151102060D02*
X43930000Y-151102060D01*
X43930000Y-151102060D02*
X44226480Y-150805580D01*
D40*
X70855840Y-125597920D02*
X74445560Y-125597920D01*
X74445560Y-125597920D02*
X75072240Y-126224600D01*
X46802040Y-125089920D02*
X46802040Y-123987560D01*
X70855840Y-122646440D02*
X70855840Y-125597920D01*
X68112640Y-119903240D02*
X70855840Y-122646440D01*
X50886360Y-119903240D02*
X68112640Y-119903240D01*
X46802040Y-123987560D02*
X50886360Y-119903240D01*
D38*
X74445560Y-125597920D02*
X75072240Y-126224600D01*
D39*
X58795220Y-150964900D02*
X58795220Y-154005980D01*
X58795220Y-154005980D02*
X58788300Y-154012900D01*
D38*
X58788300Y-154012900D02*
X58788300Y-150971820D01*
X58788300Y-150971820D02*
X58795220Y-150964900D01*
D39*
X60295220Y-150964900D02*
X60439300Y-150964900D01*
X60439300Y-150964900D02*
X61328300Y-151853900D01*
X61328300Y-151853900D02*
X61328300Y-154012900D01*
X60198700Y-148577300D02*
X60198700Y-150868380D01*
X60198700Y-150868380D02*
X60295220Y-150964900D01*
D38*
X60198700Y-150868380D02*
X60295220Y-150964900D01*
X60286900Y-150956580D02*
X60295220Y-150964900D01*
X60439300Y-150964900D02*
X61328300Y-151853900D01*
X61328300Y-151853900D02*
X61328300Y-154012900D01*
D39*
X56596280Y-149461920D02*
X57106120Y-149461920D01*
X57106120Y-149461920D02*
X57708800Y-148859240D01*
X51628040Y-149618700D02*
X53779400Y-149618700D01*
X53779400Y-149618700D02*
X53936180Y-149461920D01*
X53936180Y-149461920D02*
X56596280Y-149461920D01*
X56596280Y-149461920D02*
X53936180Y-149461920D01*
X53936180Y-149461920D02*
X53817500Y-149580600D01*
D40*
X43665140Y-142305840D02*
X48255120Y-142305840D01*
X48255120Y-142305840D02*
X48381920Y-142179040D01*
D39*
X48255120Y-142305840D02*
X48381920Y-142179040D01*
D38*
X53817500Y-149580600D02*
X56477600Y-149580600D01*
X56477600Y-149580600D02*
X56596280Y-149461920D01*
D40*
X43665140Y-142305840D02*
X43665140Y-144449800D01*
D39*
X51666140Y-149580600D02*
X53817500Y-149580600D01*
X51628040Y-149618700D02*
X51666140Y-149580600D01*
X57708800Y-148859240D02*
X57708800Y-146177000D01*
X65603120Y-128579880D02*
X65635680Y-128547320D01*
D40*
X63108140Y-143109380D02*
X63108140Y-143080040D01*
X61305440Y-144912080D02*
X63108140Y-143109380D01*
X63108140Y-141988540D02*
X63108140Y-143080040D01*
X63108140Y-143080040D02*
X63553340Y-143525240D01*
X63553340Y-143525240D02*
X66880740Y-143525240D01*
X66880740Y-143525240D02*
X69230240Y-141175740D01*
X69230240Y-141175740D02*
X73409240Y-141175740D01*
X73409240Y-141175740D02*
X73941940Y-140643040D01*
X71201280Y-144505680D02*
X69829680Y-144505680D01*
X69829680Y-144505680D02*
X69230240Y-143906240D01*
X69230240Y-143906240D02*
X69230240Y-141175740D01*
D39*
X69230240Y-141175740D02*
X66880740Y-143525240D01*
X66880740Y-143525240D02*
X63553340Y-143525240D01*
X63553340Y-143525240D02*
X63108140Y-143080040D01*
X73409240Y-141175740D02*
X73941940Y-140643040D01*
X69230240Y-143906240D02*
X69230240Y-141175740D01*
X69829680Y-144505680D02*
X69230240Y-143906240D01*
D38*
X63108140Y-141988540D02*
X62923420Y-141988540D01*
D40*
X70855840Y-128137920D02*
X74658920Y-128137920D01*
X74658920Y-128137920D02*
X75072240Y-127724600D01*
D39*
X65635680Y-128547320D02*
X65635680Y-127259120D01*
D38*
X74658920Y-128137920D02*
X75072240Y-127724600D01*
X73409240Y-141175740D02*
X73941940Y-140643040D01*
X63553340Y-143525240D02*
X66880740Y-143525240D01*
X63108140Y-143080040D02*
X63553340Y-143525240D01*
X63108140Y-141988540D02*
X63108140Y-143080040D01*
D40*
X73941940Y-139143040D02*
X73727880Y-139143040D01*
X73727880Y-139143040D02*
X73220580Y-138635740D01*
X73220580Y-138635740D02*
X69230240Y-138635740D01*
X73941940Y-139143040D02*
X73941940Y-134838440D01*
X73941940Y-134838440D02*
X73980040Y-134800340D01*
D39*
X73941940Y-134838440D02*
X73980040Y-134800340D01*
X64608140Y-137822940D02*
X67579240Y-137822940D01*
X67579240Y-137822940D02*
X68392040Y-138635740D01*
X68392040Y-138635740D02*
X69230240Y-138635740D01*
X73727880Y-139143040D02*
X73220580Y-138635740D01*
X73220580Y-138635740D02*
X69230240Y-138635740D01*
D38*
X73941940Y-134838440D02*
X73980040Y-134800340D01*
X69230240Y-138635740D02*
X73434640Y-138635740D01*
X73434640Y-138635740D02*
X73941940Y-139143040D01*
X69230240Y-138635740D02*
X68392040Y-138635740D01*
X68392040Y-138635740D02*
X67579240Y-137822940D01*
X68435680Y-126309120D02*
X68435680Y-127421180D01*
X68435680Y-127421180D02*
X63957200Y-131899660D01*
X48417500Y-145770600D02*
X48417500Y-145201620D01*
X56047640Y-140787120D02*
X55849520Y-140787120D01*
X56306720Y-141046200D02*
X56047640Y-140787120D01*
X48417500Y-145201620D02*
X48823880Y-144795240D01*
X54927400Y-142476600D02*
X54927400Y-141709240D01*
X54927400Y-141709240D02*
X55849520Y-140787120D01*
X55849520Y-140787120D02*
X55902860Y-140733780D01*
X55902860Y-140733780D02*
X55902860Y-139423140D01*
X55902860Y-139423140D02*
X56512460Y-138813540D01*
X56512460Y-138813540D02*
X57419240Y-138813540D01*
X57419240Y-138813540D02*
X58432300Y-139826600D01*
X58432300Y-139826600D02*
X59977400Y-139826600D01*
X48417500Y-145770600D02*
X48854360Y-145770600D01*
X48417500Y-147040600D02*
X48417500Y-145770600D01*
X59977400Y-136626600D02*
X61300360Y-136626600D01*
X55707280Y-150850600D02*
X53817500Y-150850600D01*
X61610240Y-141290040D02*
X56687720Y-146212560D01*
X61610240Y-136936480D02*
X61610240Y-141290040D01*
X61300360Y-136626600D02*
X61610240Y-136936480D01*
X55727400Y-130776600D02*
X55727400Y-131846120D01*
X59339360Y-131988560D02*
X59977400Y-132626600D01*
X55869840Y-131988560D02*
X59339360Y-131988560D01*
X55727400Y-131846120D02*
X55869840Y-131988560D01*
X58127400Y-130776600D02*
X58127400Y-130487920D01*
X58127400Y-130487920D02*
X59507120Y-129108200D01*
X59507120Y-129108200D02*
X60243720Y-129108200D01*
X62275720Y-127838200D02*
X62275720Y-127213360D01*
X54127400Y-129479040D02*
X54127400Y-130776600D01*
X54935120Y-128671320D02*
X54127400Y-129479040D01*
X55824120Y-128671320D02*
X54935120Y-128671320D01*
X55859680Y-128635760D02*
X55824120Y-128671320D01*
X58938160Y-128625600D02*
X57246520Y-128625600D01*
X58968640Y-128595120D02*
X58938160Y-128625600D01*
X62021720Y-126959360D02*
X60071000Y-126959360D01*
X62275720Y-127213360D02*
X62021720Y-126959360D01*
X48277400Y-133426600D02*
X50794520Y-133426600D01*
X64597320Y-125359120D02*
X65635680Y-125359120D01*
X64490600Y-125465840D02*
X64597320Y-125359120D01*
X64490600Y-126171960D02*
X64490600Y-125465840D01*
X64759840Y-126441200D02*
X64490600Y-126171960D01*
X64759840Y-128117600D02*
X64759840Y-126441200D01*
X64698880Y-128178560D02*
X64759840Y-128117600D01*
X64698880Y-129092960D02*
X64698880Y-128178560D01*
X63799720Y-129992120D02*
X64698880Y-129092960D01*
X61076840Y-129992120D02*
X63799720Y-129992120D01*
X60858400Y-130210560D02*
X61076840Y-129992120D01*
X54477920Y-132730240D02*
X58440320Y-132730240D01*
X54193440Y-133014720D02*
X54477920Y-132730240D01*
X50794520Y-133426600D02*
X50942240Y-133278880D01*
X40127360Y-135249260D02*
X41746780Y-135249260D01*
X45836640Y-135026600D02*
X48277400Y-135026600D01*
X45326300Y-135536940D02*
X45836640Y-135026600D01*
X41746780Y-135249260D02*
X42057320Y-135559800D01*
X40127360Y-135899260D02*
X41505240Y-135899260D01*
X46319340Y-135826600D02*
X48277400Y-135826600D01*
X45453300Y-136692640D02*
X46319340Y-135826600D01*
X41505240Y-135899260D02*
X42092880Y-136486900D01*
X48277400Y-136626600D02*
X50373280Y-136626600D01*
X71350440Y-147352320D02*
X72478900Y-147352320D01*
X71241920Y-147243800D02*
X71350440Y-147352320D01*
X50373280Y-136626600D02*
X51099720Y-137353040D01*
X48277400Y-137426600D02*
X50050600Y-137426600D01*
X68832160Y-147088160D02*
X70004940Y-147088160D01*
X68813680Y-147106640D02*
X68832160Y-147088160D01*
X50050600Y-137426600D02*
X50678080Y-138054080D01*
X48277400Y-139826600D02*
X49576120Y-139826600D01*
X66215960Y-147047520D02*
X67449700Y-147047520D01*
X66212720Y-147050760D02*
X66215960Y-147047520D01*
X49576120Y-139826600D02*
X49982120Y-139420600D01*
X48277400Y-140626600D02*
X49731160Y-140626600D01*
X63799020Y-147009420D02*
X64785240Y-147009420D01*
X63113920Y-146324320D02*
X63799020Y-147009420D01*
X49731160Y-140626600D02*
X50881280Y-139476480D01*
X57718960Y-126258320D02*
X57546240Y-126258320D01*
X57546240Y-126258320D02*
X55849520Y-127955040D01*
X50127400Y-141007600D02*
X50127400Y-142476600D01*
X50149760Y-140985240D02*
X50127400Y-141007600D01*
X50764440Y-140985240D02*
X50149760Y-140985240D01*
X51739800Y-140009880D02*
X50764440Y-140985240D01*
X51739800Y-132532120D02*
X51739800Y-140009880D01*
X51551840Y-132344160D02*
X51739800Y-132532120D01*
X55849520Y-127955040D02*
X55011320Y-127955040D01*
X50927400Y-142476600D02*
X50927400Y-141731600D01*
X50927400Y-141731600D02*
X52496720Y-140162280D01*
X57383680Y-134467600D02*
X57383680Y-133664960D01*
X55265320Y-136585960D02*
X57383680Y-134467600D01*
X52496720Y-136657080D02*
X52491640Y-136652000D01*
X52496720Y-140162280D02*
X52496720Y-136657080D01*
X50927400Y-142476600D02*
X50927400Y-141696040D01*
X50927400Y-142476600D02*
X50927400Y-141716360D01*
X48417500Y-152120600D02*
X48686720Y-152120600D01*
X48686720Y-152120600D02*
X50820320Y-149987000D01*
X56527400Y-144010680D02*
X56527400Y-142476600D01*
X56509920Y-144028160D02*
X56527400Y-144010680D01*
X50820320Y-148559520D02*
X52202080Y-147177760D01*
X50820320Y-149987000D02*
X50820320Y-148559520D01*
X48417500Y-153390600D02*
X48417500Y-152120600D01*
X42400220Y-147272440D02*
X44324840Y-147272440D01*
X58127400Y-141215880D02*
X58127400Y-142476600D01*
X57952640Y-141041120D02*
X58127400Y-141215880D01*
X47548800Y-143804640D02*
X48828960Y-143804640D01*
X45557440Y-145796000D02*
X47548800Y-143804640D01*
X44324840Y-147272440D02*
X44500800Y-147096480D01*
X58196480Y-142407520D02*
X58127400Y-142476600D01*
D11*
X41271760Y-149009100D02*
X41271760Y-148400900D01*
X41271760Y-148400900D02*
X42400220Y-147272440D01*
X41327640Y-151102060D02*
X41327640Y-149064980D01*
X41327640Y-149064980D02*
X41271760Y-149009100D01*
X42484040Y-152838720D02*
X41728960Y-152838720D01*
X41327640Y-152437400D02*
X41327640Y-151102060D01*
X41728960Y-152838720D02*
X41327640Y-152437400D01*
D38*
X64897000Y-153995120D02*
X64897000Y-151592980D01*
X64897000Y-151592980D02*
X64823340Y-151519320D01*
X67437000Y-151684420D02*
X67487800Y-151633620D01*
X67437000Y-153995120D02*
X67437000Y-151684420D01*
X69977000Y-153995120D02*
X69977000Y-151664100D01*
X69977000Y-151664100D02*
X70081140Y-151559960D01*
X72517000Y-153995120D02*
X72517000Y-151709820D01*
X62931040Y-128473200D02*
X64119760Y-127284480D01*
X62275720Y-128473200D02*
X62931040Y-128473200D01*
X60243720Y-128473200D02*
X61112400Y-128473200D01*
X61112400Y-128473200D02*
X61132720Y-128452880D01*
D11*
X42484040Y-154338720D02*
X43387580Y-154338720D01*
X46875700Y-150850600D02*
X48417500Y-150850600D01*
X43387580Y-154338720D02*
X46875700Y-150850600D01*
X40983600Y-154289760D02*
X42435080Y-154289760D01*
X42435080Y-154289760D02*
X42484040Y-154338720D01*
X42400220Y-145772440D02*
X44345160Y-145772440D01*
X46883320Y-148310600D02*
X48417500Y-148310600D01*
X44345160Y-145772440D02*
X46883320Y-148310600D01*
X40968360Y-145481040D02*
X42108820Y-145481040D01*
X42108820Y-145481040D02*
X42400220Y-145772440D01*
D38*
X72478900Y-148852320D02*
X72478900Y-150171720D01*
X72478900Y-150171720D02*
X72517000Y-150209820D01*
X70004940Y-148588160D02*
X70004940Y-149983760D01*
X70004940Y-149983760D02*
X70081140Y-150059960D01*
X67449700Y-148547520D02*
X67449700Y-150095520D01*
X67449700Y-150095520D02*
X67487800Y-150133620D01*
X64785240Y-148509420D02*
X64785240Y-149981220D01*
X64785240Y-149981220D02*
X64823340Y-150019320D01*
D39*
X58673300Y-146011900D02*
X58673300Y-148551900D01*
X58673300Y-148551900D02*
X58698700Y-148577300D01*
D38*
X58673300Y-148551900D02*
X58698700Y-148577300D01*
X53817500Y-152120600D02*
X55874920Y-152120600D01*
X60223400Y-147203160D02*
X60223400Y-147218400D01*
X60192920Y-147203160D02*
X60223400Y-147203160D01*
X57876440Y-150119080D02*
X57876440Y-149839680D01*
X55874920Y-152120600D02*
X57876440Y-150119080D01*
D39*
X60223400Y-147218400D02*
X60223400Y-146062000D01*
X60223400Y-146062000D02*
X60173300Y-146011900D01*
D38*
X53817500Y-153390600D02*
X53817500Y-152120600D01*
X53817500Y-152120600D02*
X53893700Y-152044400D01*
X60223400Y-147218400D02*
X60173300Y-147168300D01*
X60173300Y-147168300D02*
X60173300Y-146011900D01*
X63146240Y-139816840D02*
X63146240Y-137861040D01*
X63146240Y-137861040D02*
X63108140Y-137822940D01*
X64608140Y-141988540D02*
X64608140Y-139854940D01*
X64608140Y-139854940D02*
X64646240Y-139816840D01*
M02*
