G04 #@! TF.FileFunction,Copper,L2,Bot,Signal*
%FSLAX46Y46*%
G04 Gerber Fmt 4.6, Leading zero omitted, Abs format (unit mm)*
G04 Created by KiCad (PCBNEW 4.0.1-stable) date 07/06/2016 1:51:25 PM*
%MOMM*%
G01*
G04 APERTURE LIST*
%ADD10C,0.100000*%
%ADD11R,1.727200X1.727200*%
%ADD12O,1.727200X1.727200*%
%ADD13R,2.032000X2.032000*%
%ADD14O,2.032000X2.032000*%
%ADD15C,1.300000*%
%ADD16R,1.300000X1.300000*%
%ADD17C,1.998980*%
%ADD18R,1.998980X1.998980*%
%ADD19R,1.905000X1.905000*%
%ADD20C,1.905000*%
%ADD21R,2.032000X1.727200*%
%ADD22O,2.032000X1.727200*%
%ADD23O,0.950000X1.400000*%
%ADD24O,1.550000X1.200000*%
%ADD25C,0.600000*%
%ADD26C,0.250000*%
%ADD27C,0.635000*%
%ADD28C,1.270000*%
%ADD29C,0.400000*%
G04 APERTURE END LIST*
D10*
D11*
X113795000Y-124307600D03*
D12*
X111255000Y-124307600D03*
X113795000Y-121767600D03*
X111255000Y-121767600D03*
D13*
X103378000Y-119380000D03*
D14*
X103378000Y-121920000D03*
D13*
X113706100Y-118224300D03*
D14*
X111166100Y-118224300D03*
D15*
X87670000Y-111760000D03*
D16*
X90170000Y-111760000D03*
D17*
X93342460Y-96520000D03*
D18*
X93342460Y-106680000D03*
D19*
X82753200Y-95973900D03*
D20*
X82753200Y-101053900D03*
D13*
X105918000Y-124460000D03*
D14*
X103378000Y-124460000D03*
D21*
X80444800Y-113157000D03*
D22*
X80444800Y-110617000D03*
X80444800Y-108077000D03*
X80444800Y-105537000D03*
D13*
X105918000Y-116840000D03*
D14*
X103378000Y-116840000D03*
D21*
X80444800Y-115697000D03*
D22*
X80444800Y-118237000D03*
X80444800Y-120777000D03*
X80444800Y-123317000D03*
D13*
X90604800Y-106807000D03*
D14*
X88064800Y-106807000D03*
D13*
X90604800Y-104267000D03*
D14*
X88064800Y-104267000D03*
D13*
X99339400Y-95935800D03*
D14*
X101879400Y-95935800D03*
D23*
X111340460Y-103110300D03*
X111340460Y-98110300D03*
D24*
X114040460Y-104110300D03*
X114040460Y-97110300D03*
D25*
X100965000Y-115620800D03*
X112588500Y-101955600D03*
X91328700Y-98298000D03*
X114645900Y-115150900D03*
X110670800Y-113271300D03*
X98008900Y-115062000D03*
X110248700Y-115646200D03*
X108054600Y-109296200D03*
X103261620Y-108000800D03*
X105123440Y-112872520D03*
X101886498Y-113662460D03*
X105283000Y-99631500D03*
X102108000Y-99631500D03*
X94488000Y-123698000D03*
X99822000Y-115887500D03*
X85623400Y-120980200D03*
X85572600Y-105791000D03*
X90805000Y-101757598D03*
X112464800Y-107982000D03*
X111623300Y-106781600D03*
X107462780Y-108071920D03*
X104455420Y-104861360D03*
X98918220Y-99969320D03*
X87691420Y-101833680D03*
X103342900Y-112852200D03*
X98542300Y-113715800D03*
X107020820Y-105272840D03*
X90376200Y-118778020D03*
X106304540Y-103946960D03*
X89202720Y-122577860D03*
X105524760Y-103398320D03*
X93401340Y-116707920D03*
X104518920Y-104061260D03*
X93508020Y-121406920D03*
X99685300Y-102095300D03*
X110061200Y-101574600D03*
X110200900Y-100622100D03*
X98580400Y-103251000D03*
X95580200Y-104190800D03*
X91871800Y-108635800D03*
X95529400Y-105079800D03*
X91389200Y-109677200D03*
X86871000Y-115087400D03*
X96599200Y-109143800D03*
X98577400Y-111785400D03*
X108051600Y-111683800D03*
X109474000Y-114960400D03*
X101295200Y-108102400D03*
X108940600Y-111506000D03*
X110820200Y-116408200D03*
X104397000Y-111544100D03*
X95697500Y-121462800D03*
X108407200Y-114884200D03*
X101727000Y-119888000D03*
X110378700Y-96428560D03*
X110134860Y-97434400D03*
X90500200Y-122605800D03*
X90474800Y-124256800D03*
X88976200Y-118872000D03*
X90449400Y-116586000D03*
X90678000Y-125095000D03*
X86918800Y-125120400D03*
X95583200Y-109347000D03*
X95380000Y-102717600D03*
D26*
X101854000Y-120904000D02*
X103378000Y-119380000D01*
X101219000Y-120904000D02*
X101854000Y-120904000D01*
X100558600Y-120243600D02*
X101219000Y-120904000D01*
X100558600Y-116027200D02*
X100558600Y-120243600D01*
X100965000Y-115620800D02*
X100558600Y-116027200D01*
D27*
X112588500Y-101523800D02*
X112588500Y-101955600D01*
X109438900Y-98374200D02*
X112588500Y-101523800D01*
D28*
X91404900Y-98374200D02*
X109438900Y-98374200D01*
D27*
X91328700Y-98298000D02*
X91404900Y-98374200D01*
D29*
X114049000Y-124307600D02*
X115687300Y-122669300D01*
X115687300Y-122669300D02*
X115687300Y-116192300D01*
X115687300Y-116192300D02*
X114645900Y-115150900D01*
D27*
X109896100Y-114046000D02*
X110670800Y-113271300D01*
X106721100Y-114046000D02*
X109896100Y-114046000D01*
X106213100Y-114554000D02*
X106721100Y-114046000D01*
X98516900Y-114554000D02*
X106213100Y-114554000D01*
X98008900Y-115062000D02*
X98516900Y-114554000D01*
D29*
X113795000Y-124307600D02*
X114049000Y-124307600D01*
D27*
X110248700Y-115646200D02*
X111633000Y-114261900D01*
X111633000Y-114261900D02*
X111633000Y-112525200D01*
X111633000Y-112525200D02*
X110689800Y-111582000D01*
D26*
X111633000Y-114261900D02*
X111633000Y-112525200D01*
X111633000Y-112525200D02*
X110689800Y-111582000D01*
X108054600Y-109296200D02*
X108054600Y-109258100D01*
X108054600Y-109258100D02*
X108054600Y-109296200D01*
X108054600Y-109296200D02*
X108054600Y-109258100D01*
D27*
X103261620Y-108000800D02*
X103289560Y-107972860D01*
X103289560Y-107972860D02*
X105860040Y-107972860D01*
X105860040Y-107972860D02*
X107145280Y-109258100D01*
D28*
X105123440Y-112872520D02*
X109399280Y-112872520D01*
X109399280Y-112872520D02*
X110689800Y-111582000D01*
X110689800Y-111582000D02*
X111014800Y-111582000D01*
X111014800Y-111582000D02*
X112464800Y-110132000D01*
X112464800Y-110132000D02*
X112464800Y-107982000D01*
D27*
X104300480Y-113695480D02*
X105123440Y-112872520D01*
X101919518Y-113695480D02*
X104300480Y-113695480D01*
X101886498Y-113662460D02*
X101919518Y-113695480D01*
D29*
X105283000Y-99631500D02*
X105092500Y-99822000D01*
X105092500Y-99822000D02*
X102298500Y-99822000D01*
X102298500Y-99822000D02*
X102108000Y-99631500D01*
D27*
X95631000Y-123698000D02*
X94488000Y-123698000D01*
X96139000Y-124206000D02*
X95631000Y-123698000D01*
X97028000Y-124206000D02*
X96139000Y-124206000D01*
X98171000Y-123063000D02*
X97028000Y-124206000D01*
X98171000Y-116713000D02*
X98171000Y-123063000D01*
X99060000Y-115887500D02*
X98171000Y-116713000D01*
X99822000Y-115887500D02*
X99060000Y-115887500D01*
D26*
X85623400Y-105841800D02*
X85623400Y-120980200D01*
X85572600Y-105791000D02*
X85623400Y-105841800D01*
D28*
X90805000Y-101757598D02*
X90805000Y-103505000D01*
X90805000Y-103505000D02*
X90170000Y-104140000D01*
X87630000Y-104140000D02*
X90170000Y-104140000D01*
X87630000Y-106680000D02*
X87630000Y-104140000D01*
X87670000Y-111760000D02*
X87670000Y-106720000D01*
X87670000Y-106720000D02*
X87630000Y-106680000D01*
D27*
X107145280Y-109258100D02*
X108054600Y-109258100D01*
X108054600Y-109258100D02*
X109146800Y-109258100D01*
X109146800Y-109258100D02*
X111623300Y-106781600D01*
D28*
X90170000Y-106680000D02*
X93342460Y-106680000D01*
X90170000Y-111760000D02*
X90170000Y-106680000D01*
X82753200Y-95973900D02*
X92796360Y-95973900D01*
X92796360Y-95973900D02*
X93342460Y-96520000D01*
D26*
X107157980Y-107767120D02*
X107462780Y-108071920D01*
X107157980Y-106324400D02*
X107157980Y-107767120D01*
X105796540Y-104962960D02*
X107157980Y-106324400D01*
X104557020Y-104962960D02*
X105796540Y-104962960D01*
X104455420Y-104861360D02*
X104557020Y-104962960D01*
X94371620Y-99969320D02*
X98918220Y-99969320D01*
X93726460Y-100614480D02*
X94371620Y-99969320D01*
X88910620Y-100614480D02*
X93726460Y-100614480D01*
X87691420Y-101833680D02*
X88910620Y-100614480D01*
X102733300Y-112242600D02*
X103342900Y-112852200D01*
X100015500Y-112242600D02*
X102733300Y-112242600D01*
X98542300Y-113715800D02*
X100015500Y-112242600D01*
X107020820Y-102816660D02*
X107020820Y-105272840D01*
X106477260Y-102273100D02*
X107020820Y-102816660D01*
X101067060Y-102273100D02*
X106477260Y-102273100D01*
X98895360Y-104444800D02*
X101067060Y-102273100D01*
X98895360Y-107759500D02*
X98895360Y-104444800D01*
X91389660Y-115265200D02*
X98895360Y-107759500D01*
X91389660Y-117764560D02*
X91389660Y-115265200D01*
X90376200Y-118778020D02*
X91389660Y-117764560D01*
X106304540Y-102971600D02*
X106304540Y-103946960D01*
X106081020Y-102748080D02*
X106304540Y-102971600D01*
X101305820Y-102748080D02*
X106081020Y-102748080D01*
X99444000Y-104609900D02*
X101305820Y-102748080D01*
X99444000Y-107950000D02*
X99444000Y-104609900D01*
X91839662Y-115554338D02*
X99444000Y-107950000D01*
X91839662Y-118259438D02*
X91839662Y-115554338D01*
X90493040Y-119606060D02*
X91839662Y-118259438D01*
X89065560Y-119606060D02*
X90493040Y-119606060D01*
X88059720Y-120611900D02*
X89065560Y-119606060D01*
X88059720Y-121983500D02*
X88059720Y-120611900D01*
X88595660Y-122519440D02*
X88059720Y-121983500D01*
X89144300Y-122519440D02*
X88595660Y-122519440D01*
X89202720Y-122577860D02*
X89144300Y-122519440D01*
X101846840Y-103398320D02*
X105524760Y-103398320D01*
X100076460Y-105168700D02*
X101846840Y-103398320D01*
X100076460Y-108280200D02*
X100076460Y-105168700D01*
X93624860Y-114731800D02*
X100076460Y-108280200D01*
X93624860Y-116484400D02*
X93624860Y-114731800D01*
X93401340Y-116707920D02*
X93624860Y-116484400D01*
X102395480Y-104061260D02*
X104518920Y-104061260D01*
X100647960Y-105808780D02*
X102395480Y-104061260D01*
X100647960Y-108597700D02*
X100647960Y-105808780D01*
X94323360Y-114922300D02*
X100647960Y-108597700D01*
X94323360Y-120591580D02*
X94323360Y-114922300D01*
X93508020Y-121406920D02*
X94323360Y-120591580D01*
D29*
X99685300Y-101831702D02*
X99685300Y-102095300D01*
X100294900Y-101222102D02*
X99685300Y-101831702D01*
X109708702Y-101222102D02*
X100294900Y-101222102D01*
X110061200Y-101574600D02*
X109708702Y-101222102D01*
X99863100Y-100622100D02*
X110200900Y-100622100D01*
X98885200Y-101600000D02*
X99863100Y-100622100D01*
X98885200Y-102946200D02*
X98885200Y-101600000D01*
X98580400Y-103251000D02*
X98885200Y-102946200D01*
D26*
X94818200Y-104190800D02*
X95580200Y-104190800D01*
X94513400Y-104495600D02*
X94818200Y-104190800D01*
X94513400Y-105130600D02*
X94513400Y-104495600D01*
X95046800Y-105664000D02*
X94513400Y-105130600D01*
X95046800Y-107830366D02*
X95046800Y-105664000D01*
X94393766Y-108483400D02*
X95046800Y-107830366D01*
X92024200Y-108483400D02*
X94393766Y-108483400D01*
X91871800Y-108635800D02*
X92024200Y-108483400D01*
X95529400Y-105511600D02*
X95529400Y-105079800D01*
X95829698Y-105811898D02*
X95529400Y-105511600D01*
X95829698Y-107683866D02*
X95829698Y-105811898D01*
X94191964Y-109321600D02*
X95829698Y-107683866D01*
X91744800Y-109321600D02*
X94191964Y-109321600D01*
X91389200Y-109677200D02*
X91744800Y-109321600D01*
X88877600Y-115087400D02*
X86871000Y-115087400D01*
X93779800Y-110185200D02*
X88877600Y-115087400D01*
X95833262Y-110185200D02*
X93779800Y-110185200D01*
X96254331Y-109764131D02*
X95833262Y-110185200D01*
X96254331Y-109488669D02*
X96254331Y-109764131D01*
X96599200Y-109143800D02*
X96254331Y-109488669D01*
X111255000Y-124307600D02*
X110845600Y-124307600D01*
X110845600Y-124307600D02*
X109093000Y-122555000D01*
X99720400Y-110642400D02*
X98577400Y-111785400D01*
X107010200Y-110642400D02*
X99720400Y-110642400D01*
X108051600Y-111683800D02*
X107010200Y-110642400D01*
X109093000Y-115341400D02*
X109474000Y-114960400D01*
X109093000Y-122555000D02*
X109093000Y-115341400D01*
X111255000Y-124307600D02*
X110865400Y-124307600D01*
X111255000Y-121767600D02*
X111255000Y-121237200D01*
X111255000Y-121237200D02*
X109550200Y-119532400D01*
X103352600Y-110159800D02*
X101295200Y-108102400D01*
X107594400Y-110159800D02*
X103352600Y-110159800D01*
X108940600Y-111506000D02*
X107594400Y-110159800D01*
X110261400Y-116408200D02*
X110820200Y-116408200D01*
X109550200Y-117119400D02*
X110261400Y-116408200D01*
X109550200Y-119532400D02*
X109550200Y-117119400D01*
X99825000Y-111544100D02*
X104397000Y-111544100D01*
X95189500Y-116179600D02*
X99825000Y-111544100D01*
X95189500Y-120954800D02*
X95189500Y-116179600D01*
X95697500Y-121462800D02*
X95189500Y-120954800D01*
X108026200Y-115265200D02*
X108407200Y-114884200D01*
X102768400Y-115265200D02*
X108026200Y-115265200D01*
X101955600Y-116078000D02*
X102768400Y-115265200D01*
X101955600Y-119659400D02*
X101955600Y-116078000D01*
X101727000Y-119888000D02*
X101955600Y-119659400D01*
X113706100Y-118224300D02*
X113706100Y-112379760D01*
X112116060Y-96428560D02*
X110378700Y-96428560D01*
X112764182Y-97076682D02*
X112116060Y-96428560D01*
X112764182Y-98204442D02*
X112764182Y-97076682D01*
X116002260Y-101442520D02*
X112764182Y-98204442D01*
X116002260Y-110083600D02*
X116002260Y-101442520D01*
X113706100Y-112379760D02*
X116002260Y-110083600D01*
X111166100Y-118224300D02*
X113134600Y-112141000D01*
X110515860Y-97053400D02*
X110134860Y-97434400D01*
X111872220Y-97053400D02*
X110515860Y-97053400D01*
X112314180Y-97495360D02*
X111872220Y-97053400D01*
X112314180Y-98668840D02*
X112314180Y-97495360D01*
X115346940Y-101701600D02*
X112314180Y-98668840D01*
X115346940Y-109885480D02*
X115346940Y-101701600D01*
X113134600Y-112141000D02*
X115346940Y-109885480D01*
X90500200Y-124231400D02*
X90500200Y-122605800D01*
X90474800Y-124256800D02*
X90500200Y-124231400D01*
X89103200Y-118745000D02*
X88976200Y-118872000D01*
X89433400Y-118745000D02*
X89103200Y-118745000D01*
X90525600Y-117652800D02*
X89433400Y-118745000D01*
X90525600Y-116662200D02*
X90525600Y-117652800D01*
X90449400Y-116586000D02*
X90525600Y-116662200D01*
X86944200Y-125095000D02*
X90678000Y-125095000D01*
X86918800Y-125120400D02*
X86944200Y-125095000D01*
D27*
X95583200Y-108839000D02*
X95583200Y-109347000D01*
X96472200Y-107950000D02*
X95583200Y-108839000D01*
X96472200Y-103809800D02*
X96472200Y-107950000D01*
X95380000Y-102717600D02*
X96472200Y-103809800D01*
X114040460Y-104110300D02*
X112340460Y-104110300D01*
X112340460Y-104110300D02*
X111340460Y-103110300D01*
M02*
