M48
;DRILL file {KiCad 4.0.1-stable} date 25/03/2016 9:42:25 AM
;FORMAT={2:4/ absolute / inch / keep zeros}
FMAT,2
INCH,TZ
T1C0.016
T2C0.020
T3C0.022
T4C0.031
T5C0.032
T6C0.039
T7C0.040
T8C0.050
%
G90
G05
M72
T1
X033690Y-041650
X033710Y-047630
X033999Y-045270
X034220Y-049260
X034524Y-040092
X035030Y-046800
X035119Y-048259
X035581Y-046763
X035610Y-045900
X035620Y-048920
X035630Y-048270
X035700Y-049250
X035750Y-040062
X035956Y-038700
X036025Y-042575
X036150Y-042900
X036772Y-045948
X036814Y-047798
X037200Y-048700
X037600Y-041025
X037625Y-041450
X037676Y-047820
X037992Y-042960
X038586Y-045300
X038707Y-044058
X038796Y-044770
X038811Y-040650
X038944Y-039358
X039246Y-040195
X039300Y-045625
X039878Y-042572
X040075Y-047200
X040113Y-044749
X040200Y-039225
X040654Y-042520
X040686Y-044430
X041101Y-043915
X041124Y-041284
X041149Y-040969
X041387Y-044438
X041450Y-039225
X041545Y-040708
X041852Y-040924
X042134Y-041446
X042175Y-045325
X042308Y-042548
X042476Y-043930
X042486Y-045406
X043087Y-045406
X043116Y-043743
X043331Y-039990
X043360Y-038360
X043386Y-039615
X043456Y-037964
X043571Y-044595
X043946Y-042040
X044277Y-042513
X044326Y-040140
X045136Y-045335
T4
X034516Y-044000
X035500Y-044000
T5
X031671Y-038550
X031671Y-040550
T6
X036749Y-042000
T7
X031671Y-041550
X031671Y-042550
X031671Y-043550
X031671Y-044550
X031671Y-045550
X031671Y-046550
X031671Y-047550
X031671Y-048550
X034671Y-041050
X034671Y-042050
X035671Y-041050
X035671Y-042050
X040700Y-046000
X040700Y-047000
X040700Y-048000
X040700Y-049000
X041700Y-046000
X041700Y-049000
X043766Y-046545
X043801Y-047940
X043801Y-048940
X044766Y-046545
X044801Y-047940
X044801Y-048940
T8
X036749Y-038000
T2
X045026Y-038232G85X044770Y-038232
G05
X045026Y-040988G85X044770Y-040988
G05
T3
X043835Y-038685G85X043835Y-038567
G05
X043835Y-040654G85X043835Y-040536
G05
T0
M30
