G04 #@! TF.FileFunction,Copper,L1,Top,Signal*
%FSLAX46Y46*%
G04 Gerber Fmt 4.6, Leading zero omitted, Abs format (unit mm)*
G04 Created by KiCad (PCBNEW 4.0.1-stable) date 25/03/2016 9:42:22 AM*
%MOMM*%
G01*
G04 APERTURE LIST*
%ADD10C,0.100000*%
%ADD11R,0.800000X0.750000*%
%ADD12R,0.750000X0.800000*%
%ADD13C,1.300000*%
%ADD14R,1.300000X1.300000*%
%ADD15C,1.998980*%
%ADD16R,1.998980X1.998980*%
%ADD17R,1.600000X1.000000*%
%ADD18R,1.600000X0.560000*%
%ADD19R,0.560000X1.600000*%
%ADD20R,1.905000X1.905000*%
%ADD21C,1.905000*%
%ADD22R,0.900000X2.500000*%
%ADD23R,2.500000X0.900000*%
%ADD24R,2.032000X2.032000*%
%ADD25O,2.032000X2.032000*%
%ADD26R,1.350000X0.400000*%
%ADD27O,0.950000X1.250000*%
%ADD28O,1.550000X1.000000*%
%ADD29R,2.032000X1.727200*%
%ADD30O,2.032000X1.727200*%
%ADD31R,1.727200X1.727200*%
%ADD32O,1.727200X1.727200*%
%ADD33R,0.600000X0.900000*%
%ADD34R,0.900000X0.500000*%
%ADD35R,0.500000X0.900000*%
%ADD36R,0.900000X0.600000*%
%ADD37R,1.500000X0.600000*%
%ADD38R,0.304800X0.508000*%
%ADD39R,1.600200X2.999740*%
%ADD40R,1.600200X2.600960*%
%ADD41C,0.600000*%
%ADD42C,0.250000*%
%ADD43C,0.635000*%
%ADD44C,1.270000*%
%ADD45C,0.400000*%
G04 APERTURE END LIST*
D10*
X108411229Y-125167714D02*
X108839800Y-125167714D01*
X108925514Y-125196286D01*
X108982657Y-125253429D01*
X109011229Y-125339143D01*
X109011229Y-125396286D01*
X108696943Y-124882000D02*
X108696943Y-124682000D01*
X109011229Y-124596286D02*
X109011229Y-124882000D01*
X108411229Y-124882000D01*
X108411229Y-124596286D01*
X109011229Y-124339143D02*
X108411229Y-124339143D01*
X109011229Y-123996286D01*
X108411229Y-123996286D01*
X108411229Y-123339143D02*
X108411229Y-122996286D01*
X109011229Y-123167715D02*
X108411229Y-123167715D01*
X109011229Y-122796286D02*
X108411229Y-122796286D01*
X109011229Y-122510572D02*
X108411229Y-122510572D01*
X109011229Y-122167715D01*
X108411229Y-122167715D01*
X108725514Y-121767715D02*
X109011229Y-121767715D01*
X108411229Y-121967715D02*
X108725514Y-121767715D01*
X108411229Y-121567715D01*
X109011229Y-121082001D02*
X109011229Y-121367715D01*
X108411229Y-121367715D01*
X108839800Y-120910572D02*
X108839800Y-120624858D01*
X109011229Y-120967715D02*
X108411229Y-120767715D01*
X109011229Y-120567715D01*
X108696943Y-120167715D02*
X108725514Y-120082001D01*
X108754086Y-120053429D01*
X108811229Y-120024858D01*
X108896943Y-120024858D01*
X108954086Y-120053429D01*
X108982657Y-120082001D01*
X109011229Y-120139143D01*
X109011229Y-120367715D01*
X108411229Y-120367715D01*
X108411229Y-120167715D01*
X108439800Y-120110572D01*
X108468371Y-120082001D01*
X108525514Y-120053429D01*
X108582657Y-120053429D01*
X108639800Y-120082001D01*
X108668371Y-120110572D01*
X108696943Y-120167715D01*
X108696943Y-120367715D01*
X108411229Y-119396286D02*
X109011229Y-119196286D01*
X108411229Y-118996286D01*
X108611229Y-118539143D02*
X109011229Y-118539143D01*
X108382657Y-118682000D02*
X108811229Y-118824857D01*
X108811229Y-118453429D01*
X108782657Y-117767714D02*
X108782657Y-117310571D01*
X109011229Y-116567714D02*
X108411229Y-116567714D01*
X108411229Y-116424857D01*
X108439800Y-116339142D01*
X108496943Y-116282000D01*
X108554086Y-116253428D01*
X108668371Y-116224857D01*
X108754086Y-116224857D01*
X108868371Y-116253428D01*
X108925514Y-116282000D01*
X108982657Y-116339142D01*
X109011229Y-116424857D01*
X109011229Y-116567714D01*
X108696943Y-115967714D02*
X108696943Y-115767714D01*
X109011229Y-115682000D02*
X109011229Y-115967714D01*
X108411229Y-115967714D01*
X108411229Y-115682000D01*
X108696943Y-114967714D02*
X108696943Y-114767714D01*
X109011229Y-114682000D02*
X109011229Y-114967714D01*
X108411229Y-114967714D01*
X108411229Y-114682000D01*
X108982657Y-114453428D02*
X109011229Y-114367714D01*
X109011229Y-114224857D01*
X108982657Y-114167714D01*
X108954086Y-114139143D01*
X108896943Y-114110571D01*
X108839800Y-114110571D01*
X108782657Y-114139143D01*
X108754086Y-114167714D01*
X108725514Y-114224857D01*
X108696943Y-114339143D01*
X108668371Y-114396285D01*
X108639800Y-114424857D01*
X108582657Y-114453428D01*
X108525514Y-114453428D01*
X108468371Y-114424857D01*
X108439800Y-114396285D01*
X108411229Y-114339143D01*
X108411229Y-114196285D01*
X108439800Y-114110571D01*
X109011229Y-113853428D02*
X108411229Y-113853428D01*
X108411229Y-113624856D01*
X108439800Y-113567714D01*
X108468371Y-113539142D01*
X108525514Y-113510571D01*
X108611229Y-113510571D01*
X108668371Y-113539142D01*
X108696943Y-113567714D01*
X108725514Y-113624856D01*
X108725514Y-113853428D01*
X108411229Y-113139142D02*
X108411229Y-113024856D01*
X108439800Y-112967714D01*
X108496943Y-112910571D01*
X108611229Y-112881999D01*
X108811229Y-112881999D01*
X108925514Y-112910571D01*
X108982657Y-112967714D01*
X109011229Y-113024856D01*
X109011229Y-113139142D01*
X108982657Y-113196285D01*
X108925514Y-113253428D01*
X108811229Y-113281999D01*
X108611229Y-113281999D01*
X108496943Y-113253428D01*
X108439800Y-113196285D01*
X108411229Y-113139142D01*
X108954086Y-112282000D02*
X108982657Y-112310571D01*
X109011229Y-112396285D01*
X109011229Y-112453428D01*
X108982657Y-112539143D01*
X108925514Y-112596285D01*
X108868371Y-112624857D01*
X108754086Y-112653428D01*
X108668371Y-112653428D01*
X108554086Y-112624857D01*
X108496943Y-112596285D01*
X108439800Y-112539143D01*
X108411229Y-112453428D01*
X108411229Y-112396285D01*
X108439800Y-112310571D01*
X108468371Y-112282000D01*
X108268371Y-112539143D02*
X108182657Y-112424857D01*
X108268371Y-112310571D01*
X108411229Y-111853428D02*
X108839800Y-111853428D01*
X108925514Y-111882000D01*
X108982657Y-111939143D01*
X109011229Y-112024857D01*
X109011229Y-112082000D01*
X108411229Y-111453428D02*
X108411229Y-111339142D01*
X108439800Y-111282000D01*
X108496943Y-111224857D01*
X108611229Y-111196285D01*
X108811229Y-111196285D01*
X108925514Y-111224857D01*
X108982657Y-111282000D01*
X109011229Y-111339142D01*
X109011229Y-111453428D01*
X108982657Y-111510571D01*
X108925514Y-111567714D01*
X108811229Y-111596285D01*
X108611229Y-111596285D01*
X108496943Y-111567714D01*
X108439800Y-111510571D01*
X108411229Y-111453428D01*
D11*
X106795000Y-122555000D03*
X105295000Y-122555000D03*
X106795000Y-118745000D03*
X105295000Y-118745000D03*
D12*
X114887200Y-107633200D03*
X114887200Y-106133200D03*
D11*
X114213400Y-109029500D03*
X115713400Y-109029500D03*
D12*
X104521000Y-114351500D03*
X104521000Y-112851500D03*
D11*
X95238000Y-115316000D03*
X93738000Y-115316000D03*
X102604000Y-111760000D03*
X101104000Y-111760000D03*
D12*
X86360000Y-98945000D03*
X86360000Y-100445000D03*
X95059500Y-107557000D03*
X95059500Y-106057000D03*
X82423000Y-118098000D03*
X82423000Y-116598000D03*
X82550000Y-124956000D03*
X82550000Y-123456000D03*
D13*
X87670000Y-111760000D03*
D14*
X90170000Y-111760000D03*
D12*
X92456000Y-113804000D03*
X92456000Y-115304000D03*
D15*
X93342460Y-96520000D03*
D16*
X93342460Y-106680000D03*
D17*
X93345000Y-103100000D03*
X93345000Y-100100000D03*
D18*
X108720000Y-108140000D03*
X108720000Y-107340000D03*
X108720000Y-106540000D03*
X108720000Y-105740000D03*
X108720000Y-104940000D03*
X108720000Y-104140000D03*
X108720000Y-103340000D03*
X108720000Y-102540000D03*
X108720000Y-101740000D03*
X108720000Y-100940000D03*
X108720000Y-100140000D03*
D19*
X106870000Y-98290000D03*
X106070000Y-98290000D03*
X105270000Y-98290000D03*
X104470000Y-98290000D03*
X103670000Y-98290000D03*
X102870000Y-98290000D03*
X102070000Y-98290000D03*
X101270000Y-98290000D03*
X100470000Y-98290000D03*
X99670000Y-98290000D03*
X98870000Y-98290000D03*
D18*
X97020000Y-100140000D03*
X97020000Y-100940000D03*
X97020000Y-101740000D03*
X97020000Y-102540000D03*
X97020000Y-103340000D03*
X97020000Y-104140000D03*
X97020000Y-104940000D03*
X97020000Y-105740000D03*
X97020000Y-106540000D03*
X97020000Y-107340000D03*
X97020000Y-108140000D03*
D19*
X98870000Y-109990000D03*
X99670000Y-109990000D03*
X100470000Y-109990000D03*
X101270000Y-109990000D03*
X102070000Y-109990000D03*
X102870000Y-109990000D03*
X103670000Y-109990000D03*
X104470000Y-109990000D03*
X105270000Y-109990000D03*
X106070000Y-109990000D03*
X106870000Y-109990000D03*
D20*
X80444800Y-97917000D03*
D21*
X80444800Y-102997000D03*
D22*
X96721000Y-112649000D03*
X99621000Y-112649000D03*
D23*
X93980000Y-112321000D03*
X93980000Y-109421000D03*
D24*
X105918000Y-124460000D03*
D25*
X103378000Y-124460000D03*
D26*
X111340460Y-101910300D03*
X111340460Y-101260300D03*
X111340460Y-100610300D03*
X111340460Y-99960300D03*
X111340460Y-99310300D03*
D27*
X111340460Y-103110300D03*
X111340460Y-98110300D03*
D28*
X114040460Y-104110300D03*
X114040460Y-97110300D03*
D29*
X80444800Y-113157000D03*
D30*
X80444800Y-110617000D03*
X80444800Y-108077000D03*
X80444800Y-105537000D03*
D31*
X113795000Y-124307600D03*
D32*
X111255000Y-124307600D03*
X113795000Y-121767600D03*
X111255000Y-121767600D03*
D24*
X105918000Y-116840000D03*
D25*
X103378000Y-116840000D03*
D29*
X80444800Y-115697000D03*
D30*
X80444800Y-118237000D03*
X80444800Y-120777000D03*
X80444800Y-123317000D03*
D24*
X113706100Y-118224300D03*
D25*
X111166100Y-118224300D03*
D24*
X103378000Y-119380000D03*
D25*
X103378000Y-121920000D03*
D33*
X96139000Y-96136000D03*
X97089000Y-98936000D03*
X95189000Y-98936000D03*
D34*
X99060000Y-122670000D03*
X99060000Y-121170000D03*
X99060000Y-118566500D03*
X99060000Y-120066500D03*
X100647500Y-122670000D03*
X100647500Y-121170000D03*
X100647500Y-120066500D03*
X100647500Y-118566500D03*
D35*
X105676000Y-114300000D03*
X107176000Y-114300000D03*
X105676000Y-112903000D03*
X107176000Y-112903000D03*
D34*
X82550000Y-105930000D03*
X82550000Y-107430000D03*
X82550000Y-108470000D03*
X82550000Y-109970000D03*
X82550000Y-111010000D03*
X82550000Y-112510000D03*
X82550000Y-113550000D03*
X82550000Y-115050000D03*
X84328000Y-107430000D03*
X84328000Y-105930000D03*
X84328000Y-109970000D03*
X84328000Y-108470000D03*
X84328000Y-112510000D03*
X84328000Y-111010000D03*
X84328000Y-115050000D03*
X84328000Y-113550000D03*
X89395300Y-123570300D03*
X89395300Y-125070300D03*
X87871300Y-123570300D03*
X87871300Y-125070300D03*
X89281000Y-117971000D03*
X89281000Y-116471000D03*
X87630000Y-117971000D03*
X87630000Y-116471000D03*
D35*
X86372000Y-119634000D03*
X87872000Y-119634000D03*
X86372000Y-121920000D03*
X87872000Y-121920000D03*
X98818000Y-124079000D03*
X100318000Y-124079000D03*
D34*
X84455000Y-117971000D03*
X84455000Y-116471000D03*
X84709000Y-123583000D03*
X84709000Y-125083000D03*
D35*
X83324000Y-119634000D03*
X84824000Y-119634000D03*
X83324000Y-121920000D03*
X84824000Y-121920000D03*
X85332000Y-102946200D03*
X83832000Y-102946200D03*
X83832000Y-104546400D03*
X85332000Y-104546400D03*
X100318000Y-116840000D03*
X98818000Y-116840000D03*
D34*
X85979000Y-116471000D03*
X85979000Y-117971000D03*
X86233000Y-123583000D03*
X86233000Y-125083000D03*
D36*
X113464800Y-106807000D03*
X110664800Y-107757000D03*
X110664800Y-105857000D03*
D37*
X97213400Y-124485400D03*
X97213400Y-123215400D03*
X97213400Y-121945400D03*
X97213400Y-120675400D03*
X97213400Y-119405400D03*
X97213400Y-118135400D03*
X97213400Y-116865400D03*
X91813400Y-116865400D03*
X91813400Y-118135400D03*
X91813400Y-119405400D03*
X91813400Y-120675400D03*
X91813400Y-121945400D03*
X91813400Y-123215400D03*
X91813400Y-124485400D03*
D38*
X90195400Y-119710200D03*
X88925400Y-119710200D03*
X90195400Y-121742200D03*
X89560400Y-119710200D03*
X88925400Y-121742200D03*
X89560400Y-121742200D03*
X108140500Y-98488500D03*
X109410500Y-98488500D03*
X108140500Y-96456500D03*
X108775500Y-98488500D03*
X109410500Y-96456500D03*
X108775500Y-96456500D03*
D39*
X112448800Y-114696240D03*
X112448800Y-110296960D03*
D40*
X89535000Y-97259140D03*
X89535000Y-100860860D03*
D24*
X90604800Y-106807000D03*
D25*
X88064800Y-106807000D03*
D24*
X90604800Y-104267000D03*
D25*
X88064800Y-104267000D03*
D41*
X112588500Y-101955600D03*
X91328700Y-98298000D03*
X112464800Y-107982000D03*
X105123440Y-112872520D03*
X101886498Y-113662460D03*
X111623300Y-106781600D03*
X103261620Y-108000800D03*
X102108000Y-99631500D03*
X105283000Y-99631500D03*
X94488000Y-123698000D03*
X99822000Y-115887500D03*
X85623400Y-120980200D03*
X85572600Y-105791000D03*
X110670800Y-113271300D03*
X98008900Y-115062000D03*
X114645900Y-115150900D03*
X90805000Y-101757598D03*
X107462780Y-108071920D03*
X104455420Y-104861360D03*
X98918220Y-99969320D03*
X87691420Y-101833680D03*
X103342900Y-112852200D03*
X98542300Y-113715800D03*
X107020820Y-105272840D03*
X90376200Y-118778020D03*
X106304540Y-103946960D03*
X89202720Y-122577860D03*
X105524760Y-103398320D03*
X93401340Y-116707920D03*
X104518920Y-104061260D03*
X93508020Y-121406920D03*
X99685300Y-102095300D03*
X110061200Y-101574600D03*
X110200900Y-100622100D03*
X98580400Y-103251000D03*
X95504000Y-104203500D03*
X91503500Y-108140500D03*
X95567500Y-105283000D03*
X91821000Y-108966000D03*
X96500140Y-109118400D03*
X86357920Y-114985800D03*
X107914800Y-115332000D03*
X107889800Y-111582000D03*
X98314800Y-111907000D03*
X101289800Y-108132000D03*
X109514800Y-111107000D03*
X109439800Y-115332000D03*
X104397000Y-111544100D03*
X95697500Y-121462800D03*
X107124500Y-115125500D03*
X101790500Y-119888000D03*
X110378700Y-96428560D03*
X110134860Y-97434400D03*
X90500200Y-122605800D03*
X90474800Y-124256800D03*
X88976200Y-118872000D03*
X90449400Y-116586000D03*
X90678000Y-125095000D03*
X86918800Y-125120400D03*
D42*
X99060000Y-121170000D02*
X99060000Y-121412000D01*
X99060000Y-121412000D02*
X99568000Y-121920000D01*
X99568000Y-121920000D02*
X101473000Y-121920000D01*
X101473000Y-121920000D02*
X101854000Y-122301000D01*
X101854000Y-122301000D02*
X101854000Y-122936000D01*
X101854000Y-122936000D02*
X103378000Y-124460000D01*
D43*
X106795000Y-122555000D02*
X106795000Y-123583000D01*
X105918000Y-124460000D02*
X103378000Y-124460000D01*
X106795000Y-123583000D02*
X105918000Y-124460000D01*
X104660000Y-121920000D02*
X105295000Y-122555000D01*
X103378000Y-121920000D02*
X104660000Y-121920000D01*
D42*
X99060000Y-120066500D02*
X99135500Y-120066500D01*
X99135500Y-120066500D02*
X99822000Y-119380000D01*
X99822000Y-119380000D02*
X101346000Y-119380000D01*
X101346000Y-119380000D02*
X101981000Y-118745000D01*
X101981000Y-118745000D02*
X101981000Y-117221000D01*
X101981000Y-117221000D02*
X102362000Y-116840000D01*
X102362000Y-116840000D02*
X103378000Y-116840000D01*
D43*
X106795000Y-118745000D02*
X106795000Y-117717000D01*
X106795000Y-117717000D02*
X105918000Y-116840000D01*
X105918000Y-116840000D02*
X103378000Y-116840000D01*
X104660000Y-119380000D02*
X105295000Y-118745000D01*
X103378000Y-119380000D02*
X104660000Y-119380000D01*
X89535000Y-97259140D02*
X90289840Y-97259140D01*
D44*
X90289840Y-97259140D02*
X91328700Y-98298000D01*
D43*
X112543200Y-101910300D02*
X112530500Y-101910300D01*
X112588500Y-101955600D02*
X112543200Y-101910300D01*
D45*
X113464800Y-106807000D02*
X113464800Y-107315000D01*
X113783000Y-107633200D02*
X114887200Y-107633200D01*
X113464800Y-107315000D02*
X113783000Y-107633200D01*
X111340460Y-101910300D02*
X112530500Y-101910300D01*
X113464800Y-105765600D02*
X113464800Y-106807000D01*
X112677400Y-104978200D02*
X113464800Y-105765600D01*
X112677400Y-102057200D02*
X112677400Y-104978200D01*
X112530500Y-101910300D02*
X112677400Y-102057200D01*
D44*
X86360000Y-98945000D02*
X87849140Y-98945000D01*
X87849140Y-98945000D02*
X89535000Y-97259140D01*
X80391000Y-102870000D02*
X84316000Y-98945000D01*
X84316000Y-98945000D02*
X86360000Y-98945000D01*
X112448800Y-107982000D02*
X112448800Y-110296960D01*
X112464800Y-107982000D02*
X112448800Y-107982000D01*
D43*
X99822000Y-115887500D02*
X99822000Y-115547600D01*
X101707140Y-113662460D02*
X101886498Y-113662460D01*
X99822000Y-115547600D02*
X101707140Y-113662460D01*
X105123440Y-112872520D02*
X105123440Y-112851500D01*
X105123440Y-112851500D02*
X105123440Y-112872520D01*
X105123440Y-112872520D02*
X105123440Y-112851500D01*
X114040460Y-104110300D02*
X114040460Y-97110300D01*
X111340460Y-98110300D02*
X113040460Y-98110300D01*
X113040460Y-98110300D02*
X114040460Y-97110300D01*
X97020000Y-105740000D02*
X100182940Y-105740000D01*
X102443740Y-108000800D02*
X102507240Y-108000800D01*
X100182940Y-105740000D02*
X102443740Y-108000800D01*
X102070000Y-109990000D02*
X102070000Y-108438040D01*
X102070000Y-108438040D02*
X102507240Y-108000800D01*
X102507240Y-108000800D02*
X103261620Y-108000800D01*
X111623300Y-106781600D02*
X111606350Y-106798550D01*
X111606350Y-106798550D02*
X111623300Y-106781600D01*
X111623300Y-106781600D02*
X111623300Y-106815500D01*
D45*
X113795000Y-121767600D02*
X113795000Y-121742200D01*
X113795000Y-121742200D02*
X115713400Y-119823800D01*
X115713400Y-119823800D02*
X115713400Y-109029500D01*
D43*
X114887200Y-106133200D02*
X115458000Y-106133200D01*
X116119100Y-108623800D02*
X115713400Y-109029500D01*
X116119100Y-106794300D02*
X116119100Y-108623800D01*
X115458000Y-106133200D02*
X116119100Y-106794300D01*
X112448800Y-110296960D02*
X112448800Y-107641000D01*
X112448800Y-107641000D02*
X111623300Y-106815500D01*
X111623300Y-106815500D02*
X110664800Y-105857000D01*
D44*
X110664800Y-105857000D02*
X110664800Y-103785960D01*
X110664800Y-103785960D02*
X111340460Y-103110300D01*
D45*
X111340460Y-99310300D02*
X111340460Y-98110300D01*
X114887200Y-106133200D02*
X114887200Y-104957040D01*
X114887200Y-104957040D02*
X114040460Y-104110300D01*
D42*
X95059500Y-106057000D02*
X95695200Y-106057000D01*
X96012200Y-105740000D02*
X97020000Y-105740000D01*
X95695200Y-106057000D02*
X96012200Y-105740000D01*
D45*
X105270000Y-98290000D02*
X105270000Y-99618500D01*
X102070000Y-99593500D02*
X102070000Y-98290000D01*
X102108000Y-99631500D02*
X102070000Y-99593500D01*
X105270000Y-99618500D02*
X105283000Y-99631500D01*
D43*
X93738000Y-120003000D02*
X93801500Y-120003000D01*
X93738000Y-115836000D02*
X93738000Y-115316000D01*
X94402998Y-116500998D02*
X93738000Y-115836000D01*
X94402998Y-119401502D02*
X94402998Y-116500998D01*
X93801500Y-120003000D02*
X94402998Y-119401502D01*
D42*
X108140500Y-98488500D02*
X107950000Y-98488500D01*
X105270000Y-97295000D02*
X105270000Y-98290000D01*
X105600500Y-96964500D02*
X105270000Y-97295000D01*
X107442000Y-96964500D02*
X105600500Y-96964500D01*
X107632500Y-97155000D02*
X107442000Y-96964500D01*
X107632500Y-98171000D02*
X107632500Y-97155000D01*
X107950000Y-98488500D02*
X107632500Y-98171000D01*
X108140500Y-98488500D02*
X108140500Y-98107500D01*
X109410500Y-97028000D02*
X109410500Y-96456500D01*
X109156500Y-97282000D02*
X109410500Y-97028000D01*
X108966000Y-97282000D02*
X109156500Y-97282000D01*
X108140500Y-98107500D02*
X108966000Y-97282000D01*
X101104000Y-111760000D02*
X101219000Y-111760000D01*
X101219000Y-111760000D02*
X102070000Y-110909000D01*
X102070000Y-110909000D02*
X102070000Y-109990000D01*
X95059500Y-106057000D02*
X95059500Y-105918000D01*
X95059500Y-105918000D02*
X94742000Y-105600500D01*
D43*
X93789500Y-104711500D02*
X94107000Y-104711500D01*
X94107000Y-104711500D02*
X94678500Y-105283000D01*
D45*
X93853000Y-104711500D02*
X93789500Y-104711500D01*
X94107000Y-104711500D02*
X94678500Y-105283000D01*
D44*
X93345000Y-103100000D02*
X93345000Y-104203500D01*
X93345000Y-104203500D02*
X93853000Y-104711500D01*
D42*
X95059500Y-106057000D02*
X95059500Y-105664000D01*
X95059500Y-105664000D02*
X94678500Y-105283000D01*
X94678500Y-105283000D02*
X94107000Y-104711500D01*
X93853000Y-104711500D02*
X93345000Y-104203500D01*
D43*
X104521000Y-112851500D02*
X105123440Y-112851500D01*
X105123440Y-112851500D02*
X105624500Y-112851500D01*
X105624500Y-112851500D02*
X105676000Y-112903000D01*
X100318000Y-116840000D02*
X100318000Y-116193000D01*
X94488000Y-123698000D02*
X94361000Y-123698000D01*
X100318000Y-116193000D02*
X99822000Y-115887500D01*
X100318000Y-124079000D02*
X100318000Y-124726000D01*
X94361000Y-120626000D02*
X93738000Y-120003000D01*
X94361000Y-123698000D02*
X94361000Y-120626000D01*
X96012000Y-125349000D02*
X94361000Y-123698000D01*
X99695000Y-125349000D02*
X96012000Y-125349000D01*
X100318000Y-124726000D02*
X99695000Y-125349000D01*
X91813400Y-120675400D02*
X93065600Y-120675400D01*
X93065600Y-120675400D02*
X93738000Y-120003000D01*
D42*
X85332000Y-104546400D02*
X85332000Y-105550400D01*
X85623400Y-120980200D02*
X85623400Y-120954800D01*
X85332000Y-105550400D02*
X85572600Y-105791000D01*
X91813400Y-120675400D02*
X89738200Y-120675400D01*
X89712800Y-120700800D02*
X89712800Y-120726200D01*
X89738200Y-120675400D02*
X89712800Y-120700800D01*
X88366600Y-120954800D02*
X89484200Y-120954800D01*
X90195400Y-120243600D02*
X90195400Y-119710200D01*
X89484200Y-120954800D02*
X89712800Y-120726200D01*
X89712800Y-120726200D02*
X90195400Y-120243600D01*
X88925400Y-121742200D02*
X88925400Y-121513600D01*
X88925400Y-121513600D02*
X88366600Y-120954800D01*
X88366600Y-120954800D02*
X85623400Y-120954800D01*
X86233000Y-123367800D02*
X85623400Y-122758200D01*
X85979000Y-118338600D02*
X85979000Y-117971000D01*
X85623400Y-118694200D02*
X85979000Y-118338600D01*
X85623400Y-122758200D02*
X85623400Y-120954800D01*
X85623400Y-120954800D02*
X85623400Y-118694200D01*
X86233000Y-123583000D02*
X86233000Y-123367800D01*
D43*
X96721000Y-112649000D02*
X96721000Y-114231300D01*
X110664800Y-113265300D02*
X110664800Y-112912240D01*
X110670800Y-113271300D02*
X110664800Y-113265300D01*
X97551700Y-115062000D02*
X98008900Y-115062000D01*
X96721000Y-114231300D02*
X97551700Y-115062000D01*
D45*
X114645900Y-115150900D02*
X113364470Y-113869470D01*
X113364470Y-113869470D02*
X113364470Y-113780570D01*
D44*
X114213400Y-109029500D02*
X114213400Y-112931640D01*
X114213400Y-112931640D02*
X113364470Y-113780570D01*
X113364470Y-113780570D02*
X112448800Y-114696240D01*
X110664800Y-107757000D02*
X110664800Y-112912240D01*
X110664800Y-112912240D02*
X112448800Y-114696240D01*
D42*
X96721000Y-112649000D02*
X96721000Y-110797000D01*
X98031000Y-106540000D02*
X97020000Y-106540000D01*
X98171000Y-106680000D02*
X98031000Y-106540000D01*
X98171000Y-109347000D02*
X98171000Y-106680000D01*
X96721000Y-110797000D02*
X98171000Y-109347000D01*
X97020000Y-106540000D02*
X95961500Y-106540000D01*
X95961500Y-106540000D02*
X95059500Y-107442000D01*
X95059500Y-107442000D02*
X95059500Y-107557000D01*
D45*
X99621000Y-112649000D02*
X102604000Y-112649000D01*
X102604000Y-112649000D02*
X102362000Y-112649000D01*
X104521000Y-114351500D02*
X103239000Y-114351500D01*
X102604000Y-113716500D02*
X102604000Y-111760000D01*
X103239000Y-114351500D02*
X102604000Y-113716500D01*
D42*
X102604000Y-111760000D02*
X102604000Y-111454500D01*
X102604000Y-111454500D02*
X102870000Y-111188500D01*
X102870000Y-111188500D02*
X102870000Y-109990000D01*
X102362000Y-112649000D02*
X102604000Y-112407000D01*
X102604000Y-112407000D02*
X102604000Y-111760000D01*
D43*
X104521000Y-114351500D02*
X105624500Y-114351500D01*
X105624500Y-114351500D02*
X105676000Y-114300000D01*
X97213400Y-120675400D02*
X95973900Y-120675400D01*
X95238000Y-119939500D02*
X95238000Y-115316000D01*
X95973900Y-120675400D02*
X95238000Y-119939500D01*
D44*
X93980000Y-112321000D02*
X93980000Y-112649000D01*
X93980000Y-112649000D02*
X95238000Y-113907000D01*
X95238000Y-113907000D02*
X95238000Y-115316000D01*
D43*
X93345000Y-100100000D02*
X93345000Y-98933000D01*
X97089000Y-98359000D02*
X97089000Y-98936000D01*
X96520000Y-97790000D02*
X97089000Y-98359000D01*
X94488000Y-97790000D02*
X96520000Y-97790000D01*
X93345000Y-98933000D02*
X94488000Y-97790000D01*
D44*
X93345000Y-100100000D02*
X90295860Y-100100000D01*
X90295860Y-100100000D02*
X89535000Y-100860860D01*
X86360000Y-100445000D02*
X89119140Y-100445000D01*
X89119140Y-100445000D02*
X89535000Y-100860860D01*
D43*
X92456000Y-115304000D02*
X91428000Y-115304000D01*
X90424000Y-115062000D02*
X87670000Y-112308000D01*
X91186000Y-115062000D02*
X90424000Y-115062000D01*
X91428000Y-115304000D02*
X91186000Y-115062000D01*
X87670000Y-112308000D02*
X87670000Y-111760000D01*
D44*
X89535000Y-100860860D02*
X89908262Y-100860860D01*
X89908262Y-100860860D02*
X90805000Y-101757598D01*
D42*
X90170000Y-106172000D02*
X91592400Y-104749600D01*
X91592400Y-104749600D02*
X91592400Y-103454200D01*
X91592400Y-103454200D02*
X90855800Y-102717600D01*
X90855800Y-102717600D02*
X85699600Y-102717600D01*
X82423000Y-118098000D02*
X80583800Y-118098000D01*
X80583800Y-118098000D02*
X80444800Y-118237000D01*
X82423000Y-116598000D02*
X81345800Y-116598000D01*
X81345800Y-116598000D02*
X80444800Y-115697000D01*
X83286600Y-117041800D02*
X83286600Y-119596600D01*
X82842800Y-116598000D02*
X83286600Y-117041800D01*
X82423000Y-116598000D02*
X82842800Y-116598000D01*
X83286600Y-119596600D02*
X83324000Y-119634000D01*
X82181000Y-116840000D02*
X82423000Y-116598000D01*
X82550000Y-124956000D02*
X82083800Y-124956000D01*
X82083800Y-124956000D02*
X80444800Y-123317000D01*
X83324000Y-121920000D02*
X81587800Y-121920000D01*
X81587800Y-121920000D02*
X80444800Y-120777000D01*
X83324000Y-121920000D02*
X83324000Y-122682000D01*
X83324000Y-122682000D02*
X82550000Y-123456000D01*
X90170000Y-106680000D02*
X90170000Y-106172000D01*
X85699600Y-102717600D02*
X85471000Y-102946200D01*
X85471000Y-102946200D02*
X85332000Y-102946200D01*
D44*
X93980000Y-109421000D02*
X93980000Y-109220000D01*
X93980000Y-109220000D02*
X93342460Y-108582460D01*
X93342460Y-108582460D02*
X93342460Y-106680000D01*
X92456000Y-113804000D02*
X90944000Y-113804000D01*
X90170000Y-113030000D02*
X90170000Y-111760000D01*
X90944000Y-113804000D02*
X90170000Y-113030000D01*
D43*
X96139000Y-96136000D02*
X93726460Y-96136000D01*
X93726460Y-96136000D02*
X93342460Y-96520000D01*
X83832000Y-104546400D02*
X83832000Y-102946200D01*
D42*
X83832000Y-102946200D02*
X83832000Y-102482540D01*
X107530860Y-108140000D02*
X108720000Y-108140000D01*
X107462780Y-108071920D02*
X107530860Y-108140000D01*
X103810260Y-104861360D02*
X104455420Y-104861360D01*
X98918220Y-99969320D02*
X103810260Y-104861360D01*
X84480860Y-101833680D02*
X87691420Y-101833680D01*
X83832000Y-102482540D02*
X84480860Y-101833680D01*
X98818000Y-116840000D02*
X98818000Y-114740800D01*
X103673100Y-112522000D02*
X103673100Y-109993100D01*
X103342900Y-112852200D02*
X103673100Y-112522000D01*
X98288300Y-113969800D02*
X98542300Y-113715800D01*
X98288300Y-114211100D02*
X98288300Y-113969800D01*
X98818000Y-114740800D02*
X98288300Y-114211100D01*
X103673100Y-109993100D02*
X103670000Y-109990000D01*
D45*
X103670000Y-109990000D02*
X103670000Y-108610500D01*
X103670000Y-108610500D02*
X104940500Y-107340000D01*
X104940500Y-107340000D02*
X108720000Y-107340000D01*
X103695500Y-110015500D02*
X103670000Y-109990000D01*
X98818000Y-116840000D02*
X97238800Y-116840000D01*
X97238800Y-116840000D02*
X97213400Y-116865400D01*
D43*
X97213400Y-118135400D02*
X97213400Y-116865400D01*
D42*
X89560400Y-119710200D02*
X89560400Y-119311880D01*
X107422140Y-105674160D02*
X108654160Y-105674160D01*
X107020820Y-105272840D02*
X107422140Y-105674160D01*
X90094260Y-118778020D02*
X90376200Y-118778020D01*
X89560400Y-119311880D02*
X90094260Y-118778020D01*
X108654160Y-105674160D02*
X108720000Y-105740000D01*
X89560400Y-121742200D02*
X89560400Y-122220180D01*
X107645660Y-104902000D02*
X108682000Y-104902000D01*
X107361180Y-104617520D02*
X107645660Y-104902000D01*
X106975100Y-104617520D02*
X107361180Y-104617520D01*
X106304540Y-103946960D02*
X106975100Y-104617520D01*
X89560400Y-122220180D02*
X89202720Y-122577860D01*
X108682000Y-104902000D02*
X108720000Y-104940000D01*
X91813400Y-119405400D02*
X92613940Y-119405400D01*
X107432300Y-104140000D02*
X108720000Y-104140000D01*
X107307840Y-104015540D02*
X107432300Y-104140000D01*
X107307840Y-103489760D02*
X107307840Y-104015540D01*
X106952240Y-103134160D02*
X107307840Y-103489760D01*
X105788920Y-103134160D02*
X106952240Y-103134160D01*
X105524760Y-103398320D02*
X105788920Y-103134160D01*
X93401340Y-118618000D02*
X93401340Y-116707920D01*
X92613940Y-119405400D02*
X93401340Y-118618000D01*
D45*
X91813400Y-119405400D02*
X92557600Y-119405400D01*
D42*
X91813400Y-121945400D02*
X92969540Y-121945400D01*
X107742180Y-103220520D02*
X108600520Y-103220520D01*
X107122420Y-102600760D02*
X107742180Y-103220520D01*
X105204720Y-102600760D02*
X107122420Y-102600760D01*
X104882140Y-102923340D02*
X105204720Y-102600760D01*
X104882140Y-103698040D02*
X104882140Y-102923340D01*
X104518920Y-104061260D02*
X104882140Y-103698040D01*
X92969540Y-121945400D02*
X93508020Y-121406920D01*
X108600520Y-103220520D02*
X108720000Y-103340000D01*
D45*
X108694500Y-103314500D02*
X108720000Y-103340000D01*
X104470000Y-98290000D02*
X104470000Y-99898000D01*
X106425500Y-100140000D02*
X108720000Y-100140000D01*
X106172000Y-100393500D02*
X106425500Y-100140000D01*
X104965500Y-100393500D02*
X106172000Y-100393500D01*
X104470000Y-99898000D02*
X104965500Y-100393500D01*
D42*
X109410500Y-98488500D02*
X109410500Y-98806000D01*
X107767000Y-99187000D02*
X106870000Y-98290000D01*
X109029500Y-99187000D02*
X107767000Y-99187000D01*
X109410500Y-98806000D02*
X109029500Y-99187000D01*
X108140500Y-96456500D02*
X103568500Y-96456500D01*
X102870000Y-97155000D02*
X102870000Y-98290000D01*
X103568500Y-96456500D02*
X102870000Y-97155000D01*
D43*
X95189000Y-98936000D02*
X95189000Y-100142000D01*
X95987000Y-100940000D02*
X97020000Y-100940000D01*
X95189000Y-100142000D02*
X95987000Y-100940000D01*
D45*
X111340460Y-101260300D02*
X110540600Y-101260300D01*
X99240600Y-102540000D02*
X97020000Y-102540000D01*
X99685300Y-102095300D02*
X99240600Y-102540000D01*
X110226300Y-101574600D02*
X110061200Y-101574600D01*
X110540600Y-101260300D02*
X110226300Y-101574600D01*
X110212700Y-100610300D02*
X111340460Y-100610300D01*
X110200900Y-100622100D02*
X110212700Y-100610300D01*
X98491400Y-103340000D02*
X98580400Y-103251000D01*
X97020000Y-103340000D02*
X98491400Y-103340000D01*
D42*
X84328000Y-107430000D02*
X85776500Y-107430000D01*
X95567500Y-104140000D02*
X97020000Y-104140000D01*
X95504000Y-104203500D02*
X95567500Y-104140000D01*
X86487000Y-108140500D02*
X91503500Y-108140500D01*
X85776500Y-107430000D02*
X86487000Y-108140500D01*
X84328000Y-109970000D02*
X90817000Y-109970000D01*
X95910500Y-104940000D02*
X97020000Y-104940000D01*
X95567500Y-105283000D02*
X95910500Y-104940000D01*
X90817000Y-109970000D02*
X91821000Y-108966000D01*
X84328000Y-112510000D02*
X84328000Y-112452002D01*
X84328000Y-112452002D02*
X86226502Y-110553500D01*
X86226502Y-110553500D02*
X95250000Y-110553500D01*
X95250000Y-110553500D02*
X95758000Y-110045500D01*
X95758000Y-110045500D02*
X95758000Y-107505500D01*
X95758000Y-107505500D02*
X95923500Y-107340000D01*
X95923500Y-107340000D02*
X97020000Y-107340000D01*
X84328000Y-115050000D02*
X86293720Y-115050000D01*
X97020000Y-108598540D02*
X97020000Y-108140000D01*
X96500140Y-109118400D02*
X97020000Y-108598540D01*
X86293720Y-115050000D02*
X86357920Y-114985800D01*
X107914800Y-115332000D02*
X107889800Y-115307000D01*
X107889800Y-115307000D02*
X107889800Y-111582000D01*
X98314800Y-111907000D02*
X97989800Y-111582000D01*
X97989800Y-111582000D02*
X97989800Y-110707000D01*
X97989800Y-110707000D02*
X98389800Y-110307000D01*
X98389800Y-110307000D02*
X98553000Y-110307000D01*
X98553000Y-110307000D02*
X98870000Y-109990000D01*
X99670000Y-108401800D02*
X99670000Y-109990000D01*
X99914800Y-108157000D02*
X99670000Y-108401800D01*
X101264800Y-108157000D02*
X99914800Y-108157000D01*
X101289800Y-108132000D02*
X101264800Y-108157000D01*
X109514800Y-115257000D02*
X109514800Y-111107000D01*
X109439800Y-115332000D02*
X109514800Y-115257000D01*
X97213400Y-123215400D02*
X96281700Y-123215400D01*
X105270000Y-110899700D02*
X105270000Y-109990000D01*
X104841500Y-111328200D02*
X105270000Y-110899700D01*
X104612900Y-111328200D02*
X104841500Y-111328200D01*
X104397000Y-111544100D02*
X104612900Y-111328200D01*
X95697500Y-122631200D02*
X95697500Y-121462800D01*
X96281700Y-123215400D02*
X95697500Y-122631200D01*
D45*
X105283000Y-110003000D02*
X105270000Y-109990000D01*
X96997500Y-122999500D02*
X97213400Y-123215400D01*
D43*
X97213400Y-124485400D02*
X98411600Y-124485400D01*
X98411600Y-124485400D02*
X98818000Y-124079000D01*
X97213400Y-123215400D02*
X97213400Y-124485400D01*
D45*
X107176000Y-112903000D02*
X107176000Y-110296000D01*
X107176000Y-110296000D02*
X106870000Y-109990000D01*
X100647500Y-120066500D02*
X101612000Y-120066500D01*
X107176000Y-115074000D02*
X107176000Y-114300000D01*
X107124500Y-115125500D02*
X107176000Y-115074000D01*
X101612000Y-120066500D02*
X101790500Y-119888000D01*
D43*
X107176000Y-112903000D02*
X107176000Y-114300000D01*
X100647500Y-121170000D02*
X100647500Y-120066500D01*
D42*
X82550000Y-115050000D02*
X82337800Y-115050000D01*
X82337800Y-115050000D02*
X80444800Y-113157000D01*
X82550000Y-115050000D02*
X82182400Y-115050000D01*
X82550000Y-112510000D02*
X82337800Y-112510000D01*
X82337800Y-112510000D02*
X80444800Y-110617000D01*
X82550000Y-112510000D02*
X82385600Y-112510000D01*
X82550000Y-109970000D02*
X82337800Y-109970000D01*
X82337800Y-109970000D02*
X80444800Y-108077000D01*
X82550000Y-109970000D02*
X82309400Y-109970000D01*
X82550000Y-107430000D02*
X82337800Y-107430000D01*
X82337800Y-107430000D02*
X80444800Y-105537000D01*
X108775500Y-96096280D02*
X108775500Y-96456500D01*
X109083300Y-95788480D02*
X108775500Y-96096280D01*
X109784340Y-95788480D02*
X109083300Y-95788480D01*
X109982460Y-95986600D02*
X109784340Y-95788480D01*
X109982460Y-96032320D02*
X109982460Y-95986600D01*
X110378700Y-96428560D02*
X109982460Y-96032320D01*
X108775500Y-98108898D02*
X108775500Y-98488500D01*
X109129958Y-97754440D02*
X108775500Y-98108898D01*
X109814820Y-97754440D02*
X109129958Y-97754440D01*
X110134860Y-97434400D02*
X109814820Y-97754440D01*
D43*
X99060000Y-122670000D02*
X100647500Y-122670000D01*
X97213400Y-121945400D02*
X98335400Y-121945400D01*
X98335400Y-121945400D02*
X99060000Y-122670000D01*
X97213400Y-119405400D02*
X98221100Y-119405400D01*
X98221100Y-119405400D02*
X99060000Y-118566500D01*
X100647500Y-118566500D02*
X99060000Y-118566500D01*
D42*
X82550000Y-105930000D02*
X84328000Y-105930000D01*
X82550000Y-108470000D02*
X84328000Y-108470000D01*
X82550000Y-111010000D02*
X84328000Y-111010000D01*
X82550000Y-113550000D02*
X84328000Y-113550000D01*
X89395300Y-123570300D02*
X90475500Y-123570300D01*
X90830400Y-123215400D02*
X91813400Y-123215400D01*
X90475500Y-123570300D02*
X90830400Y-123215400D01*
X87871300Y-123570300D02*
X87871300Y-121920700D01*
X87871300Y-121920700D02*
X87872000Y-121920000D01*
X87871300Y-123570300D02*
X89395300Y-123570300D01*
X89395300Y-125070300D02*
X89661300Y-125070300D01*
X89661300Y-125070300D02*
X90474800Y-124256800D01*
X90220800Y-122326400D02*
X90220800Y-121767600D01*
X90500200Y-122605800D02*
X90220800Y-122326400D01*
X90220800Y-121767600D02*
X90195400Y-121742200D01*
X87871300Y-125070300D02*
X89395300Y-125070300D01*
X91813400Y-118135400D02*
X90271600Y-118135400D01*
X90107200Y-117971000D02*
X89281000Y-117971000D01*
X90271600Y-118135400D02*
X90107200Y-117971000D01*
X87872000Y-119634000D02*
X87872000Y-118213000D01*
X87872000Y-118213000D02*
X87630000Y-117971000D01*
X87630000Y-117971000D02*
X89281000Y-117971000D01*
X89281000Y-116471000D02*
X90334400Y-116471000D01*
X88925400Y-118922800D02*
X88925400Y-119710200D01*
X88976200Y-118872000D02*
X88925400Y-118922800D01*
X90334400Y-116471000D02*
X90449400Y-116586000D01*
X87630000Y-116471000D02*
X89281000Y-116471000D01*
X85979000Y-116471000D02*
X86195600Y-116471000D01*
X86195600Y-116471000D02*
X86817200Y-115849400D01*
X90805000Y-115849400D02*
X91813400Y-116857800D01*
X86817200Y-115849400D02*
X90805000Y-115849400D01*
X91813400Y-116857800D02*
X91813400Y-116865400D01*
X85979000Y-116471000D02*
X86067200Y-116471000D01*
X86067200Y-116471000D02*
X86791800Y-117195600D01*
X86372000Y-119012400D02*
X86372000Y-119634000D01*
X86512400Y-118872000D02*
X86372000Y-119012400D01*
X86537800Y-118872000D02*
X86512400Y-118872000D01*
X86791800Y-118618000D02*
X86537800Y-118872000D01*
X86791800Y-117195600D02*
X86791800Y-118618000D01*
X84455000Y-116471000D02*
X85979000Y-116471000D01*
X86233000Y-125083000D02*
X86881400Y-125083000D01*
X91305400Y-124993400D02*
X91813400Y-124485400D01*
X90779600Y-124993400D02*
X91305400Y-124993400D01*
X90678000Y-125095000D02*
X90779600Y-124993400D01*
X86881400Y-125083000D02*
X86918800Y-125120400D01*
X86372000Y-121920000D02*
X86372000Y-122516200D01*
X86233000Y-124815600D02*
X86233000Y-125083000D01*
X86436200Y-124612400D02*
X86233000Y-124815600D01*
X86614000Y-124612400D02*
X86436200Y-124612400D01*
X87045800Y-124180600D02*
X86791800Y-124434600D01*
X86791800Y-124434600D02*
X86614000Y-124612400D01*
X87045800Y-123190000D02*
X87045800Y-124180600D01*
X86372000Y-122516200D02*
X87045800Y-123190000D01*
X84709000Y-125083000D02*
X86233000Y-125083000D01*
X84824000Y-119634000D02*
X84824000Y-119037800D01*
X84455000Y-118668800D02*
X84455000Y-117971000D01*
X84824000Y-119037800D02*
X84455000Y-118668800D01*
X84824000Y-121920000D02*
X84824000Y-123468000D01*
X84824000Y-123468000D02*
X84709000Y-123583000D01*
M02*
