G04 #@! TF.FileFunction,Soldermask,Top*
%FSLAX46Y46*%
G04 Gerber Fmt 4.6, Leading zero omitted, Abs format (unit mm)*
G04 Created by KiCad (PCBNEW (2015-08-05 BZR 6055, Git fa29c62)-product) date 24/12/2015 2:00:31 PM*
%MOMM*%
G01*
G04 APERTURE LIST*
%ADD10C,0.100000*%
%ADD11R,0.800000X0.750000*%
%ADD12R,0.750000X0.800000*%
%ADD13C,1.300000*%
%ADD14R,1.300000X1.300000*%
%ADD15C,1.998980*%
%ADD16R,1.998980X1.998980*%
%ADD17R,1.000000X1.600000*%
%ADD18R,0.560000X1.600000*%
%ADD19R,1.600000X0.560000*%
%ADD20R,2.032000X1.727200*%
%ADD21O,2.032000X1.727200*%
%ADD22R,0.400000X1.350000*%
%ADD23O,1.250000X0.950000*%
%ADD24O,1.000000X1.550000*%
%ADD25R,1.727200X1.727200*%
%ADD26O,1.727200X1.727200*%
%ADD27R,2.032000X2.032000*%
%ADD28O,2.032000X2.032000*%
%ADD29R,0.900000X0.600000*%
%ADD30R,0.500000X0.900000*%
%ADD31R,0.900000X0.500000*%
%ADD32R,0.600000X0.900000*%
%ADD33R,1.500000X0.600000*%
%ADD34R,0.304800X0.508000*%
G04 APERTURE END LIST*
D10*
D11*
X90436000Y-156591000D03*
X91936000Y-156591000D03*
D12*
X91948000Y-160516000D03*
X91948000Y-159016000D03*
D11*
X111137000Y-142621000D03*
X112637000Y-142621000D03*
X112256000Y-147193000D03*
X110756000Y-147193000D03*
D12*
X91821000Y-151753000D03*
X91821000Y-150253000D03*
D13*
X76494000Y-136906000D03*
D14*
X78994000Y-136906000D03*
D12*
X78740000Y-155182000D03*
X78740000Y-153682000D03*
X81280000Y-142760000D03*
X81280000Y-144260000D03*
X97536000Y-140601000D03*
X97536000Y-142101000D03*
X97790000Y-153785000D03*
X97790000Y-152285000D03*
D13*
X93345000Y-141391000D03*
D14*
X93345000Y-143891000D03*
D12*
X88900000Y-143879000D03*
X88900000Y-142379000D03*
X114427000Y-151777000D03*
X114427000Y-153277000D03*
X78740000Y-160516000D03*
X78740000Y-159016000D03*
D13*
X116078000Y-146518000D03*
D14*
X116078000Y-144018000D03*
D15*
X92710000Y-135125460D03*
D16*
X82550000Y-135125460D03*
D17*
X107291000Y-142113000D03*
X104291000Y-142113000D03*
D18*
X101410000Y-159901000D03*
X102210000Y-159901000D03*
X103010000Y-159901000D03*
X103810000Y-159901000D03*
X104610000Y-159901000D03*
X105410000Y-159901000D03*
X106210000Y-159901000D03*
X107010000Y-159901000D03*
X107810000Y-159901000D03*
X108610000Y-159901000D03*
X109410000Y-159901000D03*
D19*
X111260000Y-158051000D03*
X111260000Y-157251000D03*
X111260000Y-156451000D03*
X111260000Y-155651000D03*
X111260000Y-154851000D03*
X111260000Y-154051000D03*
X111260000Y-153251000D03*
X111260000Y-152451000D03*
X111260000Y-151651000D03*
X111260000Y-150851000D03*
X111260000Y-150051000D03*
D18*
X109410000Y-148201000D03*
X108610000Y-148201000D03*
X107810000Y-148201000D03*
X107010000Y-148201000D03*
X106210000Y-148201000D03*
X105410000Y-148201000D03*
X104610000Y-148201000D03*
X103810000Y-148201000D03*
X103010000Y-148201000D03*
X102210000Y-148201000D03*
X101410000Y-148201000D03*
D19*
X99560000Y-150051000D03*
X99560000Y-150851000D03*
X99560000Y-151651000D03*
X99560000Y-152451000D03*
X99560000Y-153251000D03*
X99560000Y-154051000D03*
X99560000Y-154851000D03*
X99560000Y-155651000D03*
X99560000Y-156451000D03*
X99560000Y-157251000D03*
X99560000Y-158051000D03*
D15*
X82296000Y-137924540D03*
D16*
X92456000Y-137924540D03*
D20*
X94488000Y-159512000D03*
D21*
X94488000Y-156972000D03*
X94488000Y-154432000D03*
X94488000Y-151892000D03*
D22*
X115854900Y-139230540D03*
X115204900Y-139230540D03*
X114554900Y-139230540D03*
X113904900Y-139230540D03*
X113254900Y-139230540D03*
D23*
X117054900Y-139230540D03*
X112054900Y-139230540D03*
D24*
X118054900Y-136530540D03*
X111054900Y-136530540D03*
D20*
X76200000Y-149860000D03*
D21*
X76200000Y-147320000D03*
X76200000Y-144780000D03*
X76200000Y-142240000D03*
D25*
X105156000Y-135382000D03*
D26*
X107696000Y-135382000D03*
X105156000Y-137922000D03*
X107696000Y-137922000D03*
D20*
X100330000Y-140462000D03*
D21*
X100330000Y-137922000D03*
X100330000Y-135382000D03*
D20*
X76200000Y-152400000D03*
D21*
X76200000Y-154940000D03*
X76200000Y-157480000D03*
X76200000Y-160020000D03*
D25*
X86360000Y-143510000D03*
D26*
X83820000Y-143510000D03*
X86360000Y-140970000D03*
X83820000Y-140970000D03*
D27*
X116840000Y-157480000D03*
D28*
X116840000Y-160020000D03*
D29*
X94485000Y-137922000D03*
X97285000Y-136972000D03*
X97285000Y-138872000D03*
D30*
X89166000Y-155067000D03*
X90666000Y-155067000D03*
X89166000Y-160528000D03*
X90666000Y-160528000D03*
X89166000Y-153416000D03*
X90666000Y-153416000D03*
X90666000Y-158877000D03*
X89166000Y-158877000D03*
X90539000Y-151765000D03*
X89039000Y-151765000D03*
X90539000Y-150114000D03*
X89039000Y-150114000D03*
X80506000Y-146050000D03*
X79006000Y-146050000D03*
X80506000Y-147701000D03*
X79006000Y-147701000D03*
X80506000Y-149352000D03*
X79006000Y-149352000D03*
X83046000Y-151003000D03*
X81546000Y-151003000D03*
X83173000Y-146050000D03*
X81673000Y-146050000D03*
X83173000Y-147701000D03*
X81673000Y-147701000D03*
X83173000Y-149352000D03*
X81673000Y-149352000D03*
D31*
X84455000Y-149491000D03*
X84455000Y-150991000D03*
X80391000Y-153555000D03*
X80391000Y-155055000D03*
D30*
X78498000Y-152146000D03*
X79998000Y-152146000D03*
D31*
X80391000Y-158889000D03*
X80391000Y-160389000D03*
D30*
X78498000Y-157480000D03*
X79998000Y-157480000D03*
X97421000Y-143891000D03*
X98921000Y-143891000D03*
X100850000Y-143891000D03*
X102350000Y-143891000D03*
D32*
X109982000Y-142999000D03*
X110932000Y-145799000D03*
X109032000Y-145799000D03*
D33*
X87663000Y-160782000D03*
X87663000Y-159512000D03*
X87663000Y-158242000D03*
X87663000Y-156972000D03*
X87663000Y-155702000D03*
X87663000Y-154432000D03*
X87663000Y-153162000D03*
X82263000Y-153162000D03*
X82263000Y-154432000D03*
X82263000Y-155702000D03*
X82263000Y-156972000D03*
X82263000Y-158242000D03*
X82263000Y-159512000D03*
X82263000Y-160782000D03*
D34*
X113030000Y-160147000D03*
X114300000Y-160147000D03*
X113030000Y-158115000D03*
X113665000Y-160147000D03*
X114300000Y-158115000D03*
X113665000Y-158115000D03*
M02*
