G04 #@! TF.FileFunction,Copper,L2,Bot,Signal*
%FSLAX46Y46*%
G04 Gerber Fmt 4.6, Leading zero omitted, Abs format (unit mm)*
G04 Created by KiCad (PCBNEW (2015-08-05 BZR 6055, Git fa29c62)-product) date 24/12/2015 2:00:31 PM*
%MOMM*%
G01*
G04 APERTURE LIST*
%ADD10C,0.100000*%
%ADD11C,1.300000*%
%ADD12R,1.300000X1.300000*%
%ADD13C,1.998980*%
%ADD14R,1.998980X1.998980*%
%ADD15R,2.032000X1.727200*%
%ADD16O,2.032000X1.727200*%
%ADD17O,1.250000X0.950000*%
%ADD18O,1.000000X1.550000*%
%ADD19R,1.727200X1.727200*%
%ADD20O,1.727200X1.727200*%
%ADD21R,2.032000X2.032000*%
%ADD22O,2.032000X2.032000*%
%ADD23C,0.600000*%
%ADD24C,1.016000*%
%ADD25C,0.250000*%
%ADD26C,0.508000*%
%ADD27C,0.254000*%
G04 APERTURE END LIST*
D10*
D11*
X76494000Y-136906000D03*
D12*
X78994000Y-136906000D03*
D11*
X93345000Y-141391000D03*
D12*
X93345000Y-143891000D03*
D11*
X116078000Y-146518000D03*
D12*
X116078000Y-144018000D03*
D13*
X92710000Y-135125460D03*
D14*
X82550000Y-135125460D03*
D13*
X82296000Y-137924540D03*
D14*
X92456000Y-137924540D03*
D15*
X94488000Y-159512000D03*
D16*
X94488000Y-156972000D03*
X94488000Y-154432000D03*
X94488000Y-151892000D03*
D17*
X117054900Y-139230540D03*
X112054900Y-139230540D03*
D18*
X118054900Y-136530540D03*
X111054900Y-136530540D03*
D15*
X76200000Y-149860000D03*
D16*
X76200000Y-147320000D03*
X76200000Y-144780000D03*
X76200000Y-142240000D03*
D19*
X105156000Y-135382000D03*
D20*
X107696000Y-135382000D03*
X105156000Y-137922000D03*
X107696000Y-137922000D03*
D15*
X100330000Y-140462000D03*
D16*
X100330000Y-137922000D03*
X100330000Y-135382000D03*
D15*
X76200000Y-152400000D03*
D16*
X76200000Y-154940000D03*
X76200000Y-157480000D03*
X76200000Y-160020000D03*
D19*
X86360000Y-143510000D03*
D20*
X83820000Y-143510000D03*
X86360000Y-140970000D03*
X83820000Y-140970000D03*
D21*
X116840000Y-157480000D03*
D22*
X116840000Y-160020000D03*
D23*
X85598000Y-155829000D03*
X96012000Y-140843000D03*
X111125000Y-141605000D03*
X115443000Y-140970000D03*
X103759000Y-144653000D03*
X103759000Y-146685000D03*
X112649000Y-155321000D03*
X112649000Y-153416000D03*
X114681000Y-135636000D03*
X90805000Y-142367000D03*
X102997000Y-142113000D03*
X100965000Y-142113000D03*
X83820000Y-156845000D03*
X89408000Y-137922000D03*
X85344000Y-135128000D03*
X99949000Y-143891000D03*
X101346000Y-157988000D03*
X99314000Y-161036000D03*
X86233000Y-159766000D03*
X98425000Y-139319000D03*
X99822000Y-147955000D03*
X106045000Y-140081000D03*
X105029000Y-143764000D03*
X103505000Y-149987000D03*
X107569000Y-139954000D03*
X106045000Y-143764000D03*
X105283000Y-149987000D03*
X97282000Y-156083000D03*
X87757000Y-152146000D03*
X91567000Y-153162000D03*
X97663000Y-158242000D03*
X91567000Y-157734000D03*
D24*
X100330000Y-140462000D02*
X103505000Y-140462000D01*
X103505000Y-140462000D02*
X104648000Y-141605000D01*
X104648000Y-141605000D02*
X111125000Y-141605000D01*
X111125000Y-141605000D02*
X114808000Y-141605000D01*
X114808000Y-141605000D02*
X115443000Y-140970000D01*
X85598000Y-152273000D02*
X85598000Y-155829000D01*
X87249000Y-150622000D02*
X85598000Y-152273000D01*
X90551000Y-150622000D02*
X87249000Y-150622000D01*
X95123000Y-146050000D02*
X90551000Y-150622000D01*
X95123000Y-141732000D02*
X95123000Y-146050000D01*
X96012000Y-140843000D02*
X95123000Y-141732000D01*
D25*
X112649000Y-141605000D02*
X111125000Y-141605000D01*
X115443000Y-140970000D02*
X114808000Y-141605000D01*
X114808000Y-141605000D02*
X112649000Y-141605000D01*
X111125000Y-141605000D02*
X104648000Y-141605000D01*
X104648000Y-141605000D02*
X103505000Y-140462000D01*
D24*
X103759000Y-144653000D02*
X103759000Y-146685000D01*
D26*
X112649000Y-153416000D02*
X112649000Y-155321000D01*
X115443000Y-139065000D02*
X115443000Y-139319000D01*
X116459000Y-143002000D02*
X116078000Y-143383000D01*
X116459000Y-140335000D02*
X116459000Y-143002000D01*
X115443000Y-139319000D02*
X116459000Y-140335000D01*
X116078000Y-143383000D02*
X116078000Y-144018000D01*
X115443000Y-139065000D02*
X115443000Y-136398000D01*
X115443000Y-136398000D02*
X114681000Y-135636000D01*
D25*
X116459000Y-140081000D02*
X116459000Y-143637000D01*
X114681000Y-135636000D02*
X115443000Y-136398000D01*
X115443000Y-139065000D02*
X116459000Y-140081000D01*
X116459000Y-143637000D02*
X116078000Y-144018000D01*
D24*
X83820000Y-146558000D02*
X86614000Y-146558000D01*
X86614000Y-146558000D02*
X90805000Y-142367000D01*
X83820000Y-156845000D02*
X83820000Y-146558000D01*
X83820000Y-146558000D02*
X83820000Y-143510000D01*
D25*
X100965000Y-142113000D02*
X102997000Y-142113000D01*
D24*
X100330000Y-137922000D02*
X96647000Y-137922000D01*
X96647000Y-137922000D02*
X94869000Y-139700000D01*
X94869000Y-139700000D02*
X90678000Y-139700000D01*
X90678000Y-139700000D02*
X90170000Y-139192000D01*
X90170000Y-139192000D02*
X90170000Y-138684000D01*
X90170000Y-138684000D02*
X89452564Y-137966564D01*
X89452564Y-137966564D02*
X89363436Y-137966564D01*
X89363436Y-137966564D02*
X89408000Y-137922000D01*
D27*
X90170000Y-138684000D02*
X89408000Y-137922000D01*
X90170000Y-139192000D02*
X90170000Y-138684000D01*
X90678000Y-139700000D02*
X90170000Y-139192000D01*
X94869000Y-139700000D02*
X90678000Y-139700000D01*
X96647000Y-137922000D02*
X94869000Y-139700000D01*
D24*
X86360000Y-143510000D02*
X87757000Y-143510000D01*
X87757000Y-143510000D02*
X88900000Y-142367000D01*
X88900000Y-142367000D02*
X88900000Y-139446000D01*
X88900000Y-139446000D02*
X85344000Y-135890000D01*
X85344000Y-135890000D02*
X85344000Y-135128000D01*
D27*
X88900000Y-142367000D02*
X87757000Y-143510000D01*
X88900000Y-138684000D02*
X88900000Y-142367000D01*
X85344000Y-135128000D02*
X88900000Y-138684000D01*
X99949000Y-143891000D02*
X101346000Y-145288000D01*
X101346000Y-145288000D02*
X101346000Y-157988000D01*
X98933000Y-161417000D02*
X99314000Y-161036000D01*
X86233000Y-161417000D02*
X98933000Y-161417000D01*
X85852000Y-161036000D02*
X86233000Y-161417000D01*
X85852000Y-160147000D02*
X85852000Y-161036000D01*
X86233000Y-159766000D02*
X85852000Y-160147000D01*
D25*
X98425000Y-146558000D02*
X98425000Y-139319000D01*
X99822000Y-147955000D02*
X98425000Y-146558000D01*
X106426000Y-136652000D02*
X107696000Y-135382000D01*
X106426000Y-139700000D02*
X106426000Y-136652000D01*
X106045000Y-140081000D02*
X106426000Y-139700000D01*
X105029000Y-148463000D02*
X105029000Y-143764000D01*
X103505000Y-149987000D02*
X105029000Y-148463000D01*
X107696000Y-139827000D02*
X107696000Y-137922000D01*
X107569000Y-139954000D02*
X107696000Y-139827000D01*
X106045000Y-149225000D02*
X106045000Y-143764000D01*
X105283000Y-149987000D02*
X106045000Y-149225000D01*
D27*
X97282000Y-155067000D02*
X97282000Y-156083000D01*
X95377000Y-153162000D02*
X97282000Y-155067000D01*
X92837000Y-153162000D02*
X95377000Y-153162000D01*
X91440000Y-151765000D02*
X92837000Y-153162000D01*
X88138000Y-151765000D02*
X91440000Y-151765000D01*
X87757000Y-152146000D02*
X88138000Y-151765000D01*
X91567000Y-157734000D02*
X91567000Y-153162000D01*
X91567000Y-157734000D02*
X92202000Y-157734000D01*
X92710000Y-158242000D02*
X97663000Y-158242000D01*
X92202000Y-157734000D02*
X92710000Y-158242000D01*
M02*
