M48
;DRILL file {KiCad (2015-08-05 BZR 6055, Git fa29c62)-product} date 24/12/2015 1:45:37 PM
;FORMAT={2:4/ absolute / inch / keep zeros}
FMAT,2
INCH,TZ
T1C0.016
T2C0.020
T3C0.022
T4C0.031
T5C0.039
T6C0.040
T7C0.050
%
G90
G05
M72
T1
X033000Y-061750
X033600Y-053200
X033700Y-061350
X033950Y-062900
X034550Y-059900
X035200Y-054300
X035750Y-056050
X036050Y-060300
X036050Y-062100
X037800Y-055450
X038300Y-061450
X038450Y-062300
X038750Y-054850
X039100Y-063400
X039300Y-058250
X039350Y-056650
X039750Y-055950
X039900Y-062200
X040550Y-055950
X040750Y-059050
X040850Y-056950
X040850Y-057750
X041350Y-056600
X041450Y-059050
X041750Y-055150
X041750Y-056600
X042350Y-055100
X043750Y-055750
X044350Y-060400
X044350Y-061150
X045150Y-053400
X045450Y-055500
T4
X030116Y-053900
X031100Y-053900
X036750Y-055666
X036750Y-056650
X045700Y-056700
X045700Y-057684
T5
X032500Y-053199
X036400Y-054301
T6
X030000Y-056000
X030000Y-057000
X030000Y-058000
X030000Y-059000
X030000Y-060000
X030000Y-061000
X030000Y-062000
X030000Y-063000
X033000Y-055500
X033000Y-056500
X034000Y-055500
X034000Y-056500
X037200Y-059800
X037200Y-060800
X037200Y-061800
X037200Y-062800
X039500Y-053300
X039500Y-054300
X039500Y-055300
X041400Y-053300
X041400Y-054300
X042400Y-053300
X042400Y-054300
X046000Y-062000
X046000Y-063000
T7
X032400Y-054301
X036500Y-053199
T2
X043722Y-053624G85X043722Y-053880
G05
X046478Y-053624G85X046478Y-053880
G05
T3
X044175Y-054815G85X044057Y-054815
G05
X046144Y-054815G85X046026Y-054815
G05
T0
M30
