G04 #@! TF.FileFunction,Legend,Top*
%FSLAX46Y46*%
G04 Gerber Fmt 4.6, Leading zero omitted, Abs format (unit mm)*
G04 Created by KiCad (PCBNEW 4.0.4-stable) date 01/19/17 12:29:14*
%MOMM*%
%LPD*%
G01*
G04 APERTURE LIST*
%ADD10C,0.100000*%
%ADD11C,0.010000*%
%ADD12C,0.150000*%
G04 APERTURE END LIST*
D10*
D11*
G36*
X101782501Y-129819601D02*
X101928923Y-129853688D01*
X102081175Y-129912120D01*
X102221146Y-129985684D01*
X102330726Y-130065166D01*
X102383462Y-130125357D01*
X102420295Y-130215495D01*
X102454743Y-130355347D01*
X102483450Y-130531137D01*
X102484696Y-130540793D01*
X102503533Y-130800415D01*
X102490938Y-131057540D01*
X102444710Y-131325696D01*
X102362646Y-131618411D01*
X102264764Y-131892245D01*
X102186208Y-132098246D01*
X102127821Y-132259508D01*
X102086138Y-132390233D01*
X102057697Y-132504620D01*
X102039034Y-132616870D01*
X102026687Y-132741183D01*
X102017191Y-132891761D01*
X102016101Y-132911850D01*
X102008491Y-133069227D01*
X102006807Y-133177312D01*
X102012643Y-133250164D01*
X102027594Y-133301845D01*
X102053255Y-133346413D01*
X102067664Y-133366466D01*
X102117376Y-133457066D01*
X102111072Y-133518115D01*
X102048946Y-133549118D01*
X101995173Y-133553200D01*
X101900735Y-133536410D01*
X101837313Y-133477780D01*
X101835258Y-133474686D01*
X101794370Y-133387009D01*
X101753810Y-133258789D01*
X101719146Y-133112767D01*
X101695940Y-132971682D01*
X101689369Y-132878512D01*
X101681587Y-132801961D01*
X101662879Y-132761400D01*
X101657150Y-132759450D01*
X101637293Y-132788084D01*
X101627469Y-132863272D01*
X101627205Y-132968943D01*
X101636027Y-133089027D01*
X101653463Y-133207452D01*
X101672708Y-133288230D01*
X101712459Y-133392269D01*
X101760285Y-133477510D01*
X101783833Y-133505288D01*
X101844026Y-133586123D01*
X101849597Y-133658159D01*
X101809411Y-133711280D01*
X101732332Y-133735374D01*
X101627227Y-133720327D01*
X101603080Y-133711512D01*
X101511636Y-133643767D01*
X101425013Y-133520249D01*
X101346955Y-133348678D01*
X101281208Y-133136773D01*
X101245623Y-132974554D01*
X101223179Y-132861745D01*
X101201993Y-132796350D01*
X101172003Y-132763302D01*
X101123148Y-132747533D01*
X101090141Y-132741693D01*
X100971244Y-132717568D01*
X100852120Y-132682930D01*
X100716851Y-132632111D01*
X100549522Y-132559444D01*
X100450650Y-132513979D01*
X100149025Y-132373580D01*
X100069650Y-132475448D01*
X100010767Y-132547584D01*
X99925457Y-132647966D01*
X99829832Y-132757695D01*
X99806190Y-132784389D01*
X99708900Y-132899580D01*
X99617772Y-133017323D01*
X99549749Y-133115519D01*
X99540126Y-133131349D01*
X99458147Y-133271236D01*
X99547789Y-133364802D01*
X99603374Y-133432563D01*
X99612722Y-133476677D01*
X99600559Y-133495240D01*
X99546961Y-133510849D01*
X99463484Y-133501719D01*
X99375358Y-133474658D01*
X99307813Y-133436472D01*
X99287560Y-133410790D01*
X99283388Y-133358107D01*
X99289265Y-133264576D01*
X99301629Y-133166504D01*
X99316037Y-133061503D01*
X99323333Y-132984909D01*
X99322255Y-132954810D01*
X99301897Y-132969693D01*
X99268669Y-133027491D01*
X99230261Y-133111039D01*
X99194362Y-133203173D01*
X99168663Y-133286727D01*
X99163988Y-133308103D01*
X99158835Y-133412355D01*
X99193193Y-133510444D01*
X99209329Y-133539251D01*
X99253587Y-133632366D01*
X99250724Y-133687410D01*
X99199340Y-133710378D01*
X99168969Y-133711950D01*
X99071120Y-133690185D01*
X99004052Y-133621107D01*
X98963059Y-133499041D01*
X98955620Y-133454648D01*
X98932504Y-133242990D01*
X98932071Y-133069564D01*
X98956267Y-132912582D01*
X99007034Y-132750259D01*
X99021899Y-132711825D01*
X99078552Y-132550904D01*
X99108065Y-132411194D01*
X99117110Y-132260155D01*
X99117150Y-132247226D01*
X99115612Y-132130707D01*
X99108827Y-132065839D01*
X99093536Y-132040805D01*
X99066479Y-132043788D01*
X99061587Y-132045761D01*
X98917848Y-132082308D01*
X98760952Y-132084648D01*
X98614686Y-132054793D01*
X98507846Y-131998932D01*
X98435556Y-131940394D01*
X98577915Y-131902512D01*
X98806667Y-131815820D01*
X99038868Y-131680659D01*
X99255924Y-131508111D01*
X99284062Y-131481586D01*
X99377742Y-131391990D01*
X99456293Y-131322854D01*
X99529798Y-131271315D01*
X99608344Y-131234507D01*
X99702015Y-131209565D01*
X99820897Y-131193626D01*
X99975075Y-131183825D01*
X100174633Y-131177296D01*
X100372069Y-131172544D01*
X101071363Y-131156075D01*
X101278062Y-131054255D01*
X101393605Y-130991309D01*
X101495609Y-130925280D01*
X101560302Y-130872025D01*
X101608680Y-130815268D01*
X101615528Y-130777951D01*
X101584463Y-130734856D01*
X101580588Y-130730559D01*
X101526377Y-130684728D01*
X101435429Y-130621283D01*
X101326595Y-130553305D01*
X101317196Y-130547779D01*
X101140802Y-130423780D01*
X101022491Y-130293054D01*
X100964491Y-130158387D01*
X100958650Y-130099958D01*
X100967878Y-130024537D01*
X100977787Y-130013075D01*
X101593650Y-130013075D01*
X101609759Y-130052590D01*
X101627781Y-130054614D01*
X101660584Y-130021836D01*
X101661912Y-130013075D01*
X101637194Y-129975847D01*
X101627781Y-129971535D01*
X101598830Y-129986861D01*
X101593650Y-130013075D01*
X100977787Y-130013075D01*
X101002951Y-129983968D01*
X101074951Y-129973470D01*
X101194959Y-129988264D01*
X101210979Y-129991124D01*
X101308696Y-130006024D01*
X101374112Y-130000924D01*
X101435009Y-129968259D01*
X101507211Y-129910463D01*
X101590604Y-129845972D01*
X101655302Y-129816585D01*
X101728363Y-129813369D01*
X101782501Y-129819601D01*
X101782501Y-129819601D01*
G37*
X101782501Y-129819601D02*
X101928923Y-129853688D01*
X102081175Y-129912120D01*
X102221146Y-129985684D01*
X102330726Y-130065166D01*
X102383462Y-130125357D01*
X102420295Y-130215495D01*
X102454743Y-130355347D01*
X102483450Y-130531137D01*
X102484696Y-130540793D01*
X102503533Y-130800415D01*
X102490938Y-131057540D01*
X102444710Y-131325696D01*
X102362646Y-131618411D01*
X102264764Y-131892245D01*
X102186208Y-132098246D01*
X102127821Y-132259508D01*
X102086138Y-132390233D01*
X102057697Y-132504620D01*
X102039034Y-132616870D01*
X102026687Y-132741183D01*
X102017191Y-132891761D01*
X102016101Y-132911850D01*
X102008491Y-133069227D01*
X102006807Y-133177312D01*
X102012643Y-133250164D01*
X102027594Y-133301845D01*
X102053255Y-133346413D01*
X102067664Y-133366466D01*
X102117376Y-133457066D01*
X102111072Y-133518115D01*
X102048946Y-133549118D01*
X101995173Y-133553200D01*
X101900735Y-133536410D01*
X101837313Y-133477780D01*
X101835258Y-133474686D01*
X101794370Y-133387009D01*
X101753810Y-133258789D01*
X101719146Y-133112767D01*
X101695940Y-132971682D01*
X101689369Y-132878512D01*
X101681587Y-132801961D01*
X101662879Y-132761400D01*
X101657150Y-132759450D01*
X101637293Y-132788084D01*
X101627469Y-132863272D01*
X101627205Y-132968943D01*
X101636027Y-133089027D01*
X101653463Y-133207452D01*
X101672708Y-133288230D01*
X101712459Y-133392269D01*
X101760285Y-133477510D01*
X101783833Y-133505288D01*
X101844026Y-133586123D01*
X101849597Y-133658159D01*
X101809411Y-133711280D01*
X101732332Y-133735374D01*
X101627227Y-133720327D01*
X101603080Y-133711512D01*
X101511636Y-133643767D01*
X101425013Y-133520249D01*
X101346955Y-133348678D01*
X101281208Y-133136773D01*
X101245623Y-132974554D01*
X101223179Y-132861745D01*
X101201993Y-132796350D01*
X101172003Y-132763302D01*
X101123148Y-132747533D01*
X101090141Y-132741693D01*
X100971244Y-132717568D01*
X100852120Y-132682930D01*
X100716851Y-132632111D01*
X100549522Y-132559444D01*
X100450650Y-132513979D01*
X100149025Y-132373580D01*
X100069650Y-132475448D01*
X100010767Y-132547584D01*
X99925457Y-132647966D01*
X99829832Y-132757695D01*
X99806190Y-132784389D01*
X99708900Y-132899580D01*
X99617772Y-133017323D01*
X99549749Y-133115519D01*
X99540126Y-133131349D01*
X99458147Y-133271236D01*
X99547789Y-133364802D01*
X99603374Y-133432563D01*
X99612722Y-133476677D01*
X99600559Y-133495240D01*
X99546961Y-133510849D01*
X99463484Y-133501719D01*
X99375358Y-133474658D01*
X99307813Y-133436472D01*
X99287560Y-133410790D01*
X99283388Y-133358107D01*
X99289265Y-133264576D01*
X99301629Y-133166504D01*
X99316037Y-133061503D01*
X99323333Y-132984909D01*
X99322255Y-132954810D01*
X99301897Y-132969693D01*
X99268669Y-133027491D01*
X99230261Y-133111039D01*
X99194362Y-133203173D01*
X99168663Y-133286727D01*
X99163988Y-133308103D01*
X99158835Y-133412355D01*
X99193193Y-133510444D01*
X99209329Y-133539251D01*
X99253587Y-133632366D01*
X99250724Y-133687410D01*
X99199340Y-133710378D01*
X99168969Y-133711950D01*
X99071120Y-133690185D01*
X99004052Y-133621107D01*
X98963059Y-133499041D01*
X98955620Y-133454648D01*
X98932504Y-133242990D01*
X98932071Y-133069564D01*
X98956267Y-132912582D01*
X99007034Y-132750259D01*
X99021899Y-132711825D01*
X99078552Y-132550904D01*
X99108065Y-132411194D01*
X99117110Y-132260155D01*
X99117150Y-132247226D01*
X99115612Y-132130707D01*
X99108827Y-132065839D01*
X99093536Y-132040805D01*
X99066479Y-132043788D01*
X99061587Y-132045761D01*
X98917848Y-132082308D01*
X98760952Y-132084648D01*
X98614686Y-132054793D01*
X98507846Y-131998932D01*
X98435556Y-131940394D01*
X98577915Y-131902512D01*
X98806667Y-131815820D01*
X99038868Y-131680659D01*
X99255924Y-131508111D01*
X99284062Y-131481586D01*
X99377742Y-131391990D01*
X99456293Y-131322854D01*
X99529798Y-131271315D01*
X99608344Y-131234507D01*
X99702015Y-131209565D01*
X99820897Y-131193626D01*
X99975075Y-131183825D01*
X100174633Y-131177296D01*
X100372069Y-131172544D01*
X101071363Y-131156075D01*
X101278062Y-131054255D01*
X101393605Y-130991309D01*
X101495609Y-130925280D01*
X101560302Y-130872025D01*
X101608680Y-130815268D01*
X101615528Y-130777951D01*
X101584463Y-130734856D01*
X101580588Y-130730559D01*
X101526377Y-130684728D01*
X101435429Y-130621283D01*
X101326595Y-130553305D01*
X101317196Y-130547779D01*
X101140802Y-130423780D01*
X101022491Y-130293054D01*
X100964491Y-130158387D01*
X100958650Y-130099958D01*
X100967878Y-130024537D01*
X100977787Y-130013075D01*
X101593650Y-130013075D01*
X101609759Y-130052590D01*
X101627781Y-130054614D01*
X101660584Y-130021836D01*
X101661912Y-130013075D01*
X101637194Y-129975847D01*
X101627781Y-129971535D01*
X101598830Y-129986861D01*
X101593650Y-130013075D01*
X100977787Y-130013075D01*
X101002951Y-129983968D01*
X101074951Y-129973470D01*
X101194959Y-129988264D01*
X101210979Y-129991124D01*
X101308696Y-130006024D01*
X101374112Y-130000924D01*
X101435009Y-129968259D01*
X101507211Y-129910463D01*
X101590604Y-129845972D01*
X101655302Y-129816585D01*
X101728363Y-129813369D01*
X101782501Y-129819601D01*
G36*
X100787282Y-126063168D02*
X100877843Y-126086781D01*
X100929756Y-126153101D01*
X100966290Y-126284188D01*
X100989102Y-126396082D01*
X101062139Y-126548423D01*
X101147685Y-126611982D01*
X101259054Y-126655891D01*
X101346767Y-126659760D01*
X101447646Y-126616974D01*
X101577660Y-126534745D01*
X101781741Y-126399690D01*
X101957570Y-126570110D01*
X102079954Y-126703522D01*
X102123457Y-126809810D01*
X102091295Y-126921703D01*
X102004586Y-127048662D01*
X101925491Y-127160435D01*
X101903475Y-127240128D01*
X101932637Y-127335388D01*
X101961422Y-127397156D01*
X102026659Y-127509443D01*
X102108054Y-127570089D01*
X102243261Y-127603304D01*
X102293436Y-127610650D01*
X102539800Y-127644533D01*
X102539800Y-128235066D01*
X102291966Y-128269151D01*
X102138864Y-128297234D01*
X102051600Y-128343531D01*
X101994623Y-128432763D01*
X101969435Y-128493398D01*
X101925877Y-128622026D01*
X101930476Y-128708162D01*
X101989808Y-128802010D01*
X102013817Y-128832379D01*
X102105645Y-128971728D01*
X102120685Y-129086423D01*
X102055526Y-129205418D01*
X101957570Y-129309489D01*
X101781741Y-129479909D01*
X101575679Y-129343544D01*
X101434167Y-129261317D01*
X101337426Y-129239306D01*
X101271991Y-129259426D01*
X101222910Y-129285048D01*
X101186093Y-129289081D01*
X101150763Y-129256696D01*
X101106142Y-129173062D01*
X101041451Y-129023350D01*
X100963319Y-128834722D01*
X100883960Y-128640423D01*
X100840645Y-128517598D01*
X100830472Y-128443881D01*
X100850538Y-128396907D01*
X100897940Y-128354312D01*
X100900692Y-128352122D01*
X101046420Y-128184151D01*
X101112275Y-127990588D01*
X101095284Y-127796157D01*
X100992476Y-127625581D01*
X100988503Y-127621558D01*
X100798216Y-127488566D01*
X100599906Y-127455289D01*
X100403579Y-127521453D01*
X100258678Y-127641466D01*
X100168692Y-127806001D01*
X100159923Y-127997732D01*
X100228076Y-128188985D01*
X100368859Y-128352084D01*
X100368907Y-128352122D01*
X100417481Y-128395049D01*
X100438850Y-128441340D01*
X100430111Y-128513359D01*
X100388362Y-128633473D01*
X100310701Y-128824045D01*
X100306280Y-128834722D01*
X100216274Y-129051724D01*
X100155417Y-129190126D01*
X100112899Y-129264739D01*
X100077909Y-129290377D01*
X100039636Y-129281851D01*
X99996680Y-129258930D01*
X99911992Y-129237787D01*
X99809155Y-129272526D01*
X99708571Y-129334993D01*
X99588582Y-129412525D01*
X99506165Y-129458427D01*
X99489972Y-129463800D01*
X99440398Y-129430523D01*
X99348406Y-129346330D01*
X99298565Y-129296281D01*
X99181725Y-129157386D01*
X99145067Y-129045591D01*
X99185698Y-128929510D01*
X99255782Y-128832379D01*
X99329740Y-128728821D01*
X99347332Y-128645457D01*
X99315132Y-128532081D01*
X99300164Y-128493398D01*
X99245219Y-128376831D01*
X99175960Y-128314303D01*
X99056834Y-128281095D01*
X98977633Y-128269151D01*
X98729799Y-128235066D01*
X98729800Y-127939800D01*
X98729800Y-127644533D01*
X98976163Y-127610650D01*
X99132172Y-127580670D01*
X99224287Y-127529744D01*
X99290159Y-127433660D01*
X99308177Y-127397156D01*
X99358780Y-127278896D01*
X99360905Y-127197995D01*
X99308651Y-127106808D01*
X99265013Y-127048662D01*
X99169812Y-126905391D01*
X99147486Y-126796120D01*
X99201252Y-126688121D01*
X99312029Y-126570110D01*
X99487858Y-126399690D01*
X99691939Y-126534745D01*
X99835263Y-126624405D01*
X99932787Y-126661548D01*
X100021336Y-126652790D01*
X100121914Y-126611982D01*
X100238774Y-126505791D01*
X100280497Y-126396082D01*
X100318668Y-126218310D01*
X100358979Y-126117854D01*
X100424702Y-126072653D01*
X100539109Y-126060647D01*
X100634799Y-126060200D01*
X100787282Y-126063168D01*
X100787282Y-126063168D01*
G37*
X100787282Y-126063168D02*
X100877843Y-126086781D01*
X100929756Y-126153101D01*
X100966290Y-126284188D01*
X100989102Y-126396082D01*
X101062139Y-126548423D01*
X101147685Y-126611982D01*
X101259054Y-126655891D01*
X101346767Y-126659760D01*
X101447646Y-126616974D01*
X101577660Y-126534745D01*
X101781741Y-126399690D01*
X101957570Y-126570110D01*
X102079954Y-126703522D01*
X102123457Y-126809810D01*
X102091295Y-126921703D01*
X102004586Y-127048662D01*
X101925491Y-127160435D01*
X101903475Y-127240128D01*
X101932637Y-127335388D01*
X101961422Y-127397156D01*
X102026659Y-127509443D01*
X102108054Y-127570089D01*
X102243261Y-127603304D01*
X102293436Y-127610650D01*
X102539800Y-127644533D01*
X102539800Y-128235066D01*
X102291966Y-128269151D01*
X102138864Y-128297234D01*
X102051600Y-128343531D01*
X101994623Y-128432763D01*
X101969435Y-128493398D01*
X101925877Y-128622026D01*
X101930476Y-128708162D01*
X101989808Y-128802010D01*
X102013817Y-128832379D01*
X102105645Y-128971728D01*
X102120685Y-129086423D01*
X102055526Y-129205418D01*
X101957570Y-129309489D01*
X101781741Y-129479909D01*
X101575679Y-129343544D01*
X101434167Y-129261317D01*
X101337426Y-129239306D01*
X101271991Y-129259426D01*
X101222910Y-129285048D01*
X101186093Y-129289081D01*
X101150763Y-129256696D01*
X101106142Y-129173062D01*
X101041451Y-129023350D01*
X100963319Y-128834722D01*
X100883960Y-128640423D01*
X100840645Y-128517598D01*
X100830472Y-128443881D01*
X100850538Y-128396907D01*
X100897940Y-128354312D01*
X100900692Y-128352122D01*
X101046420Y-128184151D01*
X101112275Y-127990588D01*
X101095284Y-127796157D01*
X100992476Y-127625581D01*
X100988503Y-127621558D01*
X100798216Y-127488566D01*
X100599906Y-127455289D01*
X100403579Y-127521453D01*
X100258678Y-127641466D01*
X100168692Y-127806001D01*
X100159923Y-127997732D01*
X100228076Y-128188985D01*
X100368859Y-128352084D01*
X100368907Y-128352122D01*
X100417481Y-128395049D01*
X100438850Y-128441340D01*
X100430111Y-128513359D01*
X100388362Y-128633473D01*
X100310701Y-128824045D01*
X100306280Y-128834722D01*
X100216274Y-129051724D01*
X100155417Y-129190126D01*
X100112899Y-129264739D01*
X100077909Y-129290377D01*
X100039636Y-129281851D01*
X99996680Y-129258930D01*
X99911992Y-129237787D01*
X99809155Y-129272526D01*
X99708571Y-129334993D01*
X99588582Y-129412525D01*
X99506165Y-129458427D01*
X99489972Y-129463800D01*
X99440398Y-129430523D01*
X99348406Y-129346330D01*
X99298565Y-129296281D01*
X99181725Y-129157386D01*
X99145067Y-129045591D01*
X99185698Y-128929510D01*
X99255782Y-128832379D01*
X99329740Y-128728821D01*
X99347332Y-128645457D01*
X99315132Y-128532081D01*
X99300164Y-128493398D01*
X99245219Y-128376831D01*
X99175960Y-128314303D01*
X99056834Y-128281095D01*
X98977633Y-128269151D01*
X98729799Y-128235066D01*
X98729800Y-127939800D01*
X98729800Y-127644533D01*
X98976163Y-127610650D01*
X99132172Y-127580670D01*
X99224287Y-127529744D01*
X99290159Y-127433660D01*
X99308177Y-127397156D01*
X99358780Y-127278896D01*
X99360905Y-127197995D01*
X99308651Y-127106808D01*
X99265013Y-127048662D01*
X99169812Y-126905391D01*
X99147486Y-126796120D01*
X99201252Y-126688121D01*
X99312029Y-126570110D01*
X99487858Y-126399690D01*
X99691939Y-126534745D01*
X99835263Y-126624405D01*
X99932787Y-126661548D01*
X100021336Y-126652790D01*
X100121914Y-126611982D01*
X100238774Y-126505791D01*
X100280497Y-126396082D01*
X100318668Y-126218310D01*
X100358979Y-126117854D01*
X100424702Y-126072653D01*
X100539109Y-126060647D01*
X100634799Y-126060200D01*
X100787282Y-126063168D01*
D12*
X92821200Y-104159800D02*
X92821200Y-103459800D01*
X94021200Y-103459800D02*
X94021200Y-104159800D01*
X91878343Y-104452657D02*
X91925962Y-104500276D01*
X91973581Y-104643133D01*
X91973581Y-104738371D01*
X91925962Y-104881229D01*
X91830724Y-104976467D01*
X91735486Y-105024086D01*
X91545010Y-105071705D01*
X91402152Y-105071705D01*
X91211676Y-105024086D01*
X91116438Y-104976467D01*
X91021200Y-104881229D01*
X90973581Y-104738371D01*
X90973581Y-104643133D01*
X91021200Y-104500276D01*
X91068819Y-104452657D01*
X91973581Y-103500276D02*
X91973581Y-104071705D01*
X91973581Y-103785991D02*
X90973581Y-103785991D01*
X91116438Y-103881229D01*
X91211676Y-103976467D01*
X91259295Y-104071705D01*
X91068819Y-103119324D02*
X91021200Y-103071705D01*
X90973581Y-102976467D01*
X90973581Y-102738371D01*
X91021200Y-102643133D01*
X91068819Y-102595514D01*
X91164057Y-102547895D01*
X91259295Y-102547895D01*
X91402152Y-102595514D01*
X91973581Y-103166943D01*
X91973581Y-102547895D01*
M02*
