M48
;DRILL file {KiCad (2015-08-05 BZR 6055, Git fa29c62)-product} date 28/09/2015 1:01:46 PM
;FORMAT={2:4/ absolute / inch / keep zeros}
FMAT,2
INCH,TZ
T1C0.016
T2C0.020
T3C0.022
T4C0.032
T5C0.039
T6C0.040
T7C0.050
%
G90
G05
M72
T1
X016558Y-053370
X016572Y-053735
X017191Y-056870
X017520Y-057912
X017845Y-053361
X017895Y-053816
X017912Y-058768
X017936Y-057400
X017944Y-059480
X018280Y-052824
X018340Y-058854
X019048Y-055976
X019222Y-057006
X019224Y-056616
X019642Y-058884
X019664Y-050680
X019678Y-054890
X019952Y-054352
X020032Y-054912
X020056Y-052472
X020118Y-054076
X020256Y-056784
X020296Y-052104
X020326Y-058905
X020552Y-057944
X020656Y-052704
X020666Y-053800
X020950Y-049946
X021336Y-052368
X021346Y-052698
X021658Y-050376
X021758Y-053774
X021868Y-056772
X021904Y-058248
X021932Y-059390
X021992Y-050644
X022168Y-055530
X022248Y-056704
X022318Y-057564
X022538Y-050640
X022592Y-052624
X022720Y-057550
X022786Y-058992
X022816Y-055528
X023008Y-052256
X023216Y-050628
X023650Y-049984
X023698Y-057954
X023960Y-051264
X024068Y-050572
X024136Y-057052
X024848Y-057608
X024906Y-049964
X024946Y-050760
X025244Y-050112
X025828Y-050622
X026068Y-057894
X027092Y-057916
X028048Y-057970
T4
X027256Y-054581
X027256Y-055581
X027896Y-049448
X027896Y-050448
T5
X025180Y-051929
X029126Y-053071
T6
X014275Y-057520
X014275Y-058520
X014275Y-059520
X014275Y-060520
X017426Y-049248
X018426Y-049248
X019426Y-049248
X021724Y-048708
X021724Y-049708
X022724Y-048708
X022724Y-049708
X023145Y-060635
X024145Y-060635
X024872Y-048256
X025536Y-060752
X025872Y-048256
X026536Y-060752
X027536Y-060752
X028032Y-056892
X028536Y-060752
X029032Y-056892
T7
X025126Y-053071
X029180Y-051929
T2
X014607Y-052126G85X014863Y-052126
G05
X014607Y-054882G85X014863Y-054882
G05
T3
X015798Y-052460G85X015798Y-052578
G05
X015798Y-054429G85X015798Y-054547
G05
T0
M30
