M48
;Layer_Color=9474304
;FILE_FORMAT=4:4
METRIC,LZ
;TYPE=PLATED
T2F00S00C0.7000
T3F00S00C0.8000
T4F00S00C0.9000
%
T02
X0160274Y0113197
Y0115697
X0138303Y0120309
Y0122809
T03
X0141605Y0079248
X0142621Y008203
X0144692Y0082423
X01473032Y0081534
X014732Y0086487
X0150241
X0152781Y0088011
X01553918Y0085217
X0153248Y0081026
X014986Y0091354
X0149987Y0097917
X0148082Y0098044
X0147574Y0099949
X0145542Y0098171
X0143764Y0096139
X0139573Y0094996
X0138684Y0098806
X0141732Y0101981
Y0105156
X0141986Y010723
X01386495Y0108311
X0145816Y0105263
X014732Y0104013
X0145796Y0102108
X0152019Y0099314
X0157032Y0099187
X0158223Y009597
X0158623Y0093345
X0142621Y0091694
X014097Y0089535
X0141605Y0084074
X0138684Y0083947
X0129413Y0095377
X0128778Y0117094
X0158623Y0118491
X0154855Y0107306
X0162179Y0110871
X0164338Y0112268
X0167005Y0111125
Y0117094
X0162179Y0114681
X0169164Y0106426
X0171196Y0093091
Y0087376
X0161417Y0087798
T04
X0163468Y0078867
X0166008
X0168548
X0171088
X013335Y0079121
Y0081661
Y0084201
Y0086741
X0134493Y0114417
X0131953
X0129413
X0138938Y0114427
X0141478
X0144907
X0147447
X0149987
X0152527
X015875Y0106807
X016129
X016383
X016637
X0172466Y0103632
Y0101092
X0171831Y008203
X0169291
X0166751
X0164211
X0161671
X0159131
X0133985Y0124333
X0131445
X0128905
M30
