G04*
G04 #@! TF.GenerationSoftware,Altium Limited,Altium Designer,18.1.5 (160)*
G04*
G04 Layer_Color=32896*
%FSLAX25Y25*%
%MOIN*%
G70*
G01*
G75*
%ADD83C,0.00098*%
D83*
X625846Y476413D02*
Y478106D01*
X627028D01*
Y476413D02*
Y478106D01*
X625846Y476413D02*
X627028D01*
X625846Y483894D02*
Y485587D01*
X627028D01*
Y483894D02*
Y485587D01*
X625846Y483894D02*
X627028D01*
X619153Y480154D02*
Y481847D01*
X617972Y480154D02*
X619153D01*
X617972D02*
Y481847D01*
X619153D01*
X619941Y475291D02*
X625059D01*
X619941D02*
Y486709D01*
X625059D01*
Y475291D02*
Y486709D01*
X636195Y475100D02*
X661805D01*
Y488900D01*
X636195D02*
X661805D01*
X636195Y475100D02*
Y488900D01*
X655004Y494362D02*
Y495780D01*
X642996D02*
X655004D01*
X642996Y494362D02*
Y495780D01*
Y494362D02*
X655004D01*
X656559Y468221D02*
Y469638D01*
Y468221D02*
X659472D01*
Y469638D01*
X656559D02*
X659472D01*
X647543Y468221D02*
Y469638D01*
Y468221D02*
X650457D01*
Y469638D01*
X647543D02*
X650457D01*
X638528Y468221D02*
Y469638D01*
Y468221D02*
X641441D01*
Y469638D01*
X638528D02*
X641441D01*
X673063Y477461D02*
X680937D01*
X673063Y472539D02*
Y477461D01*
Y472539D02*
X680937D01*
Y477461D01*
X673063D02*
X674835D01*
X673063Y472539D02*
Y477461D01*
Y472539D02*
X674835D01*
Y477461D01*
X679165Y472539D02*
X680937D01*
Y477461D01*
X679165D02*
X680937D01*
X679165Y472539D02*
Y477461D01*
X652122Y449563D02*
Y457437D01*
X647201D02*
X652122D01*
X647201Y449563D02*
Y457437D01*
Y449563D02*
X652122D01*
Y455665D02*
Y457437D01*
X647201D02*
X652122D01*
X647201Y455665D02*
Y457437D01*
Y455665D02*
X652122D01*
X647201Y449563D02*
Y451335D01*
Y449563D02*
X652122D01*
Y451335D01*
X647201D02*
X652122D01*
X619461Y451063D02*
Y458937D01*
X614539D02*
X619461D01*
X614539Y451063D02*
Y458937D01*
Y451063D02*
X619461D01*
Y457165D02*
Y458937D01*
X614539D02*
X619461D01*
X614539Y457165D02*
Y458937D01*
Y457165D02*
X619461D01*
X614539Y451063D02*
Y452835D01*
Y451063D02*
X619461D01*
Y452835D01*
X614539D02*
X619461D01*
X604047Y465539D02*
Y470461D01*
X602669Y465539D02*
X604047D01*
X602669D02*
Y470461D01*
X604047D01*
X609165Y465539D02*
Y470461D01*
X610543D01*
Y465539D02*
Y470461D01*
X609165Y465539D02*
X610543D01*
X602669D02*
Y470461D01*
X610543D01*
Y465539D02*
Y470461D01*
X602669Y465539D02*
X610543D01*
X514563Y464961D02*
X522437D01*
X514563Y460039D02*
Y464961D01*
Y460039D02*
X522437D01*
Y464961D01*
X514563D02*
X515941D01*
X514563Y460039D02*
Y464961D01*
Y460039D02*
X515941D01*
Y464961D01*
X521059Y460039D02*
X522437D01*
Y464961D01*
X521059D02*
X522437D01*
X521059Y460039D02*
Y464961D01*
X529563D02*
X537437D01*
X529563Y460039D02*
Y464961D01*
Y460039D02*
X537437D01*
Y464961D01*
X529563D02*
X530941D01*
X529563Y460039D02*
Y464961D01*
Y460039D02*
X530941D01*
Y464961D01*
X536059Y460039D02*
X537437D01*
Y464961D01*
X536059D02*
X537437D01*
X536059Y460039D02*
Y464961D01*
X580961Y470063D02*
Y477937D01*
X576039D02*
X580961D01*
X576039Y470063D02*
Y477937D01*
Y470063D02*
X580961D01*
Y476559D02*
Y477937D01*
X576039D02*
X580961D01*
X576039Y476559D02*
Y477937D01*
Y476559D02*
X580961D01*
X576039Y470063D02*
Y471441D01*
Y470063D02*
X580961D01*
Y471441D01*
X576039D02*
X580961D01*
X515563Y481961D02*
X523437D01*
X515563Y477039D02*
Y481961D01*
Y477039D02*
X523437D01*
Y481961D01*
X515563D02*
X516941D01*
X515563Y477039D02*
Y481961D01*
Y477039D02*
X516941D01*
Y481961D01*
X522059Y477039D02*
X523437D01*
Y481961D01*
X522059D02*
X523437D01*
X522059Y477039D02*
Y481961D01*
X510961Y470563D02*
Y478437D01*
X506039D02*
X510961D01*
X506039Y470563D02*
Y478437D01*
Y470563D02*
X510961D01*
Y476665D02*
Y478437D01*
X506039D02*
X510961D01*
X506039Y476665D02*
Y478437D01*
Y476665D02*
X510961D01*
X506039Y470563D02*
Y472335D01*
Y470563D02*
X510961D01*
Y472335D01*
X506039D02*
X510961D01*
X631461Y404063D02*
Y411937D01*
X626539D02*
X631461D01*
X626539Y404063D02*
Y411937D01*
Y404063D02*
X631461D01*
Y410165D02*
Y411937D01*
X626539D02*
X631461D01*
X626539Y410165D02*
Y411937D01*
Y410165D02*
X631461D01*
X626539Y404063D02*
Y405835D01*
Y404063D02*
X631461D01*
Y405835D01*
X626539D02*
X631461D01*
X528461Y361583D02*
Y369457D01*
X523539D02*
X528461D01*
X523539Y361583D02*
Y369457D01*
Y361583D02*
X528461D01*
Y367685D02*
Y369457D01*
X523539D02*
X528461D01*
X523539Y367685D02*
Y369457D01*
Y367685D02*
X528461D01*
X523539Y361583D02*
Y363355D01*
Y361583D02*
X528461D01*
Y363355D01*
X523539D02*
X528461D01*
X553039Y338063D02*
Y345937D01*
Y338063D02*
X557961D01*
Y345937D01*
X553039D02*
X557961D01*
X553039Y338063D02*
Y339441D01*
Y338063D02*
X557961D01*
Y339441D01*
X553039D02*
X557961D01*
Y344559D02*
Y345937D01*
X553039D02*
X557961D01*
X553039Y344559D02*
Y345937D01*
Y344559D02*
X557961D01*
X540961Y323594D02*
Y331468D01*
X536039D02*
X540961D01*
X536039Y323594D02*
Y331468D01*
Y323594D02*
X540961D01*
Y330090D02*
Y331468D01*
X536039D02*
X540961D01*
X536039Y330090D02*
Y331468D01*
Y330090D02*
X540961D01*
X536039Y323594D02*
Y324972D01*
Y323594D02*
X540961D01*
Y324972D01*
X536039D02*
X540961D01*
X550366Y308563D02*
Y316437D01*
X545445D02*
X550366D01*
X545445Y308563D02*
Y316437D01*
Y308563D02*
X550366D01*
Y315059D02*
Y316437D01*
X545445D02*
X550366D01*
X545445Y315059D02*
Y316437D01*
Y315059D02*
X550366D01*
X545445Y308563D02*
Y309941D01*
Y308563D02*
X550366D01*
Y309941D01*
X545445D02*
X550366D01*
X564063Y313539D02*
X571937D01*
Y318461D01*
X564063D02*
X571937D01*
X564063Y313539D02*
Y318461D01*
X570559Y313539D02*
X571937D01*
Y318461D01*
X570559D02*
X571937D01*
X570559Y313539D02*
Y318461D01*
X564063D02*
X565441D01*
X564063Y313539D02*
Y318461D01*
Y313539D02*
X565441D01*
Y318461D01*
X576539Y306563D02*
Y314437D01*
Y306563D02*
X581461D01*
Y314437D01*
X576539D02*
X581461D01*
X576539Y306563D02*
Y307941D01*
Y306563D02*
X581461D01*
Y307941D01*
X576539D02*
X581461D01*
Y313059D02*
Y314437D01*
X576539D02*
X581461D01*
X576539Y313059D02*
Y314437D01*
Y313059D02*
X581461D01*
X584539Y306563D02*
Y314437D01*
Y306563D02*
X589461D01*
Y314437D01*
X584539D02*
X589461D01*
X584539Y306563D02*
Y308335D01*
Y306563D02*
X589461D01*
Y308335D01*
X584539D02*
X589461D01*
Y312665D02*
Y314437D01*
X584539D02*
X589461D01*
X584539Y312665D02*
Y314437D01*
Y312665D02*
X589461D01*
X597461Y306563D02*
Y314437D01*
X592539D02*
X597461D01*
X592539Y306563D02*
Y314437D01*
Y306563D02*
X597461D01*
Y313059D02*
Y314437D01*
X592539D02*
X597461D01*
X592539Y313059D02*
Y314437D01*
Y313059D02*
X597461D01*
X592539Y306563D02*
Y307941D01*
Y306563D02*
X597461D01*
Y307941D01*
X592539D02*
X597461D01*
X587063Y318606D02*
X594937D01*
Y323527D01*
X587063D02*
X594937D01*
X587063Y318606D02*
Y323527D01*
X593559Y318606D02*
X594937D01*
Y323527D01*
X593559D02*
X594937D01*
X593559Y318606D02*
Y323527D01*
X587063D02*
X588441D01*
X587063Y318606D02*
Y323527D01*
Y318606D02*
X588441D01*
Y323527D01*
X607461Y325563D02*
Y333437D01*
X602539D02*
X607461D01*
X602539Y325563D02*
Y333437D01*
Y325563D02*
X607461D01*
Y332059D02*
Y333437D01*
X602539D02*
X607461D01*
X602539Y332059D02*
Y333437D01*
Y332059D02*
X607461D01*
X602539Y325563D02*
Y326941D01*
Y325563D02*
X607461D01*
Y326941D01*
X602539D02*
X607461D01*
X604563Y363461D02*
X612437D01*
X604563Y358539D02*
Y363461D01*
Y358539D02*
X612437D01*
Y363461D01*
X604563D02*
X605941D01*
X604563Y358539D02*
Y363461D01*
Y358539D02*
X605941D01*
Y363461D01*
X611059Y358539D02*
X612437D01*
Y363461D01*
X611059D02*
X612437D01*
X611059Y358539D02*
Y363461D01*
X668425Y331850D02*
Y338150D01*
Y331850D02*
X671575D01*
Y338150D01*
X668425D02*
X671575D01*
X668425Y331850D02*
Y332835D01*
Y331850D02*
X671575D01*
Y332835D01*
X668425D02*
X671575D01*
Y337165D02*
Y338150D01*
X668425D02*
X671575D01*
X668425Y337165D02*
Y338150D01*
Y337165D02*
X671575D01*
X674925D02*
X678075D01*
X674925D02*
Y338150D01*
X678075D01*
Y337165D02*
Y338150D01*
X674925Y332835D02*
X678075D01*
Y331850D02*
Y332835D01*
X674925Y331850D02*
X678075D01*
X674925D02*
Y332835D01*
Y338150D02*
X678075D01*
Y331850D02*
Y338150D01*
X674925Y331850D02*
X678075D01*
X674925D02*
Y338150D01*
X616559Y317653D02*
Y322575D01*
X617937D01*
Y317653D02*
Y322575D01*
X616559Y317653D02*
X617937D01*
X611441D02*
Y322575D01*
X610063Y317653D02*
X611441D01*
X610063D02*
Y322575D01*
X611441D01*
X617937Y317653D02*
Y322575D01*
X610063Y317653D02*
X617937D01*
X610063D02*
Y322575D01*
X617937D01*
X608961Y306063D02*
Y313937D01*
X604039D02*
X608961D01*
X604039Y306063D02*
Y313937D01*
Y306063D02*
X608961D01*
Y312559D02*
Y313937D01*
X604039D02*
X608961D01*
X604039Y312559D02*
Y313937D01*
Y312559D02*
X608961D01*
X604039Y306063D02*
Y307441D01*
Y306063D02*
X608961D01*
Y307441D01*
X604039D02*
X608961D01*
X627425Y332335D02*
X630575D01*
Y331350D02*
Y332335D01*
X627425Y331350D02*
X630575D01*
X627425D02*
Y332335D01*
Y336665D02*
X630575D01*
X627425D02*
Y337650D01*
X630575D01*
Y336665D02*
Y337650D01*
X627425Y331350D02*
X630575D01*
X627425D02*
Y337650D01*
X630575D01*
Y331350D02*
Y337650D01*
X610539Y345563D02*
Y353437D01*
Y345563D02*
X615461D01*
Y353437D01*
X610539D02*
X615461D01*
X610539Y345563D02*
Y346941D01*
Y345563D02*
X615461D01*
Y346941D01*
X610539D02*
X615461D01*
Y352059D02*
Y353437D01*
X610539D02*
X615461D01*
X610539Y352059D02*
Y353437D01*
Y352059D02*
X615461D01*
X620465Y345902D02*
Y353776D01*
Y345902D02*
X625386D01*
Y353776D01*
X620465D02*
X625386D01*
X620465Y345902D02*
Y347280D01*
Y345902D02*
X625386D01*
Y347280D01*
X620465D02*
X625386D01*
Y352398D02*
Y353776D01*
X620465D02*
X625386D01*
X620465Y352398D02*
Y353776D01*
Y352398D02*
X625386D01*
X653539Y340563D02*
Y348437D01*
Y340563D02*
X658461D01*
Y348437D01*
X653539D02*
X658461D01*
X653539Y340563D02*
Y341941D01*
Y340563D02*
X658461D01*
Y341941D01*
X653539D02*
X658461D01*
Y347059D02*
Y348437D01*
X653539D02*
X658461D01*
X653539Y347059D02*
Y348437D01*
Y347059D02*
X658461D01*
X646224Y340563D02*
Y348437D01*
Y340563D02*
X651146D01*
Y348437D01*
X646224D02*
X651146D01*
X646224Y340563D02*
Y341941D01*
Y340563D02*
X651146D01*
Y341941D01*
X646224D02*
X651146D01*
Y347059D02*
Y348437D01*
X646224D02*
X651146D01*
X646224Y347059D02*
Y348437D01*
Y347059D02*
X651146D01*
X654563Y330039D02*
X662437D01*
Y334961D01*
X654563D02*
X662437D01*
X654563Y330039D02*
Y334961D01*
X660665Y330039D02*
X662437D01*
Y334961D01*
X660665D02*
X662437D01*
X660665Y330039D02*
Y334961D01*
X654563D02*
X656335D01*
X654563Y330039D02*
Y334961D01*
Y330039D02*
X656335D01*
Y334961D01*
X594193Y350524D02*
X595807D01*
X594193D02*
Y353811D01*
X595807D01*
Y350524D02*
Y353811D01*
X589193Y350524D02*
X590807D01*
X589193D02*
Y353811D01*
X590807D01*
Y350524D02*
Y353811D01*
X584193Y350524D02*
X585807D01*
X584193D02*
Y353811D01*
X585807D01*
Y350524D02*
Y353811D01*
X579193Y350524D02*
X580807D01*
X579193D02*
Y353811D01*
X580807D01*
Y350524D02*
Y353811D01*
X574193Y350524D02*
X575807D01*
X574193D02*
Y353811D01*
X575807D01*
Y350524D02*
Y353811D01*
X569193Y350524D02*
X570807D01*
X569193D02*
Y353811D01*
X570807D01*
Y350524D02*
Y353811D01*
X564193Y350524D02*
X565807D01*
X564193D02*
Y353811D01*
X565807D01*
Y350524D02*
Y353811D01*
X564193Y333476D02*
X565807D01*
Y330189D02*
Y333476D01*
X564193Y330189D02*
X565807D01*
X564193D02*
Y333476D01*
X569193D02*
X570807D01*
Y330189D02*
Y333476D01*
X569193Y330189D02*
X570807D01*
X569193D02*
Y333476D01*
X574193D02*
X575807D01*
Y330189D02*
Y333476D01*
X574193Y330189D02*
X575807D01*
X574193D02*
Y333476D01*
X579193D02*
X580807D01*
Y330189D02*
Y333476D01*
X579193Y330189D02*
X580807D01*
X579193D02*
Y333476D01*
X584193D02*
X585807D01*
Y330189D02*
Y333476D01*
X584193Y330189D02*
X585807D01*
X584193D02*
Y333476D01*
X589193D02*
X590807D01*
Y330189D02*
Y333476D01*
X589193Y330189D02*
X590807D01*
X589193D02*
Y333476D01*
X594193D02*
X595807D01*
Y330189D02*
Y333476D01*
X594193Y330189D02*
X595807D01*
X594193D02*
Y333476D01*
X597028Y334323D02*
Y349677D01*
X562972Y334323D02*
X597028D01*
X562972D02*
Y349677D01*
X597028D01*
X567539Y471835D02*
X572461D01*
Y470063D02*
Y471835D01*
X567539Y470063D02*
X572461D01*
X567539D02*
Y471835D01*
Y476165D02*
X572461D01*
X567539D02*
Y477937D01*
X572461D01*
Y476165D02*
Y477937D01*
X567539Y470063D02*
X572461D01*
X567539D02*
Y477937D01*
X572461D01*
Y470063D02*
Y477937D01*
X542335Y337039D02*
Y341961D01*
X540563Y337039D02*
X542335D01*
X540563D02*
Y341961D01*
X542335D01*
X546665Y337039D02*
Y341961D01*
X548437D01*
Y337039D02*
Y341961D01*
X546665Y337039D02*
X548437D01*
X540563D02*
Y341961D01*
X548437D01*
Y337039D02*
Y341961D01*
X540563Y337039D02*
X548437D01*
X514039Y354665D02*
X518961D01*
X514039D02*
Y356437D01*
X518961D01*
Y354665D02*
Y356437D01*
X514039Y350335D02*
X518961D01*
Y348563D02*
Y350335D01*
X514039Y348563D02*
X518961D01*
X514039D02*
Y350335D01*
Y356437D02*
X518961D01*
Y348563D02*
Y356437D01*
X514039Y348563D02*
X518961D01*
X514039D02*
Y356437D01*
X569587Y461039D02*
Y465961D01*
X567815Y461039D02*
X569587D01*
X567815D02*
Y465961D01*
X569587D01*
X573917Y461039D02*
Y465961D01*
X575689D01*
Y461039D02*
Y465961D01*
X573917Y461039D02*
X575689D01*
X567815D02*
Y465961D01*
X575689D01*
Y461039D02*
Y465961D01*
X567815Y461039D02*
X575689D01*
X551539Y361409D02*
X556461D01*
Y359638D02*
Y361409D01*
X551539Y359638D02*
X556461D01*
X551539D02*
Y361409D01*
Y365740D02*
X556461D01*
X551539D02*
Y367512D01*
X556461D01*
Y365740D02*
Y367512D01*
X551539Y359638D02*
X556461D01*
X551539D02*
Y367512D01*
X556461D01*
Y359638D02*
Y367512D01*
X533039Y361835D02*
X537961D01*
Y360063D02*
Y361835D01*
X533039Y360063D02*
X537961D01*
X533039D02*
Y361835D01*
Y366165D02*
X537961D01*
X533039D02*
Y367937D01*
X537961D01*
Y366165D02*
Y367937D01*
X533039Y360063D02*
X537961D01*
X533039D02*
Y367937D01*
X537961D01*
Y360063D02*
Y367937D01*
X543039Y361260D02*
X547961D01*
Y359488D02*
Y361260D01*
X543039Y359488D02*
X547961D01*
X543039D02*
Y361260D01*
Y365591D02*
X547961D01*
X543039D02*
Y367362D01*
X547961D01*
Y365591D02*
Y367362D01*
X543039Y359488D02*
X547961D01*
X543039D02*
Y367362D01*
X547961D01*
Y359488D02*
Y367362D01*
X513039Y367590D02*
X517961D01*
X513039D02*
Y369362D01*
X517961D01*
Y367590D02*
Y369362D01*
X513039Y363260D02*
X517961D01*
Y361488D02*
Y363260D01*
X513039Y361488D02*
X517961D01*
X513039D02*
Y363260D01*
Y369362D02*
X517961D01*
Y361488D02*
Y369362D01*
X513039Y361488D02*
X517961D01*
X513039D02*
Y369362D01*
X642665Y329992D02*
Y334913D01*
X644437D01*
Y329992D02*
Y334913D01*
X642665Y329992D02*
X644437D01*
X638335D02*
Y334913D01*
X636563Y329992D02*
X638335D01*
X636563D02*
Y334913D01*
X638335D01*
X644437Y329992D02*
Y334913D01*
X636563Y329992D02*
X644437D01*
X636563D02*
Y334913D01*
X644437D01*
X535039Y314665D02*
X539961D01*
X535039D02*
Y316437D01*
X539961D01*
Y314665D02*
Y316437D01*
X535039Y310335D02*
X539961D01*
Y308563D02*
Y310335D01*
X535039Y308563D02*
X539961D01*
X535039D02*
Y310335D01*
Y316437D02*
X539961D01*
Y308563D02*
Y316437D01*
X535039Y308563D02*
X539961D01*
X535039D02*
Y316437D01*
X623165Y309039D02*
Y313961D01*
X624937D01*
Y309039D02*
Y313961D01*
X623165Y309039D02*
X624937D01*
X618835D02*
Y313961D01*
X617063Y309039D02*
X618835D01*
X617063D02*
Y313961D01*
X618835D01*
X624937Y309039D02*
Y313961D01*
X617063Y309039D02*
X624937D01*
X617063D02*
Y313961D01*
X624937D01*
X549348Y413063D02*
Y420937D01*
X544427D02*
X549348D01*
X544427Y413063D02*
Y420937D01*
Y413063D02*
X549348D01*
Y419165D02*
Y420937D01*
X544427D02*
X549348D01*
X544427Y419165D02*
Y420937D01*
Y419165D02*
X549348D01*
X544427Y413063D02*
Y414835D01*
Y413063D02*
X549348D01*
Y414835D01*
X544427D02*
X549348D01*
X559183Y486754D02*
X575896D01*
Y497246D01*
X559183D02*
X575896D01*
X559183Y486754D02*
Y497246D01*
X572303Y489254D02*
X576791D01*
Y494746D01*
X572303D02*
X576791D01*
X572303Y489254D02*
Y494746D01*
X558287D02*
X562776D01*
X558287Y489254D02*
Y494746D01*
Y489254D02*
X562776D01*
Y494746D01*
X631291Y369150D02*
X642709D01*
X631291Y362850D02*
Y369150D01*
Y362850D02*
X642709D01*
Y369150D01*
X639953Y360488D02*
Y362260D01*
Y360488D02*
X641528D01*
Y362260D01*
X639953D02*
X641528D01*
X636213Y360488D02*
Y362260D01*
Y360488D02*
X637787D01*
Y362260D01*
X636213D02*
X637787D01*
X632472Y360488D02*
Y362260D01*
Y360488D02*
X634047D01*
Y362260D01*
X632472D02*
X634047D01*
Y369740D02*
Y371512D01*
X632472D02*
X634047D01*
X632472Y369740D02*
Y371512D01*
Y369740D02*
X634047D01*
X637787D02*
Y371512D01*
X636213D02*
X637787D01*
X636213Y369740D02*
Y371512D01*
Y369740D02*
X637787D01*
X641528D02*
Y371512D01*
X639953D02*
X641528D01*
X639953Y369740D02*
Y371512D01*
Y369740D02*
X641528D01*
X540563Y346539D02*
X548437D01*
Y351461D01*
X540563D02*
X548437D01*
X540563Y346539D02*
Y351461D01*
X546665Y346539D02*
X548437D01*
Y351461D01*
X546665D02*
X548437D01*
X546665Y346539D02*
Y351461D01*
X540563D02*
X542335D01*
X540563Y346539D02*
Y351461D01*
Y346539D02*
X542335D01*
Y351461D01*
X567815Y380315D02*
X607185D01*
Y419685D01*
X567815D02*
X607185D01*
X567815Y380315D02*
Y419685D01*
X563878Y384990D02*
X566240D01*
X563878Y383514D02*
Y384990D01*
Y383514D02*
X566240D01*
Y384990D01*
X563878Y388140D02*
X566240D01*
X563878Y386663D02*
Y388140D01*
Y386663D02*
X566240D01*
Y388140D01*
X563878Y391289D02*
X566240D01*
X563878Y389813D02*
Y391289D01*
Y389813D02*
X566240D01*
Y391289D01*
X563878Y394439D02*
X566240D01*
X563878Y392963D02*
Y394439D01*
Y392963D02*
X566240D01*
Y394439D01*
X563878Y397589D02*
X566240D01*
X563878Y396112D02*
Y397589D01*
Y396112D02*
X566240D01*
Y397589D01*
X563878Y400738D02*
X566240D01*
X563878Y399262D02*
Y400738D01*
Y399262D02*
X566240D01*
Y400738D01*
X563878Y403888D02*
X566240D01*
X563878Y402411D02*
Y403888D01*
Y402411D02*
X566240D01*
Y403888D01*
X563878Y407037D02*
X566240D01*
X563878Y405561D02*
Y407037D01*
Y405561D02*
X566240D01*
Y407037D01*
X563878Y410187D02*
X566240D01*
X563878Y408711D02*
Y410187D01*
Y408711D02*
X566240D01*
Y410187D01*
X563878Y413337D02*
X566240D01*
X563878Y411860D02*
Y413337D01*
Y411860D02*
X566240D01*
Y413337D01*
X563878Y416486D02*
X566240D01*
X563878Y415010D02*
Y416486D01*
Y415010D02*
X566240D01*
Y416486D01*
X572490Y421260D02*
Y423622D01*
X571014D02*
X572490D01*
X571014Y421260D02*
Y423622D01*
Y421260D02*
X572490D01*
X575640D02*
Y423622D01*
X574163D02*
X575640D01*
X574163Y421260D02*
Y423622D01*
Y421260D02*
X575640D01*
X578789D02*
Y423622D01*
X577313D02*
X578789D01*
X577313Y421260D02*
Y423622D01*
Y421260D02*
X578789D01*
X581939D02*
Y423622D01*
X580463D02*
X581939D01*
X580463Y421260D02*
Y423622D01*
Y421260D02*
X581939D01*
X585089D02*
Y423622D01*
X583612D02*
X585089D01*
X583612Y421260D02*
Y423622D01*
Y421260D02*
X585089D01*
X588238D02*
Y423622D01*
X586762D02*
X588238D01*
X586762Y421260D02*
Y423622D01*
Y421260D02*
X588238D01*
X591388D02*
Y423622D01*
X589911D02*
X591388D01*
X589911Y421260D02*
Y423622D01*
Y421260D02*
X591388D01*
X594537D02*
Y423622D01*
X593061D02*
X594537D01*
X593061Y421260D02*
Y423622D01*
Y421260D02*
X594537D01*
X597687D02*
Y423622D01*
X596211D02*
X597687D01*
X596211Y421260D02*
Y423622D01*
Y421260D02*
X597687D01*
X600837D02*
Y423622D01*
X599360D02*
X600837D01*
X599360Y421260D02*
Y423622D01*
Y421260D02*
X600837D01*
X603986D02*
Y423622D01*
X602510D02*
X603986D01*
X602510Y421260D02*
Y423622D01*
Y421260D02*
X603986D01*
X608760Y415010D02*
X611122D01*
Y416486D01*
X608760D02*
X611122D01*
X608760Y415010D02*
Y416486D01*
Y411860D02*
X611122D01*
Y413337D01*
X608760D02*
X611122D01*
X608760Y411860D02*
Y413337D01*
Y408711D02*
X611122D01*
Y410187D01*
X608760D02*
X611122D01*
X608760Y408711D02*
Y410187D01*
Y405561D02*
X611122D01*
Y407037D01*
X608760D02*
X611122D01*
X608760Y405561D02*
Y407037D01*
Y402411D02*
X611122D01*
Y403888D01*
X608760D02*
X611122D01*
X608760Y402411D02*
Y403888D01*
Y399262D02*
X611122D01*
Y400738D01*
X608760D02*
X611122D01*
X608760Y399262D02*
Y400738D01*
Y396112D02*
X611122D01*
Y397589D01*
X608760D02*
X611122D01*
X608760Y396112D02*
Y397589D01*
Y392963D02*
X611122D01*
Y394439D01*
X608760D02*
X611122D01*
X608760Y392963D02*
Y394439D01*
Y389813D02*
X611122D01*
Y391289D01*
X608760D02*
X611122D01*
X608760Y389813D02*
Y391289D01*
Y386663D02*
X611122D01*
Y388140D01*
X608760D02*
X611122D01*
X608760Y386663D02*
Y388140D01*
Y383514D02*
X611122D01*
Y384990D01*
X608760D02*
X611122D01*
X608760Y383514D02*
Y384990D01*
X602510Y376378D02*
Y378740D01*
Y376378D02*
X603986D01*
Y378740D01*
X602510D02*
X603986D01*
X599360Y376378D02*
Y378740D01*
Y376378D02*
X600837D01*
Y378740D01*
X599360D02*
X600837D01*
X596211Y376378D02*
Y378740D01*
Y376378D02*
X597687D01*
Y378740D01*
X596211D02*
X597687D01*
X593061Y376378D02*
Y378740D01*
Y376378D02*
X594537D01*
Y378740D01*
X593061D02*
X594537D01*
X589911Y376378D02*
Y378740D01*
Y376378D02*
X591388D01*
Y378740D01*
X589911D02*
X591388D01*
X586762Y376378D02*
Y378740D01*
Y376378D02*
X588238D01*
Y378740D01*
X586762D02*
X588238D01*
X583612Y376378D02*
Y378740D01*
Y376378D02*
X585089D01*
Y378740D01*
X583612D02*
X585089D01*
X580463Y376378D02*
Y378740D01*
Y376378D02*
X581939D01*
Y378740D01*
X580463D02*
X581939D01*
X577313Y376378D02*
Y378740D01*
Y376378D02*
X578789D01*
Y378740D01*
X577313D02*
X578789D01*
X574163Y376378D02*
Y378740D01*
Y376378D02*
X575640D01*
Y378740D01*
X574163D02*
X575640D01*
X571014Y376378D02*
Y378740D01*
Y376378D02*
X572490D01*
Y378740D01*
X571014D02*
X572490D01*
X629941Y394039D02*
Y398961D01*
X628563Y394039D02*
X629941D01*
X628563D02*
Y398961D01*
X629941D01*
X635059Y394039D02*
Y398961D01*
X636437D01*
Y394039D02*
Y398961D01*
X635059Y394039D02*
X636437D01*
X628563D02*
Y398961D01*
X636437D01*
Y394039D02*
Y398961D01*
X628563Y394039D02*
X636437D01*
X527335Y348539D02*
Y353461D01*
X525563Y348539D02*
X527335D01*
X525563D02*
Y353461D01*
X527335D01*
X531665Y348539D02*
Y353461D01*
X533437D01*
Y348539D02*
Y353461D01*
X531665Y348539D02*
X533437D01*
X525563D02*
Y353461D01*
X533437D01*
Y348539D02*
Y353461D01*
X525563Y348539D02*
X533437D01*
X624575Y331350D02*
Y337650D01*
X621425D02*
X624575D01*
X621425Y331350D02*
Y337650D01*
Y331350D02*
X624575D01*
Y336665D02*
Y337650D01*
X621425D02*
X624575D01*
X621425Y336665D02*
Y337650D01*
Y336665D02*
X624575D01*
X621425Y331350D02*
Y332335D01*
Y331350D02*
X624575D01*
Y332335D01*
X621425D02*
X624575D01*
X671539Y356059D02*
X676461D01*
X671539D02*
Y357437D01*
X676461D01*
Y356059D02*
Y357437D01*
X671539Y350941D02*
X676461D01*
Y349563D02*
Y350941D01*
X671539Y349563D02*
X676461D01*
X671539D02*
Y350941D01*
Y357437D02*
X676461D01*
Y349563D02*
Y357437D01*
X671539Y349563D02*
X676461D01*
X671539D02*
Y357437D01*
X652150Y397791D02*
Y409209D01*
X645850D02*
X652150D01*
X645850Y397791D02*
Y409209D01*
Y397791D02*
X652150D01*
X643488Y400547D02*
X645260D01*
X643488Y398972D02*
Y400547D01*
Y398972D02*
X645260D01*
Y400547D01*
X643488Y404287D02*
X645260D01*
X643488Y402713D02*
Y404287D01*
Y402713D02*
X645260D01*
Y404287D01*
X643488Y408028D02*
X645260D01*
X643488Y406453D02*
Y408028D01*
Y406453D02*
X645260D01*
Y408028D01*
X652740Y406453D02*
X654512D01*
Y408028D01*
X652740D02*
X654512D01*
X652740Y406453D02*
Y408028D01*
Y402713D02*
X654512D01*
Y404287D01*
X652740D02*
X654512D01*
X652740Y402713D02*
Y404287D01*
Y398972D02*
X654512D01*
Y400547D01*
X652740D02*
X654512D01*
X652740Y398972D02*
Y400547D01*
X544427Y401165D02*
X549348D01*
X544427D02*
Y402937D01*
X549348D01*
Y401165D02*
Y402937D01*
X544427Y396835D02*
X549348D01*
Y395063D02*
Y396835D01*
X544427Y395063D02*
X549348D01*
X544427D02*
Y396835D01*
Y402937D02*
X549348D01*
Y395063D02*
Y402937D01*
X544427Y395063D02*
X549348D01*
X544427D02*
Y402937D01*
X558850Y440425D02*
X565150D01*
Y443575D01*
X558850D02*
X565150D01*
X558850Y440425D02*
Y443575D01*
X564165Y440425D02*
X565150D01*
Y443575D01*
X564165D02*
X565150D01*
X564165Y440425D02*
Y443575D01*
X558850D02*
X559835D01*
X558850Y440425D02*
Y443575D01*
Y440425D02*
X559835D01*
Y443575D01*
X558850Y438075D02*
X565150D01*
X558850Y434925D02*
Y438075D01*
Y434925D02*
X565150D01*
Y438075D01*
X558850D02*
X559835D01*
X558850Y434925D02*
Y438075D01*
Y434925D02*
X559835D01*
Y438075D01*
X564165Y434925D02*
X565150D01*
Y438075D01*
X564165D02*
X565150D01*
X564165Y434925D02*
Y438075D01*
X574350Y443575D02*
X580650D01*
X574350Y440425D02*
Y443575D01*
Y440425D02*
X580650D01*
Y443575D01*
X574350D02*
X575335D01*
X574350Y440425D02*
Y443575D01*
Y440425D02*
X575335D01*
Y443575D01*
X579665Y440425D02*
X580650D01*
Y443575D01*
X579665D02*
X580650D01*
X579665Y440425D02*
Y443575D01*
X574350Y434925D02*
X580650D01*
Y438075D01*
X574350D02*
X580650D01*
X574350Y434925D02*
Y438075D01*
X579665Y434925D02*
X580650D01*
Y438075D01*
X579665D02*
X580650D01*
X579665Y434925D02*
Y438075D01*
X574350D02*
X575335D01*
X574350Y434925D02*
Y438075D01*
Y434925D02*
X575335D01*
Y438075D01*
X588850Y443575D02*
X595150D01*
X588850Y440425D02*
Y443575D01*
Y440425D02*
X595150D01*
Y443575D01*
X588850D02*
X589835D01*
X588850Y440425D02*
Y443575D01*
Y440425D02*
X589835D01*
Y443575D01*
X594165Y440425D02*
X595150D01*
Y443575D01*
X594165D02*
X595150D01*
X594165Y440425D02*
Y443575D01*
X588850Y434925D02*
X595150D01*
Y438075D01*
X588850D02*
X595150D01*
X588850Y434925D02*
Y438075D01*
X594165Y434925D02*
X595150D01*
Y438075D01*
X594165D02*
X595150D01*
X594165Y434925D02*
Y438075D01*
X588850D02*
X589835D01*
X588850Y434925D02*
Y438075D01*
Y434925D02*
X589835D01*
Y438075D01*
X602925Y443732D02*
X609224D01*
X602925Y440583D02*
Y443732D01*
Y440583D02*
X609224D01*
Y443732D01*
X602925D02*
X603909D01*
X602925Y440583D02*
Y443732D01*
Y440583D02*
X603909D01*
Y443732D01*
X608240Y440583D02*
X609224D01*
Y443732D01*
X608240D02*
X609224D01*
X608240Y440583D02*
Y443732D01*
X602925Y434925D02*
X609224D01*
Y438075D01*
X602925D02*
X609224D01*
X602925Y434925D02*
Y438075D01*
X608240Y434925D02*
X609224D01*
Y438075D01*
X608240D02*
X609224D01*
X608240Y434925D02*
Y438075D01*
X602925D02*
X603909D01*
X602925Y434925D02*
Y438075D01*
Y434925D02*
X603909D01*
Y438075D01*
M02*
