G04*
G04 #@! TF.GenerationSoftware,Altium Limited,Altium Designer,18.1.5 (160)*
G04*
G04 Layer_Physical_Order=1*
G04 Layer_Color=255*
%FSLAX25Y25*%
%MOIN*%
G70*
G01*
G75*
%ADD13C,0.01000*%
G04:AMPARAMS|DCode=14|XSize=39.76mil|YSize=24.02mil|CornerRadius=5.88mil|HoleSize=0mil|Usage=FLASHONLY|Rotation=0.000|XOffset=0mil|YOffset=0mil|HoleType=Round|Shape=RoundedRectangle|*
%AMROUNDEDRECTD14*
21,1,0.03976,0.01225,0,0,0.0*
21,1,0.02800,0.02402,0,0,0.0*
1,1,0.01177,0.01400,-0.00612*
1,1,0.01177,-0.01400,-0.00612*
1,1,0.01177,-0.01400,0.00612*
1,1,0.01177,0.01400,0.00612*
%
%ADD14ROUNDEDRECTD14*%
G04:AMPARAMS|DCode=15|XSize=49.61mil|YSize=129.92mil|CornerRadius=9.92mil|HoleSize=0mil|Usage=FLASHONLY|Rotation=90.000|XOffset=0mil|YOffset=0mil|HoleType=Round|Shape=RoundedRectangle|*
%AMROUNDEDRECTD15*
21,1,0.04961,0.11008,0,0,90.0*
21,1,0.02976,0.12992,0,0,90.0*
1,1,0.01984,0.05504,0.01488*
1,1,0.01984,0.05504,-0.01488*
1,1,0.01984,-0.05504,-0.01488*
1,1,0.01984,-0.05504,0.01488*
%
%ADD15ROUNDEDRECTD15*%
G04:AMPARAMS|DCode=16|XSize=49.61mil|YSize=38.98mil|CornerRadius=9.94mil|HoleSize=0mil|Usage=FLASHONLY|Rotation=270.000|XOffset=0mil|YOffset=0mil|HoleType=Round|Shape=RoundedRectangle|*
%AMROUNDEDRECTD16*
21,1,0.04961,0.01910,0,0,270.0*
21,1,0.02973,0.03898,0,0,270.0*
1,1,0.01988,-0.00955,-0.01486*
1,1,0.01988,-0.00955,0.01486*
1,1,0.01988,0.00955,0.01486*
1,1,0.01988,0.00955,-0.01486*
%
%ADD16ROUNDEDRECTD16*%
G04:AMPARAMS|DCode=17|XSize=39.37mil|YSize=54.33mil|CornerRadius=9.84mil|HoleSize=0mil|Usage=FLASHONLY|Rotation=180.000|XOffset=0mil|YOffset=0mil|HoleType=Round|Shape=RoundedRectangle|*
%AMROUNDEDRECTD17*
21,1,0.03937,0.03465,0,0,180.0*
21,1,0.01968,0.05433,0,0,180.0*
1,1,0.01968,-0.00984,0.01732*
1,1,0.01968,0.00984,0.01732*
1,1,0.01968,0.00984,-0.01732*
1,1,0.01968,-0.00984,-0.01732*
%
%ADD17ROUNDEDRECTD17*%
%ADD18R,0.07087X0.07480*%
G04:AMPARAMS|DCode=19|XSize=62.99mil|YSize=55.12mil|CornerRadius=13.78mil|HoleSize=0mil|Usage=FLASHONLY|Rotation=90.000|XOffset=0mil|YOffset=0mil|HoleType=Round|Shape=RoundedRectangle|*
%AMROUNDEDRECTD19*
21,1,0.06299,0.02756,0,0,90.0*
21,1,0.03543,0.05512,0,0,90.0*
1,1,0.02756,0.01378,0.01772*
1,1,0.02756,0.01378,-0.01772*
1,1,0.02756,-0.01378,-0.01772*
1,1,0.02756,-0.01378,0.01772*
%
%ADD19ROUNDEDRECTD19*%
%ADD20O,0.05315X0.01575*%
G04:AMPARAMS|DCode=21|XSize=39.37mil|YSize=54.33mil|CornerRadius=9.84mil|HoleSize=0mil|Usage=FLASHONLY|Rotation=90.000|XOffset=0mil|YOffset=0mil|HoleType=Round|Shape=RoundedRectangle|*
%AMROUNDEDRECTD21*
21,1,0.03937,0.03465,0,0,90.0*
21,1,0.01968,0.05433,0,0,90.0*
1,1,0.01968,0.01732,0.00984*
1,1,0.01968,0.01732,-0.00984*
1,1,0.01968,-0.01732,-0.00984*
1,1,0.01968,-0.01732,0.00984*
%
%ADD21ROUNDEDRECTD21*%
G04:AMPARAMS|DCode=22|XSize=34.25mil|YSize=54.33mil|CornerRadius=8.73mil|HoleSize=0mil|Usage=FLASHONLY|Rotation=180.000|XOffset=0mil|YOffset=0mil|HoleType=Round|Shape=RoundedRectangle|*
%AMROUNDEDRECTD22*
21,1,0.03425,0.03686,0,0,180.0*
21,1,0.01678,0.05433,0,0,180.0*
1,1,0.01747,-0.00839,0.01843*
1,1,0.01747,0.00839,0.01843*
1,1,0.01747,0.00839,-0.01843*
1,1,0.01747,-0.00839,-0.01843*
%
%ADD22ROUNDEDRECTD22*%
G04:AMPARAMS|DCode=23|XSize=34.25mil|YSize=54.33mil|CornerRadius=8.73mil|HoleSize=0mil|Usage=FLASHONLY|Rotation=90.000|XOffset=0mil|YOffset=0mil|HoleType=Round|Shape=RoundedRectangle|*
%AMROUNDEDRECTD23*
21,1,0.03425,0.03686,0,0,90.0*
21,1,0.01678,0.05433,0,0,90.0*
1,1,0.01747,0.01843,0.00839*
1,1,0.01747,0.01843,-0.00839*
1,1,0.01747,-0.01843,-0.00839*
1,1,0.01747,-0.01843,0.00839*
%
%ADD23ROUNDEDRECTD23*%
G04:AMPARAMS|DCode=24|XSize=35.83mil|YSize=54.33mil|CornerRadius=9.14mil|HoleSize=0mil|Usage=FLASHONLY|Rotation=90.000|XOffset=0mil|YOffset=0mil|HoleType=Round|Shape=RoundedRectangle|*
%AMROUNDEDRECTD24*
21,1,0.03583,0.03606,0,0,90.0*
21,1,0.01756,0.05433,0,0,90.0*
1,1,0.01827,0.01803,0.00878*
1,1,0.01827,0.01803,-0.00878*
1,1,0.01827,-0.01803,-0.00878*
1,1,0.01827,-0.01803,0.00878*
%
%ADD24ROUNDEDRECTD24*%
G04:AMPARAMS|DCode=25|XSize=40.55mil|YSize=55.91mil|CornerRadius=9.94mil|HoleSize=0mil|Usage=FLASHONLY|Rotation=90.000|XOffset=0mil|YOffset=0mil|HoleType=Round|Shape=RoundedRectangle|*
%AMROUNDEDRECTD25*
21,1,0.04055,0.03604,0,0,90.0*
21,1,0.02068,0.05591,0,0,90.0*
1,1,0.01987,0.01802,0.01034*
1,1,0.01987,0.01802,-0.01034*
1,1,0.01987,-0.01802,-0.01034*
1,1,0.01987,-0.01802,0.01034*
%
%ADD25ROUNDEDRECTD25*%
G04:AMPARAMS|DCode=26|XSize=29.13mil|YSize=36.61mil|CornerRadius=7.43mil|HoleSize=0mil|Usage=FLASHONLY|Rotation=270.000|XOffset=0mil|YOffset=0mil|HoleType=Round|Shape=RoundedRectangle|*
%AMROUNDEDRECTD26*
21,1,0.02913,0.02176,0,0,270.0*
21,1,0.01428,0.03661,0,0,270.0*
1,1,0.01486,-0.01088,-0.00714*
1,1,0.01486,-0.01088,0.00714*
1,1,0.01486,0.01088,0.00714*
1,1,0.01486,0.01088,-0.00714*
%
%ADD26ROUNDEDRECTD26*%
G04:AMPARAMS|DCode=27|XSize=81.5mil|YSize=25.98mil|CornerRadius=6.76mil|HoleSize=0mil|Usage=FLASHONLY|Rotation=90.000|XOffset=0mil|YOffset=0mil|HoleType=Round|Shape=RoundedRectangle|*
%AMROUNDEDRECTD27*
21,1,0.08150,0.01247,0,0,90.0*
21,1,0.06798,0.02598,0,0,90.0*
1,1,0.01351,0.00624,0.03399*
1,1,0.01351,0.00624,-0.03399*
1,1,0.01351,-0.00624,-0.03399*
1,1,0.01351,-0.00624,0.03399*
%
%ADD27ROUNDEDRECTD27*%
G04:AMPARAMS|DCode=28|XSize=85.83mil|YSize=59.45mil|CornerRadius=9.81mil|HoleSize=0mil|Usage=FLASHONLY|Rotation=0.000|XOffset=0mil|YOffset=0mil|HoleType=Round|Shape=RoundedRectangle|*
%AMROUNDEDRECTD28*
21,1,0.08583,0.03983,0,0,0.0*
21,1,0.06621,0.05945,0,0,0.0*
1,1,0.01962,0.03310,-0.01991*
1,1,0.01962,-0.03310,-0.01991*
1,1,0.01962,-0.03310,0.01991*
1,1,0.01962,0.03310,0.01991*
%
%ADD28ROUNDEDRECTD28*%
G04:AMPARAMS|DCode=29|XSize=48.82mil|YSize=24.02mil|CornerRadius=5.88mil|HoleSize=0mil|Usage=FLASHONLY|Rotation=270.000|XOffset=0mil|YOffset=0mil|HoleType=Round|Shape=RoundedRectangle|*
%AMROUNDEDRECTD29*
21,1,0.04882,0.01225,0,0,270.0*
21,1,0.03705,0.02402,0,0,270.0*
1,1,0.01177,-0.00612,-0.01853*
1,1,0.01177,-0.00612,0.01853*
1,1,0.01177,0.00612,0.01853*
1,1,0.01177,0.00612,-0.01853*
%
%ADD29ROUNDEDRECTD29*%
%ADD31R,0.07874X0.21654*%
G04:AMPARAMS|DCode=32|XSize=40.55mil|YSize=55.91mil|CornerRadius=9.94mil|HoleSize=0mil|Usage=FLASHONLY|Rotation=0.000|XOffset=0mil|YOffset=0mil|HoleType=Round|Shape=RoundedRectangle|*
%AMROUNDEDRECTD32*
21,1,0.04055,0.03604,0,0,0.0*
21,1,0.02068,0.05591,0,0,0.0*
1,1,0.01987,0.01034,-0.01802*
1,1,0.01987,-0.01034,-0.01802*
1,1,0.01987,-0.01034,0.01802*
1,1,0.01987,0.01034,0.01802*
%
%ADD32ROUNDEDRECTD32*%
G04:AMPARAMS|DCode=33|XSize=59.06mil|YSize=22.44mil|CornerRadius=5.5mil|HoleSize=0mil|Usage=FLASHONLY|Rotation=180.000|XOffset=0mil|YOffset=0mil|HoleType=Round|Shape=RoundedRectangle|*
%AMROUNDEDRECTD33*
21,1,0.05906,0.01145,0,0,180.0*
21,1,0.04806,0.02244,0,0,180.0*
1,1,0.01100,-0.02403,0.00572*
1,1,0.01100,0.02403,0.00572*
1,1,0.01100,0.02403,-0.00572*
1,1,0.01100,-0.02403,-0.00572*
%
%ADD33ROUNDEDRECTD33*%
G04:AMPARAMS|DCode=34|XSize=59.06mil|YSize=22.44mil|CornerRadius=5.5mil|HoleSize=0mil|Usage=FLASHONLY|Rotation=90.000|XOffset=0mil|YOffset=0mil|HoleType=Round|Shape=RoundedRectangle|*
%AMROUNDEDRECTD34*
21,1,0.05906,0.01145,0,0,90.0*
21,1,0.04806,0.02244,0,0,90.0*
1,1,0.01100,0.00572,0.02403*
1,1,0.01100,0.00572,-0.02403*
1,1,0.01100,-0.00572,-0.02403*
1,1,0.01100,-0.00572,0.02403*
%
%ADD34ROUNDEDRECTD34*%
G04:AMPARAMS|DCode=35|XSize=48.82mil|YSize=24.02mil|CornerRadius=5.88mil|HoleSize=0mil|Usage=FLASHONLY|Rotation=180.000|XOffset=0mil|YOffset=0mil|HoleType=Round|Shape=RoundedRectangle|*
%AMROUNDEDRECTD35*
21,1,0.04882,0.01225,0,0,180.0*
21,1,0.03705,0.02402,0,0,180.0*
1,1,0.01177,-0.01853,0.00612*
1,1,0.01177,0.01853,0.00612*
1,1,0.01177,0.01853,-0.00612*
1,1,0.01177,-0.01853,-0.00612*
%
%ADD35ROUNDEDRECTD35*%
G04:AMPARAMS|DCode=36|XSize=29.13mil|YSize=36.61mil|CornerRadius=7.43mil|HoleSize=0mil|Usage=FLASHONLY|Rotation=0.000|XOffset=0mil|YOffset=0mil|HoleType=Round|Shape=RoundedRectangle|*
%AMROUNDEDRECTD36*
21,1,0.02913,0.02176,0,0,0.0*
21,1,0.01428,0.03661,0,0,0.0*
1,1,0.01486,0.00714,-0.01088*
1,1,0.01486,-0.00714,-0.01088*
1,1,0.01486,-0.00714,0.01088*
1,1,0.01486,0.00714,0.01088*
%
%ADD36ROUNDEDRECTD36*%
%ADD66R,0.07874X0.20866*%
%ADD67C,0.01968*%
%ADD68C,0.01575*%
%ADD69C,0.01181*%
%ADD70C,0.00996*%
%ADD71C,0.00984*%
%ADD72R,0.05906X0.05906*%
%ADD73C,0.05906*%
%ADD74O,0.06299X0.03543*%
%ADD75C,0.04724*%
%ADD76R,0.05906X0.05906*%
%ADD77C,0.05000*%
D13*
X516500Y349075D02*
X517264Y349839D01*
X520547D01*
X521709Y351000D01*
X526075D01*
X618067Y404575D02*
X632335D01*
X546079Y426421D02*
X547000Y425500D01*
X531000Y441500D02*
X546079Y426421D01*
X551094Y396094D02*
X558150Y403150D01*
X536760Y378260D02*
X547500Y389000D01*
X539000Y332000D02*
X540500Y330500D01*
X602846Y325839D02*
X605000D01*
X598534Y321527D02*
X602846Y325839D01*
X598534Y316582D02*
Y321527D01*
X637772Y377835D02*
X640740Y374866D01*
Y370862D02*
Y374866D01*
X585000Y332453D02*
Y342000D01*
X582500Y344500D02*
X585000Y342000D01*
X580000Y340500D02*
Y351547D01*
X577500Y344500D02*
Y359500D01*
X575000Y342000D02*
X577500Y344500D01*
X575000Y332453D02*
Y342000D01*
X545864Y426421D02*
X546079D01*
X598534Y316582D02*
X599500Y315616D01*
Y311339D02*
Y315616D01*
X595000Y306839D02*
X599500Y311339D01*
X525764Y332264D02*
X530850Y327177D01*
Y322555D02*
Y327177D01*
Y322555D02*
X537500Y315905D01*
X524411Y362250D02*
X525736Y363575D01*
X583000Y384500D02*
Y386000D01*
X593799Y383000D02*
X598500Y387701D01*
X593799Y377835D02*
Y383000D01*
X589500Y400000D02*
X598500Y391000D01*
X590500Y385500D02*
Y387000D01*
X598500Y387701D02*
Y391000D01*
Y399500D01*
X603248Y377835D02*
Y398748D01*
X573000Y386500D02*
Y388000D01*
Y384000D02*
Y386500D01*
X522000Y461500D02*
X530177D01*
X560370Y376886D02*
Y394465D01*
X554000Y391500D02*
X562500Y400000D01*
X555299Y406299D02*
X565335D01*
X562756Y396850D02*
X565335D01*
X560370Y394465D02*
X562756Y396850D01*
X569654Y399327D02*
Y401366D01*
X567870Y403150D02*
X569654Y401366D01*
X586834Y400500D02*
X589500D01*
X584551Y398217D02*
X586834Y400500D01*
X578717Y398217D02*
X584551D01*
X571500Y393500D02*
X581000D01*
X584350Y380850D02*
X590500Y387000D01*
X562996Y322953D02*
Y325528D01*
X561500Y322953D02*
X562996D01*
X561500D02*
X564339Y320114D01*
X569654Y324500D02*
X571661Y322492D01*
X569654Y324500D02*
X570000Y324847D01*
X635500Y344661D02*
Y345661D01*
X634839Y344000D02*
X635500Y344661D01*
X590000Y359661D02*
X591339Y361000D01*
X604839D01*
X648685Y348161D02*
X656000D01*
X648685Y340839D02*
X656000D01*
X634839Y344000D02*
X638000Y340839D01*
X648685D01*
X640740Y356106D02*
X648685Y348161D01*
X640740Y356106D02*
Y361138D01*
X674000Y344000D02*
Y349839D01*
X632768Y360646D02*
X633260Y361138D01*
X632768Y358299D02*
Y360646D01*
X614000Y346339D02*
X614161Y346177D01*
X622500D01*
X626776D01*
X631721Y351122D01*
Y357252D01*
X632768Y358299D01*
X624500Y367500D02*
X627862Y370862D01*
X633260D01*
X622925Y377835D02*
X637772D01*
X584350D02*
Y380850D01*
X581201Y382701D02*
X583000Y384500D01*
X624500Y365520D02*
Y367500D01*
X581201Y377835D02*
Y382701D01*
X622925Y375953D02*
Y377835D01*
X636500Y331878D02*
X637075Y332453D01*
X636500Y322953D02*
Y331878D01*
X595000Y306839D02*
X596839D01*
X659500Y315500D02*
X664500Y310500D01*
X571661Y316000D02*
Y322492D01*
X564339Y316000D02*
Y320114D01*
X557500Y312000D02*
X561000D01*
X563500Y309500D01*
X573171D02*
X577832Y314161D01*
X563500Y309500D02*
X573171D01*
X545000Y367000D02*
X554000D01*
X525736Y370425D02*
X526661Y369500D01*
X554661Y306839D02*
X579000D01*
X553000Y308500D02*
X554661Y306839D01*
X553000Y308500D02*
Y326500D01*
X577832Y314161D02*
X577883Y314110D01*
X576994Y315000D02*
X577832Y314161D01*
X579000D01*
X582661Y310500D01*
X592000D01*
X595000Y307500D01*
Y306839D02*
Y307500D01*
X579000Y306839D02*
X579236Y307075D01*
X587000D01*
X570000Y324847D02*
Y332453D01*
X562996Y325528D02*
X565000Y327531D01*
Y332453D01*
X676260Y331870D02*
X676500D01*
X670000Y338130D02*
X676260Y331870D01*
X669370Y332500D02*
X670000Y331870D01*
X661925Y332500D02*
X669370D01*
X661925Y325528D02*
X664500Y322953D01*
X661925Y325528D02*
Y332500D01*
X654500Y322953D02*
X655075Y323528D01*
Y332500D01*
X623000Y337370D02*
Y337630D01*
Y337370D02*
X629000Y331370D01*
Y337630D02*
X638748D01*
X643925Y332453D01*
X644500Y331878D01*
Y322953D02*
Y331878D01*
X674000Y340630D02*
Y344000D01*
Y340630D02*
X676500Y338130D01*
X628000Y315500D02*
X659500D01*
X625000Y312500D02*
X628000Y315500D01*
X510000Y384630D02*
Y434000D01*
Y384630D02*
X516370Y378260D01*
X536760D01*
X546000Y389000D02*
X547500D01*
X547000Y396094D02*
X551094D01*
X547500Y389000D02*
X556000Y397500D01*
X571981Y397000D02*
X577500D01*
X578717Y398217D01*
X569654Y399327D02*
X571981Y397000D01*
X510000Y434000D02*
X517500Y441500D01*
X531000D01*
X551594Y420405D02*
X558000Y414000D01*
X547000Y425500D02*
X549902D01*
X547000Y420405D02*
X551594D01*
X549902Y425500D02*
X557500Y417902D01*
X558150Y403150D02*
X565335D01*
X559598Y417902D02*
X560500Y417000D01*
X557500Y417902D02*
X559598D01*
X565335Y403150D02*
X567870D01*
X609665Y390551D02*
X618185D01*
X618236Y390500D01*
X602150Y403150D02*
X609665D01*
X598500Y399500D02*
X602150Y403150D01*
X609665D02*
X616642D01*
X618067Y404575D01*
X632335D02*
X643858Y416098D01*
X644138Y403500D02*
X649000D01*
Y412098D01*
X643858Y416098D02*
X645000D01*
Y420500D01*
Y416098D02*
X649000Y412098D01*
Y403500D02*
X653862D01*
X570000Y351547D02*
Y364000D01*
X562813Y371187D02*
X570000Y364000D01*
X562813Y374443D02*
X565256Y372000D01*
X560370Y376886D02*
X562813Y374443D01*
Y371187D02*
Y374443D01*
X574902Y375411D02*
Y377835D01*
X565256Y372000D02*
X571491D01*
X574902Y375411D01*
X582500Y358500D02*
X590650Y366650D01*
X582500Y344500D02*
Y358500D01*
X590650Y366650D02*
Y377835D01*
X553000Y326500D02*
X557500Y331000D01*
X558335Y422165D02*
X559000D01*
X551425Y352500D02*
X555000D01*
X540500Y330500D02*
X546000D01*
X677500Y398000D02*
X679000Y399500D01*
X668504Y398000D02*
X677500D01*
X666744Y399760D02*
X668504Y398000D01*
X653862Y399760D02*
X666744D01*
X572000Y409500D02*
X580000D01*
X568902Y412598D02*
X572000Y409500D01*
X565335Y412598D02*
X568902D01*
X571752Y382752D02*
X573000Y384000D01*
X571752Y377835D02*
Y382752D01*
X571079Y414421D02*
X574079D01*
X568551Y390551D02*
X571500Y393500D01*
X565335Y390551D02*
X568551D01*
X565335Y379165D02*
X566000Y378500D01*
X565335Y379165D02*
Y384252D01*
X551905Y402906D02*
X555299Y406299D01*
X533425Y369500D02*
X535500Y367425D01*
X526661Y369500D02*
X533425D01*
X594500Y427500D02*
X641776D01*
X593405Y429500D02*
X640500D01*
X655776Y444776D01*
X590650Y426744D02*
X593405Y429500D01*
X654500Y307500D02*
Y310500D01*
X652500Y305500D02*
X654500Y307500D01*
X613252Y305500D02*
X652500D01*
X611913Y306839D02*
X613252Y305500D01*
X522000Y394299D02*
X530606Y402906D01*
X590650Y422165D02*
Y426744D01*
X536000Y444500D02*
Y455677D01*
X530177Y461500D02*
X536000Y455677D01*
X641776Y427500D02*
X656492Y442216D01*
X664468D01*
X655776Y444776D02*
X664468D01*
X555500Y367000D02*
X561500Y361000D01*
X554000Y367000D02*
X555500D01*
X603248Y398748D02*
X604500Y400000D01*
X609665D01*
X625000Y420500D02*
X629000Y416500D01*
Y411425D02*
Y416500D01*
X677500Y398000D02*
X679000D01*
X678000Y408500D02*
X679000Y409500D01*
X668075Y408500D02*
X678000D01*
X666815Y407240D02*
X668075Y408500D01*
X653862Y407240D02*
X666815D01*
X609665Y393701D02*
X616000D01*
X618799Y396500D01*
X628839D01*
X636161D02*
X639421Y399760D01*
X644138D01*
X630500Y392000D02*
X632500Y394000D01*
X628839Y392000D02*
X630500D01*
X621091Y384252D02*
X628839Y392000D01*
X632500Y394000D02*
Y399079D01*
X640661Y407240D01*
X644138D01*
X621701Y412000D02*
X626425D01*
X616000Y406299D02*
X621701Y412000D01*
X609665Y384252D02*
X621091D01*
X609665Y406299D02*
X616000D01*
X565335Y415748D02*
X569752D01*
X571079Y414421D01*
X536000Y444500D02*
X558335Y422165D01*
X525461Y444500D02*
X536000D01*
X519500Y450461D02*
X525461Y444500D01*
X606500Y306839D02*
X611913D01*
X616575Y311500D01*
X547000Y402906D02*
X551905D01*
X547000Y412500D02*
X548000Y413500D01*
X556051Y409449D02*
X565335D01*
X552000Y413500D02*
X556051Y409449D01*
X548000Y413500D02*
X552000D01*
X562500Y400000D02*
X565335D01*
X554000Y367000D02*
Y391500D01*
X522000Y422000D02*
Y428201D01*
Y422000D02*
X530406Y413594D01*
X547000D01*
X530606Y402906D02*
X547000D01*
X544575Y367425D02*
X545000Y367000D01*
X535500Y367425D02*
X544575D01*
X532925Y351000D02*
X535000D01*
X537000Y349000D01*
X541075D01*
X547925Y339500D02*
Y349000D01*
X577500Y359500D02*
X587500Y369500D01*
X547925Y349000D02*
X551425Y352500D01*
X587500Y369500D02*
Y377835D01*
X555500Y345661D02*
X561386Y351547D01*
X565000D01*
X590000D02*
Y359661D01*
Y351547D02*
X595000D01*
X565000D02*
X570000D01*
X593500Y422465D02*
X593799Y422165D01*
X593500Y422465D02*
Y426500D01*
X594500Y427500D01*
D14*
X626260Y477260D02*
D03*
Y484740D02*
D03*
X618740Y481000D02*
D03*
D15*
X649000Y494874D02*
D03*
D16*
X658016Y469126D02*
D03*
X649000D02*
D03*
X639984D02*
D03*
D17*
X673595Y475000D02*
D03*
X680406D02*
D03*
X661905Y332500D02*
D03*
X655094D02*
D03*
X541094Y339500D02*
D03*
X547905D02*
D03*
X568347Y463500D02*
D03*
X575157D02*
D03*
X643905Y332453D02*
D03*
X637094D02*
D03*
X624405Y311500D02*
D03*
X617594D02*
D03*
D18*
X675000Y449500D02*
D03*
Y440051D02*
D03*
D19*
X665354Y457374D02*
D03*
Y432177D02*
D03*
D20*
X664468Y444776D02*
D03*
Y442216D02*
D03*
Y439657D02*
D03*
Y449894D02*
D03*
Y447335D02*
D03*
D21*
X649661Y456906D02*
D03*
Y450095D02*
D03*
X617000Y458405D02*
D03*
Y451594D02*
D03*
X629000Y411406D02*
D03*
Y404595D02*
D03*
X587000Y307095D02*
D03*
Y313906D02*
D03*
X570000Y470595D02*
D03*
Y477406D02*
D03*
X516500Y355906D02*
D03*
Y349095D02*
D03*
X554000Y360169D02*
D03*
Y366980D02*
D03*
X535500Y360595D02*
D03*
Y367406D02*
D03*
X545500Y360020D02*
D03*
Y366831D02*
D03*
X515500Y368831D02*
D03*
Y362020D02*
D03*
X537500Y315905D02*
D03*
Y309095D02*
D03*
X546888Y420405D02*
D03*
Y413594D02*
D03*
Y402406D02*
D03*
Y395595D02*
D03*
D22*
X602945Y468000D02*
D03*
X610268D02*
D03*
X514839Y462500D02*
D03*
X522161D02*
D03*
X529839D02*
D03*
X537161D02*
D03*
X515839Y479500D02*
D03*
X523161D02*
D03*
X571661Y316000D02*
D03*
X564339D02*
D03*
X594661Y321066D02*
D03*
X587339D02*
D03*
X604839Y361000D02*
D03*
X612161D02*
D03*
X617661Y320114D02*
D03*
X610339D02*
D03*
X628839Y396500D02*
D03*
X636161D02*
D03*
D23*
X578500Y477661D02*
D03*
Y470339D02*
D03*
X555500Y338339D02*
D03*
Y345661D02*
D03*
X538500Y331193D02*
D03*
Y323870D02*
D03*
X547905Y316161D02*
D03*
Y308839D02*
D03*
X579000Y306839D02*
D03*
Y314161D02*
D03*
X595000D02*
D03*
Y306839D02*
D03*
X605000Y333161D02*
D03*
Y325839D02*
D03*
X606500Y313661D02*
D03*
Y306339D02*
D03*
X613000Y345839D02*
D03*
Y353161D02*
D03*
X622925Y346177D02*
D03*
Y353500D02*
D03*
X656000Y340839D02*
D03*
Y348161D02*
D03*
X648685Y340839D02*
D03*
Y348161D02*
D03*
X674000Y357161D02*
D03*
Y349839D02*
D03*
D24*
X508500Y478083D02*
D03*
Y470917D02*
D03*
D25*
X526000Y368945D02*
D03*
Y362095D02*
D03*
D26*
X670000Y331870D02*
D03*
Y338130D02*
D03*
X676500D02*
D03*
Y331870D02*
D03*
X629000Y331370D02*
D03*
Y337630D02*
D03*
X623000D02*
D03*
Y331370D02*
D03*
D27*
X595000Y351547D02*
D03*
X590000D02*
D03*
X585000D02*
D03*
X580000D02*
D03*
X575000D02*
D03*
X570000D02*
D03*
X565000D02*
D03*
Y332453D02*
D03*
X570000D02*
D03*
X575000D02*
D03*
X580000D02*
D03*
X585000D02*
D03*
X590000D02*
D03*
X595000D02*
D03*
D28*
X575079Y492000D02*
D03*
X560000D02*
D03*
D29*
X640740Y361138D02*
D03*
X637000D02*
D03*
X633260D02*
D03*
Y370862D02*
D03*
X637000D02*
D03*
X640740D02*
D03*
D31*
X521500Y390890D02*
D03*
Y428291D02*
D03*
D32*
X547925Y349000D02*
D03*
X541075D02*
D03*
X526075Y351000D02*
D03*
X532925D02*
D03*
D33*
X565335Y384252D02*
D03*
Y387402D02*
D03*
Y390551D02*
D03*
Y393701D02*
D03*
Y396850D02*
D03*
Y400000D02*
D03*
Y403150D02*
D03*
Y406299D02*
D03*
Y409449D02*
D03*
Y412598D02*
D03*
Y415748D02*
D03*
X609665D02*
D03*
Y412598D02*
D03*
Y409449D02*
D03*
Y406299D02*
D03*
Y403150D02*
D03*
Y400000D02*
D03*
Y396850D02*
D03*
Y393701D02*
D03*
Y390551D02*
D03*
Y387402D02*
D03*
Y384252D02*
D03*
D34*
X571752Y422165D02*
D03*
X574902D02*
D03*
X578051D02*
D03*
X581201D02*
D03*
X584350D02*
D03*
X587500D02*
D03*
X590650D02*
D03*
X593799D02*
D03*
X596949D02*
D03*
X600098D02*
D03*
X603248D02*
D03*
Y377835D02*
D03*
X600098D02*
D03*
X596949D02*
D03*
X593799D02*
D03*
X590650D02*
D03*
X587500D02*
D03*
X584350D02*
D03*
X581201D02*
D03*
X578051D02*
D03*
X574902D02*
D03*
X571752D02*
D03*
D35*
X644138Y399760D02*
D03*
Y403500D02*
D03*
Y407240D02*
D03*
X653862D02*
D03*
Y403500D02*
D03*
Y399760D02*
D03*
D36*
X565130Y442000D02*
D03*
X558870D02*
D03*
Y436500D02*
D03*
X565130D02*
D03*
X574370Y442000D02*
D03*
X580630D02*
D03*
Y436500D02*
D03*
X574370D02*
D03*
X588870Y442000D02*
D03*
X595130D02*
D03*
Y436500D02*
D03*
X588870D02*
D03*
X602945Y442158D02*
D03*
X609205D02*
D03*
Y436500D02*
D03*
X602945D02*
D03*
D66*
X608087Y484500D02*
D03*
X593913D02*
D03*
D67*
X514165Y349075D02*
X516500D01*
X505000Y358240D02*
X514165Y349075D01*
X638500Y451000D02*
X644425Y456925D01*
X514839Y462500D02*
Y466287D01*
X518551Y470000D01*
X531000D01*
X544500Y483500D01*
X508358Y456000D02*
X511000D01*
X504776Y452418D02*
X508358Y456000D01*
X504776Y448504D02*
Y452418D01*
Y448504D02*
X505000Y448279D01*
X625000Y436500D02*
X638500D01*
X603677Y457823D02*
X625000Y436500D01*
X585500Y457823D02*
X603677D01*
X505000Y358240D02*
Y448279D01*
X638500Y451000D02*
Y451500D01*
X644425Y456925D02*
X649661D01*
X649000Y457587D02*
X649661Y456925D01*
X649000Y457587D02*
Y469126D01*
X511000Y456000D02*
X523961D01*
X511000D02*
Y457823D01*
X514677Y461500D01*
X507500Y489500D02*
X515500Y481500D01*
X517500Y489500D02*
X524000Y496000D01*
X535500D01*
X539500Y492000D01*
X553000D01*
X544500Y483500D02*
X553000Y492000D01*
X560000D01*
X523961Y456000D02*
X529500Y450461D01*
D68*
X680425Y475000D02*
Y479575D01*
X665354Y459929D02*
X680425Y475000D01*
X662713Y457213D02*
X665354D01*
X674606Y432177D02*
X675000Y432571D01*
X605161Y462839D02*
X622342Y445657D01*
X578657Y470917D02*
X586736Y462839D01*
X572335Y470917D02*
X578657D01*
X569476Y470402D02*
X570575Y471500D01*
X568327Y463500D02*
Y470402D01*
X545650Y360150D02*
X554000D01*
X534000Y360575D02*
X535500D01*
X509500Y364425D02*
X515500Y370425D01*
X545500Y360000D02*
X545650Y360150D01*
X536075Y360000D02*
X545500D01*
X540500Y339000D02*
X541575D01*
X513575Y355925D02*
X529350D01*
X527000Y339500D02*
X540000D01*
X540500Y339000D01*
X541575D02*
X545575Y335000D01*
X605000Y333161D02*
X607339Y335500D01*
X611779D01*
X574618Y401382D02*
X575716Y402479D01*
X614500Y458500D02*
X628000D01*
X574000Y400764D02*
Y402000D01*
X589500Y400500D02*
Y411000D01*
X617500Y320500D02*
X619953Y322953D01*
X579934Y320991D02*
Y321000D01*
X580000Y321066D01*
X579934Y320991D02*
X587000Y313925D01*
X580000Y321066D02*
Y332453D01*
X514000Y474000D02*
X520925D01*
X509917Y478083D02*
X514000Y474000D01*
X508500Y478083D02*
X509917D01*
X520925Y474000D02*
X523161Y476236D01*
Y479500D01*
X637000Y361138D02*
Y366000D01*
X630500D02*
X637000D01*
X625500Y361000D02*
X630500Y366000D01*
X673500D02*
X674000Y366500D01*
X637650Y366000D02*
X673500D01*
X637000Y366650D02*
X637650Y366000D01*
X612161Y361000D02*
X625500D01*
X637000Y366650D02*
Y370862D01*
X674000Y357161D02*
Y366500D01*
X619953Y322953D02*
X626500D01*
X587000Y313925D02*
X587236Y314161D01*
X595000D01*
X525000Y341500D02*
X527000Y339500D01*
X509500Y360000D02*
X513575Y355925D01*
X535500Y360575D02*
X536075Y360000D01*
X509500D02*
Y364425D01*
X510425Y375500D02*
X515500Y370425D01*
X509500Y375500D02*
X510425D01*
X529350Y355925D02*
X534000Y360575D01*
X545575Y335000D02*
X552161D01*
X555500Y338339D01*
X507000Y461000D02*
Y469417D01*
X508500Y470917D01*
X547000Y450500D02*
Y452661D01*
X537161Y462500D02*
X547000Y452661D01*
X537161Y462500D02*
Y466319D01*
X544500Y473658D01*
X546083Y472075D01*
X581575Y418850D02*
X582865Y417559D01*
X582941D02*
X589500Y411000D01*
X582865Y417559D02*
X582941D01*
X566653Y472075D02*
X568327Y470402D01*
X546083Y472075D02*
X566653D01*
X571752Y471500D02*
X572335Y470917D01*
X570575Y471500D02*
X571752D01*
X581575Y418850D02*
Y418925D01*
X581201Y419299D02*
Y422165D01*
Y419299D02*
X581575Y418925D01*
X586736Y462839D02*
X605161D01*
X631000Y445657D02*
X632657Y444000D01*
X622342Y445657D02*
X631000D01*
X632657Y444000D02*
X643587D01*
X626260Y484740D02*
X632760D01*
X647000Y442000D02*
Y447413D01*
X643587Y444000D02*
X647000Y447413D01*
X639984Y469126D02*
Y477516D01*
X632760Y484740D02*
X639984Y477516D01*
X643543Y481075D01*
X645000Y420500D02*
X656677Y432177D01*
X651480Y449894D02*
X655394D01*
X656677Y432177D02*
X665354D01*
X655394Y449894D02*
X664468D01*
X666000Y419000D02*
Y431531D01*
X674606Y432177D02*
X675000Y431783D01*
X665354Y432177D02*
X666000Y431531D01*
X647000Y447413D02*
X649661Y450075D01*
X655394Y449894D02*
X662713Y457213D01*
X665354D02*
Y457374D01*
X643543Y481075D02*
X678925D01*
X665354Y457374D02*
X665748Y457768D01*
X665354Y457374D02*
Y459929D01*
X674606Y457374D02*
X675000Y457768D01*
X678925Y481075D02*
X680425Y479575D01*
X578413Y477661D02*
X588256Y467819D01*
X570000Y477425D02*
X571500D01*
X571264Y477661D02*
X571500Y477425D01*
X580854Y457823D02*
X585500D01*
X575177Y463500D02*
X580854Y457823D01*
X571264Y477661D02*
X578413D01*
X593913Y489900D02*
X595291D01*
X588900D02*
X593913D01*
Y495913D01*
Y484500D02*
Y489900D01*
Y495913D02*
X595500Y497500D01*
X615000D01*
X618740Y493760D01*
Y481000D02*
Y493760D01*
X595291Y489500D02*
Y489900D01*
X606500Y471483D02*
X608087Y473070D01*
X606500Y465575D02*
Y471483D01*
Y465575D02*
X613650Y458425D01*
X608087Y473070D02*
Y482000D01*
X613650Y458425D02*
X617000D01*
X610268Y468000D02*
X613161D01*
X614161Y467000D01*
X616000D01*
X585500Y445926D02*
Y457823D01*
X586500Y487500D02*
X588900Y489900D01*
X579579Y487500D02*
X586500D01*
X515500Y362000D02*
X517925D01*
X520547Y364622D01*
X523095Y362075D02*
X525750D01*
X520547Y364622D02*
X523095Y362075D01*
X520547Y364622D02*
Y370547D01*
X523000Y373000D01*
X548500D01*
X549500Y374000D01*
X584500Y407046D02*
Y412000D01*
X578051Y418449D02*
X584500Y412000D01*
X578051Y418449D02*
Y422165D01*
X575716Y402479D02*
X579934D01*
X584500Y407046D01*
X574000Y400764D02*
X574618Y401382D01*
X628000Y458500D02*
X631000Y455500D01*
X588256Y467819D02*
X601839D01*
X585000Y445426D02*
X585500Y445926D01*
X616000Y467000D02*
X626260Y477260D01*
X578051Y422165D02*
Y426421D01*
X585000Y433370D02*
Y445426D01*
X578051Y426421D02*
X585000Y433370D01*
X575079Y492000D02*
X579579Y487500D01*
X658016Y469126D02*
X663890Y475000D01*
X657500Y468610D02*
X658016Y469126D01*
X663890Y475000D02*
X673575D01*
X657500Y461000D02*
Y468610D01*
Y437500D02*
X659657Y439657D01*
X664468D01*
D69*
X613000Y353161D02*
X613339Y353500D01*
X622925D01*
X608161Y353161D02*
X613000D01*
X601500Y346500D02*
X608161Y353161D01*
D70*
X590000Y339000D02*
X591500Y340500D01*
X590000Y332453D02*
Y339000D01*
X586000Y345000D02*
X595500D01*
X585000Y346000D02*
X586000Y345000D01*
X603339Y319000D02*
X606500Y315839D01*
Y313661D02*
Y315839D01*
X595000Y323402D02*
X601098Y329500D01*
X616500D01*
X618370Y331370D02*
X623000D01*
X616500Y329500D02*
X618370Y331370D01*
X610339Y320114D02*
X616500Y326276D01*
Y329500D01*
X594661Y323063D02*
X595000Y323402D01*
Y332453D01*
Y321405D02*
Y323402D01*
X594661Y321066D02*
Y323063D01*
Y321066D02*
X595000Y321405D01*
X590000Y325630D02*
Y332453D01*
X587339Y322969D02*
X590000Y325630D01*
X587339Y321066D02*
Y322969D01*
X585000Y346000D02*
Y351547D01*
X595500Y345000D02*
X597500Y343000D01*
Y340661D02*
Y343000D01*
Y340661D02*
X605000Y333161D01*
X566661Y342661D02*
X570500D01*
X558785Y334785D02*
X566661Y342661D01*
X546888Y323870D02*
X551000Y327982D01*
Y329853D01*
X555932Y334785D01*
X558785D01*
X570500Y342661D02*
X575000Y347161D01*
Y351547D01*
X538500Y323870D02*
X546888D01*
X525000Y321500D02*
X525095D01*
X537500Y309095D01*
X537756Y308839D01*
X547905D01*
X538500Y323870D02*
X546208Y316161D01*
X547905D01*
D71*
X604201Y417000D02*
X609665Y422465D01*
X601000Y417000D02*
X604201D01*
X592283Y431783D02*
X598228D01*
X602945Y436500D01*
X587500Y427000D02*
X592283Y431783D01*
X616000Y467000D02*
X616500Y466500D01*
X624500D01*
X590650Y448150D02*
X593000Y450500D01*
X590650Y446150D02*
Y448150D01*
X588870Y444370D02*
X590650Y446150D01*
X601075Y448575D02*
X603000Y450500D01*
X601075Y444028D02*
Y448575D01*
Y444028D02*
X602945Y442158D01*
X574500Y442000D02*
X583000Y450500D01*
X574370Y442000D02*
X574500D01*
X588870D02*
Y444370D01*
X573000Y449870D02*
Y450500D01*
X565130Y442000D02*
X573000Y449870D01*
X558870Y436500D02*
Y442000D01*
X565130Y436500D02*
X571752Y429878D01*
Y422165D02*
Y429878D01*
X574370Y422697D02*
X574902Y422165D01*
X574370Y422697D02*
Y436500D01*
X584350Y422165D02*
Y427350D01*
X588870Y431870D01*
Y436500D01*
X580630D02*
Y442000D01*
X595130Y436500D02*
Y442000D01*
X609205Y436500D02*
Y442158D01*
X587500Y422165D02*
Y427000D01*
X600098Y417902D02*
X601000Y417000D01*
X600098Y417902D02*
Y422165D01*
D72*
X625000Y420500D02*
D03*
X527500Y489500D02*
D03*
X673575Y310500D02*
D03*
X676500Y322953D02*
D03*
X557000Y450500D02*
D03*
X570500D02*
D03*
X529500Y450461D02*
D03*
D73*
X635000Y420500D02*
D03*
X645000D02*
D03*
X655000D02*
D03*
X517500Y489500D02*
D03*
X507500D02*
D03*
X663575Y310500D02*
D03*
X653575D02*
D03*
X643575D02*
D03*
X626500Y322953D02*
D03*
X636500D02*
D03*
X646500D02*
D03*
X656500D02*
D03*
X666500D02*
D03*
X679000Y398000D02*
D03*
X547000Y450500D02*
D03*
X600500D02*
D03*
X590500D02*
D03*
X580500D02*
D03*
X525000Y311500D02*
D03*
Y321500D02*
D03*
Y331500D02*
D03*
X519500Y450461D02*
D03*
X509500D02*
D03*
D74*
X675000Y457768D02*
D03*
Y431783D02*
D03*
D75*
X544500Y483500D02*
D03*
Y473658D02*
D03*
X631000Y455500D02*
D03*
Y445657D02*
D03*
D76*
X679000Y408000D02*
D03*
X525000Y341500D02*
D03*
D77*
X601500Y346500D02*
D03*
X591500Y340500D02*
D03*
X580000D02*
D03*
X545864Y426421D02*
D03*
X603339Y319000D02*
D03*
X611779Y335500D02*
D03*
X583000Y386000D02*
D03*
X590500Y385500D02*
D03*
X598500Y391000D02*
D03*
X573000Y386500D02*
D03*
X558000Y401500D02*
D03*
X574000Y402000D02*
D03*
X581000Y393500D02*
D03*
X561500Y322953D02*
D03*
X579934Y321000D02*
D03*
X569654Y324500D02*
D03*
X635500Y345661D02*
D03*
X674000Y366500D02*
D03*
X624500Y367500D02*
D03*
X622925Y377835D02*
D03*
X557500Y312000D02*
D03*
X674000Y344000D02*
D03*
X509500Y375500D02*
D03*
X546000Y389000D02*
D03*
X507000Y461000D02*
D03*
X558000Y414000D02*
D03*
X618236Y390500D02*
D03*
X647000Y442000D02*
D03*
X666000Y419000D02*
D03*
X557500Y331000D02*
D03*
X559000Y422165D02*
D03*
X549500Y374000D02*
D03*
X555000Y352500D02*
D03*
X546000Y330500D02*
D03*
X580000Y409500D02*
D03*
X574079Y414421D02*
D03*
X566000Y378500D02*
D03*
X638500Y436500D02*
D03*
Y451500D02*
D03*
X624500Y466500D02*
D03*
X609665Y422465D02*
D03*
X657500Y461000D02*
D03*
Y437500D02*
D03*
X561500Y361000D02*
D03*
X590000Y359661D02*
D03*
M02*
