G04*
G04 #@! TF.GenerationSoftware,Altium Limited,Altium Designer,18.1.5 (160)*
G04*
G04 Layer_Physical_Order=2*
G04 Layer_Color=16711680*
%FSLAX25Y25*%
%MOIN*%
G70*
G01*
G75*
%ADD13C,0.01000*%
%ADD67C,0.01968*%
%ADD68C,0.01575*%
%ADD71C,0.00984*%
%ADD72R,0.05906X0.05906*%
%ADD73C,0.05906*%
%ADD74O,0.06299X0.03543*%
%ADD75C,0.04724*%
%ADD76R,0.05906X0.05906*%
%ADD78C,0.02362*%
%ADD79C,0.07480*%
%ADD80C,0.06693*%
G36*
X506500Y500500D02*
X685000D01*
Y303000D01*
X501000D01*
Y499864D01*
X501700Y500556D01*
X506500Y500500D01*
D02*
G37*
%LPC*%
G36*
X517500Y494464D02*
X516215Y494295D01*
X515018Y493799D01*
X513990Y493010D01*
X513201Y491982D01*
X513033Y491575D01*
X511967D01*
X511799Y491982D01*
X511010Y493010D01*
X509982Y493799D01*
X508785Y494295D01*
X507500Y494464D01*
X506215Y494295D01*
X505018Y493799D01*
X503990Y493010D01*
X503201Y491982D01*
X502705Y490785D01*
X502536Y489500D01*
X502705Y488215D01*
X503201Y487018D01*
X503990Y485990D01*
X505018Y485201D01*
X506215Y484705D01*
X507500Y484536D01*
X508164Y484624D01*
X531894Y460894D01*
X532511Y460421D01*
X533229Y460123D01*
X534000Y460022D01*
X534000Y460022D01*
X543266D01*
X547931Y455357D01*
X547500Y454483D01*
Y450500D01*
Y446579D01*
X548032Y446649D01*
X548993Y447047D01*
X549819Y447681D01*
X550453Y448507D01*
X550851Y449468D01*
X550921Y450004D01*
X551891Y450530D01*
X551937Y450531D01*
X552079Y450443D01*
Y445579D01*
X561921D01*
Y455421D01*
X556291D01*
X546606Y465106D01*
X545989Y465579D01*
X545271Y465877D01*
X544500Y465978D01*
X535234D01*
X517649Y483563D01*
X518002Y484602D01*
X518785Y484705D01*
X519982Y485201D01*
X521010Y485990D01*
X521594Y486752D01*
X522579Y486418D01*
Y484579D01*
X532421D01*
Y494421D01*
X522579D01*
Y492582D01*
X521594Y492248D01*
X521010Y493010D01*
X519982Y493799D01*
X518785Y494295D01*
X517500Y494464D01*
D02*
G37*
G36*
X544500Y487868D02*
X543369Y487719D01*
X542316Y487283D01*
X541411Y486589D01*
X540717Y485684D01*
X540281Y484630D01*
X540132Y483500D01*
X540281Y482370D01*
X540717Y481316D01*
X541411Y480411D01*
X542316Y479717D01*
X543369Y479281D01*
X544500Y479132D01*
X545631Y479281D01*
X546684Y479717D01*
X547589Y480411D01*
X548283Y481316D01*
X548719Y482370D01*
X548868Y483500D01*
X548719Y484630D01*
X548283Y485684D01*
X547589Y486589D01*
X546684Y487283D01*
X545631Y487719D01*
X544500Y487868D01*
D02*
G37*
G36*
X545000Y476983D02*
Y474157D01*
X547825D01*
X547776Y474535D01*
X547437Y475353D01*
X546898Y476055D01*
X546196Y476594D01*
X545378Y476933D01*
X545000Y476983D01*
D02*
G37*
G36*
X544000D02*
X543622Y476933D01*
X542804Y476594D01*
X542102Y476055D01*
X541563Y475353D01*
X541224Y474535D01*
X541175Y474157D01*
X544000D01*
Y476983D01*
D02*
G37*
G36*
X547825Y473158D02*
X545000D01*
Y470332D01*
X545378Y470382D01*
X546196Y470721D01*
X546898Y471259D01*
X547437Y471962D01*
X547776Y472780D01*
X547825Y473158D01*
D02*
G37*
G36*
X544000D02*
X541175D01*
X541224Y472780D01*
X541563Y471962D01*
X542102Y471259D01*
X542804Y470721D01*
X543622Y470382D01*
X544000Y470332D01*
Y473158D01*
D02*
G37*
G36*
X507500Y465715D02*
Y461500D01*
X511715D01*
X511618Y462237D01*
X511140Y463390D01*
X510381Y464381D01*
X509390Y465140D01*
X508237Y465618D01*
X507500Y465715D01*
D02*
G37*
G36*
X506500D02*
X505763Y465618D01*
X504609Y465140D01*
X503619Y464381D01*
X502859Y463390D01*
X502382Y462237D01*
X502285Y461500D01*
X506500D01*
Y465715D01*
D02*
G37*
G36*
X676378Y460563D02*
X675500D01*
Y458268D01*
X679108D01*
X679078Y458491D01*
X678799Y459165D01*
X678355Y459745D01*
X677776Y460189D01*
X677102Y460468D01*
X676378Y460563D01*
D02*
G37*
G36*
X674500D02*
X673622D01*
X672898Y460468D01*
X672224Y460189D01*
X671645Y459745D01*
X671201Y459165D01*
X670922Y458491D01*
X670892Y458268D01*
X674500D01*
Y460563D01*
D02*
G37*
G36*
X511715Y460500D02*
X507500D01*
Y456285D01*
X508237Y456382D01*
X509390Y456859D01*
X510381Y457619D01*
X511140Y458609D01*
X511618Y459763D01*
X511715Y460500D01*
D02*
G37*
G36*
X506500D02*
X502285D01*
X502382Y459763D01*
X502859Y458609D01*
X503619Y457619D01*
X504609Y456859D01*
X505763Y456382D01*
X506500Y456285D01*
Y460500D01*
D02*
G37*
G36*
X679108Y457268D02*
X675500D01*
Y454972D01*
X676378D01*
X677102Y455067D01*
X677776Y455347D01*
X678355Y455791D01*
X678799Y456370D01*
X679078Y457044D01*
X679108Y457268D01*
D02*
G37*
G36*
X674500D02*
X670892D01*
X670922Y457044D01*
X671201Y456370D01*
X671645Y455791D01*
X672224Y455347D01*
X672898Y455067D01*
X673622Y454972D01*
X674500D01*
Y457268D01*
D02*
G37*
G36*
X600500Y455464D02*
X599215Y455295D01*
X598018Y454799D01*
X596990Y454010D01*
X596201Y452982D01*
X596033Y452575D01*
X594967D01*
X594799Y452982D01*
X594010Y454010D01*
X592982Y454799D01*
X591785Y455295D01*
X590500Y455464D01*
X589215Y455295D01*
X588018Y454799D01*
X586990Y454010D01*
X586201Y452982D01*
X586033Y452575D01*
X584967D01*
X584799Y452982D01*
X584010Y454010D01*
X582982Y454799D01*
X581785Y455295D01*
X580500Y455464D01*
X579215Y455295D01*
X578018Y454799D01*
X576990Y454010D01*
X576405Y453248D01*
X575421Y453582D01*
Y455421D01*
X565579D01*
Y445579D01*
X575421D01*
Y447418D01*
X576405Y447752D01*
X576990Y446990D01*
X578018Y446201D01*
X579215Y445705D01*
X580500Y445536D01*
X581785Y445705D01*
X582982Y446201D01*
X584010Y446990D01*
X584799Y448018D01*
X584967Y448425D01*
X586033D01*
X586201Y448018D01*
X586990Y446990D01*
X588018Y446201D01*
X589215Y445705D01*
X590500Y445536D01*
X591785Y445705D01*
X592982Y446201D01*
X594010Y446990D01*
X594799Y448018D01*
X594967Y448425D01*
X596033D01*
X596201Y448018D01*
X596990Y446990D01*
X598018Y446201D01*
X599215Y445705D01*
X600500Y445536D01*
X601785Y445705D01*
X602982Y446201D01*
X604010Y446990D01*
X604799Y448018D01*
X605295Y449215D01*
X605464Y450500D01*
X605295Y451785D01*
X604799Y452982D01*
X604010Y454010D01*
X602982Y454799D01*
X601785Y455295D01*
X600500Y455464D01*
D02*
G37*
G36*
X546500Y454421D02*
X545968Y454351D01*
X545007Y453953D01*
X544181Y453319D01*
X543547Y452493D01*
X543149Y451532D01*
X543079Y451000D01*
X546500D01*
Y454421D01*
D02*
G37*
G36*
X510000Y454382D02*
Y450961D01*
X513421D01*
X513351Y451493D01*
X512953Y452454D01*
X512319Y453280D01*
X511493Y453913D01*
X510532Y454312D01*
X510000Y454382D01*
D02*
G37*
G36*
X509000D02*
X508468Y454312D01*
X507507Y453913D01*
X506681Y453280D01*
X506047Y452454D01*
X505649Y451493D01*
X505579Y450961D01*
X509000D01*
Y454382D01*
D02*
G37*
G36*
X546500Y450000D02*
X543079D01*
X543149Y449468D01*
X543547Y448507D01*
X544181Y447681D01*
X545007Y447047D01*
X545968Y446649D01*
X546500Y446579D01*
Y450000D01*
D02*
G37*
G36*
X513421Y449961D02*
X510000D01*
Y446540D01*
X510532Y446610D01*
X511493Y447008D01*
X512319Y447642D01*
X512953Y448467D01*
X513351Y449429D01*
X513421Y449961D01*
D02*
G37*
G36*
X509000D02*
X505579D01*
X505649Y449429D01*
X506047Y448467D01*
X506681Y447642D01*
X507507Y447008D01*
X508468Y446610D01*
X509000Y446540D01*
Y449961D01*
D02*
G37*
G36*
X630500Y448983D02*
X630122Y448933D01*
X629304Y448594D01*
X628602Y448055D01*
X628063Y447353D01*
X627724Y446535D01*
X627675Y446158D01*
X630500D01*
Y448983D01*
D02*
G37*
G36*
X519500Y455424D02*
X518215Y455255D01*
X517018Y454759D01*
X515990Y453970D01*
X515201Y452943D01*
X514705Y451745D01*
X514536Y450461D01*
X514705Y449176D01*
X515201Y447979D01*
X515990Y446951D01*
X517018Y446162D01*
X518215Y445666D01*
X519500Y445497D01*
X520785Y445666D01*
X521982Y446162D01*
X523010Y446951D01*
X523595Y447713D01*
X524579Y447378D01*
Y445539D01*
X534421D01*
Y455382D01*
X524579D01*
Y453543D01*
X523595Y453209D01*
X523010Y453970D01*
X521982Y454759D01*
X520785Y455255D01*
X519500Y455424D01*
D02*
G37*
G36*
X647500Y446715D02*
Y442500D01*
X651715D01*
X651618Y443237D01*
X651140Y444390D01*
X650381Y445381D01*
X649391Y446140D01*
X648237Y446618D01*
X647500Y446715D01*
D02*
G37*
G36*
X630500Y445157D02*
X627675D01*
X627724Y444780D01*
X628063Y443962D01*
X628602Y443259D01*
X629304Y442721D01*
X630122Y442382D01*
X630500Y442332D01*
Y445157D01*
D02*
G37*
G36*
X624500Y472258D02*
X623010Y472062D01*
X621621Y471487D01*
X620429Y470572D01*
X619514Y469379D01*
X618938Y467990D01*
X618742Y466500D01*
X618889Y465382D01*
X607419Y453912D01*
X606914Y453254D01*
X606597Y452488D01*
X606489Y451665D01*
Y427222D01*
X605594Y426536D01*
X604679Y425344D01*
X604104Y423955D01*
X603907Y422465D01*
X604104Y420974D01*
X604679Y419586D01*
X605594Y418393D01*
X606786Y417478D01*
X607552Y417161D01*
X607356Y416177D01*
X587011D01*
X585340Y417849D01*
X584682Y418354D01*
X583916Y418671D01*
X583093Y418779D01*
X577472D01*
X577180Y418741D01*
X576759Y419064D01*
X575466Y419599D01*
X574079Y419782D01*
X572691Y419599D01*
X571398Y419064D01*
X570288Y418212D01*
X569659Y417391D01*
X568508Y417150D01*
X564611Y421047D01*
X564758Y422165D01*
X564562Y423656D01*
X563986Y425044D01*
X563071Y426237D01*
X561879Y427152D01*
X560490Y427727D01*
X559000Y427923D01*
X557510Y427727D01*
X556121Y427152D01*
X554928Y426237D01*
X554013Y425044D01*
X553809Y424551D01*
X552641Y424303D01*
X550131Y426693D01*
X550125Y426737D01*
X549647Y427890D01*
X548887Y428881D01*
X547897Y429640D01*
X546744Y430118D01*
X546499Y430150D01*
X533000Y443000D01*
Y443259D01*
X515740D01*
X515500Y443500D01*
X508586Y436586D01*
Y383906D01*
X511713Y380780D01*
X511155Y379945D01*
X510737Y380118D01*
X510000Y380215D01*
Y376000D01*
X514215D01*
X514118Y376737D01*
X513945Y377155D01*
X514780Y377713D01*
X516336Y376156D01*
Y376000D01*
X533795D01*
X543712Y384817D01*
X544763Y384382D01*
X546000Y384219D01*
X547237Y384382D01*
X548390Y384859D01*
X549381Y385619D01*
X550140Y386610D01*
X550618Y387763D01*
X550781Y389000D01*
X550618Y390237D01*
X550400Y390764D01*
X557214Y396822D01*
X558000Y396719D01*
X559237Y396882D01*
X560391Y397359D01*
X561381Y398119D01*
X562141Y399110D01*
X562618Y400263D01*
X562781Y401500D01*
X562618Y402737D01*
X562141Y403891D01*
X561790Y404347D01*
X561530Y411460D01*
X561797Y411808D01*
X562235Y412865D01*
X562256Y413025D01*
X563295Y413378D01*
X564803Y411870D01*
X564908Y411071D01*
X565225Y410305D01*
X565730Y409647D01*
X569305Y406073D01*
X569963Y405568D01*
X569982Y405495D01*
X569357Y404680D01*
X568822Y403387D01*
X568639Y402000D01*
X568822Y400612D01*
X569240Y399602D01*
X566996Y397358D01*
X566831Y397290D01*
X566173Y396785D01*
X549092Y379704D01*
X548010Y379562D01*
X546621Y378987D01*
X545429Y378071D01*
X544514Y376879D01*
X543938Y375490D01*
X543742Y374000D01*
X543938Y372510D01*
X544514Y371121D01*
X545429Y369929D01*
X546621Y369014D01*
X548010Y368438D01*
X549500Y368242D01*
X550558Y368381D01*
X551018Y367449D01*
X542534Y358965D01*
X542093Y358390D01*
X541815Y357719D01*
X541720Y357000D01*
Y334300D01*
X541013Y333379D01*
X540438Y331990D01*
X540242Y330500D01*
X540438Y329010D01*
X541013Y327621D01*
X541928Y326429D01*
X543121Y325514D01*
X543220Y325472D01*
Y323500D01*
X543315Y322781D01*
X543593Y322110D01*
X544034Y321534D01*
X551979Y313590D01*
X551938Y313490D01*
X551742Y312000D01*
X551938Y310510D01*
X552514Y309121D01*
X553429Y307928D01*
X554621Y307014D01*
X556010Y306438D01*
X557500Y306242D01*
X558990Y306438D01*
X560379Y307014D01*
X561572Y307928D01*
X562487Y309121D01*
X563062Y310510D01*
X563258Y312000D01*
X563062Y313490D01*
X562487Y314879D01*
X561572Y316072D01*
X561377Y316220D01*
X561439Y316712D01*
X561691Y317220D01*
X562990Y317391D01*
X563090Y317432D01*
X565987Y314534D01*
X566563Y314093D01*
X567233Y313815D01*
X567953Y313720D01*
X570284D01*
X571003Y313815D01*
X571673Y314093D01*
X572249Y314534D01*
X574830Y317115D01*
X575272Y317691D01*
X576393Y317827D01*
X576553Y317619D01*
X577543Y316860D01*
X578696Y316382D01*
X579434Y316285D01*
Y321000D01*
X579934D01*
Y321500D01*
X584649D01*
X584552Y322237D01*
X584074Y323391D01*
X583541Y324085D01*
X583940Y325070D01*
X595425D01*
X596388Y325261D01*
X597205Y325807D01*
X603135Y331738D01*
X603970Y331180D01*
X603815Y330806D01*
X603720Y330087D01*
Y325844D01*
X602980Y325195D01*
X602500Y325258D01*
X601010Y325062D01*
X599621Y324486D01*
X598428Y323571D01*
X597513Y322379D01*
X596938Y320990D01*
X596742Y319500D01*
X596938Y318010D01*
X597513Y316621D01*
X598428Y315428D01*
X599621Y314513D01*
X601010Y313938D01*
X602500Y313742D01*
X603990Y313938D01*
X605379Y314513D01*
X606571Y315428D01*
X607486Y316621D01*
X608062Y318010D01*
X608258Y319500D01*
X608062Y320990D01*
X608021Y321090D01*
X608465Y321534D01*
X608907Y322110D01*
X609185Y322781D01*
X609280Y323500D01*
Y328662D01*
X610062Y329423D01*
X611035Y329385D01*
X611263Y329131D01*
X611397Y328113D01*
X611932Y326820D01*
X612784Y325709D01*
X613894Y324857D01*
X615187Y324322D01*
X616575Y324139D01*
X617962Y324322D01*
X619255Y324857D01*
X620365Y325709D01*
X621217Y326820D01*
X621753Y328113D01*
X621936Y329500D01*
X621753Y330888D01*
X621217Y332180D01*
X620365Y333291D01*
X619255Y334143D01*
X617962Y334678D01*
X617180Y334781D01*
X617274Y335500D01*
X617092Y336888D01*
X616796Y337600D01*
X617631Y338157D01*
X618532Y337256D01*
X619149Y336783D01*
X619867Y336486D01*
X620638Y336384D01*
X640516D01*
X641287Y336486D01*
X642005Y336783D01*
X642622Y337256D01*
X646387Y341022D01*
X669090D01*
X669929Y339929D01*
X671121Y339014D01*
X672510Y338438D01*
X674000Y338242D01*
X675490Y338438D01*
X676879Y339014D01*
X678071Y339929D01*
X678987Y341121D01*
X679562Y342510D01*
X679758Y344000D01*
X679562Y345490D01*
X678987Y346879D01*
X678071Y348072D01*
X676879Y348987D01*
X675490Y349562D01*
X674000Y349758D01*
X672510Y349562D01*
X671121Y348987D01*
X669929Y348072D01*
X669090Y346978D01*
X645154D01*
X645154Y346978D01*
X644383Y346877D01*
X643665Y346579D01*
X643048Y346106D01*
X643048Y346106D01*
X642197Y345255D01*
X641378Y345610D01*
X641253Y345703D01*
X641062Y347152D01*
X640486Y348540D01*
X639572Y349733D01*
X638379Y350648D01*
X636990Y351223D01*
X635500Y351419D01*
X634010Y351223D01*
X632621Y350648D01*
X631428Y349733D01*
X630590Y348640D01*
X609162D01*
X609161Y348640D01*
X608776Y348589D01*
X608391Y348538D01*
X607971Y348364D01*
X607075Y348577D01*
X606740Y348766D01*
X606487Y349379D01*
X605572Y350571D01*
X604379Y351486D01*
X602990Y352062D01*
X601500Y352258D01*
X600010Y352062D01*
X598621Y351486D01*
X597429Y350571D01*
X596514Y349379D01*
X595938Y347990D01*
X595742Y346500D01*
X595862Y345589D01*
X595097Y344935D01*
X594379Y345486D01*
X592990Y346062D01*
X591500Y346258D01*
X590010Y346062D01*
X588621Y345486D01*
X587429Y344571D01*
X586514Y343379D01*
X586283Y342822D01*
X585217D01*
X584986Y343379D01*
X584071Y344571D01*
X582879Y345486D01*
X581490Y346062D01*
X580000Y346258D01*
X578510Y346062D01*
X577121Y345486D01*
X575928Y344571D01*
X575242Y343677D01*
X568316D01*
X560611Y351382D01*
X560758Y352500D01*
X560562Y353990D01*
X560394Y354395D01*
X561086Y355297D01*
X561500Y355242D01*
X562990Y355438D01*
X564379Y356013D01*
X565571Y356928D01*
X566487Y358121D01*
X567062Y359510D01*
X567258Y361000D01*
X567062Y362490D01*
X566487Y363879D01*
X565571Y365072D01*
X564379Y365986D01*
X562990Y366562D01*
X561500Y366758D01*
X560010Y366562D01*
X558943Y366120D01*
X558385Y366954D01*
X564737Y373306D01*
X566000Y373139D01*
X567387Y373322D01*
X568680Y373857D01*
X569791Y374709D01*
X570643Y375820D01*
X571178Y377113D01*
X571361Y378500D01*
X571178Y379888D01*
X570904Y380550D01*
X571521Y381222D01*
X571652Y381317D01*
X573000Y381139D01*
X574388Y381322D01*
X574665Y381437D01*
X575483Y380890D01*
Y378287D01*
X575315Y377881D01*
X575220Y377161D01*
X575315Y376442D01*
X575593Y375772D01*
X576034Y375196D01*
X586288Y364942D01*
X586224Y363960D01*
X585928Y363733D01*
X585013Y362540D01*
X584438Y361152D01*
X584242Y359661D01*
X584438Y358171D01*
X585013Y356783D01*
X585928Y355590D01*
X587121Y354675D01*
X588510Y354100D01*
X590000Y353904D01*
X591490Y354100D01*
X592879Y354675D01*
X594071Y355590D01*
X594986Y356783D01*
X595562Y358171D01*
X595758Y359661D01*
X595562Y361152D01*
X594986Y362540D01*
X594071Y363733D01*
X592879Y364648D01*
X592780Y364689D01*
Y365161D01*
X592685Y365881D01*
X592407Y366551D01*
X591965Y367127D01*
X580517Y378576D01*
Y380390D01*
X581335Y380937D01*
X581612Y380822D01*
X583000Y380639D01*
X584387Y380822D01*
X585680Y381357D01*
X586498Y381985D01*
X586709Y381709D01*
X587522Y381086D01*
Y381000D01*
X587623Y380229D01*
X587921Y379511D01*
X588394Y378894D01*
X601894Y365394D01*
X601894Y365394D01*
X602511Y364921D01*
X603229Y364623D01*
X604000Y364522D01*
X619590D01*
X620429Y363428D01*
X621621Y362513D01*
X623010Y361938D01*
X624500Y361742D01*
X625990Y361938D01*
X627379Y362513D01*
X628572Y363428D01*
X629487Y364621D01*
X630062Y366010D01*
X630258Y367500D01*
X630062Y368990D01*
X629487Y370379D01*
X628572Y371571D01*
X627379Y372486D01*
X626960Y372660D01*
X626831Y373636D01*
X626997Y373763D01*
X627912Y374956D01*
X628487Y376344D01*
X628683Y377835D01*
X628487Y379325D01*
X627912Y380714D01*
X626997Y381906D01*
X625804Y382821D01*
X624415Y383396D01*
X622925Y383593D01*
X621435Y383396D01*
X620046Y382821D01*
X618854Y381906D01*
X618015Y380813D01*
X606351D01*
X600857Y386306D01*
X601066Y387490D01*
X601600Y387900D01*
X602297Y388808D01*
X602735Y389865D01*
X602818Y390500D01*
X598500D01*
Y391000D01*
X598000D01*
Y395318D01*
X597365Y395235D01*
X596308Y394797D01*
X595400Y394100D01*
X594703Y393192D01*
X594643Y393045D01*
X593523Y392915D01*
X592910Y393325D01*
X591947Y393517D01*
X589125D01*
X588719Y393685D01*
X588000Y393780D01*
X587328Y393691D01*
X587272Y393690D01*
X586252Y394324D01*
X586178Y394887D01*
X585643Y396180D01*
X584791Y397291D01*
X583680Y398143D01*
X582387Y398678D01*
X582019Y398727D01*
X581709Y399160D01*
Y403472D01*
X581529Y404380D01*
X582598Y404823D01*
X642500D01*
X643322Y404931D01*
X644088Y405249D01*
X644746Y405754D01*
X654584Y415591D01*
X655000Y415536D01*
X656285Y415705D01*
X657482Y416201D01*
X658510Y416990D01*
X659299Y418018D01*
X659795Y419215D01*
X659964Y420500D01*
X659795Y421785D01*
X659299Y422982D01*
X658510Y424010D01*
X657482Y424799D01*
X656285Y425295D01*
X655000Y425464D01*
X653715Y425295D01*
X652518Y424799D01*
X651490Y424010D01*
X650701Y422982D01*
X650205Y421785D01*
X650089Y420896D01*
X649941Y420795D01*
X648888Y421263D01*
X648886Y421269D01*
X648851Y421532D01*
X648453Y422493D01*
X647819Y423319D01*
X646993Y423953D01*
X646032Y424351D01*
X645500Y424421D01*
Y420500D01*
X645000D01*
Y420000D01*
X641079D01*
X641149Y419468D01*
X641547Y418507D01*
X642181Y417681D01*
X643007Y417047D01*
X643968Y416649D01*
X645000Y416513D01*
X645148Y416533D01*
X645608Y415600D01*
X641184Y411177D01*
X631651D01*
X631275Y412086D01*
X634757Y415568D01*
X635000Y415536D01*
X636285Y415705D01*
X637482Y416201D01*
X638510Y416990D01*
X639299Y418018D01*
X639795Y419215D01*
X639964Y420500D01*
X639795Y421785D01*
X639299Y422982D01*
X638510Y424010D01*
X637482Y424799D01*
X636285Y425295D01*
X635501Y425398D01*
X635149Y426437D01*
X639599Y430887D01*
X639990Y430938D01*
X641379Y431514D01*
X642571Y432429D01*
X643486Y433621D01*
X644062Y435010D01*
X644258Y436500D01*
X644194Y436989D01*
X645098Y437657D01*
X645763Y437382D01*
X646500Y437285D01*
Y442000D01*
Y446715D01*
X645763Y446618D01*
X644609Y446140D01*
X643619Y445381D01*
X642860Y444390D01*
X642462Y443432D01*
X641478Y443628D01*
Y446590D01*
X642571Y447429D01*
X643486Y448621D01*
X644062Y450010D01*
X644258Y451500D01*
X644062Y452990D01*
X643486Y454379D01*
X642571Y455572D01*
X641379Y456487D01*
X640528Y456839D01*
X640724Y457823D01*
X652742D01*
X653429Y456928D01*
X654323Y456242D01*
Y442258D01*
X653429Y441572D01*
X652514Y440379D01*
X651618Y440763D01*
X651715Y441500D01*
X647500D01*
Y437285D01*
X648237Y437382D01*
X649391Y437859D01*
X650381Y438619D01*
X651140Y439609D01*
X652031Y439214D01*
X651938Y438990D01*
X651742Y437500D01*
X651938Y436010D01*
X652514Y434621D01*
X653429Y433428D01*
X654621Y432514D01*
X656010Y431938D01*
X657500Y431742D01*
X658990Y431938D01*
X660379Y432514D01*
X661572Y433428D01*
X662487Y434621D01*
X663062Y436010D01*
X663258Y437500D01*
X663062Y438990D01*
X662487Y440379D01*
X661572Y441572D01*
X660677Y442258D01*
Y456242D01*
X661572Y456928D01*
X662487Y458121D01*
X663062Y459510D01*
X663258Y461000D01*
X663062Y462490D01*
X662487Y463879D01*
X661572Y465071D01*
X660379Y465986D01*
X658990Y466562D01*
X657500Y466758D01*
X656010Y466562D01*
X654621Y465986D01*
X653429Y465071D01*
X652742Y464177D01*
X636500D01*
X635678Y464069D01*
X634912Y463751D01*
X634254Y463246D01*
X630857Y459849D01*
X629870Y459719D01*
X628816Y459283D01*
X627911Y458589D01*
X627217Y457684D01*
X626781Y456631D01*
X626632Y455500D01*
X626781Y454369D01*
X627217Y453316D01*
X627911Y452411D01*
X628816Y451717D01*
X629870Y451281D01*
X631000Y451132D01*
X631869Y451246D01*
X632130Y451281D01*
X632871Y450522D01*
X632938Y450010D01*
X633189Y449403D01*
X633141Y449324D01*
X632410Y448713D01*
X631878Y448933D01*
X631500Y448983D01*
Y445657D01*
Y442332D01*
X631878Y442382D01*
X632696Y442721D01*
X633398Y443259D01*
X633937Y443962D01*
X634276Y444780D01*
X634363Y445446D01*
X634899Y445880D01*
X635330Y446068D01*
X635475Y445997D01*
X635522Y445932D01*
Y441410D01*
X634429Y440571D01*
X633513Y439379D01*
X632938Y437990D01*
X632742Y436500D01*
X632938Y435010D01*
X633513Y433621D01*
X633685Y433397D01*
X625709Y425421D01*
X620079D01*
Y416177D01*
X611975D01*
X611779Y417161D01*
X612544Y417478D01*
X613737Y418393D01*
X614652Y419586D01*
X615227Y420974D01*
X615423Y422465D01*
X615227Y423955D01*
X614652Y425344D01*
X613737Y426536D01*
X612842Y427222D01*
Y450350D01*
X623382Y460889D01*
X624500Y460742D01*
X625990Y460938D01*
X627379Y461514D01*
X628572Y462429D01*
X629487Y463621D01*
X630062Y465010D01*
X630258Y466500D01*
X630062Y467990D01*
X629487Y469379D01*
X628572Y470572D01*
X627379Y471487D01*
X625990Y472062D01*
X624500Y472258D01*
D02*
G37*
G36*
X676378Y434579D02*
X675500D01*
Y432283D01*
X679108D01*
X679078Y432507D01*
X678799Y433181D01*
X678355Y433760D01*
X677776Y434204D01*
X677102Y434484D01*
X676378Y434579D01*
D02*
G37*
G36*
X674500D02*
X673622D01*
X672898Y434484D01*
X672224Y434204D01*
X671645Y433760D01*
X671201Y433181D01*
X670922Y432507D01*
X670892Y432283D01*
X674500D01*
Y434579D01*
D02*
G37*
G36*
X679108Y431283D02*
X675500D01*
Y428988D01*
X676378D01*
X677102Y429083D01*
X677776Y429362D01*
X678355Y429807D01*
X678799Y430386D01*
X679078Y431060D01*
X679108Y431283D01*
D02*
G37*
G36*
X674500D02*
X670892D01*
X670922Y431060D01*
X671201Y430386D01*
X671645Y429807D01*
X672224Y429362D01*
X672898Y429083D01*
X673622Y428988D01*
X674500D01*
Y431283D01*
D02*
G37*
G36*
X644500Y424421D02*
X643968Y424351D01*
X643007Y423953D01*
X642181Y423319D01*
X641547Y422493D01*
X641149Y421532D01*
X641079Y421000D01*
X644500D01*
Y424421D01*
D02*
G37*
G36*
X666500Y423715D02*
Y419500D01*
X670715D01*
X670618Y420237D01*
X670141Y421390D01*
X669381Y422381D01*
X668391Y423140D01*
X667237Y423618D01*
X666500Y423715D01*
D02*
G37*
G36*
X665500D02*
X664763Y423618D01*
X663610Y423140D01*
X662619Y422381D01*
X661860Y421390D01*
X661382Y420237D01*
X661285Y419500D01*
X665500D01*
Y423715D01*
D02*
G37*
G36*
X670715Y418500D02*
X666500D01*
Y414285D01*
X667237Y414382D01*
X668391Y414859D01*
X669381Y415619D01*
X670141Y416609D01*
X670618Y417763D01*
X670715Y418500D01*
D02*
G37*
G36*
X665500D02*
X661285D01*
X661382Y417763D01*
X661860Y416609D01*
X662619Y415619D01*
X663610Y414859D01*
X664763Y414382D01*
X665500Y414285D01*
Y418500D01*
D02*
G37*
G36*
X683921Y412921D02*
X674079D01*
Y403079D01*
X675918D01*
X676252Y402095D01*
X675490Y401510D01*
X674701Y400482D01*
X674205Y399285D01*
X674036Y398000D01*
X674205Y396715D01*
X674701Y395518D01*
X675490Y394490D01*
X676518Y393701D01*
X677715Y393205D01*
X679000Y393036D01*
X680285Y393205D01*
X681482Y393701D01*
X682510Y394490D01*
X683299Y395518D01*
X683795Y396715D01*
X683964Y398000D01*
X683795Y399285D01*
X683299Y400482D01*
X682510Y401510D01*
X681748Y402095D01*
X682082Y403079D01*
X683921D01*
Y412921D01*
D02*
G37*
G36*
X599000Y395318D02*
Y391500D01*
X602818D01*
X602735Y392135D01*
X602297Y393192D01*
X601600Y394100D01*
X600692Y394797D01*
X599635Y395235D01*
X599000Y395318D01*
D02*
G37*
G36*
X618736Y395215D02*
Y391000D01*
X622951D01*
X622854Y391737D01*
X622377Y392891D01*
X621617Y393881D01*
X620627Y394640D01*
X619474Y395118D01*
X618736Y395215D01*
D02*
G37*
G36*
X617736D02*
X616999Y395118D01*
X615846Y394640D01*
X614855Y393881D01*
X614096Y392891D01*
X613618Y391737D01*
X613521Y391000D01*
X617736D01*
Y395215D01*
D02*
G37*
G36*
X622951Y390000D02*
X618736D01*
Y385785D01*
X619474Y385882D01*
X620627Y386360D01*
X621617Y387119D01*
X622377Y388109D01*
X622854Y389263D01*
X622951Y390000D01*
D02*
G37*
G36*
X617736D02*
X613521D01*
X613618Y389263D01*
X614096Y388109D01*
X614855Y387119D01*
X615846Y386360D01*
X616999Y385882D01*
X617736Y385785D01*
Y390000D01*
D02*
G37*
G36*
X509000Y380215D02*
X508263Y380118D01*
X507109Y379641D01*
X506119Y378881D01*
X505360Y377890D01*
X504882Y376737D01*
X504785Y376000D01*
X509000D01*
Y380215D01*
D02*
G37*
G36*
X514215Y375000D02*
X510000D01*
Y370785D01*
X510737Y370882D01*
X511891Y371359D01*
X512881Y372119D01*
X513640Y373110D01*
X514118Y374263D01*
X514215Y375000D01*
D02*
G37*
G36*
X509000D02*
X504785D01*
X504882Y374263D01*
X505360Y373110D01*
X506119Y372119D01*
X507109Y371359D01*
X508263Y370882D01*
X509000Y370785D01*
Y375000D01*
D02*
G37*
G36*
X674500Y371215D02*
Y367000D01*
X678715D01*
X678618Y367737D01*
X678140Y368891D01*
X677381Y369881D01*
X676391Y370640D01*
X675237Y371118D01*
X674500Y371215D01*
D02*
G37*
G36*
X673500D02*
X672763Y371118D01*
X671609Y370640D01*
X670619Y369881D01*
X669860Y368891D01*
X669382Y367737D01*
X669285Y367000D01*
X673500D01*
Y371215D01*
D02*
G37*
G36*
X678715Y366000D02*
X674500D01*
Y361785D01*
X675237Y361882D01*
X676391Y362359D01*
X677381Y363119D01*
X678140Y364109D01*
X678618Y365263D01*
X678715Y366000D01*
D02*
G37*
G36*
X673500D02*
X669285D01*
X669382Y365263D01*
X669860Y364109D01*
X670619Y363119D01*
X671609Y362359D01*
X672763Y361882D01*
X673500Y361785D01*
Y366000D01*
D02*
G37*
G36*
X528953Y345453D02*
X525500D01*
Y342000D01*
X528953D01*
Y345453D01*
D02*
G37*
G36*
X524500D02*
X521047D01*
Y342000D01*
X524500D01*
Y345453D01*
D02*
G37*
G36*
X528953Y341000D02*
X525500D01*
Y337547D01*
X528953D01*
Y341000D01*
D02*
G37*
G36*
X524500D02*
X521047D01*
Y337547D01*
X524500D01*
Y341000D01*
D02*
G37*
G36*
X666500Y327917D02*
X665215Y327747D01*
X664018Y327252D01*
X662990Y326463D01*
X662201Y325435D01*
X662033Y325028D01*
X660967D01*
X660799Y325435D01*
X660010Y326463D01*
X658982Y327252D01*
X657785Y327747D01*
X656500Y327917D01*
X655215Y327747D01*
X654018Y327252D01*
X652990Y326463D01*
X652201Y325435D01*
X652033Y325028D01*
X650967D01*
X650799Y325435D01*
X650010Y326463D01*
X648982Y327252D01*
X647785Y327747D01*
X646500Y327917D01*
X645215Y327747D01*
X644018Y327252D01*
X642990Y326463D01*
X642201Y325435D01*
X642033Y325028D01*
X640967D01*
X640799Y325435D01*
X640010Y326463D01*
X638982Y327252D01*
X637785Y327747D01*
X636500Y327917D01*
X635215Y327747D01*
X634018Y327252D01*
X632990Y326463D01*
X632201Y325435D01*
X631705Y324237D01*
X631536Y322953D01*
X631705Y321668D01*
X632201Y320471D01*
X632990Y319443D01*
X634018Y318654D01*
X635215Y318158D01*
X636500Y317989D01*
X637785Y318158D01*
X638982Y318654D01*
X640010Y319443D01*
X640799Y320471D01*
X640967Y320878D01*
X642033D01*
X642201Y320471D01*
X642990Y319443D01*
X644018Y318654D01*
X645215Y318158D01*
X646500Y317989D01*
X647785Y318158D01*
X648982Y318654D01*
X650010Y319443D01*
X650799Y320471D01*
X650967Y320878D01*
X652033D01*
X652201Y320471D01*
X652990Y319443D01*
X654018Y318654D01*
X655215Y318158D01*
X656500Y317989D01*
X657785Y318158D01*
X658982Y318654D01*
X660010Y319443D01*
X660799Y320471D01*
X660967Y320878D01*
X662033D01*
X662201Y320471D01*
X662990Y319443D01*
X664018Y318654D01*
X665215Y318158D01*
X666500Y317989D01*
X667785Y318158D01*
X668982Y318654D01*
X670010Y319443D01*
X670799Y320471D01*
X671295Y321668D01*
X671464Y322953D01*
X671295Y324237D01*
X670799Y325435D01*
X670010Y326463D01*
X668982Y327252D01*
X667785Y327747D01*
X666500Y327917D01*
D02*
G37*
G36*
X680453Y326905D02*
X677000D01*
Y323453D01*
X680453D01*
Y326905D01*
D02*
G37*
G36*
X627000Y326874D02*
Y323453D01*
X630421D01*
X630351Y323985D01*
X629953Y324946D01*
X629319Y325772D01*
X628493Y326406D01*
X627532Y326804D01*
X627000Y326874D01*
D02*
G37*
G36*
X626000D02*
X625468Y326804D01*
X624507Y326406D01*
X623681Y325772D01*
X623047Y324946D01*
X622649Y323985D01*
X622579Y323453D01*
X626000D01*
Y326874D01*
D02*
G37*
G36*
X676000Y326905D02*
X672547D01*
Y323453D01*
X676000D01*
Y326905D01*
D02*
G37*
G36*
X630421Y322453D02*
X627000D01*
Y319032D01*
X627532Y319102D01*
X628493Y319500D01*
X629319Y320134D01*
X629953Y320959D01*
X630351Y321921D01*
X630421Y322453D01*
D02*
G37*
G36*
X626000D02*
X622579D01*
X622649Y321921D01*
X623047Y320959D01*
X623681Y320134D01*
X624507Y319500D01*
X625468Y319102D01*
X626000Y319032D01*
Y322453D01*
D02*
G37*
G36*
X680453D02*
X677000D01*
Y319000D01*
X680453D01*
Y322453D01*
D02*
G37*
G36*
X676000D02*
X672547D01*
Y319000D01*
X676000D01*
Y322453D01*
D02*
G37*
G36*
X525000Y336464D02*
X523715Y336295D01*
X522518Y335799D01*
X521490Y335010D01*
X520701Y333982D01*
X520205Y332785D01*
X520036Y331500D01*
X520205Y330215D01*
X520701Y329018D01*
X521490Y327990D01*
X522518Y327201D01*
X522925Y327033D01*
Y325967D01*
X522518Y325799D01*
X521490Y325010D01*
X520701Y323982D01*
X520205Y322785D01*
X520036Y321500D01*
X520205Y320215D01*
X520701Y319018D01*
X521490Y317990D01*
X522518Y317201D01*
X523715Y316705D01*
X525000Y316536D01*
X526285Y316705D01*
X527482Y317201D01*
X528510Y317990D01*
X529299Y319018D01*
X529795Y320215D01*
X529964Y321500D01*
X529795Y322785D01*
X529299Y323982D01*
X528510Y325010D01*
X527482Y325799D01*
X527075Y325967D01*
Y327033D01*
X527482Y327201D01*
X528510Y327990D01*
X529299Y329018D01*
X529795Y330215D01*
X529964Y331500D01*
X529795Y332785D01*
X529299Y333982D01*
X528510Y335010D01*
X527482Y335799D01*
X526285Y336295D01*
X525000Y336464D01*
D02*
G37*
G36*
X584649Y320500D02*
X580434D01*
Y316285D01*
X581171Y316382D01*
X582324Y316860D01*
X583315Y317619D01*
X584074Y318609D01*
X584552Y319763D01*
X584649Y320500D01*
D02*
G37*
G36*
X663575Y315464D02*
X662290Y315295D01*
X661093Y314799D01*
X660065Y314010D01*
X659276Y312982D01*
X659107Y312575D01*
X658042D01*
X657873Y312982D01*
X657085Y314010D01*
X656057Y314799D01*
X654859Y315295D01*
X653575Y315464D01*
X652290Y315295D01*
X651093Y314799D01*
X650065Y314010D01*
X649276Y312982D01*
X648780Y311785D01*
X648611Y310500D01*
X648780Y309215D01*
X649276Y308018D01*
X650065Y306990D01*
X651093Y306201D01*
X652290Y305705D01*
X653575Y305536D01*
X654859Y305705D01*
X656057Y306201D01*
X657085Y306990D01*
X657873Y308018D01*
X658042Y308425D01*
X659107D01*
X659276Y308018D01*
X660065Y306990D01*
X661093Y306201D01*
X662290Y305705D01*
X663575Y305536D01*
X664859Y305705D01*
X666057Y306201D01*
X667085Y306990D01*
X667873Y308018D01*
X668369Y309215D01*
X668539Y310500D01*
X668369Y311785D01*
X667873Y312982D01*
X667085Y314010D01*
X666057Y314799D01*
X664859Y315295D01*
X663575Y315464D01*
D02*
G37*
G36*
X525500Y315421D02*
Y312000D01*
X528921D01*
X528851Y312532D01*
X528453Y313493D01*
X527819Y314319D01*
X526993Y314953D01*
X526032Y315351D01*
X525500Y315421D01*
D02*
G37*
G36*
X524500D02*
X523968Y315351D01*
X523007Y314953D01*
X522181Y314319D01*
X521547Y313493D01*
X521149Y312532D01*
X521079Y312000D01*
X524500D01*
Y315421D01*
D02*
G37*
G36*
X677528Y314453D02*
X674075D01*
Y311000D01*
X677528D01*
Y314453D01*
D02*
G37*
G36*
X644075Y314421D02*
Y311000D01*
X647496D01*
X647426Y311532D01*
X647027Y312493D01*
X646394Y313319D01*
X645568Y313953D01*
X644607Y314351D01*
X644075Y314421D01*
D02*
G37*
G36*
X643075D02*
X642543Y314351D01*
X641581Y313953D01*
X640756Y313319D01*
X640122Y312493D01*
X639724Y311532D01*
X639654Y311000D01*
X643075D01*
Y314421D01*
D02*
G37*
G36*
X673075Y314453D02*
X669622D01*
Y311000D01*
X673075D01*
Y314453D01*
D02*
G37*
G36*
X528921Y311000D02*
X525500D01*
Y307579D01*
X526032Y307649D01*
X526993Y308047D01*
X527819Y308681D01*
X528453Y309507D01*
X528851Y310468D01*
X528921Y311000D01*
D02*
G37*
G36*
X524500D02*
X521079D01*
X521149Y310468D01*
X521547Y309507D01*
X522181Y308681D01*
X523007Y308047D01*
X523968Y307649D01*
X524500Y307579D01*
Y311000D01*
D02*
G37*
G36*
X647496Y310000D02*
X644075D01*
Y306579D01*
X644607Y306649D01*
X645568Y307047D01*
X646394Y307681D01*
X647027Y308507D01*
X647426Y309468D01*
X647496Y310000D01*
D02*
G37*
G36*
X643075D02*
X639654D01*
X639724Y309468D01*
X640122Y308507D01*
X640756Y307681D01*
X641581Y307047D01*
X642543Y306649D01*
X643075Y306579D01*
Y310000D01*
D02*
G37*
G36*
X677528D02*
X674075D01*
Y306547D01*
X677528D01*
Y310000D01*
D02*
G37*
G36*
X673075D02*
X669622D01*
Y306547D01*
X673075D01*
Y310000D01*
D02*
G37*
%LPD*%
G36*
X542156Y429344D02*
Y429344D01*
D01*
X542126Y428881D01*
Y428881D01*
D01*
X541366Y427890D01*
X540888Y426737D01*
X540791Y426000D01*
X545500D01*
X545507Y425993D01*
Y425500D01*
X546000D01*
X546007Y425493D01*
Y420785D01*
X546744Y420882D01*
X547897Y421359D01*
X548887Y422119D01*
D01*
X548887D01*
X549350Y422150D01*
X554683Y416817D01*
X554203Y416192D01*
X553765Y415135D01*
X553616Y414000D01*
X553765Y412865D01*
X554203Y411808D01*
X554900Y410900D01*
X555808Y410203D01*
X556085Y410088D01*
Y405838D01*
X555610Y405641D01*
X554619Y404881D01*
X553860Y403891D01*
X553382Y402737D01*
X553219Y401500D01*
X553382Y400263D01*
X553707Y399478D01*
X546796Y393676D01*
X546000Y393781D01*
X544763Y393618D01*
X543610Y393141D01*
X542619Y392381D01*
X541859Y391390D01*
X541382Y390237D01*
X541219Y389000D01*
X541220Y388995D01*
X533355Y382392D01*
Y381500D01*
X517417D01*
X517167Y381250D01*
X516917Y381000D01*
X511151Y386765D01*
X511000D01*
Y432847D01*
X518136Y439983D01*
Y441000D01*
X530500D01*
X542156Y429344D01*
D02*
G37*
%LPC*%
G36*
X545007Y425000D02*
X540791D01*
X540888Y424263D01*
X541366Y423109D01*
X542126Y422119D01*
X543116Y421359D01*
X544269Y420882D01*
X545007Y420785D01*
Y425000D01*
D02*
G37*
%LPD*%
D13*
X558000Y413701D02*
X558150Y413850D01*
X609339Y341500D02*
X618500D01*
X595425Y327587D02*
X609339Y341500D01*
X591947Y391000D02*
X596581Y386366D01*
X588000Y391000D02*
X591947D01*
X578000Y377161D02*
Y392500D01*
X598500Y391000D02*
X599000Y390500D01*
X573016Y392984D02*
X579192Y399160D01*
X557000Y402500D02*
X558000Y401500D01*
X579192Y399160D02*
Y403472D01*
X596586Y386366D02*
X597857Y385094D01*
X596581Y386366D02*
X596586D01*
X574906Y321906D02*
Y323906D01*
X572472Y319472D02*
X574906Y321906D01*
X578587Y327587D02*
X595425D01*
X574906Y323906D02*
X578587Y327587D01*
X596500Y333000D02*
X608500Y345000D01*
X635500D02*
Y345661D01*
X557500Y312000D02*
Y313000D01*
X558000Y414000D02*
Y414500D01*
Y414000D02*
X558150Y413850D01*
X599000Y390500D02*
X618236D01*
X557500Y328000D02*
Y331000D01*
X559000Y422165D02*
X559670D01*
X553500Y352500D02*
X555000D01*
X546000Y330500D02*
Y331500D01*
X563763Y378500D02*
X566000D01*
X574165Y408500D02*
X579192Y403472D01*
X573335Y408500D02*
X574165D01*
X653500Y420500D02*
X655000D01*
D67*
X620638Y339362D02*
X640516D01*
X618500Y341500D02*
X620638Y339362D01*
X590500Y381000D02*
Y385500D01*
X597857Y385094D02*
X605117Y377835D01*
X622925D01*
X590500Y381000D02*
X604000Y367500D01*
X624500D01*
X640516Y339362D02*
X645154Y344000D01*
X674000D01*
X608500Y345000D02*
X609161Y345661D01*
X635500D01*
X638500Y436500D02*
Y451500D01*
Y434000D02*
Y436500D01*
X625000Y420500D02*
X638500Y434000D01*
X544500Y463000D02*
X557000Y450500D01*
X534000Y463000D02*
X544500D01*
X507500Y489500D02*
X534000Y463000D01*
D68*
X673500Y312000D02*
X677575D01*
X673000D02*
X674500Y310500D01*
X672000Y312000D02*
X672500Y312500D01*
X603339Y319000D02*
Y320339D01*
X606500Y323500D01*
X580368Y310500D02*
X643575D01*
X606500Y330087D02*
X611779Y335366D01*
Y335500D01*
X550500Y376619D02*
Y376736D01*
Y375710D02*
Y376619D01*
X550855Y375355D02*
X551710Y374500D01*
X550045Y376164D02*
X550500Y375710D01*
X583000Y386000D02*
X588000Y391000D01*
X578000Y392500D02*
Y393454D01*
X578046Y393500D01*
X581000D01*
X574000Y400237D02*
Y402000D01*
X578000Y377161D02*
X590000Y365161D01*
Y359661D02*
Y365161D01*
X594500Y331000D02*
X596500Y333000D01*
X576154Y331000D02*
X594500D01*
X569654Y324500D02*
X576154Y331000D01*
X570284Y316500D02*
X572864Y319081D01*
X567953Y316500D02*
X570284D01*
X561500Y322953D02*
X567953Y316500D01*
X606500Y323500D02*
Y330087D01*
X546000Y323500D02*
X557500Y312000D01*
X546000Y323500D02*
Y330500D01*
X544500Y332000D02*
X546000Y330500D01*
X544500Y332000D02*
Y357000D01*
X566000Y378500D01*
X548688Y339812D02*
X557500Y331000D01*
X548688Y339812D02*
Y356041D01*
X553647Y361000D01*
X561500D01*
X674500Y367000D02*
X680000D01*
X666000Y398000D02*
X680000Y384000D01*
Y367000D02*
Y384000D01*
Y331606D02*
Y367000D01*
Y331606D02*
X683000Y328606D01*
X576500Y306500D02*
X580000Y310000D01*
X530000Y306500D02*
X576500D01*
X525000Y311500D02*
X530000Y306500D01*
X579934Y310066D02*
Y321000D01*
X674000Y366500D02*
X674500Y367000D01*
X673000Y312000D02*
X673500D01*
X673537Y311963D01*
X670000Y315500D02*
X673500Y312000D01*
X672000D02*
X673000D01*
X672500Y312500D02*
X673000Y312000D01*
X643575Y310500D02*
X644500D01*
X649500Y315500D02*
X670000D01*
X683000Y317425D02*
Y328606D01*
X677575Y312000D02*
X683000Y317425D01*
X579934Y310066D02*
X580368Y310500D01*
X579934Y310066D02*
X580000Y310000D01*
X644500Y310500D02*
X649500Y315500D01*
X509500Y357000D02*
X525000Y341500D01*
X509500Y357000D02*
Y375500D01*
Y450461D02*
X514961Y445000D01*
X541500D01*
X509500Y450461D02*
Y458500D01*
X507000Y461000D02*
X509500Y458500D01*
X541500Y445000D02*
X547000Y450500D01*
X645000Y420500D02*
Y440000D01*
X647000Y442000D01*
X666000Y398000D02*
Y419000D01*
D71*
X624500Y463669D02*
Y466500D01*
D72*
X625000Y420500D02*
D03*
X527500Y489500D02*
D03*
X673575Y310500D02*
D03*
X676500Y322953D02*
D03*
X557000Y450500D02*
D03*
X570500D02*
D03*
X529500Y450461D02*
D03*
D73*
X635000Y420500D02*
D03*
X645000D02*
D03*
X655000D02*
D03*
X517500Y489500D02*
D03*
X507500D02*
D03*
X663575Y310500D02*
D03*
X653575D02*
D03*
X643575D02*
D03*
X626500Y322953D02*
D03*
X636500D02*
D03*
X646500D02*
D03*
X656500D02*
D03*
X666500D02*
D03*
X679000Y398000D02*
D03*
X547000Y450500D02*
D03*
X600500D02*
D03*
X590500D02*
D03*
X580500D02*
D03*
X525000Y311500D02*
D03*
Y321500D02*
D03*
Y331500D02*
D03*
X519500Y450461D02*
D03*
X509500D02*
D03*
D74*
X675000Y457768D02*
D03*
Y431783D02*
D03*
D75*
X544500Y483500D02*
D03*
Y473658D02*
D03*
X631000Y455500D02*
D03*
Y445657D02*
D03*
D76*
X679000Y408000D02*
D03*
X525000Y341500D02*
D03*
D78*
X597399Y337945D02*
X598581Y339127D01*
X595537Y336463D02*
X596424Y337350D01*
X596805D01*
X597399Y337945D01*
X595500Y340500D02*
X601500Y346500D01*
X567000Y340500D02*
X580000D01*
X550500Y376619D02*
X568419Y394539D01*
X550045Y376164D02*
X550500Y376619D01*
X568419Y394539D02*
X568669D01*
X549500Y374000D02*
X550855Y375355D01*
X574000Y399869D02*
Y400237D01*
X568669Y394539D02*
X574000Y399869D01*
X636500Y461000D02*
X657500D01*
X631000Y455500D02*
X636500Y461000D01*
X657500Y437500D02*
Y461000D01*
X555000Y352500D02*
X567000Y340500D01*
X558000Y413701D02*
Y414000D01*
Y401500D02*
Y413701D01*
X571551Y408319D02*
X573335D01*
X567976Y411894D02*
X571551Y408319D01*
X567976Y411894D02*
Y413189D01*
X559000Y422165D02*
X567976Y413189D01*
X609665Y451665D02*
X624500Y466500D01*
X609665Y422465D02*
Y451665D01*
X574079Y414421D02*
X576291D01*
X577472Y415602D01*
X583093D01*
X585696Y413000D01*
X627696D01*
X635000Y420304D01*
Y420500D01*
X580000Y409500D02*
X581500Y408000D01*
X642500D01*
X655000Y420500D01*
X573000Y386500D02*
Y392745D01*
X539765Y395235D02*
X546000Y389000D01*
X507500Y410000D02*
X514917D01*
D79*
X601500Y346500D02*
D03*
X591500Y340500D02*
D03*
X580000D02*
D03*
X545864Y426421D02*
D03*
X603339Y319000D02*
D03*
X558000Y401500D02*
D03*
X561500Y322953D02*
D03*
X579934Y321000D02*
D03*
X569654Y324500D02*
D03*
X635500Y345661D02*
D03*
X674000Y366500D02*
D03*
X624500Y367500D02*
D03*
X622925Y377835D02*
D03*
X557500Y312000D02*
D03*
X674000Y344000D02*
D03*
X509500Y375500D02*
D03*
X546000Y389000D02*
D03*
X507000Y461000D02*
D03*
X618236Y390500D02*
D03*
X647000Y442000D02*
D03*
X666000Y419000D02*
D03*
X557500Y331000D02*
D03*
X559000Y422165D02*
D03*
X549500Y374000D02*
D03*
X555000Y352500D02*
D03*
X546000Y330500D02*
D03*
X638500Y436500D02*
D03*
Y451500D02*
D03*
X624500Y466500D02*
D03*
X609665Y422465D02*
D03*
X657500Y461000D02*
D03*
Y437500D02*
D03*
X561500Y361000D02*
D03*
X590000Y359661D02*
D03*
D80*
X611779Y335500D02*
D03*
X583000Y386000D02*
D03*
X590500Y385500D02*
D03*
X598500Y391000D02*
D03*
X573000Y386500D02*
D03*
X574000Y402000D02*
D03*
X581000Y393500D02*
D03*
X558000Y414000D02*
D03*
X580000Y409500D02*
D03*
X574079Y414421D02*
D03*
X566000Y378500D02*
D03*
M02*
