G04*
G04 #@! TF.GenerationSoftware,Altium Limited,Altium Designer,18.1.5 (160)*
G04*
G04 Layer_Color=8388736*
%FSLAX25Y25*%
%MOIN*%
G70*
G01*
G75*
G04:AMPARAMS|DCode=37|XSize=47.76mil|YSize=32.02mil|CornerRadius=9.88mil|HoleSize=0mil|Usage=FLASHONLY|Rotation=0.000|XOffset=0mil|YOffset=0mil|HoleType=Round|Shape=RoundedRectangle|*
%AMROUNDEDRECTD37*
21,1,0.04776,0.01225,0,0,0.0*
21,1,0.02800,0.03202,0,0,0.0*
1,1,0.01977,0.01400,-0.00612*
1,1,0.01977,-0.01400,-0.00612*
1,1,0.01977,-0.01400,0.00612*
1,1,0.01977,0.01400,0.00612*
%
%ADD37ROUNDEDRECTD37*%
G04:AMPARAMS|DCode=38|XSize=57.61mil|YSize=137.92mil|CornerRadius=13.92mil|HoleSize=0mil|Usage=FLASHONLY|Rotation=90.000|XOffset=0mil|YOffset=0mil|HoleType=Round|Shape=RoundedRectangle|*
%AMROUNDEDRECTD38*
21,1,0.05761,0.11008,0,0,90.0*
21,1,0.02976,0.13792,0,0,90.0*
1,1,0.02784,0.05504,0.01488*
1,1,0.02784,0.05504,-0.01488*
1,1,0.02784,-0.05504,-0.01488*
1,1,0.02784,-0.05504,0.01488*
%
%ADD38ROUNDEDRECTD38*%
G04:AMPARAMS|DCode=39|XSize=57.61mil|YSize=46.98mil|CornerRadius=13.94mil|HoleSize=0mil|Usage=FLASHONLY|Rotation=270.000|XOffset=0mil|YOffset=0mil|HoleType=Round|Shape=RoundedRectangle|*
%AMROUNDEDRECTD39*
21,1,0.05761,0.01910,0,0,270.0*
21,1,0.02973,0.04698,0,0,270.0*
1,1,0.02788,-0.00955,-0.01486*
1,1,0.02788,-0.00955,0.01486*
1,1,0.02788,0.00955,0.01486*
1,1,0.02788,0.00955,-0.01486*
%
%ADD39ROUNDEDRECTD39*%
G04:AMPARAMS|DCode=40|XSize=47.37mil|YSize=62.33mil|CornerRadius=13.84mil|HoleSize=0mil|Usage=FLASHONLY|Rotation=180.000|XOffset=0mil|YOffset=0mil|HoleType=Round|Shape=RoundedRectangle|*
%AMROUNDEDRECTD40*
21,1,0.04737,0.03465,0,0,180.0*
21,1,0.01968,0.06233,0,0,180.0*
1,1,0.02769,-0.00984,0.01732*
1,1,0.02769,0.00984,0.01732*
1,1,0.02769,0.00984,-0.01732*
1,1,0.02769,-0.00984,-0.01732*
%
%ADD40ROUNDEDRECTD40*%
%ADD41R,0.07887X0.08280*%
G04:AMPARAMS|DCode=42|XSize=70.99mil|YSize=63.12mil|CornerRadius=17.78mil|HoleSize=0mil|Usage=FLASHONLY|Rotation=90.000|XOffset=0mil|YOffset=0mil|HoleType=Round|Shape=RoundedRectangle|*
%AMROUNDEDRECTD42*
21,1,0.07099,0.02756,0,0,90.0*
21,1,0.03543,0.06312,0,0,90.0*
1,1,0.03556,0.01378,0.01772*
1,1,0.03556,0.01378,-0.01772*
1,1,0.03556,-0.01378,-0.01772*
1,1,0.03556,-0.01378,0.01772*
%
%ADD42ROUNDEDRECTD42*%
%ADD43O,0.06115X0.02375*%
G04:AMPARAMS|DCode=44|XSize=47.37mil|YSize=62.33mil|CornerRadius=13.84mil|HoleSize=0mil|Usage=FLASHONLY|Rotation=90.000|XOffset=0mil|YOffset=0mil|HoleType=Round|Shape=RoundedRectangle|*
%AMROUNDEDRECTD44*
21,1,0.04737,0.03465,0,0,90.0*
21,1,0.01968,0.06233,0,0,90.0*
1,1,0.02769,0.01732,0.00984*
1,1,0.02769,0.01732,-0.00984*
1,1,0.02769,-0.01732,-0.00984*
1,1,0.02769,-0.01732,0.00984*
%
%ADD44ROUNDEDRECTD44*%
G04:AMPARAMS|DCode=45|XSize=42.25mil|YSize=62.33mil|CornerRadius=12.73mil|HoleSize=0mil|Usage=FLASHONLY|Rotation=180.000|XOffset=0mil|YOffset=0mil|HoleType=Round|Shape=RoundedRectangle|*
%AMROUNDEDRECTD45*
21,1,0.04225,0.03686,0,0,180.0*
21,1,0.01678,0.06233,0,0,180.0*
1,1,0.02547,-0.00839,0.01843*
1,1,0.02547,0.00839,0.01843*
1,1,0.02547,0.00839,-0.01843*
1,1,0.02547,-0.00839,-0.01843*
%
%ADD45ROUNDEDRECTD45*%
G04:AMPARAMS|DCode=46|XSize=42.25mil|YSize=62.33mil|CornerRadius=12.73mil|HoleSize=0mil|Usage=FLASHONLY|Rotation=90.000|XOffset=0mil|YOffset=0mil|HoleType=Round|Shape=RoundedRectangle|*
%AMROUNDEDRECTD46*
21,1,0.04225,0.03686,0,0,90.0*
21,1,0.01678,0.06233,0,0,90.0*
1,1,0.02547,0.01843,0.00839*
1,1,0.02547,0.01843,-0.00839*
1,1,0.02547,-0.01843,-0.00839*
1,1,0.02547,-0.01843,0.00839*
%
%ADD46ROUNDEDRECTD46*%
G04:AMPARAMS|DCode=47|XSize=43.83mil|YSize=62.33mil|CornerRadius=13.14mil|HoleSize=0mil|Usage=FLASHONLY|Rotation=90.000|XOffset=0mil|YOffset=0mil|HoleType=Round|Shape=RoundedRectangle|*
%AMROUNDEDRECTD47*
21,1,0.04383,0.03606,0,0,90.0*
21,1,0.01756,0.06233,0,0,90.0*
1,1,0.02627,0.01803,0.00878*
1,1,0.02627,0.01803,-0.00878*
1,1,0.02627,-0.01803,-0.00878*
1,1,0.02627,-0.01803,0.00878*
%
%ADD47ROUNDEDRECTD47*%
G04:AMPARAMS|DCode=48|XSize=48.55mil|YSize=63.91mil|CornerRadius=13.94mil|HoleSize=0mil|Usage=FLASHONLY|Rotation=90.000|XOffset=0mil|YOffset=0mil|HoleType=Round|Shape=RoundedRectangle|*
%AMROUNDEDRECTD48*
21,1,0.04855,0.03604,0,0,90.0*
21,1,0.02068,0.06391,0,0,90.0*
1,1,0.02787,0.01802,0.01034*
1,1,0.02787,0.01802,-0.01034*
1,1,0.02787,-0.01802,-0.01034*
1,1,0.02787,-0.01802,0.01034*
%
%ADD48ROUNDEDRECTD48*%
G04:AMPARAMS|DCode=49|XSize=37.13mil|YSize=44.61mil|CornerRadius=11.43mil|HoleSize=0mil|Usage=FLASHONLY|Rotation=270.000|XOffset=0mil|YOffset=0mil|HoleType=Round|Shape=RoundedRectangle|*
%AMROUNDEDRECTD49*
21,1,0.03713,0.02176,0,0,270.0*
21,1,0.01428,0.04461,0,0,270.0*
1,1,0.02286,-0.01088,-0.00714*
1,1,0.02286,-0.01088,0.00714*
1,1,0.02286,0.01088,0.00714*
1,1,0.02286,0.01088,-0.00714*
%
%ADD49ROUNDEDRECTD49*%
G04:AMPARAMS|DCode=50|XSize=89.5mil|YSize=33.98mil|CornerRadius=10.76mil|HoleSize=0mil|Usage=FLASHONLY|Rotation=90.000|XOffset=0mil|YOffset=0mil|HoleType=Round|Shape=RoundedRectangle|*
%AMROUNDEDRECTD50*
21,1,0.08950,0.01247,0,0,90.0*
21,1,0.06798,0.03398,0,0,90.0*
1,1,0.02151,0.00624,0.03399*
1,1,0.02151,0.00624,-0.03399*
1,1,0.02151,-0.00624,-0.03399*
1,1,0.02151,-0.00624,0.03399*
%
%ADD50ROUNDEDRECTD50*%
G04:AMPARAMS|DCode=51|XSize=93.83mil|YSize=67.45mil|CornerRadius=13.81mil|HoleSize=0mil|Usage=FLASHONLY|Rotation=0.000|XOffset=0mil|YOffset=0mil|HoleType=Round|Shape=RoundedRectangle|*
%AMROUNDEDRECTD51*
21,1,0.09383,0.03983,0,0,0.0*
21,1,0.06621,0.06745,0,0,0.0*
1,1,0.02762,0.03310,-0.01991*
1,1,0.02762,-0.03310,-0.01991*
1,1,0.02762,-0.03310,0.01991*
1,1,0.02762,0.03310,0.01991*
%
%ADD51ROUNDEDRECTD51*%
G04:AMPARAMS|DCode=52|XSize=56.82mil|YSize=32.02mil|CornerRadius=9.88mil|HoleSize=0mil|Usage=FLASHONLY|Rotation=270.000|XOffset=0mil|YOffset=0mil|HoleType=Round|Shape=RoundedRectangle|*
%AMROUNDEDRECTD52*
21,1,0.05682,0.01225,0,0,270.0*
21,1,0.03705,0.03202,0,0,270.0*
1,1,0.01977,-0.00612,-0.01853*
1,1,0.01977,-0.00612,0.01853*
1,1,0.01977,0.00612,0.01853*
1,1,0.01977,0.00612,-0.01853*
%
%ADD52ROUNDEDRECTD52*%
%ADD53R,0.08674X0.21666*%
%ADD54R,0.08674X0.22453*%
G04:AMPARAMS|DCode=55|XSize=48.55mil|YSize=63.91mil|CornerRadius=13.94mil|HoleSize=0mil|Usage=FLASHONLY|Rotation=0.000|XOffset=0mil|YOffset=0mil|HoleType=Round|Shape=RoundedRectangle|*
%AMROUNDEDRECTD55*
21,1,0.04855,0.03604,0,0,0.0*
21,1,0.02068,0.06391,0,0,0.0*
1,1,0.02787,0.01034,-0.01802*
1,1,0.02787,-0.01034,-0.01802*
1,1,0.02787,-0.01034,0.01802*
1,1,0.02787,0.01034,0.01802*
%
%ADD55ROUNDEDRECTD55*%
G04:AMPARAMS|DCode=56|XSize=67.06mil|YSize=30.44mil|CornerRadius=9.5mil|HoleSize=0mil|Usage=FLASHONLY|Rotation=180.000|XOffset=0mil|YOffset=0mil|HoleType=Round|Shape=RoundedRectangle|*
%AMROUNDEDRECTD56*
21,1,0.06706,0.01145,0,0,180.0*
21,1,0.04806,0.03044,0,0,180.0*
1,1,0.01900,-0.02403,0.00572*
1,1,0.01900,0.02403,0.00572*
1,1,0.01900,0.02403,-0.00572*
1,1,0.01900,-0.02403,-0.00572*
%
%ADD56ROUNDEDRECTD56*%
G04:AMPARAMS|DCode=57|XSize=67.06mil|YSize=30.44mil|CornerRadius=9.5mil|HoleSize=0mil|Usage=FLASHONLY|Rotation=90.000|XOffset=0mil|YOffset=0mil|HoleType=Round|Shape=RoundedRectangle|*
%AMROUNDEDRECTD57*
21,1,0.06706,0.01145,0,0,90.0*
21,1,0.04806,0.03044,0,0,90.0*
1,1,0.01900,0.00572,0.02403*
1,1,0.01900,0.00572,-0.02403*
1,1,0.01900,-0.00572,-0.02403*
1,1,0.01900,-0.00572,0.02403*
%
%ADD57ROUNDEDRECTD57*%
G04:AMPARAMS|DCode=58|XSize=56.82mil|YSize=32.02mil|CornerRadius=9.88mil|HoleSize=0mil|Usage=FLASHONLY|Rotation=180.000|XOffset=0mil|YOffset=0mil|HoleType=Round|Shape=RoundedRectangle|*
%AMROUNDEDRECTD58*
21,1,0.05682,0.01225,0,0,180.0*
21,1,0.03705,0.03202,0,0,180.0*
1,1,0.01977,-0.01853,0.00612*
1,1,0.01977,0.01853,0.00612*
1,1,0.01977,0.01853,-0.00612*
1,1,0.01977,-0.01853,-0.00612*
%
%ADD58ROUNDEDRECTD58*%
G04:AMPARAMS|DCode=59|XSize=37.13mil|YSize=44.61mil|CornerRadius=11.43mil|HoleSize=0mil|Usage=FLASHONLY|Rotation=0.000|XOffset=0mil|YOffset=0mil|HoleType=Round|Shape=RoundedRectangle|*
%AMROUNDEDRECTD59*
21,1,0.03713,0.02176,0,0,0.0*
21,1,0.01428,0.04461,0,0,0.0*
1,1,0.02286,0.00714,-0.01088*
1,1,0.02286,-0.00714,-0.01088*
1,1,0.02286,-0.00714,0.01088*
1,1,0.02286,0.00714,0.01088*
%
%ADD59ROUNDEDRECTD59*%
%ADD60R,0.06706X0.06706*%
%ADD61C,0.06706*%
%ADD62O,0.07099X0.04343*%
%ADD63C,0.05524*%
%ADD64R,0.06706X0.06706*%
%ADD65C,0.05800*%
D37*
X626260Y477260D02*
D03*
Y484740D02*
D03*
X618740Y481000D02*
D03*
D38*
X649000Y494874D02*
D03*
D39*
X658016Y469126D02*
D03*
X649000D02*
D03*
X639984D02*
D03*
D40*
X673595Y475000D02*
D03*
X680406D02*
D03*
X661905Y332500D02*
D03*
X655094D02*
D03*
X541094Y339500D02*
D03*
X547905D02*
D03*
X568347Y463500D02*
D03*
X575157D02*
D03*
X643905Y332453D02*
D03*
X637094D02*
D03*
X624405Y311500D02*
D03*
X617594D02*
D03*
D41*
X675000Y449500D02*
D03*
Y440051D02*
D03*
D42*
X665354Y457374D02*
D03*
Y432177D02*
D03*
D43*
X664468Y444776D02*
D03*
Y442216D02*
D03*
Y439657D02*
D03*
Y449894D02*
D03*
Y447335D02*
D03*
D44*
X649661Y456906D02*
D03*
Y450095D02*
D03*
X617000Y458405D02*
D03*
Y451594D02*
D03*
X629000Y411406D02*
D03*
Y404595D02*
D03*
X587000Y307095D02*
D03*
Y313906D02*
D03*
X570000Y470595D02*
D03*
Y477406D02*
D03*
X516500Y355906D02*
D03*
Y349095D02*
D03*
X554000Y360169D02*
D03*
Y366980D02*
D03*
X535500Y360595D02*
D03*
Y367406D02*
D03*
X545500Y360020D02*
D03*
Y366831D02*
D03*
X515500Y368831D02*
D03*
Y362020D02*
D03*
X537500Y315905D02*
D03*
Y309095D02*
D03*
X546888Y420405D02*
D03*
Y413594D02*
D03*
Y402406D02*
D03*
Y395595D02*
D03*
D45*
X602945Y468000D02*
D03*
X610268D02*
D03*
X514839Y462500D02*
D03*
X522161D02*
D03*
X529839D02*
D03*
X537161D02*
D03*
X515839Y479500D02*
D03*
X523161D02*
D03*
X571661Y316000D02*
D03*
X564339D02*
D03*
X594661Y321066D02*
D03*
X587339D02*
D03*
X604839Y361000D02*
D03*
X612161D02*
D03*
X617661Y320114D02*
D03*
X610339D02*
D03*
X628839Y396500D02*
D03*
X636161D02*
D03*
D46*
X578500Y477661D02*
D03*
Y470339D02*
D03*
X555500Y338339D02*
D03*
Y345661D02*
D03*
X538500Y331193D02*
D03*
Y323870D02*
D03*
X547905Y316161D02*
D03*
Y308839D02*
D03*
X579000Y306839D02*
D03*
Y314161D02*
D03*
X595000D02*
D03*
Y306839D02*
D03*
X605000Y333161D02*
D03*
Y325839D02*
D03*
X606500Y313661D02*
D03*
Y306339D02*
D03*
X613000Y345839D02*
D03*
Y353161D02*
D03*
X622925Y346177D02*
D03*
Y353500D02*
D03*
X656000Y340839D02*
D03*
Y348161D02*
D03*
X648685Y340839D02*
D03*
Y348161D02*
D03*
X674000Y357161D02*
D03*
Y349839D02*
D03*
D47*
X508500Y478083D02*
D03*
Y470917D02*
D03*
D48*
X526000Y368945D02*
D03*
Y362095D02*
D03*
D49*
X670000Y331870D02*
D03*
Y338130D02*
D03*
X676500D02*
D03*
Y331870D02*
D03*
X629000Y331370D02*
D03*
Y337630D02*
D03*
X623000D02*
D03*
Y331370D02*
D03*
D50*
X595000Y351547D02*
D03*
X590000D02*
D03*
X585000D02*
D03*
X580000D02*
D03*
X575000D02*
D03*
X570000D02*
D03*
X565000D02*
D03*
Y332453D02*
D03*
X570000D02*
D03*
X575000D02*
D03*
X580000D02*
D03*
X585000D02*
D03*
X590000D02*
D03*
X595000D02*
D03*
D51*
X575079Y492000D02*
D03*
X560000D02*
D03*
D52*
X640740Y361138D02*
D03*
X637000D02*
D03*
X633260D02*
D03*
Y370862D02*
D03*
X637000D02*
D03*
X640740D02*
D03*
D53*
X608087Y484500D02*
D03*
X593913D02*
D03*
D54*
X521500Y390890D02*
D03*
Y428291D02*
D03*
D55*
X547925Y349000D02*
D03*
X541075D02*
D03*
X526075Y351000D02*
D03*
X532925D02*
D03*
D56*
X565335Y384252D02*
D03*
Y387402D02*
D03*
Y390551D02*
D03*
Y393701D02*
D03*
Y396850D02*
D03*
Y400000D02*
D03*
Y403150D02*
D03*
Y406299D02*
D03*
Y409449D02*
D03*
Y412598D02*
D03*
Y415748D02*
D03*
X609665D02*
D03*
Y412598D02*
D03*
Y409449D02*
D03*
Y406299D02*
D03*
Y403150D02*
D03*
Y400000D02*
D03*
Y396850D02*
D03*
Y393701D02*
D03*
Y390551D02*
D03*
Y387402D02*
D03*
Y384252D02*
D03*
D57*
X571752Y422165D02*
D03*
X574902D02*
D03*
X578051D02*
D03*
X581201D02*
D03*
X584350D02*
D03*
X587500D02*
D03*
X590650D02*
D03*
X593799D02*
D03*
X596949D02*
D03*
X600098D02*
D03*
X603248D02*
D03*
Y377835D02*
D03*
X600098D02*
D03*
X596949D02*
D03*
X593799D02*
D03*
X590650D02*
D03*
X587500D02*
D03*
X584350D02*
D03*
X581201D02*
D03*
X578051D02*
D03*
X574902D02*
D03*
X571752D02*
D03*
D58*
X644138Y399760D02*
D03*
Y403500D02*
D03*
Y407240D02*
D03*
X653862D02*
D03*
Y403500D02*
D03*
Y399760D02*
D03*
D59*
X565130Y442000D02*
D03*
X558870D02*
D03*
Y436500D02*
D03*
X565130D02*
D03*
X574370Y442000D02*
D03*
X580630D02*
D03*
Y436500D02*
D03*
X574370D02*
D03*
X588870Y442000D02*
D03*
X595130D02*
D03*
Y436500D02*
D03*
X588870D02*
D03*
X602945Y442158D02*
D03*
X609205D02*
D03*
Y436500D02*
D03*
X602945D02*
D03*
D60*
X625000Y420500D02*
D03*
X527500Y489500D02*
D03*
X673575Y310500D02*
D03*
X676500Y322953D02*
D03*
X557000Y450500D02*
D03*
X570500D02*
D03*
X529500Y450461D02*
D03*
D61*
X635000Y420500D02*
D03*
X645000D02*
D03*
X655000D02*
D03*
X517500Y489500D02*
D03*
X507500D02*
D03*
X663575Y310500D02*
D03*
X653575D02*
D03*
X643575D02*
D03*
X626500Y322953D02*
D03*
X636500D02*
D03*
X646500D02*
D03*
X656500D02*
D03*
X666500D02*
D03*
X679000Y398000D02*
D03*
X547000Y450500D02*
D03*
X600500D02*
D03*
X590500D02*
D03*
X580500D02*
D03*
X525000Y311500D02*
D03*
Y321500D02*
D03*
Y331500D02*
D03*
X519500Y450461D02*
D03*
X509500D02*
D03*
D62*
X675000Y457768D02*
D03*
Y431783D02*
D03*
D63*
X544500Y483500D02*
D03*
Y473658D02*
D03*
X631000Y455500D02*
D03*
Y445657D02*
D03*
D64*
X679000Y408000D02*
D03*
X525000Y341500D02*
D03*
D65*
X601500Y346500D02*
D03*
X591500Y340500D02*
D03*
X580000D02*
D03*
X545864Y426421D02*
D03*
X603339Y319000D02*
D03*
X611779Y335500D02*
D03*
X583000Y386000D02*
D03*
X590500Y385500D02*
D03*
X598500Y391000D02*
D03*
X573000Y386500D02*
D03*
X558000Y401500D02*
D03*
X574000Y402000D02*
D03*
X581000Y393500D02*
D03*
X561500Y322953D02*
D03*
X579934Y321000D02*
D03*
X569654Y324500D02*
D03*
X635500Y345661D02*
D03*
X674000Y366500D02*
D03*
X624500Y367500D02*
D03*
X622925Y377835D02*
D03*
X557500Y312000D02*
D03*
X674000Y344000D02*
D03*
X509500Y375500D02*
D03*
X546000Y389000D02*
D03*
X507000Y461000D02*
D03*
X558000Y414000D02*
D03*
X618236Y390500D02*
D03*
X647000Y442000D02*
D03*
X666000Y419000D02*
D03*
X557500Y331000D02*
D03*
X559000Y422165D02*
D03*
X549500Y374000D02*
D03*
X555000Y352500D02*
D03*
X546000Y330500D02*
D03*
X580000Y409500D02*
D03*
X574079Y414421D02*
D03*
X566000Y378500D02*
D03*
X638500Y436500D02*
D03*
Y451500D02*
D03*
X624500Y466500D02*
D03*
X609665Y422465D02*
D03*
X657500Y461000D02*
D03*
Y437500D02*
D03*
X561500Y361000D02*
D03*
X590000Y359661D02*
D03*
M02*
