G04*
G04 #@! TF.GenerationSoftware,Altium Limited,Altium Designer,18.1.5 (160)*
G04*
G04 Layer_Color=32768*
%FSLAX25Y25*%
%MOIN*%
G70*
G01*
G75*
%ADD10C,0.00787*%
%ADD84C,0.00394*%
%ADD85C,0.00197*%
D10*
X687402Y427059D02*
Y462492D01*
X659842D02*
X687402D01*
X659842Y427059D02*
Y462492D01*
Y427059D02*
X687402D01*
X674803Y442276D02*
Y447276D01*
X672303Y444776D02*
X677303D01*
D84*
X521500Y407622D02*
Y411559D01*
X519531Y409590D02*
X523468D01*
D85*
X623484Y481000D02*
G03*
X623484Y481000I-984J0D01*
G01*
X649984Y482000D02*
G03*
X649984Y482000I-984J0D01*
G01*
X677984Y475000D02*
G03*
X677984Y475000I-984J0D01*
G01*
X650646Y453500D02*
G03*
X650646Y453500I-984J0D01*
G01*
X617984Y455000D02*
G03*
X617984Y455000I-984J0D01*
G01*
X607590Y468000D02*
G03*
X607590Y468000I-984J0D01*
G01*
X519484Y462500D02*
G03*
X519484Y462500I-984J0D01*
G01*
X534484D02*
G03*
X534484Y462500I-984J0D01*
G01*
X579484Y474000D02*
G03*
X579484Y474000I-984J0D01*
G01*
X520484Y479500D02*
G03*
X520484Y479500I-984J0D01*
G01*
X509484Y474500D02*
G03*
X509484Y474500I-984J0D01*
G01*
X629984Y408000D02*
G03*
X629984Y408000I-984J0D01*
G01*
X526984Y365520D02*
G03*
X526984Y365520I-984J0D01*
G01*
X556484Y342000D02*
G03*
X556484Y342000I-984J0D01*
G01*
X539484Y327531D02*
G03*
X539484Y327531I-984J0D01*
G01*
X548890Y312500D02*
G03*
X548890Y312500I-984J0D01*
G01*
X568984Y316000D02*
G03*
X568984Y316000I-984J0D01*
G01*
X579984Y310500D02*
G03*
X579984Y310500I-984J0D01*
G01*
X587984D02*
G03*
X587984Y310500I-984J0D01*
G01*
X595984D02*
G03*
X595984Y310500I-984J0D01*
G01*
X591984Y321066D02*
G03*
X591984Y321066I-984J0D01*
G01*
X605984Y329500D02*
G03*
X605984Y329500I-984J0D01*
G01*
X609484Y361000D02*
G03*
X609484Y361000I-984J0D01*
G01*
X670984Y335000D02*
G03*
X670984Y335000I-984J0D01*
G01*
X677484D02*
G03*
X677484Y335000I-984J0D01*
G01*
X614984Y320114D02*
G03*
X614984Y320114I-984J0D01*
G01*
X607484Y310000D02*
G03*
X607484Y310000I-984J0D01*
G01*
X629984Y334500D02*
G03*
X629984Y334500I-984J0D01*
G01*
X613984Y349500D02*
G03*
X613984Y349500I-984J0D01*
G01*
X623910Y349839D02*
G03*
X623910Y349839I-984J0D01*
G01*
X656984Y344500D02*
G03*
X656984Y344500I-984J0D01*
G01*
X649669D02*
G03*
X649669Y344500I-984J0D01*
G01*
X659484Y332500D02*
G03*
X659484Y332500I-984J0D01*
G01*
X580984Y342000D02*
G03*
X580984Y342000I-984J0D01*
G01*
X570984Y474000D02*
G03*
X570984Y474000I-984J0D01*
G01*
X545484Y339500D02*
G03*
X545484Y339500I-984J0D01*
G01*
X517484Y352500D02*
G03*
X517484Y352500I-984J0D01*
G01*
X572736Y463500D02*
G03*
X572736Y463500I-984J0D01*
G01*
X554984Y363575D02*
G03*
X554984Y363575I-984J0D01*
G01*
X536484Y364000D02*
G03*
X536484Y364000I-984J0D01*
G01*
X546484Y363425D02*
G03*
X546484Y363425I-984J0D01*
G01*
X516484Y365425D02*
G03*
X516484Y365425I-984J0D01*
G01*
X641484Y332453D02*
G03*
X641484Y332453I-984J0D01*
G01*
X538484Y312500D02*
G03*
X538484Y312500I-984J0D01*
G01*
X621984Y311500D02*
G03*
X621984Y311500I-984J0D01*
G01*
X547872Y417000D02*
G03*
X547872Y417000I-984J0D01*
G01*
X568524Y492000D02*
G03*
X568524Y492000I-984J0D01*
G01*
X637984Y366000D02*
G03*
X637984Y366000I-984J0D01*
G01*
X545484Y349000D02*
G03*
X545484Y349000I-984J0D01*
G01*
X588484Y400000D02*
G03*
X588484Y400000I-984J0D01*
G01*
X633484Y396500D02*
G03*
X633484Y396500I-984J0D01*
G01*
X530484Y351000D02*
G03*
X530484Y351000I-984J0D01*
G01*
X623984Y334500D02*
G03*
X623984Y334500I-984J0D01*
G01*
X674984Y353500D02*
G03*
X674984Y353500I-984J0D01*
G01*
X649984Y403500D02*
G03*
X649984Y403500I-984J0D01*
G01*
X547872Y399000D02*
G03*
X547872Y399000I-984J0D01*
G01*
X562984Y442000D02*
G03*
X562984Y442000I-984J0D01*
G01*
Y436500D02*
G03*
X562984Y436500I-984J0D01*
G01*
X578484Y442000D02*
G03*
X578484Y442000I-984J0D01*
G01*
Y436500D02*
G03*
X578484Y436500I-984J0D01*
G01*
X592984Y442000D02*
G03*
X592984Y442000I-984J0D01*
G01*
Y436500D02*
G03*
X592984Y436500I-984J0D01*
G01*
X607059Y442158D02*
G03*
X607059Y442158I-984J0D01*
G01*
Y436500D02*
G03*
X607059Y436500I-984J0D01*
G01*
X621122Y481000D02*
X623878D01*
X622500Y479622D02*
Y482378D01*
X618957Y487693D02*
X626043D01*
X618957Y482988D02*
Y487693D01*
X615965Y482988D02*
X618957D01*
X615965Y479012D02*
Y482988D01*
Y479012D02*
X618957D01*
Y474307D02*
Y479012D01*
Y474307D02*
X626043D01*
Y475272D01*
X629035D01*
Y486728D01*
X626043D02*
X629035D01*
X626043D02*
Y487693D01*
X660752Y473890D02*
X663016D01*
X660752Y465858D02*
Y473890D01*
X637248Y465858D02*
X660752D01*
X637248D02*
Y473890D01*
X634984D02*
X637248D01*
X634984D02*
Y490110D01*
X641716D01*
Y498142D01*
X656284D01*
Y490110D02*
Y498142D01*
Y490110D02*
X663016D01*
Y473890D02*
Y490110D01*
X647622Y482000D02*
X650378D01*
X649000Y480622D02*
Y483378D01*
X683161Y471496D02*
Y478504D01*
X670839Y471496D02*
X683161D01*
X670839D02*
Y478504D01*
X683161D01*
X677000Y473622D02*
Y476378D01*
X675622Y475000D02*
X678378D01*
X646158Y447339D02*
X653165D01*
X646158D02*
Y459661D01*
X653165D01*
Y447339D02*
Y459661D01*
X648283Y453500D02*
X651039D01*
X649661Y452122D02*
Y454878D01*
X613496Y448839D02*
X620504D01*
X613496D02*
Y461161D01*
X620504D01*
Y448839D02*
Y461161D01*
X615622Y455000D02*
X618378D01*
X617000Y453622D02*
Y456378D01*
X605228Y468000D02*
X607984D01*
X606606Y466622D02*
Y469378D01*
X600445Y464496D02*
X612768D01*
Y471504D01*
X600445D02*
X612768D01*
X600445Y464496D02*
Y471504D01*
X524661Y458996D02*
Y466004D01*
X512339Y458996D02*
X524661D01*
X512339D02*
Y466004D01*
X524661D01*
X518500Y461122D02*
Y463878D01*
X517122Y462500D02*
X519878D01*
X539661Y458996D02*
Y466004D01*
X527339Y458996D02*
X539661D01*
X527339D02*
Y466004D01*
X539661D01*
X533500Y461122D02*
Y463878D01*
X532122Y462500D02*
X534878D01*
X574996Y467839D02*
X582004D01*
X574996D02*
Y480161D01*
X582004D01*
Y467839D02*
Y480161D01*
X577122Y474000D02*
X579878D01*
X578500Y472622D02*
Y475378D01*
X525661Y475996D02*
Y483004D01*
X513339Y475996D02*
X525661D01*
X513339D02*
Y483004D01*
X525661D01*
X519500Y478122D02*
Y480878D01*
X518122Y479500D02*
X520878D01*
X504996Y468339D02*
X512004D01*
X504996D02*
Y480661D01*
X512004D01*
Y468339D02*
Y480661D01*
X507122Y474500D02*
X509878D01*
X508500Y473122D02*
Y475878D01*
X625496Y401839D02*
X632504D01*
X625496D02*
Y414161D01*
X632504D01*
Y401839D02*
Y414161D01*
X627622Y408000D02*
X630378D01*
X629000Y406622D02*
Y409378D01*
X522417Y359280D02*
X529583D01*
X522417D02*
Y371760D01*
X529583D01*
Y359280D02*
Y371760D01*
X524622Y365520D02*
X527378D01*
X526000Y364142D02*
Y366898D01*
X551996Y348161D02*
X559004D01*
Y335839D02*
Y348161D01*
X551996Y335839D02*
X559004D01*
X551996D02*
Y348161D01*
X554122Y342000D02*
X556878D01*
X555500Y340622D02*
Y343378D01*
X534996Y321370D02*
X542004D01*
X534996D02*
Y333693D01*
X542004D01*
Y321370D02*
Y333693D01*
X537122Y327531D02*
X539878D01*
X538500Y326153D02*
Y328909D01*
X544402Y306339D02*
X551409D01*
X544402D02*
Y318661D01*
X551409D01*
Y306339D02*
Y318661D01*
X546528Y312500D02*
X549284D01*
X547905Y311122D02*
Y313878D01*
X561839Y312496D02*
Y319504D01*
X574161D01*
Y312496D02*
Y319504D01*
X561839Y312496D02*
X574161D01*
X568000Y314622D02*
Y317378D01*
X566622Y316000D02*
X569378D01*
X575496Y316661D02*
X582504D01*
Y304339D02*
Y316661D01*
X575496Y304339D02*
X582504D01*
X575496D02*
Y316661D01*
X577622Y310500D02*
X580378D01*
X579000Y309122D02*
Y311878D01*
X583496Y316661D02*
X590504D01*
Y304339D02*
Y316661D01*
X583496Y304339D02*
X590504D01*
X583496D02*
Y316661D01*
X585622Y310500D02*
X588378D01*
X587000Y309122D02*
Y311878D01*
X591496Y304339D02*
X598504D01*
X591496D02*
Y316661D01*
X598504D01*
Y304339D02*
Y316661D01*
X593622Y310500D02*
X596378D01*
X595000Y309122D02*
Y311878D01*
X584839Y317562D02*
Y324570D01*
X597161D01*
Y317562D02*
Y324570D01*
X584839Y317562D02*
X597161D01*
X591000Y319688D02*
Y322444D01*
X589622Y321066D02*
X592378D01*
X601496Y323339D02*
X608504D01*
X601496D02*
Y335661D01*
X608504D01*
Y323339D02*
Y335661D01*
X603622Y329500D02*
X606378D01*
X605000Y328122D02*
Y330878D01*
X614661Y357496D02*
Y364504D01*
X602339Y357496D02*
X614661D01*
X602339D02*
Y364504D01*
X614661D01*
X608500Y359622D02*
Y362378D01*
X607122Y361000D02*
X609878D01*
X667382Y340374D02*
X672618D01*
Y329626D02*
Y340374D01*
X667382Y329626D02*
X672618D01*
X667382D02*
Y340374D01*
X668681Y335000D02*
X671319D01*
X670000Y333681D02*
Y336319D01*
X676500Y333681D02*
Y336319D01*
X675181Y335000D02*
X677819D01*
X673882Y329626D02*
Y340374D01*
Y329626D02*
X679118D01*
Y340374D01*
X673882D02*
X679118D01*
X612622Y320114D02*
X615378D01*
X614000Y318736D02*
Y321492D01*
X607839Y323618D02*
X620161D01*
X607839Y316610D02*
Y323618D01*
Y316610D02*
X620161D01*
Y323618D01*
X602996Y303839D02*
X610004D01*
X602996D02*
Y316161D01*
X610004D01*
Y303839D02*
Y316161D01*
X605122Y310000D02*
X607878D01*
X606500Y308622D02*
Y311378D01*
X629000Y333181D02*
Y335819D01*
X627681Y334500D02*
X630319D01*
X631618Y329126D02*
Y339874D01*
X626382D02*
X631618D01*
X626382Y329126D02*
Y339874D01*
Y329126D02*
X631618D01*
X609496Y355661D02*
X616504D01*
Y343339D02*
Y355661D01*
X609496Y343339D02*
X616504D01*
X609496D02*
Y355661D01*
X611622Y349500D02*
X614378D01*
X613000Y348122D02*
Y350878D01*
X619421Y356000D02*
X626429D01*
Y343677D02*
Y356000D01*
X619421Y343677D02*
X626429D01*
X619421D02*
Y356000D01*
X621547Y349839D02*
X624303D01*
X622925Y348461D02*
Y351217D01*
X652496Y350661D02*
X659504D01*
Y338339D02*
Y350661D01*
X652496Y338339D02*
X659504D01*
X652496D02*
Y350661D01*
X654622Y344500D02*
X657378D01*
X656000Y343122D02*
Y345878D01*
X645181Y350661D02*
X652189D01*
Y338339D02*
Y350661D01*
X645181Y338339D02*
X652189D01*
X645181D02*
Y350661D01*
X647307Y344500D02*
X650063D01*
X648685Y343122D02*
Y345878D01*
X652339Y328996D02*
Y336004D01*
X664661D01*
Y328996D02*
Y336004D01*
X652339Y328996D02*
X664661D01*
X658500Y331122D02*
Y333878D01*
X657122Y332500D02*
X659878D01*
X580000Y340622D02*
Y343378D01*
X578622Y342000D02*
X581378D01*
X561969Y333339D02*
Y350661D01*
Y333339D02*
X562913D01*
Y327590D02*
Y333339D01*
Y327590D02*
X597087D01*
Y333339D01*
X598032D01*
Y350661D01*
X597087D02*
X598032D01*
X597087D02*
Y356410D01*
X562913D02*
X597087D01*
X562913Y350661D02*
Y356410D01*
X561969Y350661D02*
X562913D01*
X570000Y472622D02*
Y475378D01*
X568622Y474000D02*
X571378D01*
X573504Y467839D02*
Y480161D01*
X566496D02*
X573504D01*
X566496Y467839D02*
Y480161D01*
Y467839D02*
X573504D01*
X543122Y339500D02*
X545878D01*
X544500Y338122D02*
Y340878D01*
X538339Y335996D02*
X550661D01*
Y343004D01*
X538339D02*
X550661D01*
X538339Y335996D02*
Y343004D01*
X516500Y351122D02*
Y353878D01*
X515122Y352500D02*
X517878D01*
X512996Y346339D02*
Y358661D01*
Y346339D02*
X520004D01*
Y358661D01*
X512996D02*
X520004D01*
X570374Y463500D02*
X573130D01*
X571752Y462122D02*
Y464878D01*
X565590Y459996D02*
X577913D01*
Y467004D01*
X565590D02*
X577913D01*
X565590Y459996D02*
Y467004D01*
X554000Y362197D02*
Y364953D01*
X552622Y363575D02*
X555378D01*
X557504Y357413D02*
Y369736D01*
X550496D02*
X557504D01*
X550496Y357413D02*
Y369736D01*
Y357413D02*
X557504D01*
X535500Y362622D02*
Y365378D01*
X534122Y364000D02*
X536878D01*
X539004Y357839D02*
Y370161D01*
X531996D02*
X539004D01*
X531996Y357839D02*
Y370161D01*
Y357839D02*
X539004D01*
X545500Y362047D02*
Y364803D01*
X544122Y363425D02*
X546878D01*
X549004Y357264D02*
Y369587D01*
X541996D02*
X549004D01*
X541996Y357264D02*
Y369587D01*
Y357264D02*
X549004D01*
X515500Y364047D02*
Y366803D01*
X514122Y365425D02*
X516878D01*
X511996Y359264D02*
Y371587D01*
Y359264D02*
X519004D01*
Y371587D01*
X511996D02*
X519004D01*
X639122Y332453D02*
X641878D01*
X640500Y331075D02*
Y333831D01*
X634339Y335957D02*
X646661D01*
X634339Y328949D02*
Y335957D01*
Y328949D02*
X646661D01*
Y335957D01*
X537500Y311122D02*
Y313878D01*
X536122Y312500D02*
X538878D01*
X533996Y306339D02*
Y318661D01*
Y306339D02*
X541004D01*
Y318661D01*
X533996D02*
X541004D01*
X619622Y311500D02*
X622378D01*
X621000Y310122D02*
Y312878D01*
X614839Y315004D02*
X627161D01*
X614839Y307996D02*
Y315004D01*
Y307996D02*
X627161D01*
Y315004D01*
X543384Y410839D02*
X550392D01*
X543384D02*
Y423161D01*
X550392D01*
Y410839D02*
Y423161D01*
X545510Y417000D02*
X548266D01*
X546888Y415622D02*
Y418378D01*
X557894Y485701D02*
Y488240D01*
X554921D02*
X557894D01*
X554921D02*
Y495760D01*
X557894D01*
Y498299D01*
X577185D01*
Y495760D02*
Y498299D01*
Y495760D02*
X580158D01*
Y488240D02*
Y495760D01*
X577185Y488240D02*
X580158D01*
X577185Y485701D02*
Y488240D01*
X557894Y485701D02*
X577185D01*
X567539Y490622D02*
Y493378D01*
X566161Y492000D02*
X568917D01*
X630110Y370134D02*
X631272D01*
Y374091D01*
X642728D01*
Y370134D02*
Y374091D01*
Y370134D02*
X643890D01*
Y361866D02*
Y370134D01*
X642728Y361866D02*
X643890D01*
X642728Y357909D02*
Y361866D01*
X631272Y357909D02*
X642728D01*
X631272D02*
Y361866D01*
X630110D02*
X631272D01*
X630110D02*
Y370134D01*
X635622Y366000D02*
X638378D01*
X637000Y364622D02*
Y367378D01*
X510968Y433311D02*
X532031D01*
X510968Y385870D02*
X532031D01*
Y433311D01*
X510968Y385870D02*
Y433311D01*
X538260Y345417D02*
Y352583D01*
X550740D01*
Y345417D02*
Y352583D01*
X538260Y345417D02*
X550740D01*
X544500Y347622D02*
Y350378D01*
X543122Y349000D02*
X545878D01*
X605158Y379331D02*
X608169D01*
X605158Y374095D02*
Y379331D01*
X569842Y374095D02*
X605158D01*
X569842D02*
Y379331D01*
X566831D02*
X569842D01*
X566831D02*
Y382343D01*
X561594D02*
X566831D01*
X561594D02*
Y417658D01*
X566831D01*
Y420669D01*
X569842D01*
Y425906D01*
X605158D01*
Y420669D02*
Y425906D01*
Y420669D02*
X608169D01*
Y417658D02*
Y420669D01*
Y417658D02*
X613406D01*
Y382343D02*
Y417658D01*
X608169Y382343D02*
X613406D01*
X608169Y379331D02*
Y382343D01*
X586122Y400000D02*
X588878D01*
X587500Y398622D02*
Y401378D01*
X631122Y396500D02*
X633878D01*
X632500Y395122D02*
Y397878D01*
X626339Y392996D02*
X638661D01*
Y400004D01*
X626339D02*
X638661D01*
X626339Y392996D02*
Y400004D01*
X528122Y351000D02*
X530878D01*
X529500Y349622D02*
Y352378D01*
X523260Y347417D02*
X535740D01*
Y354583D01*
X523260D02*
X535740D01*
X523260Y347417D02*
Y354583D01*
X620382Y329126D02*
X625618D01*
X620382D02*
Y339874D01*
X625618D01*
Y329126D02*
Y339874D01*
X621681Y334500D02*
X624319D01*
X623000Y333181D02*
Y335819D01*
X674000Y352122D02*
Y354878D01*
X672622Y353500D02*
X675378D01*
X670496Y347339D02*
Y359661D01*
Y347339D02*
X677504D01*
Y359661D01*
X670496D02*
X677504D01*
X653134Y409228D02*
Y410390D01*
Y409228D02*
X657091D01*
Y397772D02*
Y409228D01*
X653134Y397772D02*
X657091D01*
X653134Y396610D02*
Y397772D01*
X644866Y396610D02*
X653134D01*
X644866D02*
Y397772D01*
X640909D02*
X644866D01*
X640909D02*
Y409228D01*
X644866D01*
Y410390D01*
X653134D01*
X649000Y402122D02*
Y404878D01*
X647622Y403500D02*
X650378D01*
X546888Y397622D02*
Y400378D01*
X545510Y399000D02*
X548266D01*
X543384Y392839D02*
Y405161D01*
Y392839D02*
X550392D01*
Y405161D01*
X543384D02*
X550392D01*
X556626Y439382D02*
Y444618D01*
X567374D01*
Y439382D02*
Y444618D01*
X556626Y439382D02*
X567374D01*
X562000Y440681D02*
Y443319D01*
X560681Y442000D02*
X563319D01*
X567374Y433882D02*
Y439118D01*
X556626Y433882D02*
X567374D01*
X556626D02*
Y439118D01*
X567374D01*
X562000Y435181D02*
Y437819D01*
X560681Y436500D02*
X563319D01*
X582874Y439382D02*
Y444618D01*
X572126Y439382D02*
X582874D01*
X572126D02*
Y444618D01*
X582874D01*
X577500Y440681D02*
Y443319D01*
X576181Y442000D02*
X578819D01*
X572126Y433882D02*
Y439118D01*
X582874D01*
Y433882D02*
Y439118D01*
X572126Y433882D02*
X582874D01*
X577500Y435181D02*
Y437819D01*
X576181Y436500D02*
X578819D01*
X597374Y439382D02*
Y444618D01*
X586626Y439382D02*
X597374D01*
X586626D02*
Y444618D01*
X597374D01*
X592000Y440681D02*
Y443319D01*
X590681Y442000D02*
X593319D01*
X586626Y433882D02*
Y439118D01*
X597374D01*
Y433882D02*
Y439118D01*
X586626Y433882D02*
X597374D01*
X592000Y435181D02*
Y437819D01*
X590681Y436500D02*
X593319D01*
X611449Y439539D02*
Y444776D01*
X600701Y439539D02*
X611449D01*
X600701D02*
Y444776D01*
X611449D01*
X606075Y440839D02*
Y443476D01*
X604756Y442158D02*
X607394D01*
X600701Y433882D02*
Y439118D01*
X611449D01*
Y433882D02*
Y439118D01*
X600701Y433882D02*
X611449D01*
X606075Y435181D02*
Y437819D01*
X604756Y436500D02*
X607394D01*
M02*
