G04*
G04 #@! TF.GenerationSoftware,Altium Limited,Altium Designer,18.1.5 (160)*
G04*
G04 Layer_Color=65535*
%FSLAX25Y25*%
%MOIN*%
G70*
G01*
G75*
%ADD10C,0.00787*%
%ADD11C,0.00598*%
%ADD12C,0.00472*%
%ADD13C,0.01000*%
D10*
X554343Y478579D02*
G03*
X554343Y478579I-9843J0D01*
G01*
X640842Y450579D02*
G03*
X640842Y450579I-9843J0D01*
G01*
X660000Y415500D02*
Y425500D01*
X620000Y415500D02*
X660000D01*
X620000Y425500D02*
X660000D01*
X620000Y415500D02*
Y425500D01*
X502500Y494500D02*
X532500D01*
X502500Y484500D02*
Y494500D01*
Y484500D02*
X532500D01*
Y494500D01*
X678740Y459342D02*
X681496D01*
X669291D02*
X671260D01*
X663779Y451862D02*
Y453043D01*
Y436508D02*
Y437689D01*
X669291Y430209D02*
X671260D01*
X678740D02*
X681496D01*
Y459342D01*
Y430209D02*
X685827D01*
Y459342D01*
X681496D02*
X685827D01*
X539100Y480057D02*
Y484058D01*
X537200Y482158D02*
X541200D01*
X638575Y305500D02*
Y315500D01*
X678575D01*
X638575Y305500D02*
X678575D01*
Y315500D01*
X625600Y452058D02*
Y456058D01*
X623700Y454157D02*
X627700D01*
X621500Y327953D02*
X681500D01*
X621500Y317953D02*
X681500D01*
Y327953D01*
X621500Y317953D02*
Y327953D01*
X684000Y393000D02*
Y413000D01*
X674000D02*
X684000D01*
X674000Y393000D02*
Y413000D01*
Y393000D02*
X684000D01*
X531047Y386854D02*
Y432327D01*
X511953Y386854D02*
Y432327D01*
X527406D02*
X531047D01*
X511953D02*
X515594D01*
X511953Y386854D02*
X515594D01*
X527406D02*
X531047D01*
X542000Y445500D02*
Y455500D01*
X562000D01*
Y445500D02*
Y455500D01*
X542000Y445500D02*
X562000D01*
X565500D02*
Y455500D01*
X605500D01*
X565500Y445500D02*
X605500D01*
Y455500D01*
X520000Y346500D02*
X530000D01*
Y306500D02*
Y346500D01*
X520000Y306500D02*
Y346500D01*
Y306500D02*
X530000D01*
X504500Y455461D02*
X534500D01*
X504500Y445461D02*
Y455461D01*
Y445461D02*
X534500D01*
Y455461D01*
D11*
X619941Y475161D02*
X625059D01*
X619941D02*
Y478902D01*
Y486839D02*
X625059D01*
X619941Y483098D02*
Y486839D01*
X636205Y488890D02*
X641598D01*
X636205Y475110D02*
Y488890D01*
Y475110D02*
X637130D01*
X656402Y488890D02*
X661795D01*
Y475110D02*
Y488890D01*
X660870Y475110D02*
X661795D01*
X605555Y470480D02*
X607657D01*
X605555Y465520D02*
X607657D01*
X517449Y464980D02*
X519551D01*
X517449Y460020D02*
X519551D01*
X532449Y464980D02*
X534551D01*
X532449Y460020D02*
X534551D01*
X580980Y472949D02*
Y475051D01*
X576020Y472949D02*
Y475051D01*
X518449Y481980D02*
X520551D01*
X518449Y477020D02*
X520551D01*
X506020Y468221D02*
X510980D01*
Y473606D02*
Y475394D01*
X506020Y473606D02*
Y475394D01*
X553020Y340949D02*
Y343051D01*
X557980Y340949D02*
Y343051D01*
X540980Y326480D02*
Y328582D01*
X536020Y326480D02*
Y328582D01*
X550386Y311449D02*
Y313551D01*
X545425Y311449D02*
Y313551D01*
X566949Y313520D02*
X569051D01*
X566949Y318480D02*
X569051D01*
X576520Y309449D02*
Y311551D01*
X581480Y309449D02*
Y311551D01*
X597480Y309449D02*
Y311551D01*
X592520Y309449D02*
Y311551D01*
X589949Y318586D02*
X592051D01*
X589949Y323547D02*
X592051D01*
X607480Y328449D02*
Y330551D01*
X602520Y328449D02*
Y330551D01*
X607449Y363480D02*
X609551D01*
X607449Y358520D02*
X609551D01*
X668228Y334224D02*
Y335776D01*
X671772Y334224D02*
Y335776D01*
X678272Y334224D02*
Y335776D01*
X674728Y334224D02*
Y335776D01*
X612949Y317634D02*
X615051D01*
X612949Y322594D02*
X615051D01*
X608980Y308949D02*
Y311051D01*
X604020Y308949D02*
Y311051D01*
X627228Y333724D02*
Y335276D01*
X630772Y333724D02*
Y335276D01*
X610520Y348449D02*
Y350551D01*
X615480Y348449D02*
Y350551D01*
X620445Y348787D02*
Y350890D01*
X625406Y348787D02*
Y350890D01*
X653520Y343449D02*
Y345551D01*
X658480Y343449D02*
Y345551D01*
X646205Y343449D02*
Y345551D01*
X651165Y343449D02*
Y345551D01*
X631449Y398980D02*
X633551D01*
X631449Y394020D02*
X633551D01*
X624772Y333724D02*
Y335276D01*
X621228Y333724D02*
Y335276D01*
X676480Y352449D02*
Y354551D01*
X671520Y352449D02*
Y354551D01*
X561224Y440228D02*
X562776D01*
X561224Y443772D02*
X562776D01*
X561224Y438272D02*
X562776D01*
X561224Y434728D02*
X562776D01*
X576724Y443772D02*
X578276D01*
X576724Y440228D02*
X578276D01*
X576724Y434728D02*
X578276D01*
X576724Y438272D02*
X578276D01*
X591224Y443772D02*
X592776D01*
X591224Y440228D02*
X592776D01*
X591224Y434728D02*
X592776D01*
X591224Y438272D02*
X592776D01*
X605299Y443929D02*
X606850D01*
X605299Y440386D02*
X606850D01*
X605299Y434728D02*
X606850D01*
X605299Y438272D02*
X606850D01*
D12*
X597244Y334126D02*
Y349874D01*
X562756Y334126D02*
Y349874D01*
X576398Y495681D02*
Y497512D01*
X558681D02*
X576398D01*
X558681Y486488D02*
Y488319D01*
Y486488D02*
X576398D01*
Y488319D01*
X558681Y495681D02*
Y497512D01*
X630898Y362653D02*
Y369346D01*
X643102Y362653D02*
Y369346D01*
X567618Y417598D02*
Y419882D01*
X569902D01*
X607382Y417598D02*
Y419882D01*
X605098D02*
X607382D01*
Y380118D02*
Y382402D01*
X605098Y380118D02*
X607382D01*
X567618D02*
Y382402D01*
Y380118D02*
X569902D01*
X645653Y409602D02*
X652347D01*
X645653Y397398D02*
X652347D01*
D13*
X562900Y365498D02*
Y360500D01*
X563900Y359500D01*
X565899D01*
X566899Y360500D01*
Y365498D01*
X572897Y359500D02*
X568898D01*
X572897Y363499D01*
Y364498D01*
X571897Y365498D01*
X569898D01*
X568898Y364498D01*
X605624Y469936D02*
X604312D01*
X604968D01*
Y466656D01*
X604312Y466000D01*
X603656D01*
X603000Y466656D01*
X608904Y466000D02*
Y469936D01*
X606936Y467968D01*
X609560D01*
X631624Y398400D02*
X630312D01*
X630968D01*
Y395121D01*
X630312Y394465D01*
X629656D01*
X629000Y395121D01*
X632936Y397744D02*
X633592Y398400D01*
X634904D01*
X635560Y397744D01*
Y397088D01*
X634904Y396432D01*
X634248D01*
X634904D01*
X635560Y395777D01*
Y395121D01*
X634904Y394465D01*
X633592D01*
X632936Y395121D01*
X620500Y427000D02*
Y432998D01*
X623499D01*
X624499Y431998D01*
Y429999D01*
X623499Y428999D01*
X620500D01*
X629497Y427000D02*
Y432998D01*
X626498Y429999D01*
X630497D01*
X562500Y432998D02*
X566499Y429000D01*
X562500D02*
X566499Y432998D01*
X562500Y430999D02*
X566499D01*
X564499Y429000D02*
Y432998D01*
X541575Y350936D02*
Y347000D01*
X544199D01*
X547478D02*
Y350936D01*
X545510Y348968D01*
X548134D01*
X526075Y352936D02*
Y349000D01*
X528699D01*
X530011Y352280D02*
X530666Y352936D01*
X531978D01*
X532634Y352280D01*
Y351624D01*
X531978Y350968D01*
X531322D01*
X531978D01*
X532634Y350312D01*
Y349656D01*
X531978Y349000D01*
X530666D01*
X530011Y349656D01*
X524064Y363000D02*
X528000D01*
Y365624D01*
Y366936D02*
Y368248D01*
Y367592D01*
X524064D01*
X524720Y366936D01*
X514002Y405500D02*
X515002D01*
X517001Y407499D01*
X515002Y409499D01*
X514002D01*
X517001Y407499D02*
X520000D01*
Y411498D02*
Y413497D01*
Y412498D01*
X514002D01*
X515002Y411498D01*
X665000Y497498D02*
Y492500D01*
X666000Y491500D01*
X667999D01*
X668999Y492500D01*
Y497498D01*
X670998Y491500D02*
X672997D01*
X671998D01*
Y497498D01*
X670998Y496498D01*
X671000Y329000D02*
X667064D01*
Y330968D01*
X667720Y331624D01*
X669032D01*
X669688Y330968D01*
Y329000D01*
Y330312D02*
X671000Y331624D01*
Y332936D02*
Y334248D01*
Y333592D01*
X667064D01*
X667720Y332936D01*
Y336215D02*
X667064Y336872D01*
Y338183D01*
X667720Y338839D01*
X670344D01*
X671000Y338183D01*
Y336872D01*
X670344Y336215D01*
X667720D01*
X681500Y331370D02*
X677564D01*
Y333338D01*
X678220Y333994D01*
X679532D01*
X680188Y333338D01*
Y331370D01*
Y332682D02*
X681500Y333994D01*
X680844Y335306D02*
X681500Y335962D01*
Y337274D01*
X680844Y337930D01*
X678220D01*
X677564Y337274D01*
Y335962D01*
X678220Y335306D01*
X678876D01*
X679532Y335962D01*
Y337930D01*
X631500Y330000D02*
X627564D01*
Y331968D01*
X628220Y332624D01*
X629532D01*
X630188Y331968D01*
Y330000D01*
Y331312D02*
X631500Y332624D01*
Y333936D02*
Y335248D01*
Y334592D01*
X627564D01*
X628220Y333936D01*
X627564Y339839D02*
X628220Y338527D01*
X629532Y337215D01*
X630844D01*
X631500Y337872D01*
Y339183D01*
X630844Y339839D01*
X630188D01*
X629532Y339183D01*
Y337215D01*
X625000Y330000D02*
X621064D01*
Y331968D01*
X621720Y332624D01*
X623032D01*
X623688Y331968D01*
Y330000D01*
Y331312D02*
X625000Y332624D01*
Y333936D02*
Y335248D01*
Y334592D01*
X621064D01*
X621720Y333936D01*
X621064Y339839D02*
Y337215D01*
X623032D01*
X622376Y338527D01*
Y339183D01*
X623032Y339839D01*
X624344D01*
X625000Y339183D01*
Y337872D01*
X624344Y337215D01*
X609205Y318000D02*
Y321936D01*
X611173D01*
X611829Y321280D01*
Y319968D01*
X611173Y319312D01*
X609205D01*
X610517D02*
X611829Y318000D01*
X613140D02*
X614452D01*
X613796D01*
Y321936D01*
X613140Y321280D01*
X616420Y321936D02*
X619044D01*
Y321280D01*
X616420Y318656D01*
Y318000D01*
X586834Y319000D02*
Y322936D01*
X588802D01*
X589458Y322280D01*
Y320968D01*
X588802Y320312D01*
X586834D01*
X588146D02*
X589458Y319000D01*
X590770D02*
X592082D01*
X591426D01*
Y322936D01*
X590770Y322280D01*
X594050D02*
X594705Y322936D01*
X596017D01*
X596673Y322280D01*
Y321624D01*
X596017Y320968D01*
X596673Y320312D01*
Y319656D01*
X596017Y319000D01*
X594705D01*
X594050Y319656D01*
Y320312D01*
X594705Y320968D01*
X594050Y321624D01*
Y322280D01*
X594705Y320968D02*
X596017D01*
X615000Y345000D02*
X611064D01*
Y346968D01*
X611720Y347624D01*
X613032D01*
X613688Y346968D01*
Y345000D01*
Y346312D02*
X615000Y347624D01*
Y348936D02*
Y350248D01*
Y349592D01*
X611064D01*
X611720Y348936D01*
X614344Y352216D02*
X615000Y352871D01*
Y354183D01*
X614344Y354839D01*
X611720D01*
X611064Y354183D01*
Y352871D01*
X611720Y352216D01*
X612376D01*
X613032Y352871D01*
Y354839D01*
X625000Y345000D02*
X621064D01*
Y346968D01*
X621720Y347624D01*
X623032D01*
X623688Y346968D01*
Y345000D01*
Y346312D02*
X625000Y347624D01*
Y351560D02*
Y348936D01*
X622376Y351560D01*
X621720D01*
X621064Y350904D01*
Y349592D01*
X621720Y348936D01*
Y352871D02*
X621064Y353527D01*
Y354839D01*
X621720Y355495D01*
X624344D01*
X625000Y354839D01*
Y353527D01*
X624344Y352871D01*
X621720D01*
X675500Y349500D02*
X671564D01*
Y351468D01*
X672220Y352124D01*
X673532D01*
X674188Y351468D01*
Y349500D01*
Y350812D02*
X675500Y352124D01*
Y353436D02*
Y354748D01*
Y354092D01*
X671564D01*
X672220Y353436D01*
X675500Y356715D02*
Y358027D01*
Y357371D01*
X671564D01*
X672220Y356715D01*
X563000Y314110D02*
Y318046D01*
X564968D01*
X565624Y317390D01*
Y316078D01*
X564968Y315422D01*
X563000D01*
X564312D02*
X565624Y314110D01*
X566936D02*
X568248D01*
X567592D01*
Y318046D01*
X566936Y317390D01*
X572839Y314110D02*
X570216D01*
X572839Y316734D01*
Y317390D01*
X572183Y318046D01*
X570871D01*
X570216Y317390D01*
X650500Y339500D02*
X646564D01*
Y341468D01*
X647220Y342124D01*
X648532D01*
X649188Y341468D01*
Y339500D01*
Y340812D02*
X650500Y342124D01*
Y343436D02*
Y344748D01*
Y344092D01*
X646564D01*
X647220Y343436D01*
Y346715D02*
X646564Y347372D01*
Y348683D01*
X647220Y349339D01*
X647876D01*
X648532Y348683D01*
Y348027D01*
Y348683D01*
X649188Y349339D01*
X649844D01*
X650500Y348683D01*
Y347372D01*
X649844Y346715D01*
X658016Y339500D02*
X654080D01*
Y341468D01*
X654736Y342124D01*
X656048D01*
X656704Y341468D01*
Y339500D01*
Y340812D02*
X658016Y342124D01*
Y343436D02*
Y344748D01*
Y344092D01*
X654080D01*
X654736Y343436D01*
X658016Y348683D02*
X654080D01*
X656048Y346715D01*
Y349339D01*
X557500Y338339D02*
X553564D01*
Y340306D01*
X554220Y340962D01*
X555532D01*
X556188Y340306D01*
Y338339D01*
Y339651D02*
X557500Y340962D01*
X554220Y342274D02*
X553564Y342930D01*
Y344242D01*
X554220Y344898D01*
X554876D01*
X555532Y344242D01*
X556188Y344898D01*
X556844D01*
X557500Y344242D01*
Y342930D01*
X556844Y342274D01*
X556188D01*
X555532Y342930D01*
X554876Y342274D01*
X554220D01*
X555532Y342930D02*
Y344242D01*
X606000Y359500D02*
Y363436D01*
X607968D01*
X608624Y362780D01*
Y361468D01*
X607968Y360812D01*
X606000D01*
X607312D02*
X608624Y359500D01*
X609936D02*
X611248D01*
X610592D01*
Y363436D01*
X609936Y362780D01*
X596839Y306839D02*
X592903D01*
Y308806D01*
X593559Y309462D01*
X594871D01*
X595527Y308806D01*
Y306839D01*
Y308151D02*
X596839Y309462D01*
X592903Y313398D02*
Y310774D01*
X594871D01*
X594215Y312086D01*
Y312742D01*
X594871Y313398D01*
X596183D01*
X596839Y312742D01*
Y311430D01*
X596183Y310774D01*
X581000Y307075D02*
X577064D01*
Y309043D01*
X577720Y309699D01*
X579032D01*
X579688Y309043D01*
Y307075D01*
Y308387D02*
X581000Y309699D01*
Y312978D02*
X577064D01*
X579032Y311011D01*
Y313634D01*
X607000Y326000D02*
X603064D01*
Y327968D01*
X603720Y328624D01*
X605032D01*
X605688Y327968D01*
Y326000D01*
Y327312D02*
X607000Y328624D01*
X603720Y329936D02*
X603064Y330592D01*
Y331904D01*
X603720Y332560D01*
X604376D01*
X605032Y331904D01*
Y331248D01*
Y331904D01*
X605688Y332560D01*
X606344D01*
X607000Y331904D01*
Y330592D01*
X606344Y329936D01*
X540500Y324000D02*
X536564D01*
Y325968D01*
X537220Y326624D01*
X538532D01*
X539188Y325968D01*
Y324000D01*
Y325312D02*
X540500Y326624D01*
X536564Y330560D02*
X537220Y329248D01*
X538532Y327936D01*
X539844D01*
X540500Y328592D01*
Y329904D01*
X539844Y330560D01*
X539188D01*
X538532Y329904D01*
Y327936D01*
X550000Y308839D02*
X546064D01*
Y310806D01*
X546720Y311462D01*
X548032D01*
X548688Y310806D01*
Y308839D01*
Y310151D02*
X550000Y311462D01*
X546064Y312774D02*
Y315398D01*
X546720D01*
X549344Y312774D01*
X550000D01*
X608500Y306339D02*
X604564D01*
Y308306D01*
X605220Y308962D01*
X606532D01*
X607188Y308306D01*
Y306339D01*
Y307650D02*
X608500Y308962D01*
Y312898D02*
Y310274D01*
X605876Y312898D01*
X605220D01*
X604564Y312242D01*
Y310930D01*
X605220Y310274D01*
X580500Y469075D02*
X576564D01*
Y471043D01*
X577220Y471699D01*
X578532D01*
X579188Y471043D01*
Y469075D01*
Y470387D02*
X580500Y471699D01*
X577220Y473010D02*
X576564Y473666D01*
Y474978D01*
X577220Y475634D01*
X577876D01*
X578532Y474978D01*
Y474323D01*
Y474978D01*
X579188Y475634D01*
X579844D01*
X580500Y474978D01*
Y473666D01*
X579844Y473010D01*
X580500Y476946D02*
Y478258D01*
Y477602D01*
X576564D01*
X577220Y476946D01*
X514839Y477500D02*
Y481436D01*
X516807D01*
X517462Y480780D01*
Y479468D01*
X516807Y478812D01*
X514839D01*
X516151D02*
X517462Y477500D01*
X518774Y480780D02*
X519430Y481436D01*
X520742D01*
X521398Y480780D01*
Y480124D01*
X520742Y479468D01*
X520086D01*
X520742D01*
X521398Y478812D01*
Y478156D01*
X520742Y477500D01*
X519430D01*
X518774Y478156D01*
X522710Y480780D02*
X523366Y481436D01*
X524678D01*
X525334Y480780D01*
Y478156D01*
X524678Y477500D01*
X523366D01*
X522710Y478156D01*
Y480780D01*
X528500Y460000D02*
Y463936D01*
X530468D01*
X531124Y463280D01*
Y461968D01*
X530468Y461312D01*
X528500D01*
X529812D02*
X531124Y460000D01*
X532436Y463280D02*
X533092Y463936D01*
X534404D01*
X535060Y463280D01*
Y462624D01*
X534404Y461968D01*
X533748D01*
X534404D01*
X535060Y461312D01*
Y460656D01*
X534404Y460000D01*
X533092D01*
X532436Y460656D01*
X538995Y460000D02*
X536372D01*
X538995Y462624D01*
Y463280D01*
X538339Y463936D01*
X537027D01*
X536372Y463280D01*
X514000Y460000D02*
Y463936D01*
X515968D01*
X516624Y463280D01*
Y461968D01*
X515968Y461312D01*
X514000D01*
X515312D02*
X516624Y460000D01*
X520560D02*
X517936D01*
X520560Y462624D01*
Y463280D01*
X519904Y463936D01*
X518592D01*
X517936Y463280D01*
X521872Y460656D02*
X522527Y460000D01*
X523839D01*
X524495Y460656D01*
Y463280D01*
X523839Y463936D01*
X522527D01*
X521872Y463280D01*
Y462624D01*
X522527Y461968D01*
X524495D01*
X624499Y489500D02*
Y493498D01*
X623499Y494498D01*
X621500D01*
X620500Y493498D01*
Y489500D01*
X621500Y488500D01*
X623499D01*
X622499Y490499D02*
X624499Y488500D01*
X623499D02*
X624499Y489500D01*
X626498Y488500D02*
X628497D01*
X627498D01*
Y494498D01*
X626498Y493498D01*
X535500Y492500D02*
Y498498D01*
X538499D01*
X539499Y497498D01*
Y495499D01*
X538499Y494499D01*
X535500D01*
X541498Y492500D02*
X543497D01*
X542498D01*
Y498498D01*
X541498Y497498D01*
X546496Y492500D02*
X548496D01*
X547496D01*
Y498498D01*
X546496Y497498D01*
X674600Y416400D02*
Y422398D01*
X677599D01*
X678599Y421398D01*
Y419399D01*
X677599Y418399D01*
X674600D01*
X680598Y421398D02*
X681598Y422398D01*
X683597D01*
X684597Y421398D01*
Y420399D01*
X683597Y419399D01*
X684597Y418399D01*
Y417400D01*
X683597Y416400D01*
X681598D01*
X680598Y417400D01*
Y418399D01*
X681598Y419399D01*
X680598Y420399D01*
Y421398D01*
X681598Y419399D02*
X683597D01*
X549500Y457000D02*
Y462998D01*
X552499D01*
X553499Y461998D01*
Y459999D01*
X552499Y458999D01*
X549500D01*
X555498Y462998D02*
X559497D01*
Y461998D01*
X555498Y458000D01*
Y457000D01*
X618000Y325500D02*
X612002D01*
Y328499D01*
X613002Y329499D01*
X615001D01*
X616001Y328499D01*
Y325500D01*
X612002Y335497D02*
X613002Y333497D01*
X615001Y331498D01*
X617000D01*
X618000Y332498D01*
Y334497D01*
X617000Y335497D01*
X616001D01*
X615001Y334497D01*
Y331498D01*
X516000Y310500D02*
X510002D01*
Y313499D01*
X511002Y314499D01*
X513001D01*
X514001Y313499D01*
Y310500D01*
X510002Y320497D02*
Y316498D01*
X513001D01*
X512001Y318497D01*
Y319497D01*
X513001Y320497D01*
X515000D01*
X516000Y319497D01*
Y317498D01*
X515000Y316498D01*
X582500Y458000D02*
Y463998D01*
X585499D01*
X586499Y462998D01*
Y460999D01*
X585499Y459999D01*
X582500D01*
X588498Y462998D02*
X589498Y463998D01*
X591497D01*
X592497Y462998D01*
Y461999D01*
X591497Y460999D01*
X590497D01*
X591497D01*
X592497Y459999D01*
Y459000D01*
X591497Y458000D01*
X589498D01*
X588498Y459000D01*
X636500Y307500D02*
X630502D01*
Y310499D01*
X631502Y311499D01*
X633501D01*
X634501Y310499D01*
Y307500D01*
X636500Y313498D02*
Y315497D01*
Y314498D01*
X630502D01*
X631502Y313498D01*
X504000Y443000D02*
X509998D01*
Y440001D01*
X508998Y439001D01*
X506999D01*
X505999Y440001D01*
Y443000D01*
X508998Y437002D02*
X509998Y436002D01*
Y434003D01*
X508998Y433003D01*
X505000D01*
X504000Y434003D01*
Y436002D01*
X505000Y437002D01*
X508998D01*
X584140Y472500D02*
X590138D01*
Y476499D01*
Y482497D02*
Y478498D01*
X586139Y482497D01*
X585139D01*
X584140Y481497D01*
Y479498D01*
X585139Y478498D01*
X667499Y468998D02*
X665499D01*
X666499D01*
Y464000D01*
X665499Y463000D01*
X664500D01*
X663500Y464000D01*
X669498Y463000D02*
X671497D01*
X670498D01*
Y468998D01*
X669498Y467998D01*
X645500Y374829D02*
X647499D01*
X646500D01*
Y368831D01*
X645500D01*
X647499D01*
X654497Y373829D02*
X653497Y374829D01*
X651498D01*
X650498Y373829D01*
Y369830D01*
X651498Y368831D01*
X653497D01*
X654497Y369830D01*
X656496Y368831D02*
X658496D01*
X657496D01*
Y374829D01*
X656496Y373829D01*
X647000Y394998D02*
X648999D01*
X648000D01*
Y389000D01*
X647000D01*
X648999D01*
X655997Y393998D02*
X654997Y394998D01*
X652998D01*
X651998Y393998D01*
Y390000D01*
X652998Y389000D01*
X654997D01*
X655997Y390000D01*
X661995Y389000D02*
X657996D01*
X661995Y392999D01*
Y393998D01*
X660995Y394998D01*
X658996D01*
X657996Y393998D01*
X506490Y470917D02*
X510425D01*
Y472885D01*
X509769Y473541D01*
X507145D01*
X506490Y472885D01*
Y470917D01*
X510425Y477477D02*
Y474853D01*
X507801Y477477D01*
X507145D01*
X506490Y476821D01*
Y475509D01*
X507145Y474853D01*
X580500Y499758D02*
Y493760D01*
X583499D01*
X584499Y494760D01*
Y498758D01*
X583499Y499758D01*
X580500D01*
X586498Y493760D02*
X588497D01*
X587498D01*
Y499758D01*
X586498Y498758D01*
X640124Y333780D02*
X639468Y334436D01*
X638156D01*
X637500Y333780D01*
Y331156D01*
X638156Y330500D01*
X639468D01*
X640124Y331156D01*
X644060Y334436D02*
X641436D01*
Y332468D01*
X642748Y333124D01*
X643404D01*
X644060Y332468D01*
Y331156D01*
X643404Y330500D01*
X642092D01*
X641436Y331156D01*
X657861Y334998D02*
X656861Y335998D01*
X654862D01*
X653862Y334998D01*
Y331000D01*
X654862Y330000D01*
X656861D01*
X657861Y331000D01*
X662859Y330000D02*
Y335998D01*
X659860Y332999D01*
X663859D01*
X585720Y309718D02*
X585064Y309062D01*
Y307751D01*
X585720Y307095D01*
X588344D01*
X589000Y307751D01*
Y309062D01*
X588344Y309718D01*
X589000Y313654D02*
Y311030D01*
X586376Y313654D01*
X585720D01*
X585064Y312998D01*
Y311686D01*
X585720Y311030D01*
X536220Y311124D02*
X535564Y310468D01*
Y309156D01*
X536220Y308500D01*
X538844D01*
X539500Y309156D01*
Y310468D01*
X538844Y311124D01*
X536220Y312436D02*
X535564Y313092D01*
Y314404D01*
X536220Y315060D01*
X536876D01*
X537532Y314404D01*
Y313748D01*
Y314404D01*
X538188Y315060D01*
X538844D01*
X539500Y314404D01*
Y313092D01*
X538844Y312436D01*
X620994Y312780D02*
X620338Y313436D01*
X619026D01*
X618370Y312780D01*
Y310156D01*
X619026Y309500D01*
X620338D01*
X620994Y310156D01*
X622306Y309500D02*
X623618D01*
X622962D01*
Y313436D01*
X622306Y312780D01*
X547780Y400526D02*
X548436Y401182D01*
Y402494D01*
X547780Y403150D01*
X545156D01*
X544500Y402494D01*
Y401182D01*
X545156Y400526D01*
X544500Y399214D02*
Y397902D01*
Y398558D01*
X548436D01*
X547780Y399214D01*
X548436Y393310D02*
Y395934D01*
X546468D01*
X547124Y394622D01*
Y393966D01*
X546468Y393310D01*
X545156D01*
X544500Y393966D01*
Y395278D01*
X545156Y395934D01*
X548280Y417876D02*
X548936Y418532D01*
Y419844D01*
X548280Y420500D01*
X545656D01*
X545000Y419844D01*
Y418532D01*
X545656Y417876D01*
X545000Y416564D02*
Y415252D01*
Y415908D01*
X548936D01*
X548280Y416564D01*
X545000Y411317D02*
X548936D01*
X546968Y413284D01*
Y410661D01*
X648220Y451199D02*
X647564Y450543D01*
Y449231D01*
X648220Y448575D01*
X650844D01*
X651500Y449231D01*
Y450543D01*
X650844Y451199D01*
X651500Y452510D02*
Y453823D01*
Y453166D01*
X647564D01*
X648220Y452510D01*
Y455790D02*
X647564Y456446D01*
Y457758D01*
X648220Y458414D01*
X648876D01*
X649532Y457758D01*
Y457102D01*
Y457758D01*
X650188Y458414D01*
X650844D01*
X651500Y457758D01*
Y456446D01*
X650844Y455790D01*
X569624Y464780D02*
X568968Y465436D01*
X567656D01*
X567000Y464780D01*
Y462156D01*
X567656Y461500D01*
X568968D01*
X569624Y462156D01*
X570936Y461500D02*
X572248D01*
X571592D01*
Y465436D01*
X570936Y464780D01*
X576839Y461500D02*
X574216D01*
X576839Y464124D01*
Y464780D01*
X576183Y465436D01*
X574871D01*
X574216Y464780D01*
X627720Y406624D02*
X627064Y405968D01*
Y404656D01*
X627720Y404000D01*
X630344D01*
X631000Y404656D01*
Y405968D01*
X630344Y406624D01*
X631000Y407936D02*
Y409248D01*
Y408592D01*
X627064D01*
X627720Y407936D01*
X631000Y411215D02*
Y412527D01*
Y411871D01*
X627064D01*
X627720Y411215D01*
X675124Y475780D02*
X674468Y476436D01*
X673156D01*
X672500Y475780D01*
Y473156D01*
X673156Y472500D01*
X674468D01*
X675124Y473156D01*
X676436Y472500D02*
X677748D01*
X677092D01*
Y476436D01*
X676436Y475780D01*
X679715D02*
X680372Y476436D01*
X681683D01*
X682339Y475780D01*
Y473156D01*
X681683Y472500D01*
X680372D01*
X679715Y473156D01*
Y475780D01*
X568720Y471750D02*
X568064Y471094D01*
Y469782D01*
X568720Y469126D01*
X571344D01*
X572000Y469782D01*
Y471094D01*
X571344Y471750D01*
X572000Y475686D02*
Y473062D01*
X569376Y475686D01*
X568720D01*
X568064Y475030D01*
Y473718D01*
X568720Y473062D01*
X572000Y476998D02*
Y478309D01*
Y477653D01*
X568064D01*
X568720Y476998D01*
X542124Y340280D02*
X541468Y340936D01*
X540156D01*
X539500Y340280D01*
Y337656D01*
X540156Y337000D01*
X541468D01*
X542124Y337656D01*
X546060Y337000D02*
X543436D01*
X546060Y339624D01*
Y340280D01*
X545404Y340936D01*
X544092D01*
X543436Y340280D01*
X547371D02*
X548027Y340936D01*
X549339D01*
X549995Y340280D01*
Y337656D01*
X549339Y337000D01*
X548027D01*
X547371Y337656D01*
Y340280D01*
X517445Y354876D02*
X518101Y355532D01*
Y356844D01*
X517445Y357500D01*
X514821D01*
X514165Y356844D01*
Y355532D01*
X514821Y354876D01*
X514165Y353564D02*
Y352252D01*
Y352908D01*
X518101D01*
X517445Y353564D01*
X514821Y350285D02*
X514165Y349628D01*
Y348317D01*
X514821Y347661D01*
X517445D01*
X518101Y348317D01*
Y349628D01*
X517445Y350285D01*
X516789D01*
X516133Y349628D01*
Y347661D01*
X625799Y468856D02*
X624799Y469855D01*
X622800D01*
X621800Y468856D01*
Y464857D01*
X622800Y463858D01*
X624799D01*
X625799Y464857D01*
X627798Y463858D02*
X629797D01*
X628798D01*
Y469855D01*
X627798Y468856D01*
X636795Y469855D02*
X634796Y468856D01*
X632796Y466856D01*
Y464857D01*
X633796Y463858D01*
X635795D01*
X636795Y464857D01*
Y465857D01*
X635795Y466856D01*
X632796D01*
X557002Y472609D02*
X556002Y471609D01*
Y469610D01*
X557002Y468610D01*
X561000D01*
X562000Y469610D01*
Y471609D01*
X561000Y472609D01*
X562000Y474608D02*
Y476608D01*
Y475608D01*
X556002D01*
X557002Y474608D01*
X556002Y479607D02*
Y483605D01*
X557002D01*
X561000Y479607D01*
X562000D01*
X615519Y452494D02*
X614863Y451838D01*
Y450526D01*
X615519Y449870D01*
X618143D01*
X618799Y450526D01*
Y451838D01*
X618143Y452494D01*
X618799Y453806D02*
Y455118D01*
Y454462D01*
X614863D01*
X615519Y453806D01*
Y457086D02*
X614863Y457742D01*
Y459054D01*
X615519Y459709D01*
X616175D01*
X616831Y459054D01*
X617487Y459709D01*
X618143D01*
X618799Y459054D01*
Y457742D01*
X618143Y457086D01*
X617487D01*
X616831Y457742D01*
X616175Y457086D01*
X615519D01*
X616831Y457742D02*
Y459054D01*
X514645Y364624D02*
X513989Y363968D01*
Y362656D01*
X514645Y362000D01*
X517269D01*
X517925Y362656D01*
Y363968D01*
X517269Y364624D01*
X513989Y368560D02*
X514645Y367248D01*
X515957Y365936D01*
X517269D01*
X517925Y366592D01*
Y367904D01*
X517269Y368560D01*
X516613D01*
X515957Y367904D01*
Y365936D01*
X552771Y363199D02*
X552115Y362543D01*
Y361231D01*
X552771Y360575D01*
X555395D01*
X556051Y361231D01*
Y362543D01*
X555395Y363199D01*
Y364510D02*
X556051Y365166D01*
Y366478D01*
X555395Y367134D01*
X552771D01*
X552115Y366478D01*
Y365166D01*
X552771Y364510D01*
X553427D01*
X554083Y365166D01*
Y367134D01*
X534220Y363624D02*
X533564Y362968D01*
Y361656D01*
X534220Y361000D01*
X536844D01*
X537500Y361656D01*
Y362968D01*
X536844Y363624D01*
X534220Y364936D02*
X533564Y365592D01*
Y366904D01*
X534220Y367560D01*
X534876D01*
X535532Y366904D01*
X536188Y367560D01*
X536844D01*
X537500Y366904D01*
Y365592D01*
X536844Y364936D01*
X536188D01*
X535532Y365592D01*
X534876Y364936D01*
X534220D01*
X535532Y365592D02*
Y366904D01*
X544720Y362773D02*
X544064Y362118D01*
Y360806D01*
X544720Y360150D01*
X547344D01*
X548000Y360806D01*
Y362118D01*
X547344Y362773D01*
X544064Y364085D02*
Y366709D01*
X544720D01*
X547344Y364085D01*
X548000D01*
M02*
