M48
;DRILL file {KiCad (2015-08-05 BZR 6055, Git fa29c62)-product} date 02/02/2016 11:58:21 AM
;FORMAT={2:4/ absolute / inch / keep zeros}
FMAT,2
INCH,TZ
T1C0.016
T2C0.020
T3C0.022
T4C0.031
T5C0.032
T6C0.039
T7C0.040
T8C0.050
%
G90
G05
M72
T1
X027880Y-058000
X028010Y-055760
X028175Y-055175
X028220Y-058970
X028275Y-053150
X028280Y-053520
X028375Y-050100
X028790Y-058430
X029150Y-053950
X029270Y-057780
X029420Y-057060
X029480Y-054860
X029600Y-055950
X029675Y-049650
X030040Y-056960
X030290Y-056280
X030380Y-057250
X030730Y-058150
X030920Y-057730
X031080Y-056580
X031080Y-057370
X031300Y-055340
X031370Y-057080
X031550Y-055580
X031580Y-050140
X031640Y-051920
X031650Y-059450
X031680Y-050680
X031840Y-055770
X031960Y-049420
X031980Y-056800
X032140Y-055660
X032220Y-053140
X032330Y-058270
X032425Y-048600
X032450Y-053400
X032575Y-050000
X032625Y-057650
X032650Y-053700
X032675Y-052500
X032700Y-055540
X032720Y-055190
X032825Y-057400
X032840Y-056540
X033025Y-054275
X033230Y-059050
X033240Y-054020
X033400Y-048900
X033880Y-057180
X033910Y-056050
X033980Y-056560
X034150Y-049700
X034150Y-052525
X034260Y-055900
X034520Y-055640
X034720Y-055100
X034825Y-053350
X035060Y-054520
X035240Y-055360
X035440Y-049060
X035580Y-054360
X035650Y-053675
X035750Y-047875
X035750Y-053350
X035975Y-049100
X036320Y-056840
X036450Y-053725
X037020Y-055830
X037325Y-054225
X037860Y-049370
T4
X029075Y-048925
X030059Y-048925
X036725Y-050075
X037325Y-057091
X037325Y-058075
X037709Y-050075
T5
X025775Y-049300
X027775Y-049300
T6
X029825Y-047026
T7
X026000Y-051500
X026000Y-052500
X026000Y-053500
X026000Y-054500
X026000Y-055500
X026000Y-056500
X026000Y-057500
X026000Y-058500
X029000Y-051000
X029000Y-052000
X030000Y-051000
X030000Y-052000
X030950Y-047000
X031950Y-047000
X032950Y-047000
X034475Y-058000
X034475Y-059000
X035450Y-049725
X035450Y-050725
X035450Y-051725
X035450Y-052725
X035475Y-058000
X035475Y-059000
X035925Y-054950
X035925Y-055950
T8
X025825Y-047026
T2
X034097Y-047324G85X034097Y-047580
G05
X036853Y-047324G85X036853Y-047580
G05
T3
X034550Y-048515G85X034432Y-048515
G05
X036519Y-048515G85X036401Y-048515
G05
T0
M30
