G04 #@! TF.FileFunction,Copper,L2,Bot,Signal*
%FSLAX46Y46*%
G04 Gerber Fmt 4.6, Leading zero omitted, Abs format (unit mm)*
G04 Created by KiCad (PCBNEW 4.0.4-stable) date 01/19/17 12:55:29*
%MOMM*%
%LPD*%
G01*
G04 APERTURE LIST*
%ADD10C,0.100000*%
%ADD11O,0.950000X1.400000*%
%ADD12O,1.550000X1.200000*%
%ADD13R,1.727200X2.032000*%
%ADD14O,1.727200X2.032000*%
%ADD15R,2.032000X1.727200*%
%ADD16O,2.032000X1.727200*%
%ADD17R,1.727200X1.727200*%
%ADD18O,1.727200X1.727200*%
%ADD19R,2.032000X2.032000*%
%ADD20O,2.032000X2.032000*%
%ADD21C,0.600000*%
%ADD22C,0.250000*%
%ADD23C,0.635000*%
%ADD24C,1.270000*%
%ADD25C,0.400000*%
G04 APERTURE END LIST*
D10*
D11*
X102132960Y-106196400D03*
X102132960Y-101196400D03*
D12*
X104832960Y-107196400D03*
X104832960Y-100196400D03*
D13*
X88328500Y-129349500D03*
D14*
X90868500Y-129349500D03*
X93408500Y-129349500D03*
X95948500Y-129349500D03*
D15*
X71120000Y-114300000D03*
D16*
X71120000Y-116840000D03*
X71120000Y-119380000D03*
X71120000Y-121920000D03*
D17*
X71120000Y-109220000D03*
D18*
X73660000Y-109220000D03*
X71120000Y-111760000D03*
X73660000Y-111760000D03*
D13*
X85788500Y-132524500D03*
D14*
X88328500Y-132524500D03*
X90868500Y-132524500D03*
X93408500Y-132524500D03*
D15*
X71120000Y-124460000D03*
D16*
X71120000Y-127000000D03*
X71120000Y-129540000D03*
X71120000Y-132080000D03*
D19*
X77470000Y-110490000D03*
D20*
X80010000Y-110490000D03*
D19*
X104470200Y-129616200D03*
D20*
X104470200Y-132156200D03*
D15*
X71069200Y-100571300D03*
D16*
X71069200Y-103111300D03*
X71069200Y-105651300D03*
D15*
X73660000Y-101600000D03*
D16*
X73660000Y-104140000D03*
X73660000Y-106680000D03*
D19*
X104597200Y-115392200D03*
D20*
X104597200Y-117932200D03*
D21*
X81229200Y-133273800D03*
X85750400Y-130962400D03*
X101041200Y-110083600D03*
X102793800Y-112090200D03*
X93421200Y-108000800D03*
X98145600Y-131419600D03*
X96062800Y-132562600D03*
X95567500Y-112585500D03*
X95504000Y-108966000D03*
X79222600Y-127762000D03*
X80289400Y-126390400D03*
X75514200Y-109474000D03*
X80060800Y-122326400D03*
X81940400Y-122021600D03*
X95199200Y-122428000D03*
X90271600Y-121843800D03*
X82626200Y-106222800D03*
X104724200Y-123215400D03*
X95885000Y-124891800D03*
X99123500Y-112268000D03*
X79946500Y-114046000D03*
X94513400Y-123723400D03*
X86817200Y-128803400D03*
X77470000Y-104648000D03*
X81534000Y-108077000D03*
X72491600Y-112826800D03*
X83693000Y-111506000D03*
X87020400Y-114071400D03*
X92900500Y-116649500D03*
X89471500Y-117157500D03*
X90614500Y-123698000D03*
X78422500Y-127381000D03*
X89344500Y-123952000D03*
X79184500Y-129603500D03*
X89154000Y-120650000D03*
X80010000Y-121285000D03*
X79883000Y-123825000D03*
X89344500Y-121666000D03*
X93662500Y-125031500D03*
X92329000Y-124015500D03*
X98310700Y-133400800D03*
X88849200Y-127355600D03*
X95326200Y-131445000D03*
X91973400Y-127355600D03*
X94818200Y-105714800D03*
X96875600Y-123215400D03*
X98145600Y-122174000D03*
X103581200Y-105410000D03*
X98171000Y-121361200D03*
X103301800Y-103657400D03*
X96075500Y-121539000D03*
X76835000Y-122618500D03*
X95948500Y-120586500D03*
X75755500Y-120142000D03*
X96964500Y-118300500D03*
X75755500Y-118046500D03*
X96139000Y-117538500D03*
X75692000Y-115506500D03*
X98679000Y-115189000D03*
X95821500Y-116332000D03*
X93827600Y-122656600D03*
X86106000Y-124841000D03*
X87122000Y-126238000D03*
X82550000Y-127190500D03*
X83921600Y-132029200D03*
X83921600Y-129895600D03*
X82981800Y-120599200D03*
X82804000Y-123088400D03*
X78206600Y-131318000D03*
X77597000Y-125399800D03*
X76327000Y-131013200D03*
X77012800Y-127355600D03*
D22*
X93408500Y-129349500D02*
X93256100Y-129349500D01*
X93256100Y-129349500D02*
X91744800Y-130860800D01*
X89839800Y-130860800D02*
X88328500Y-129349500D01*
X91744800Y-130860800D02*
X89839800Y-130860800D01*
X85788500Y-132524500D02*
X85915500Y-132524500D01*
X85915500Y-132524500D02*
X87528400Y-130911600D01*
X89052400Y-130911600D02*
X90665300Y-132524500D01*
X87528400Y-130911600D02*
X89052400Y-130911600D01*
X90665300Y-132524500D02*
X90868500Y-132524500D01*
X81229200Y-133273800D02*
X81991200Y-132892800D01*
X81991200Y-132892800D02*
X84277200Y-132892800D01*
X84277200Y-132892800D02*
X84582000Y-132588000D01*
X84582000Y-132588000D02*
X84582000Y-131216400D01*
X84582000Y-131216400D02*
X84836000Y-130962400D01*
X84836000Y-130962400D02*
X85750400Y-130962400D01*
X88328500Y-132524500D02*
X88328500Y-132676900D01*
D23*
X101041200Y-110337600D02*
X101041200Y-110083600D01*
X102793800Y-112090200D02*
X101041200Y-110337600D01*
D24*
X93040200Y-108000800D02*
X93421200Y-108000800D01*
X91135200Y-106095800D02*
X93040200Y-108000800D01*
X82753200Y-106095800D02*
X91135200Y-106095800D01*
D22*
X97383600Y-132181600D02*
X98145600Y-131419600D01*
X96697800Y-132181600D02*
X97383600Y-132181600D01*
X96062800Y-132562600D02*
X96697800Y-132181600D01*
D24*
X95567500Y-112585500D02*
X95567500Y-109029500D01*
X95567500Y-109029500D02*
X95504000Y-108966000D01*
D22*
X80035400Y-126949200D02*
X79222600Y-127762000D01*
X80035400Y-126644400D02*
X80035400Y-126949200D01*
X80289400Y-126390400D02*
X80035400Y-126644400D01*
D23*
X75514200Y-109474000D02*
X75514200Y-109118400D01*
X80010000Y-110490000D02*
X80010000Y-109829600D01*
X80010000Y-109829600D02*
X78638400Y-108458000D01*
X78638400Y-108458000D02*
X76174600Y-108458000D01*
X76174600Y-108458000D02*
X75514200Y-109118400D01*
D22*
X80010000Y-109829600D02*
X78638400Y-108458000D01*
X75514200Y-109118400D02*
X75514200Y-109474000D01*
X76174600Y-108458000D02*
X75514200Y-109118400D01*
X78638400Y-108458000D02*
X76174600Y-108458000D01*
X80060800Y-122326400D02*
X80365600Y-122021600D01*
X80365600Y-122021600D02*
X81940400Y-122021600D01*
D23*
X80010000Y-110490000D02*
X80010000Y-109728000D01*
D22*
X94640400Y-122428000D02*
X95199200Y-122428000D01*
X93878400Y-121666000D02*
X94640400Y-122428000D01*
X90449400Y-121666000D02*
X93878400Y-121666000D01*
X90271600Y-121843800D02*
X90449400Y-121666000D01*
D24*
X82626200Y-106222800D02*
X82753200Y-106095800D01*
D22*
X103022400Y-124917200D02*
X104724200Y-123215400D01*
X100660200Y-124917200D02*
X103022400Y-124917200D01*
X100406200Y-125171200D02*
X100660200Y-124917200D01*
X98374200Y-125171200D02*
X100406200Y-125171200D01*
X98094800Y-124891800D02*
X98374200Y-125171200D01*
X95885000Y-124891800D02*
X98094800Y-124891800D01*
D23*
X97980500Y-113411000D02*
X99123500Y-112268000D01*
X97028000Y-114363500D02*
X97980500Y-113411000D01*
X88138000Y-114363500D02*
X97028000Y-114363500D01*
X87312500Y-115189000D02*
X88138000Y-114363500D01*
X86360000Y-115189000D02*
X87312500Y-115189000D01*
X85852000Y-114681000D02*
X86360000Y-115189000D01*
X85407500Y-114681000D02*
X85852000Y-114681000D01*
X84772500Y-114046000D02*
X85407500Y-114681000D01*
X79946500Y-114046000D02*
X84772500Y-114046000D01*
D22*
X94386400Y-123850400D02*
X94513400Y-123723400D01*
X94157800Y-123850400D02*
X94386400Y-123850400D01*
X93573600Y-123266200D02*
X94157800Y-123850400D01*
X92049600Y-123266200D02*
X93573600Y-123266200D01*
X91617800Y-123698000D02*
X92049600Y-123266200D01*
X91617800Y-124206000D02*
X91617800Y-123698000D01*
X89103200Y-126720600D02*
X91617800Y-124206000D01*
X88519000Y-126720600D02*
X89103200Y-126720600D01*
X86918800Y-128320800D02*
X88519000Y-126720600D01*
X86918800Y-128701800D02*
X86918800Y-128320800D01*
X86817200Y-128803400D02*
X86918800Y-128701800D01*
D25*
X78105000Y-104648000D02*
X77470000Y-104648000D01*
X81534000Y-108077000D02*
X78105000Y-104648000D01*
D22*
X72491600Y-112826800D02*
X72466200Y-112801400D01*
X72466200Y-112801400D02*
X72466200Y-111099600D01*
X72466200Y-111099600D02*
X71120000Y-109753400D01*
X71120000Y-109753400D02*
X71120000Y-109220000D01*
D25*
X71120000Y-109220000D02*
X71120000Y-109474000D01*
D22*
X71069200Y-103111300D02*
X71069200Y-103428800D01*
X71069200Y-103428800D02*
X72529700Y-104889300D01*
X72529700Y-104889300D02*
X72529700Y-105270300D01*
X72529700Y-105270300D02*
X72656700Y-105397300D01*
X72656700Y-105397300D02*
X74815700Y-105397300D01*
X74815700Y-105397300D02*
X76974700Y-107556300D01*
X76974700Y-107556300D02*
X79451200Y-107556300D01*
X79451200Y-107556300D02*
X82816700Y-110921800D01*
X82816700Y-110921800D02*
X83108800Y-110921800D01*
X83108800Y-110921800D02*
X83693000Y-111506000D01*
X83693000Y-112344200D02*
X83693000Y-111506000D01*
X84302600Y-112953800D02*
X83693000Y-112344200D01*
X85852000Y-112953800D02*
X84302600Y-112953800D01*
X86766400Y-113868200D02*
X85852000Y-112953800D01*
X86817200Y-113868200D02*
X86766400Y-113868200D01*
X87020400Y-114071400D02*
X86817200Y-113868200D01*
X92202000Y-116967000D02*
X92900500Y-116649500D01*
X91630500Y-117094000D02*
X92202000Y-116967000D01*
X91567000Y-117157500D02*
X91630500Y-117094000D01*
X89471500Y-117157500D02*
X91567000Y-117157500D01*
X90106500Y-123380500D02*
X90614500Y-123698000D01*
X89154000Y-123253500D02*
X90106500Y-123380500D01*
X88519000Y-123571000D02*
X89154000Y-123253500D01*
X88392000Y-124904500D02*
X88519000Y-123571000D01*
X87693500Y-125603000D02*
X88392000Y-124904500D01*
X79819500Y-125603000D02*
X87693500Y-125603000D01*
X79756000Y-125666500D02*
X79819500Y-125603000D01*
X79756000Y-126047500D02*
X79756000Y-125666500D01*
X78422500Y-127381000D02*
X79756000Y-126047500D01*
X89281000Y-124015500D02*
X89344500Y-123952000D01*
X88773000Y-125476000D02*
X89281000Y-124015500D01*
X85725000Y-128968500D02*
X88773000Y-125476000D01*
X83502500Y-128968500D02*
X85725000Y-128968500D01*
X82804000Y-129667000D02*
X83502500Y-128968500D01*
X79248000Y-129667000D02*
X82804000Y-129667000D01*
X79184500Y-129603500D02*
X79248000Y-129667000D01*
X78930500Y-121285000D02*
X80010000Y-121285000D01*
X78359000Y-121856500D02*
X78930500Y-121285000D01*
X78359000Y-123126500D02*
X78359000Y-121856500D01*
X81089500Y-123126500D02*
X78359000Y-123126500D01*
X82042000Y-124079000D02*
X81089500Y-123126500D01*
X82804000Y-124079000D02*
X82042000Y-124079000D01*
X85725000Y-121158000D02*
X82804000Y-124079000D01*
X88646000Y-121158000D02*
X85725000Y-121158000D01*
X89154000Y-120650000D02*
X88646000Y-121158000D01*
X81153000Y-125095000D02*
X79883000Y-123825000D01*
X84137500Y-125095000D02*
X81153000Y-125095000D01*
X86804500Y-122428000D02*
X84137500Y-125095000D01*
X88582500Y-122428000D02*
X86804500Y-122428000D01*
X89344500Y-121666000D02*
X88582500Y-122428000D01*
X93662500Y-124460000D02*
X93662500Y-125031500D01*
X93281500Y-124079000D02*
X93662500Y-124460000D01*
X92456000Y-123888500D02*
X93281500Y-124079000D01*
X92329000Y-124015500D02*
X92456000Y-123888500D01*
X88849200Y-127355600D02*
X89306400Y-127812800D01*
X89306400Y-127812800D02*
X90220800Y-127812800D01*
X90220800Y-127812800D02*
X91516200Y-126517400D01*
X91516200Y-126517400D02*
X98348800Y-126517400D01*
X98348800Y-126517400D02*
X99390200Y-127558800D01*
X99390200Y-127558800D02*
X99390200Y-132410200D01*
X99390200Y-132410200D02*
X98310700Y-133400800D01*
X95326200Y-131445000D02*
X94665800Y-130784600D01*
X94665800Y-130784600D02*
X94665800Y-128473200D01*
X94665800Y-128473200D02*
X94107000Y-127914400D01*
X94107000Y-127914400D02*
X92532200Y-127914400D01*
X92532200Y-127914400D02*
X91973400Y-127355600D01*
X94818200Y-105714800D02*
X99974400Y-110794800D01*
X99974400Y-110794800D02*
X99974400Y-114884200D01*
X99974400Y-114884200D02*
X97663000Y-117195600D01*
X97663000Y-117195600D02*
X97663000Y-118973600D01*
X97663000Y-118973600D02*
X96799400Y-119837200D01*
X96799400Y-119837200D02*
X96799400Y-123139200D01*
X96799400Y-123139200D02*
X96875600Y-123215400D01*
X103301800Y-105689400D02*
X103581200Y-105410000D01*
X103301800Y-107823000D02*
X103301800Y-105689400D01*
X104241600Y-108762800D02*
X103301800Y-107823000D01*
X104241600Y-113055400D02*
X104241600Y-108762800D01*
X101549200Y-115747800D02*
X104241600Y-113055400D01*
X101549200Y-120065800D02*
X101549200Y-115747800D01*
X99415600Y-122199400D02*
X101549200Y-120065800D01*
X98171000Y-122199400D02*
X99415600Y-122199400D01*
X98145600Y-122174000D02*
X98171000Y-122199400D01*
X100431600Y-103657400D02*
X103301800Y-103657400D01*
X99923600Y-104165400D02*
X100431600Y-103657400D01*
X99923600Y-107315000D02*
X99923600Y-104165400D01*
X103708200Y-111099600D02*
X99923600Y-107315000D01*
X103708200Y-112471200D02*
X103708200Y-111099600D01*
X103530400Y-112649000D02*
X103708200Y-112471200D01*
X103225600Y-112649000D02*
X103530400Y-112649000D01*
X98145600Y-117729000D02*
X103225600Y-112649000D01*
X98145600Y-121335800D02*
X98145600Y-117729000D01*
X98171000Y-121361200D02*
X98145600Y-121335800D01*
X94551500Y-121539000D02*
X96075500Y-121539000D01*
X93027500Y-120015000D02*
X94551500Y-121539000D01*
X88519000Y-120015000D02*
X93027500Y-120015000D01*
X88011000Y-120523000D02*
X88519000Y-120015000D01*
X86042500Y-120523000D02*
X88011000Y-120523000D01*
X85344000Y-119824500D02*
X86042500Y-120523000D01*
X82550000Y-119824500D02*
X85344000Y-119824500D01*
X81788000Y-120586500D02*
X82550000Y-119824500D01*
X78613000Y-120586500D02*
X81788000Y-120586500D01*
X78232000Y-120967500D02*
X78613000Y-120586500D01*
X78232000Y-121221500D02*
X78232000Y-120967500D01*
X76835000Y-122618500D02*
X78232000Y-121221500D01*
X95758000Y-120777000D02*
X95948500Y-120586500D01*
X94932500Y-120777000D02*
X95758000Y-120777000D01*
X93535500Y-119380000D02*
X94932500Y-120777000D01*
X88265000Y-119380000D02*
X93535500Y-119380000D01*
X88011000Y-119634000D02*
X88265000Y-119380000D01*
X86296500Y-119634000D02*
X88011000Y-119634000D01*
X85788500Y-119126000D02*
X86296500Y-119634000D01*
X82169000Y-119126000D02*
X85788500Y-119126000D01*
X81407000Y-119888000D02*
X82169000Y-119126000D01*
X76009500Y-119888000D02*
X81407000Y-119888000D01*
X75755500Y-120142000D02*
X76009500Y-119888000D01*
X95631000Y-119634000D02*
X96964500Y-118300500D01*
X94678500Y-119634000D02*
X95631000Y-119634000D01*
X93535500Y-118491000D02*
X94678500Y-119634000D01*
X76200000Y-118491000D02*
X93535500Y-118491000D01*
X75755500Y-118046500D02*
X76200000Y-118491000D01*
X95885000Y-117792500D02*
X96139000Y-117538500D01*
X79375000Y-117792500D02*
X95885000Y-117792500D01*
X79057500Y-117475000D02*
X79375000Y-117792500D01*
X77660500Y-117475000D02*
X79057500Y-117475000D01*
X75692000Y-115506500D02*
X77660500Y-117475000D01*
X73660000Y-109220000D02*
X73660000Y-109283500D01*
X73660000Y-109283500D02*
X75438000Y-111061500D01*
X75438000Y-111061500D02*
X75438000Y-111760000D01*
X75438000Y-111760000D02*
X79946500Y-116268500D01*
X79946500Y-116268500D02*
X87820500Y-116268500D01*
X87820500Y-116268500D02*
X88582500Y-115506500D01*
X88582500Y-115506500D02*
X91884500Y-115506500D01*
X91884500Y-115506500D02*
X92202000Y-115189000D01*
X92202000Y-115189000D02*
X98679000Y-115189000D01*
X73660000Y-111760000D02*
X73723500Y-111760000D01*
X73723500Y-111760000D02*
X78803500Y-116840000D01*
X78803500Y-116840000D02*
X88328500Y-116840000D01*
X88328500Y-116840000D02*
X89090500Y-116078000D01*
X89090500Y-116078000D02*
X92392500Y-116078000D01*
X92392500Y-116078000D02*
X92583000Y-115887500D01*
X92583000Y-115887500D02*
X93789500Y-115887500D01*
X93789500Y-115887500D02*
X94234000Y-116332000D01*
X94234000Y-116332000D02*
X95821500Y-116332000D01*
X93827600Y-122847100D02*
X93827600Y-122656600D01*
X93281500Y-122491500D02*
X93827600Y-122847100D01*
X89155398Y-122491500D02*
X93281500Y-122491500D01*
X88706992Y-122939906D02*
X89155398Y-122491500D01*
X87943594Y-122939906D02*
X88706992Y-122939906D01*
X86296500Y-124587000D02*
X87943594Y-122939906D01*
X86296500Y-124650500D02*
X86296500Y-124587000D01*
X86106000Y-124841000D02*
X86296500Y-124650500D01*
X87058500Y-126301500D02*
X87122000Y-126238000D01*
X83439000Y-126301500D02*
X87058500Y-126301500D01*
X82550000Y-127190500D02*
X83439000Y-126301500D01*
X83921600Y-132029200D02*
X83870800Y-131978400D01*
X83870800Y-131978400D02*
X83921600Y-129895600D01*
X82981800Y-122910600D02*
X82981800Y-120599200D01*
X82804000Y-123088400D02*
X82981800Y-122910600D01*
X78206600Y-131318000D02*
X77673200Y-130784600D01*
X77673200Y-130784600D02*
X77673200Y-130639398D01*
X77673200Y-130639398D02*
X77183402Y-130149600D01*
X77183402Y-130149600D02*
X77183402Y-128099398D01*
X77183402Y-128099398D02*
X77673200Y-127609600D01*
X77673200Y-127609600D02*
X77673200Y-125476000D01*
X77673200Y-125476000D02*
X77597000Y-125399800D01*
X76327000Y-131013200D02*
X76733400Y-130606800D01*
X76733400Y-130606800D02*
X76733400Y-127635000D01*
X76733400Y-127635000D02*
X77012800Y-127355600D01*
M02*
