M48
;DRILL file {KiCad 4.0.4-stable} date 01/19/17 12:55:30
;FORMAT={-:-/ absolute / inch / decimal}
FMAT,2
INCH,TZ
T1C0.016
T2C0.022
T3C0.028
T4C0.040
%
G90
G05
M72
T1
X2.854Y-4.442
X2.973Y-4.31
X2.98Y-4.5475
X2.9825Y-4.6475
X2.9825Y-4.73
X3.005Y-5.158
X3.025Y-4.8275
X3.032Y-5.014
X3.05Y-4.12
X3.055Y-4.937
X3.079Y-5.17
X3.0875Y-5.015
X3.1175Y-5.1025
X3.119Y-5.03
X3.145Y-4.875
X3.1475Y-4.49
X3.15Y-4.775
X3.152Y-4.816
X3.161Y-4.976
X3.198Y-5.247
X3.21Y-4.255
X3.226Y-4.804
X3.25Y-5.0075
X3.253Y-4.182
X3.26Y-4.846
X3.267Y-4.748
X3.295Y-4.39
X3.304Y-5.114
X3.304Y-5.198
X3.376Y-5.156
X3.39Y-4.915
X3.418Y-5.071
X3.426Y-4.491
X3.43Y-4.97
X3.498Y-5.014
X3.51Y-4.75
X3.5175Y-4.79
X3.5175Y-4.88
X3.5225Y-4.6125
X3.554Y-4.797
X3.5675Y-4.87
X3.621Y-5.014
X3.635Y-4.8825
X3.6575Y-4.5925
X3.678Y-4.252
X3.6875Y-4.9225
X3.694Y-4.829
X3.721Y-4.871
X3.733Y-4.162
X3.748Y-4.82
X3.753Y-5.175
X3.76Y-4.29
X3.7625Y-4.4325
X3.7725Y-4.58
X3.775Y-4.917
X3.7775Y-4.7475
X3.782Y-5.219
X3.7825Y-4.785
X3.785Y-4.6275
X3.814Y-4.851
X3.8175Y-4.6575
X3.864Y-4.81
X3.864Y-5.174
X3.865Y-4.778
X3.8705Y-5.252
X3.885Y-4.535
X3.9025Y-4.42
X3.978Y-4.334
X4.047Y-4.413
X4.067Y-4.081
X4.078Y-4.15
X4.123Y-4.851
T4
X2.798Y-3.9595
X2.798Y-4.0595
X2.798Y-4.1595
X2.8Y-4.3
X2.8Y-4.4
X2.8Y-4.5
X2.8Y-4.6
X2.8Y-4.7
X2.8Y-4.8
X2.8Y-4.9
X2.8Y-5.
X2.8Y-5.1
X2.8Y-5.2
X2.9Y-4.
X2.9Y-4.1
X2.9Y-4.2
X2.9Y-4.3
X2.9Y-4.4
X3.05Y-4.35
X3.15Y-4.35
X3.3775Y-5.2175
X3.4775Y-5.0925
X3.4775Y-5.2175
X3.5775Y-5.0925
X3.5775Y-5.2175
X3.6775Y-5.0925
X3.6775Y-5.2175
X3.7775Y-5.0925
X4.113Y-5.103
X4.113Y-5.203
X4.118Y-4.543
X4.118Y-4.643
T2
X4.021Y-3.993G85X4.021Y-3.9753
G05
X4.021Y-4.1898G85X4.021Y-4.1721
G05
T3
X4.1361Y-3.9447G85X4.1184Y-3.9447
G05
X4.1361Y-4.2203G85X4.1184Y-4.2203
G05
T0
M30
