G04 #@! TF.FileFunction,Soldermask,Top*
%FSLAX46Y46*%
G04 Gerber Fmt 4.6, Leading zero omitted, Abs format (unit mm)*
G04 Created by KiCad (PCBNEW 4.0.1-stable) date 24/03/2016 3:42:33 PM*
%MOMM*%
G01*
G04 APERTURE LIST*
%ADD10C,0.100000*%
%ADD11R,0.800000X0.750000*%
%ADD12R,0.750000X0.800000*%
%ADD13C,1.300000*%
%ADD14R,1.300000X1.300000*%
%ADD15C,1.998980*%
%ADD16R,1.998980X1.998980*%
%ADD17R,1.600000X1.000000*%
%ADD18R,1.600000X0.560000*%
%ADD19R,0.560000X1.600000*%
%ADD20R,1.905000X1.905000*%
%ADD21C,1.905000*%
%ADD22R,0.900000X2.500000*%
%ADD23R,2.500000X0.900000*%
%ADD24R,2.032000X2.032000*%
%ADD25O,2.032000X2.032000*%
%ADD26R,1.350000X0.400000*%
%ADD27O,0.950000X1.250000*%
%ADD28O,1.550000X1.000000*%
%ADD29R,2.032000X1.727200*%
%ADD30O,2.032000X1.727200*%
%ADD31R,1.727200X1.727200*%
%ADD32O,1.727200X1.727200*%
%ADD33R,0.600000X0.900000*%
%ADD34R,0.900000X0.500000*%
%ADD35R,0.500000X0.900000*%
%ADD36R,0.900000X0.600000*%
%ADD37R,1.500000X0.600000*%
%ADD38R,0.304800X0.508000*%
%ADD39R,1.600200X2.999740*%
%ADD40R,1.600200X2.600960*%
G04 APERTURE END LIST*
D10*
D11*
X106795000Y-122555000D03*
X105295000Y-122555000D03*
X106795000Y-118745000D03*
X105295000Y-118745000D03*
D12*
X114887200Y-107633200D03*
X114887200Y-106133200D03*
D11*
X114213400Y-109029500D03*
X115713400Y-109029500D03*
D12*
X104521000Y-114351500D03*
X104521000Y-112851500D03*
D11*
X95238000Y-115316000D03*
X93738000Y-115316000D03*
X102604000Y-111760000D03*
X101104000Y-111760000D03*
D12*
X86360000Y-98945000D03*
X86360000Y-100445000D03*
X95059500Y-107557000D03*
X95059500Y-106057000D03*
X82423000Y-118098000D03*
X82423000Y-116598000D03*
X82550000Y-124956000D03*
X82550000Y-123456000D03*
D13*
X87670000Y-111760000D03*
D14*
X90170000Y-111760000D03*
D12*
X92456000Y-113804000D03*
X92456000Y-115304000D03*
D15*
X93342460Y-96520000D03*
D16*
X93342460Y-106680000D03*
D17*
X93345000Y-103100000D03*
X93345000Y-100100000D03*
D18*
X108720000Y-108140000D03*
X108720000Y-107340000D03*
X108720000Y-106540000D03*
X108720000Y-105740000D03*
X108720000Y-104940000D03*
X108720000Y-104140000D03*
X108720000Y-103340000D03*
X108720000Y-102540000D03*
X108720000Y-101740000D03*
X108720000Y-100940000D03*
X108720000Y-100140000D03*
D19*
X106870000Y-98290000D03*
X106070000Y-98290000D03*
X105270000Y-98290000D03*
X104470000Y-98290000D03*
X103670000Y-98290000D03*
X102870000Y-98290000D03*
X102070000Y-98290000D03*
X101270000Y-98290000D03*
X100470000Y-98290000D03*
X99670000Y-98290000D03*
X98870000Y-98290000D03*
D18*
X97020000Y-100140000D03*
X97020000Y-100940000D03*
X97020000Y-101740000D03*
X97020000Y-102540000D03*
X97020000Y-103340000D03*
X97020000Y-104140000D03*
X97020000Y-104940000D03*
X97020000Y-105740000D03*
X97020000Y-106540000D03*
X97020000Y-107340000D03*
X97020000Y-108140000D03*
D19*
X98870000Y-109990000D03*
X99670000Y-109990000D03*
X100470000Y-109990000D03*
X101270000Y-109990000D03*
X102070000Y-109990000D03*
X102870000Y-109990000D03*
X103670000Y-109990000D03*
X104470000Y-109990000D03*
X105270000Y-109990000D03*
X106070000Y-109990000D03*
X106870000Y-109990000D03*
D20*
X80444800Y-97917000D03*
D21*
X80444800Y-102997000D03*
D22*
X96721000Y-112649000D03*
X99621000Y-112649000D03*
D23*
X93980000Y-112321000D03*
X93980000Y-109421000D03*
D24*
X105918000Y-124460000D03*
D25*
X103378000Y-124460000D03*
D26*
X111340460Y-101910300D03*
X111340460Y-101260300D03*
X111340460Y-100610300D03*
X111340460Y-99960300D03*
X111340460Y-99310300D03*
D27*
X111340460Y-103110300D03*
X111340460Y-98110300D03*
D28*
X114040460Y-104110300D03*
X114040460Y-97110300D03*
D29*
X80444800Y-114427000D03*
D30*
X80444800Y-111887000D03*
X80444800Y-109347000D03*
X80444800Y-106807000D03*
D31*
X113795000Y-124307600D03*
D32*
X111255000Y-124307600D03*
X113795000Y-121767600D03*
X111255000Y-121767600D03*
D24*
X105918000Y-116840000D03*
D25*
X103378000Y-116840000D03*
D29*
X80444800Y-116967000D03*
D30*
X80444800Y-119507000D03*
X80444800Y-122047000D03*
X80444800Y-124587000D03*
D24*
X113706100Y-118224300D03*
D25*
X111166100Y-118224300D03*
D24*
X103378000Y-119380000D03*
D25*
X103378000Y-121920000D03*
D33*
X96139000Y-96136000D03*
X97089000Y-98936000D03*
X95189000Y-98936000D03*
D34*
X99060000Y-122670000D03*
X99060000Y-121170000D03*
X99060000Y-118566500D03*
X99060000Y-120066500D03*
X100647500Y-122670000D03*
X100647500Y-121170000D03*
X100647500Y-120066500D03*
X100647500Y-118566500D03*
D35*
X105676000Y-114300000D03*
X107176000Y-114300000D03*
X105676000Y-112903000D03*
X107176000Y-112903000D03*
D34*
X82550000Y-105930000D03*
X82550000Y-107430000D03*
X82550000Y-108470000D03*
X82550000Y-109970000D03*
X82550000Y-111010000D03*
X82550000Y-112510000D03*
X82550000Y-113550000D03*
X82550000Y-115050000D03*
X84328000Y-107430000D03*
X84328000Y-105930000D03*
X84328000Y-109970000D03*
X84328000Y-108470000D03*
X84328000Y-112510000D03*
X84328000Y-111010000D03*
X84328000Y-115050000D03*
X84328000Y-113550000D03*
X89395300Y-123570300D03*
X89395300Y-125070300D03*
X87871300Y-123570300D03*
X87871300Y-125070300D03*
X89281000Y-117971000D03*
X89281000Y-116471000D03*
X87630000Y-117971000D03*
X87630000Y-116471000D03*
D35*
X86372000Y-119634000D03*
X87872000Y-119634000D03*
X86372000Y-121920000D03*
X87872000Y-121920000D03*
X98818000Y-124079000D03*
X100318000Y-124079000D03*
D34*
X84455000Y-117971000D03*
X84455000Y-116471000D03*
X84709000Y-123583000D03*
X84709000Y-125083000D03*
D35*
X83324000Y-119634000D03*
X84824000Y-119634000D03*
X83324000Y-121920000D03*
X84824000Y-121920000D03*
X85332000Y-102946200D03*
X83832000Y-102946200D03*
X83832000Y-104546400D03*
X85332000Y-104546400D03*
X100318000Y-116840000D03*
X98818000Y-116840000D03*
D34*
X85979000Y-116471000D03*
X85979000Y-117971000D03*
X86233000Y-123583000D03*
X86233000Y-125083000D03*
D36*
X113464800Y-106807000D03*
X110664800Y-107757000D03*
X110664800Y-105857000D03*
D37*
X97213400Y-124485400D03*
X97213400Y-123215400D03*
X97213400Y-121945400D03*
X97213400Y-120675400D03*
X97213400Y-119405400D03*
X97213400Y-118135400D03*
X97213400Y-116865400D03*
X91813400Y-116865400D03*
X91813400Y-118135400D03*
X91813400Y-119405400D03*
X91813400Y-120675400D03*
X91813400Y-121945400D03*
X91813400Y-123215400D03*
X91813400Y-124485400D03*
D38*
X90195400Y-119710200D03*
X88925400Y-119710200D03*
X90195400Y-121742200D03*
X89560400Y-119710200D03*
X88925400Y-121742200D03*
X89560400Y-121742200D03*
X108140500Y-98488500D03*
X109410500Y-98488500D03*
X108140500Y-96456500D03*
X108775500Y-98488500D03*
X109410500Y-96456500D03*
X108775500Y-96456500D03*
D39*
X112448800Y-114696240D03*
X112448800Y-110296960D03*
D40*
X89535000Y-97259140D03*
X89535000Y-100860860D03*
D24*
X90604800Y-106807000D03*
D25*
X88064800Y-106807000D03*
D24*
X90604800Y-104267000D03*
D25*
X88064800Y-104267000D03*
M02*
