G04 #@! TF.FileFunction,Soldermask,Top*
%FSLAX46Y46*%
G04 Gerber Fmt 4.6, Leading zero omitted, Abs format (unit mm)*
G04 Created by KiCad (PCBNEW 4.0.4-stable) date 01/19/17 12:55:29*
%MOMM*%
%LPD*%
G01*
G04 APERTURE LIST*
%ADD10C,0.100000*%
%ADD11R,1.600200X2.600960*%
%ADD12R,1.600000X0.560000*%
%ADD13R,0.560000X1.600000*%
%ADD14R,1.350000X0.400000*%
%ADD15O,0.950000X1.400000*%
%ADD16O,1.550000X1.200000*%
%ADD17R,1.727200X2.032000*%
%ADD18O,1.727200X2.032000*%
%ADD19R,0.750000X0.800000*%
%ADD20R,0.800000X0.750000*%
%ADD21R,2.600960X1.600200*%
%ADD22R,2.499360X1.800860*%
%ADD23R,0.797560X0.797560*%
%ADD24R,1.000000X2.500000*%
%ADD25R,0.900000X1.700000*%
%ADD26R,2.032000X1.727200*%
%ADD27O,2.032000X1.727200*%
%ADD28R,1.727200X1.727200*%
%ADD29O,1.727200X1.727200*%
%ADD30R,2.032000X2.032000*%
%ADD31O,2.032000X2.032000*%
%ADD32R,0.600000X0.900000*%
%ADD33R,0.900000X0.500000*%
%ADD34R,0.500000X0.900000*%
%ADD35R,1.500000X0.600000*%
%ADD36R,0.304800X0.508000*%
%ADD37R,5.400040X2.900680*%
%ADD38R,5.400040X7.900680*%
G04 APERTURE END LIST*
D10*
D11*
X103187500Y-122214640D03*
X103187500Y-125816360D03*
D12*
X87723600Y-116573800D03*
X87723600Y-117373800D03*
X87723600Y-118173800D03*
X87723600Y-118973800D03*
X87723600Y-119773800D03*
X87723600Y-120573800D03*
X87723600Y-121373800D03*
X87723600Y-122173800D03*
X87723600Y-122973800D03*
X87723600Y-123773800D03*
X87723600Y-124573800D03*
D13*
X89573600Y-126423800D03*
X90373600Y-126423800D03*
X91173600Y-126423800D03*
X91973600Y-126423800D03*
X92773600Y-126423800D03*
X93573600Y-126423800D03*
X94373600Y-126423800D03*
X95173600Y-126423800D03*
X95973600Y-126423800D03*
X96773600Y-126423800D03*
X97573600Y-126423800D03*
D12*
X99423600Y-124573800D03*
X99423600Y-123773800D03*
X99423600Y-122973800D03*
X99423600Y-122173800D03*
X99423600Y-121373800D03*
X99423600Y-120573800D03*
X99423600Y-119773800D03*
X99423600Y-118973800D03*
X99423600Y-118173800D03*
X99423600Y-117373800D03*
X99423600Y-116573800D03*
D13*
X97573600Y-114723800D03*
X96773600Y-114723800D03*
X95973600Y-114723800D03*
X95173600Y-114723800D03*
X94373600Y-114723800D03*
X93573600Y-114723800D03*
X92773600Y-114723800D03*
X91973600Y-114723800D03*
X91173600Y-114723800D03*
X90373600Y-114723800D03*
X89573600Y-114723800D03*
D14*
X102132960Y-104996400D03*
X102132960Y-104346400D03*
X102132960Y-103696400D03*
X102132960Y-103046400D03*
X102132960Y-102396400D03*
D15*
X102132960Y-106196400D03*
X102132960Y-101196400D03*
D16*
X104832960Y-107196400D03*
X104832960Y-100196400D03*
D17*
X88328500Y-129349500D03*
D18*
X90868500Y-129349500D03*
X93408500Y-129349500D03*
X95948500Y-129349500D03*
D19*
X98374200Y-128459800D03*
X98374200Y-129959800D03*
D20*
X83630200Y-133273800D03*
X82130200Y-133273800D03*
X101421500Y-109029500D03*
X102921500Y-109029500D03*
D19*
X101219000Y-118312500D03*
X101219000Y-119812500D03*
X85915500Y-129312100D03*
X85915500Y-127812100D03*
X81597500Y-115455000D03*
X81597500Y-116955000D03*
X96202500Y-111454500D03*
X96202500Y-112954500D03*
D21*
X99146360Y-108077000D03*
X95544640Y-108077000D03*
D19*
X98044000Y-103136000D03*
X98044000Y-104636000D03*
D20*
X102056500Y-110807500D03*
X103556500Y-110807500D03*
D19*
X73215500Y-125845000D03*
X73215500Y-124345000D03*
X73152000Y-131610800D03*
X73152000Y-130110800D03*
D21*
X76812140Y-106172000D03*
X80413860Y-106172000D03*
D19*
X85852000Y-123178000D03*
X85852000Y-121678000D03*
X94805500Y-111454500D03*
X94805500Y-112954500D03*
D20*
X92087000Y-112712500D03*
X93587000Y-112712500D03*
D22*
X76614020Y-101727000D03*
X80611980Y-101727000D03*
D23*
X79260700Y-113030000D03*
X80759300Y-113030000D03*
D24*
X76808200Y-115824000D03*
X79808200Y-115824000D03*
D25*
X100522700Y-112318800D03*
X97622700Y-112318800D03*
X88318000Y-113919000D03*
X85418000Y-113919000D03*
X83005000Y-116332000D03*
X85905000Y-116332000D03*
D26*
X71120000Y-114300000D03*
D27*
X71120000Y-116840000D03*
X71120000Y-119380000D03*
X71120000Y-121920000D03*
D28*
X71120000Y-109220000D03*
D29*
X73660000Y-109220000D03*
X71120000Y-111760000D03*
X73660000Y-111760000D03*
D17*
X85788500Y-132524500D03*
D18*
X88328500Y-132524500D03*
X90868500Y-132524500D03*
X93408500Y-132524500D03*
D26*
X71120000Y-124460000D03*
D27*
X71120000Y-127000000D03*
X71120000Y-129540000D03*
X71120000Y-132080000D03*
D30*
X77470000Y-110490000D03*
D31*
X80010000Y-110490000D03*
D30*
X104470200Y-129616200D03*
D31*
X104470200Y-132156200D03*
D26*
X71069200Y-100571300D03*
D27*
X71069200Y-103111300D03*
X71069200Y-105651300D03*
D26*
X73660000Y-101600000D03*
D27*
X73660000Y-104140000D03*
X73660000Y-106680000D03*
D32*
X95758000Y-100200000D03*
X96708000Y-103000000D03*
X94808000Y-103000000D03*
D33*
X82753200Y-132068000D03*
X82753200Y-130568000D03*
X81788000Y-127951800D03*
X81788000Y-129451800D03*
X81127600Y-132068000D03*
X81127600Y-130568000D03*
X80187800Y-129451800D03*
X80187800Y-127951800D03*
D34*
X84684300Y-129324100D03*
X83184300Y-129324100D03*
X84684300Y-127850900D03*
X83184300Y-127850900D03*
D33*
X73101200Y-121525600D03*
X73101200Y-123025600D03*
X73101200Y-119011000D03*
X73101200Y-120511000D03*
X73101200Y-116420200D03*
X73101200Y-117920200D03*
X73101200Y-113880200D03*
X73101200Y-115380200D03*
X74498200Y-123025600D03*
X74498200Y-121525600D03*
X74498200Y-120511000D03*
X74498200Y-119011000D03*
X74498200Y-117920200D03*
X74498200Y-116420200D03*
X74498200Y-115380200D03*
X74498200Y-113880200D03*
D34*
X78320200Y-132994400D03*
X79820200Y-132994400D03*
X77482000Y-131673600D03*
X78982000Y-131673600D03*
X74535600Y-128676400D03*
X76035600Y-128676400D03*
D33*
X73304400Y-127418400D03*
X73304400Y-128918400D03*
X76327000Y-125718000D03*
X76327000Y-124218000D03*
D34*
X75805600Y-132994400D03*
X77305600Y-132994400D03*
D33*
X85852000Y-124345000D03*
X85852000Y-125845000D03*
D34*
X74497500Y-127063500D03*
X75997500Y-127063500D03*
X73164000Y-132994400D03*
X74664000Y-132994400D03*
D33*
X74739500Y-124154500D03*
X74739500Y-125654500D03*
X74726800Y-130161600D03*
X74726800Y-131661600D03*
D34*
X82562000Y-112776000D03*
X84062000Y-112776000D03*
X84062000Y-114300000D03*
X82562000Y-114300000D03*
D33*
X85826600Y-120384000D03*
X85826600Y-118884000D03*
X77025500Y-118947500D03*
X77025500Y-120447500D03*
X76250800Y-130212400D03*
X76250800Y-131712400D03*
X98056700Y-100265800D03*
X98056700Y-101765800D03*
D34*
X76593000Y-113030000D03*
X78093000Y-113030000D03*
D32*
X102806500Y-115065000D03*
X101856500Y-112265000D03*
X103756500Y-112265000D03*
D35*
X84234000Y-126365000D03*
X84234000Y-125095000D03*
X84234000Y-123825000D03*
X84234000Y-122555000D03*
X84234000Y-121285000D03*
X84234000Y-120015000D03*
X84234000Y-118745000D03*
X78834000Y-118745000D03*
X78834000Y-120015000D03*
X78834000Y-121285000D03*
X78834000Y-122555000D03*
X78834000Y-123825000D03*
X78834000Y-125095000D03*
X78834000Y-126365000D03*
D36*
X78613000Y-128320800D03*
X77343000Y-128320800D03*
X78613000Y-130352800D03*
X77978000Y-128320800D03*
X77343000Y-130352800D03*
X77978000Y-130352800D03*
X96215200Y-133400800D03*
X97485200Y-133400800D03*
X96215200Y-131368800D03*
X96850200Y-133400800D03*
X97485200Y-131368800D03*
X96850200Y-131368800D03*
D30*
X104597200Y-115392200D03*
D31*
X104597200Y-117932200D03*
D19*
X99580700Y-100265800D03*
X99580700Y-101765800D03*
D37*
X88138000Y-100916740D03*
D38*
X88138000Y-108418126D03*
M02*
